<?xml version="1.0" encoding="utf-8"?>
<!-- Generator: Adobe Illustrator 17.0.0, SVG Export Plug-In . SVG Version: 6.00 Build 0)  -->
<!DOCTYPE svg PUBLIC "-//W3C//DTD SVG 1.1//EN" "http://www.w3.org/Graphics/SVG/1.1/DTD/svg11.dtd">
<svg version="1.1" id="Layer_1" xmlns="http://www.w3.org/2000/svg" xmlns:xlink="http://www.w3.org/1999/xlink" x="0px" y="0px"
	 width="36px" height="36px" viewBox="0 0 36 36" enable-background="new 0 0 36 36" xml:space="preserve">
<g>
	<g>
		<path fill="#DD4B38" d="M18.496,9.443c-4.635,0-8.337,3.657-8.557,8.236c-0.008,0.143-0.037,0.262,0.066,0.364
			c0.069,0.068,0.312,0.068,0.312,0.068h2.36c0,0,0.296,0.02,0.382-0.064c0.113-0.113,0.101-0.254,0.111-0.41
			c0.145-2.24,1.319-3.998,3.187-4.749c-0.004-0.025,0.157-0.105,0.437-0.181c-0.01-0.076-0.018-0.154-0.018-0.233
			c0-0.936,0.759-1.695,1.694-1.695c0.936,0,1.694,0.759,1.694,1.695c0,0.097-0.009,0.192-0.025,0.284
			c0.304,0.058,0.5,0.11,0.496,0.132c1.883,0.763,3.04,2.562,3.151,4.85c0.007,0.122,0.051,0.215,0.139,0.304
			c0.076,0.076,0.303,0.066,0.303,0.066h2.549c0,0,0.193,0.019,0.261-0.05c0.083-0.083,0.124-0.185,0.119-0.302
			C26.971,13.142,23.157,9.443,18.496,9.443z"/>
		<path fill="#DD4B38" d="M26.875,18.543h-2.758c0,0-0.289-0.007-0.37,0.033c-0.063,0.032-0.166,0.191-0.166,0.191l-3.52,4.654
			l-0.548,0.73c0.411,0.309,0.678,0.799,0.678,1.352c0,0.936-0.758,1.694-1.694,1.694c-0.936,0-1.695-0.758-1.695-1.694
			c0-0.552,0.266-1.04,0.674-1.349l-0.549-0.727l-3.653-4.78c0,0-0.052-0.057-0.08-0.072c-0.041-0.02-0.179-0.032-0.179-0.032h-2.96
			c0,0-0.102-0.007-0.127,0.044c-0.02,0.042,0.018,0.101,0.018,0.101l4.003,4.959l4.348,5.387c0,0,0.164,0.157,0.272,0.157
			c0.1,0,0.248-0.133,0.248-0.133l4.082-5.141l4.068-5.122c0,0,0.101-0.126,0.066-0.198C26.998,18.531,26.875,18.543,26.875,18.543z
			"/>
		<path fill="#DD4B38" d="M16.794,12.708c0.114,0.825,0.82,1.461,1.676,1.461c0.839,0,1.533-0.61,1.669-1.409
			c-0.523-0.1-1.37-0.214-2.085-0.212C17.53,12.548,17.094,12.625,16.794,12.708z"/>
		<path fill="#DD4B38" d="M19.512,24.15c-0.283-0.213-0.634-0.341-1.016-0.341c-0.384,0-0.736,0.129-1.02,0.345l1.02,1.349
			L19.512,24.15z"/>
	</g>
</g>
</svg>
