<?xml version="1.0" encoding="utf-8"?>
<!-- Generator: Adobe Illustrator 17.0.0, SVG Export Plug-In . SVG Version: 6.00 Build 0)  -->
<!DOCTYPE svg PUBLIC "-//W3C//DTD SVG 1.1//EN" "http://www.w3.org/Graphics/SVG/1.1/DTD/svg11.dtd">
<svg version="1.1" id="Layer_1" xmlns="http://www.w3.org/2000/svg" xmlns:xlink="http://www.w3.org/1999/xlink" x="0px" y="0px"
	 width="648.065px" height="225.023px" viewBox="0 0 648.065 225.023" enable-background="new 0 0 648.065 225.023"
	 xml:space="preserve">
<g>
	<g>
		<path fill="#FFFFFF" d="M300.836,163.753c0,0.5-0.179,0.928-0.533,1.283c-0.356,0.355-0.783,0.533-1.283,0.533
			c-0.499,0-0.927-0.178-1.282-0.533s-0.533-0.783-0.533-1.283v-15.8l-10.602-15.867c-0.197-0.303-0.295-0.644-0.295-1.021
			c0-0.5,0.178-0.927,0.533-1.283c0.355-0.355,0.783-0.533,1.282-0.533c0.621,0,1.112,0.25,1.476,0.749l9.421,14.12l9.421-14.12
			c0.363-0.499,0.854-0.749,1.476-0.749c0.499,0,0.927,0.178,1.282,0.533c0.355,0.356,0.534,0.783,0.534,1.283
			c0,0.378-0.099,0.719-0.295,1.021l-10.602,15.867V163.753z"/>
		<path fill="#FFFFFF" d="M332.844,152.856c0,3.512-1.241,6.508-3.724,8.99c-2.481,2.481-5.479,3.723-8.989,3.723
			s-6.508-1.241-8.989-3.723c-2.482-2.482-3.723-5.479-3.723-8.99c0-3.511,1.24-6.507,3.723-8.989
			c2.481-2.481,5.479-3.723,8.989-3.723s6.508,1.241,8.989,3.723C331.603,146.349,332.844,149.345,332.844,152.856z
			 M320.131,143.776c-2.512,0-4.653,0.886-6.424,2.656s-2.656,3.912-2.656,6.424c0,2.513,0.886,4.654,2.656,6.425
			s3.912,2.656,6.424,2.656s4.654-0.886,6.425-2.656s2.655-3.912,2.655-6.425c0-2.512-0.885-4.653-2.655-6.424
			S322.643,143.776,320.131,143.776z"/>
		<path fill="#FFFFFF" d="M360.085,163.753c0,0.5-0.178,0.928-0.533,1.283c-0.356,0.355-0.783,0.533-1.283,0.533
			c-0.499,0-0.927-0.178-1.282-0.533s-0.533-0.783-0.533-1.283v-1.476c-2.271,2.195-4.994,3.292-8.173,3.292
			c-3.254,0-6.034-1.154-8.342-3.462c-2.309-2.308-3.462-5.089-3.462-8.343v-11.804c0-0.5,0.178-0.927,0.533-1.283
			c0.355-0.355,0.783-0.533,1.282-0.533c0.5,0,0.927,0.178,1.283,0.533c0.355,0.356,0.533,0.783,0.533,1.283v11.804
			c0,2.256,0.798,4.181,2.395,5.777s3.522,2.396,5.777,2.396s4.181-0.799,5.777-2.396s2.396-3.521,2.396-5.777v-11.804
			c0-0.5,0.178-0.927,0.533-1.283c0.355-0.355,0.783-0.533,1.282-0.533c0.5,0,0.927,0.178,1.283,0.533
			c0.355,0.356,0.533,0.783,0.533,1.283V163.753z"/>
		<path fill="#FFFFFF" d="M380.198,164.457l-12.849-25.697v24.993c0,0.5-0.178,0.928-0.533,1.283
			c-0.356,0.355-0.783,0.533-1.283,0.533c-0.499,0-0.927-0.178-1.282-0.533s-0.533-0.783-0.533-1.283v-32.688
			c0-0.5,0.178-0.927,0.533-1.283c0.355-0.355,0.783-0.533,1.282-0.533c0.727,0,1.264,0.317,1.612,0.953l14.732,29.488
			l14.733-29.488c0.348-0.636,0.885-0.953,1.611-0.953c0.499,0,0.927,0.178,1.282,0.533c0.355,0.356,0.534,0.783,0.534,1.283v32.688
			c0,0.5-0.179,0.928-0.534,1.283s-0.783,0.533-1.282,0.533s-0.927-0.178-1.282-0.533c-0.356-0.355-0.534-0.783-0.534-1.283V138.76
			l-12.962,25.924c-0.317,0.591-0.84,0.886-1.566,0.886C381.121,165.569,380.561,165.198,380.198,164.457z"/>
		<path fill="#FFFFFF" d="M425.463,161.756c-2.542,2.542-5.569,3.813-9.08,3.813s-6.508-1.241-8.989-3.723
			c-2.482-2.482-3.723-5.479-3.723-8.99c0-3.511,1.24-6.507,3.723-8.989c2.481-2.481,5.479-3.723,8.989-3.723
			s6.508,1.241,8.989,3.723c2.482,2.482,3.724,5.479,3.724,8.989v10.896c0,0.5-0.179,0.928-0.534,1.283s-0.783,0.533-1.282,0.533
			s-0.927-0.178-1.282-0.533c-0.356-0.355-0.534-0.783-0.534-1.283V161.756z M416.383,143.776c-2.512,0-4.653,0.886-6.424,2.656
			s-2.656,3.912-2.656,6.424c0,2.513,0.886,4.654,2.656,6.425s3.912,2.656,6.424,2.656s4.654-0.886,6.425-2.656
			s2.655-3.912,2.655-6.425c0-2.512-0.885-4.653-2.655-6.424S418.895,143.776,416.383,143.776z"/>
		<path fill="#FFFFFF" d="M445.44,161.937c0.5,0,0.927,0.178,1.283,0.533c0.354,0.355,0.533,0.783,0.533,1.282
			c0,0.5-0.179,0.928-0.533,1.283c-0.356,0.355-0.783,0.533-1.283,0.533c-6.054,0-9.08-3.026-9.08-9.08v-12.713h-1.816
			c-0.499,0-0.927-0.178-1.282-0.533s-0.533-0.783-0.533-1.282c0-0.5,0.178-0.927,0.533-1.283c0.355-0.355,0.783-0.533,1.282-0.533
			h1.816v-9.08c0-0.5,0.178-0.927,0.533-1.283c0.355-0.355,0.783-0.533,1.283-0.533c0.499,0,0.927,0.178,1.282,0.533
			c0.355,0.356,0.533,0.783,0.533,1.283v9.08h3.655c0.499,0,0.927,0.178,1.282,0.533c0.355,0.356,0.533,0.783,0.533,1.283
			c0,0.499-0.178,0.927-0.533,1.282s-0.783,0.533-1.282,0.533h-3.655v12.713C439.992,160.121,441.808,161.937,445.44,161.937z"/>
		<path fill="#FFFFFF" d="M469.253,159.394c0.499,0,0.927,0.179,1.282,0.533c0.355,0.356,0.533,0.783,0.533,1.283
			c0,0.499-0.174,0.931-0.521,1.294c-2.346,2.043-5.107,3.064-8.286,3.064c-3.511,0-6.508-1.241-8.989-3.723
			c-2.482-2.482-3.723-5.479-3.723-8.99c0-3.511,1.24-6.507,3.723-8.989c2.481-2.481,5.479-3.723,8.989-3.723
			s6.508,1.241,8.989,3.723c2.482,2.482,3.724,5.479,3.724,8.989c0,0.5-0.179,0.928-0.534,1.283s-0.783,0.533-1.282,0.533H453.34
			c0.332,1.74,1.165,3.276,2.497,4.608c1.771,1.771,3.912,2.656,6.424,2.656c2.271,0,4.223-0.719,5.857-2.157
			C468.451,159.523,468.83,159.394,469.253,159.394z M471.183,151.041c-0.333-1.74-1.166-3.276-2.497-4.608
			c-1.771-1.771-3.913-2.656-6.425-2.656s-4.653,0.886-6.424,2.656c-1.332,1.332-2.165,2.868-2.497,4.608H471.183z"/>
	</g>
	<g>
		<g>
			<g>
				<path fill="#FFFFFF" d="M243.527,41.569c-30.13,0-54.201,23.773-55.631,53.547c-0.046,0.929-0.237,1.7,0.429,2.363
					c0.445,0.447,2.032,0.443,2.032,0.443h15.341c0,0,1.933,0.132,2.482-0.417c0.733-0.734,0.655-1.649,0.721-2.659
					c0.941-14.566,8.572-25.997,20.725-30.873c-0.027-0.163,1.021-0.685,2.841-1.18c-0.07-0.497-0.117-1.001-0.117-1.515
					c0-6.084,4.931-11.015,11.012-11.015c6.085,0,11.016,4.931,11.016,11.015c0,0.629-0.066,1.246-0.17,1.849
					c1.976,0.376,3.247,0.718,3.226,0.859c12.244,4.959,19.763,16.659,20.492,31.533c0.037,0.792,0.327,1.402,0.9,1.976
					c0.498,0.495,1.967,0.427,1.967,0.427h16.572c0,0,1.25,0.121,1.697-0.325c0.542-0.541,0.804-1.206,0.773-1.966
					C298.63,65.616,273.835,41.569,243.527,41.569z"/>
			</g>
		</g>
		<g>
			<g>
				<path fill="#FFFFFF" d="M298.005,100.732h-17.931c0,0-1.876-0.049-2.407,0.218c-0.409,0.202-1.075,1.236-1.075,1.236
					l-22.888,30.258l-3.566,4.745c2.668,2.007,4.404,5.197,4.404,8.794c0,6.082-4.932,11.014-11.016,11.014
					c-6.081,0-11.012-4.932-11.012-11.014c0-3.588,1.725-6.766,4.384-8.777l-3.572-4.729l-23.754-31.068
					c0,0-0.334-0.377-0.522-0.472c-0.263-0.132-1.166-0.205-1.166-0.205h-19.248c0,0-0.662-0.047-0.819,0.283
					c-0.131,0.274,0.119,0.655,0.119,0.655l26.022,32.246l28.264,35.02c0,0,1.066,1.023,1.768,1.02
					c0.648-0.001,1.61-0.864,1.61-0.864l26.538-33.422l26.444-33.302c0,0,0.657-0.818,0.432-1.288
					C298.809,100.654,298.005,100.732,298.005,100.732z"/>
			</g>
		</g>
		<g>
			<g>
				<path fill="#FFFFFF" d="M232.466,62.794c0.737,5.362,5.327,9.497,10.895,9.497c5.45,0,9.966-3.964,10.846-9.163
					c-3.401-0.646-8.903-1.393-13.555-1.382C237.254,61.753,234.414,62.259,232.466,62.794z"/>
			</g>
		</g>
		<g>
			<g>
				<path fill="#FFFFFF" d="M250.138,137.189c-1.844-1.386-4.127-2.218-6.611-2.218c-2.492,0-4.784,0.837-6.628,2.234l6.628,8.777
					L250.138,137.189z"/>
			</g>
		</g>
	</g>
</g>
</svg>
