<?xml version="1.0" encoding="utf-8"?>
<!-- Generator: Adobe Illustrator 16.0.0, SVG Export Plug-In . SVG Version: 6.00 Build 0)  -->
<!DOCTYPE svg PUBLIC "-//W3C//DTD SVG 1.1//EN" "http://www.w3.org/Graphics/SVG/1.1/DTD/svg11.dtd">
<svg version="1.1" id="Layer_1" xmlns="http://www.w3.org/2000/svg" xmlns:xlink="http://www.w3.org/1999/xlink" x="0px" y="0px"
	 width="2048px" height="1556px" viewBox="0 0 2048 1556" enable-background="new 0 0 2048 1556" xml:space="preserve">
<pattern  width="203.112" height="155.29" patternUnits="userSpaceOnUse" id="New_Pattern" viewBox="0 -155.29 203.112 155.29" overflow="visible">
	<g>
		<polygon fill="none" points="0,-155.29 203.112,-155.29 203.112,0 0,0 		"/>
		<g opacity="0.3">
			<path d="M55.759,0c29.837,0,53.673-23.546,55.09-53.028c0.043-0.919,0.233-1.68-0.427-2.339
				c-0.441-0.443-2.013-0.438-2.013-0.438H93.219c0,0-1.913-0.13-2.458,0.413c-0.728,0.726-0.649,1.634-0.712,2.634
				c-0.933,14.423-8.492,25.742-20.522,30.571c0.025,0.16-1.012,0.677-2.813,1.169c0.067,0.489,0.116,0.99,0.116,1.497
				c0,6.026-4.884,10.906-10.904,10.906c-6.025,0-10.908-4.88-10.908-10.906c0-0.623,0.065-1.234,0.167-1.832
				c-1.957-0.369-3.215-0.709-3.196-0.849C29.867-27.114,22.42-38.701,21.7-53.426c-0.037-0.786-0.324-1.39-0.893-1.955
				c-0.492-0.494-1.948-0.423-1.948-0.423H2.451c0,0-1.239-0.12-1.681,0.32c-0.538,0.538-0.798,1.196-0.768,1.948
				C1.196-23.814,25.748,0,55.759,0z"/>
		</g>
		<g opacity="0.3">
			<path d="M1.815-58.587h17.756c0,0,1.856,0.049,2.383-0.215c0.405-0.201,1.064-1.224,1.064-1.224l22.663-29.963l3.532-4.699
				c-2.643-1.987-4.36-5.146-4.36-8.705c0-6.026,4.882-10.908,10.906-10.908c6.022,0,10.905,4.882,10.905,10.908
				c0,3.55-1.709,6.698-4.341,8.689l3.536,4.683l23.524,30.765c0,0,0.329,0.375,0.517,0.467c0.26,0.126,1.154,0.203,1.154,0.203
				h19.06c0,0,0.656,0.043,0.811-0.281c0.13-0.271-0.117-0.651-0.117-0.651L85.04-91.448l-27.989-34.675
				c0,0-1.054-1.013-1.749-1.012c-0.642,0.002-1.595,0.856-1.595,0.856L27.429-93.184L1.243-60.207c0,0-0.652,0.811-0.426,1.274
				C1.019-58.513,1.815-58.587,1.815-58.587z"/>
		</g>
		<g opacity="0.3">
			<path d="M66.714-21.018c-0.732-5.313-5.278-9.407-10.789-9.407c-5.398,0-9.869,3.924-10.741,9.072
				c3.368,0.641,8.816,1.383,13.421,1.369C61.972-19.989,64.783-20.493,66.714-21.018z"/>
		</g>
		<g opacity="0.3">
			<path d="M49.213-94.688c1.825,1.374,4.086,2.199,6.546,2.199c2.468,0,4.739-0.833,6.564-2.215l-6.564-8.689L49.213-94.688z"/>
		</g>
		<g opacity="0.3">
			<path d="M147.352-155.29c-29.836,0-53.671,23.543-55.088,53.022c-0.044,0.921-0.235,1.682,0.425,2.339
				c0.442,0.443,2.014,0.44,2.014,0.44h15.19c0,0,1.913,0.128,2.457-0.411c0.728-0.73,0.65-1.635,0.715-2.636
				c0.933-14.425,8.49-25.742,20.521-30.572c-0.026-0.161,1.011-0.677,2.812-1.169c-0.066-0.489-0.116-0.99-0.116-1.499
				c0-6.026,4.884-10.906,10.905-10.906c6.026,0,10.907,4.88,10.907,10.906c0,0.625-0.064,1.235-0.167,1.834
				c1.956,0.369,3.215,0.708,3.195,0.849c12.124,4.911,19.569,16.498,20.291,31.225c0.037,0.786,0.325,1.39,0.893,1.955
				c0.489,0.494,1.948,0.423,1.948,0.423h16.409c0,0,1.239,0.121,1.68-0.319c0.538-0.541,0.798-1.196,0.768-1.947
				C201.915-131.479,177.365-155.29,147.352-155.29z"/>
		</g>
		<g opacity="0.3">
			<path d="M201.296-96.708h-17.754c0,0-1.856-0.047-2.384,0.217c-0.404,0.201-1.064,1.224-1.064,1.224l-22.664,29.965l-3.53,4.695
				c2.643,1.989,4.359,5.146,4.359,8.71c0,6.022-4.883,10.906-10.906,10.906c-6.022,0-10.904-4.884-10.904-10.906
				c0-3.554,1.707-6.701,4.34-8.694l-3.536-4.679l-23.523-30.767c0,0-0.33-0.376-0.517-0.467c-0.26-0.128-1.154-0.205-1.154-0.205
				h-19.06c0,0-0.657-0.043-0.812,0.282c-0.129,0.27,0.117,0.65,0.117,0.65l25.768,31.929l27.988,34.678c0,0,1.053,1.012,1.749,1.01
				c0.642-0.003,1.596-0.856,1.596-0.856l26.279-33.095l26.182-32.979c0,0,0.655-0.809,0.431-1.274
				C202.094-96.781,201.296-96.708,201.296-96.708z"/>
		</g>
		<g opacity="0.3">
			<path d="M136.397-134.276c0.732,5.311,5.278,9.405,10.79,9.405c5.397,0,9.87-3.923,10.74-9.07
				c-3.369-0.643-8.815-1.381-13.421-1.371C141.14-135.304,138.328-134.803,136.397-134.276z"/>
		</g>
		<g opacity="0.3">
			<path d="M153.899-60.607c-1.826-1.372-4.087-2.196-6.547-2.196c-2.467,0-4.738,0.829-6.564,2.212l6.564,8.694L153.899-60.607z"/>
		</g>
	</g>
</pattern>
<rect x="-146.022" y="-0.751" fill="#494547" width="2346.368" height="1557.502"/>
<pattern  id="SVGID_1_" xlink:href="#New_Pattern" patternTransform="matrix(1 0 0 1 72.6523 111.71)">
</pattern>
<rect x="-146.022" y="-0.751" fill="url(#SVGID_1_)" width="2346.368" height="1557.502"/>
</svg>
