<?xml version="1.0" encoding="utf-8"?>
<!-- Generator: Adobe Illustrator 15.0.0, SVG Export Plug-In . SVG Version: 6.00 Build 0)  -->
<!DOCTYPE svg PUBLIC "-//W3C//DTD SVG 1.1//EN" "http://www.w3.org/Graphics/SVG/1.1/DTD/svg11.dtd">
<svg version="1.1" id="Layer_1" xmlns="http://www.w3.org/2000/svg" xmlns:xlink="http://www.w3.org/1999/xlink" x="0px" y="0px"
	 width="123.191px" height="64px" viewBox="0 0 123.191 64" enable-background="new 0 0 123.191 64" xml:space="preserve">
<g>
	<g>
		<path fill="#FFFFFF" d="M48.433,56.674c0,0.215-0.076,0.398-0.229,0.551c-0.151,0.152-0.335,0.229-0.549,0.229
			c-0.214,0-0.397-0.076-0.55-0.229s-0.228-0.336-0.228-0.551v-6.768l-4.542-6.797c-0.084-0.131-0.126-0.276-0.126-0.438
			c0-0.215,0.076-0.397,0.228-0.55c0.152-0.153,0.336-0.229,0.549-0.229c0.266,0,0.476,0.107,0.632,0.322l4.036,6.048l4.035-6.048
			c0.155-0.215,0.366-0.322,0.633-0.322c0.213,0,0.397,0.076,0.549,0.229c0.152,0.152,0.229,0.335,0.229,0.55
			c0,0.161-0.042,0.307-0.126,0.438l-4.542,6.797V56.674L48.433,56.674z"/>
		<path fill="#FFFFFF" d="M62.145,52.007c0,1.504-0.531,2.787-1.595,3.851c-1.063,1.062-2.348,1.596-3.851,1.596
			c-1.504,0-2.788-0.532-3.851-1.596s-1.595-2.347-1.595-3.851s0.531-2.788,1.595-3.852c1.063-1.063,2.347-1.595,3.851-1.595
			c1.503,0,2.788,0.531,3.851,1.595S62.145,50.503,62.145,52.007z M56.699,48.118c-1.076,0-1.993,0.38-2.752,1.138
			c-0.758,0.759-1.137,1.676-1.137,2.752c0,1.077,0.379,1.992,1.137,2.753c0.759,0.758,1.677,1.137,2.752,1.137
			c1.076,0,1.994-0.379,2.752-1.137c0.759-0.76,1.138-1.676,1.138-2.753c0-1.076-0.38-1.993-1.138-2.752
			C58.693,48.498,57.775,48.118,56.699,48.118z"/>
		<path fill="#FFFFFF" d="M73.815,56.674c0,0.215-0.077,0.398-0.229,0.551c-0.151,0.152-0.335,0.229-0.549,0.229
			c-0.215,0-0.397-0.076-0.549-0.229c-0.152-0.152-0.229-0.336-0.229-0.551v-0.631c-0.973,0.94-2.139,1.41-3.502,1.41
			c-1.393,0-2.584-0.495-3.573-1.483c-0.989-0.989-1.483-2.18-1.483-3.573v-5.059c0-0.214,0.076-0.396,0.228-0.548
			c0.152-0.153,0.336-0.229,0.55-0.229c0.215,0,0.397,0.076,0.55,0.229c0.151,0.151,0.229,0.334,0.229,0.548v5.059
			c0,0.967,0.341,1.79,1.025,2.474c0.684,0.685,1.509,1.026,2.475,1.026c0.966,0,1.791-0.341,2.475-1.026
			c0.685-0.684,1.026-1.507,1.026-2.474v-5.059c0-0.214,0.076-0.396,0.229-0.548c0.153-0.153,0.335-0.229,0.549-0.229
			c0.213,0,0.397,0.076,0.55,0.229c0.152,0.151,0.228,0.334,0.228,0.548v9.336H73.815z"/>
		<path fill="#FFFFFF" d="M82.431,56.976l-5.504-11.008v10.706c0,0.215-0.076,0.398-0.229,0.551
			c-0.152,0.152-0.335,0.229-0.55,0.229c-0.213,0-0.396-0.076-0.549-0.229c-0.151-0.152-0.228-0.336-0.228-0.551V42.672
			c0-0.215,0.077-0.397,0.228-0.55c0.153-0.153,0.336-0.229,0.549-0.229c0.312,0,0.542,0.138,0.691,0.408l6.311,12.633l6.312-12.633
			c0.149-0.271,0.379-0.408,0.69-0.408c0.213,0,0.397,0.076,0.55,0.229c0.152,0.152,0.228,0.335,0.228,0.55v14.002
			c0,0.215-0.075,0.398-0.228,0.551s-0.336,0.229-0.55,0.229c-0.214,0-0.397-0.076-0.549-0.229s-0.229-0.336-0.229-0.551V45.968
			l-5.552,11.106c-0.136,0.253-0.36,0.379-0.671,0.379C82.826,57.454,82.586,57.295,82.431,56.976z"/>
		<path fill="#FFFFFF" d="M101.822,55.82c-1.088,1.09-2.386,1.634-3.89,1.634s-2.788-0.532-3.85-1.596
			c-1.063-1.063-1.595-2.347-1.595-3.851c0-1.505,0.532-2.788,1.595-3.852c1.062-1.063,2.346-1.595,3.85-1.595
			s2.787,0.531,3.851,1.595c1.062,1.063,1.596,2.348,1.596,3.852v4.667c0,0.215-0.076,0.397-0.23,0.551
			c-0.152,0.151-0.334,0.228-0.549,0.228c-0.213,0-0.396-0.076-0.549-0.228c-0.15-0.153-0.229-0.336-0.229-0.551V55.82
			L101.822,55.82z M97.932,48.118c-1.076,0-1.992,0.38-2.752,1.138c-0.759,0.759-1.138,1.676-1.138,2.752
			c0,1.077,0.38,1.992,1.138,2.753c0.759,0.758,1.676,1.137,2.752,1.137s1.993-0.379,2.754-1.137
			c0.757-0.76,1.136-1.676,1.136-2.753c0-1.076-0.379-1.993-1.136-2.752C99.926,48.498,99.008,48.118,97.932,48.118z"/>
		<path fill="#FFFFFF" d="M110.381,55.897c0.215,0,0.396,0.077,0.549,0.229s0.229,0.335,0.229,0.549
			c0,0.215-0.076,0.397-0.229,0.551c-0.152,0.151-0.334,0.228-0.549,0.228c-2.594,0-3.891-1.296-3.891-3.89v-5.446h-0.777
			c-0.213,0-0.396-0.076-0.551-0.229c-0.15-0.151-0.227-0.335-0.227-0.55c0-0.214,0.076-0.396,0.227-0.548
			c0.154-0.153,0.338-0.229,0.551-0.229h0.777v-3.89c0-0.214,0.076-0.396,0.229-0.55c0.152-0.152,0.336-0.229,0.549-0.229
			c0.215,0,0.398,0.076,0.551,0.229c0.152,0.153,0.227,0.336,0.227,0.55v3.89h1.568c0.211,0,0.396,0.076,0.549,0.229
			c0.15,0.151,0.227,0.334,0.227,0.548c0,0.215-0.076,0.398-0.227,0.55c-0.152,0.152-0.338,0.229-0.549,0.229h-1.568v5.446
			C108.045,55.12,108.824,55.897,110.381,55.897z"/>
		<path fill="#FFFFFF" d="M120.582,54.808c0.213,0,0.396,0.076,0.549,0.228c0.15,0.154,0.229,0.337,0.229,0.55
			c0,0.214-0.074,0.4-0.225,0.555c-1.004,0.876-2.186,1.312-3.549,1.312c-1.504,0-2.787-0.532-3.852-1.595
			c-1.062-1.063-1.596-2.348-1.596-3.852s0.533-2.787,1.596-3.852c1.064-1.062,2.348-1.594,3.852-1.594s2.789,0.531,3.852,1.594
			c1.062,1.064,1.594,2.349,1.594,3.852c0,0.215-0.076,0.397-0.227,0.55c-0.152,0.152-0.336,0.229-0.551,0.229h-8.49
			c0.143,0.745,0.5,1.403,1.07,1.974c0.76,0.759,1.676,1.138,2.752,1.138c0.973,0,1.809-0.308,2.51-0.924
			C120.238,54.864,120.4,54.808,120.582,54.808z M121.408,51.229c-0.143-0.744-0.5-1.402-1.07-1.974
			c-0.758-0.758-1.676-1.138-2.752-1.138s-1.992,0.38-2.752,1.138c-0.57,0.571-0.928,1.229-1.07,1.974H121.408z"/>
	</g>
	<g>
		<g>
			<g>
				<path fill="#FFFFFF" d="M23.882,4.333c-12.907,0-23.219,10.184-23.832,22.939C0.03,27.669-0.051,28,0.234,28.284
					c0.19,0.191,0.87,0.19,0.87,0.19h6.572c0,0,0.828,0.056,1.063-0.18c0.314-0.313,0.28-0.706,0.309-1.138
					c0.403-6.241,3.672-11.138,8.879-13.227c-0.011-0.07,0.437-0.293,1.217-0.505c-0.03-0.213-0.05-0.429-0.05-0.649
					c0-2.607,2.112-4.719,4.717-4.719c2.607,0,4.719,2.112,4.719,4.719c0,0.269-0.028,0.534-0.073,0.792
					c0.847,0.161,1.391,0.307,1.382,0.368c5.245,2.124,8.466,7.136,8.778,13.508c0.016,0.34,0.14,0.602,0.386,0.848
					c0.214,0.211,0.842,0.183,0.842,0.183h7.1c0,0,0.535,0.052,0.727-0.139c0.232-0.232,0.345-0.518,0.332-0.843
					C47.488,14.634,36.866,4.333,23.882,4.333z"/>
			</g>
		</g>
		<g>
			<g>
				<path fill="#FFFFFF" d="M47.22,29.678h-7.682c0,0-0.804-0.021-1.031,0.093c-0.175,0.087-0.46,0.53-0.46,0.53l-9.805,12.962
					l-1.527,2.033c1.143,0.859,1.887,2.226,1.887,3.767c0,2.605-2.113,4.718-4.72,4.718c-2.605,0-4.717-2.112-4.717-4.718
					c0-1.537,0.739-2.899,1.878-3.761l-1.531-2.024L9.336,29.968c0,0-0.143-0.162-0.223-0.203c-0.113-0.057-0.5-0.087-0.5-0.087
					H0.367c0,0-0.283-0.021-0.351,0.121c-0.056,0.116,0.052,0.279,0.052,0.279l11.147,13.813l12.108,15.004
					c0,0,0.457,0.438,0.757,0.437c0.278,0,0.689-0.371,0.689-0.371l11.369-14.317l11.329-14.266c0,0,0.281-0.351,0.185-0.552
					C47.565,29.644,47.22,29.678,47.22,29.678z"/>
			</g>
		</g>
		<g>
			<g>
				<path fill="#FFFFFF" d="M19.144,13.425c0.316,2.297,2.282,4.068,4.667,4.068c2.334,0,4.27-1.698,4.646-3.926
					c-1.457-0.276-3.814-0.596-5.807-0.591C21.195,12.979,19.979,13.196,19.144,13.425z"/>
			</g>
		</g>
		<g>
			<g>
				<path fill="#FFFFFF" d="M26.714,45.296c-0.79-0.595-1.768-0.951-2.833-0.951c-1.067,0-2.049,0.358-2.839,0.957l2.839,3.76
					L26.714,45.296z"/>
			</g>
		</g>
	</g>
</g>
</svg>
