<?xml version="1.0" encoding="utf-8"?>
<!-- Generator: Adobe Illustrator 15.0.0, SVG Export Plug-In . SVG Version: 6.00 Build 0)  -->
<!DOCTYPE svg PUBLIC "-//W3C//DTD SVG 1.1//EN" "http://www.w3.org/Graphics/SVG/1.1/DTD/svg11.dtd">
<svg version="1.1" id="Layer_1" xmlns="http://www.w3.org/2000/svg" xmlns:xlink="http://www.w3.org/1999/xlink" x="0px" y="0px"
	 width="123.191px" height="40px" viewBox="0 12 123.191 40" enable-background="new 0 12 123.191 40" xml:space="preserve">
<g>
	<g>
		<path fill="#FFFFFF" d="M32.06,49.171c0,0.262-0.093,0.485-0.28,0.671c-0.184,0.187-0.409,0.28-0.669,0.28s-0.485-0.093-0.67-0.28
			c-0.187-0.186-0.279-0.409-0.279-0.671v-8.253l-5.539-8.289c-0.103-0.159-0.154-0.337-0.154-0.535c0-0.262,0.093-0.484,0.279-0.67
			c0.185-0.188,0.41-0.278,0.669-0.278c0.324,0,0.58,0.129,0.771,0.392l4.922,7.375l4.92-7.375c0.188-0.263,0.447-0.392,0.772-0.392
			c0.26,0,0.483,0.091,0.669,0.278c0.186,0.186,0.28,0.408,0.28,0.67c0,0.197-0.051,0.376-0.154,0.535l-5.539,8.289L32.06,49.171
			L32.06,49.171z"/>
		<path fill="#FFFFFF" d="M48.781,43.479c0,1.834-0.647,3.398-1.946,4.695c-1.295,1.296-2.863,1.947-4.696,1.947
			c-1.834,0-3.4-0.649-4.695-1.947c-1.297-1.297-1.946-2.861-1.946-4.695s0.648-3.4,1.946-4.698
			c1.295-1.296,2.861-1.943,4.695-1.943c1.833,0,3.4,0.646,4.696,1.943C48.133,40.079,48.781,41.646,48.781,43.479z M42.14,38.737
			c-1.312,0-2.431,0.463-3.356,1.387c-0.924,0.927-1.386,2.044-1.386,3.356c0,1.313,0.462,2.43,1.386,3.357
			c0.925,0.925,2.045,1.387,3.356,1.387c1.312,0,2.432-0.462,3.356-1.387c0.925-0.927,1.388-2.044,1.388-3.357
			c0-1.312-0.463-2.43-1.388-3.356C44.572,39.2,43.452,38.737,42.14,38.737z"/>
		<path fill="#FFFFFF" d="M63.013,49.171c0,0.262-0.095,0.485-0.28,0.671c-0.184,0.187-0.408,0.28-0.669,0.28
			c-0.262,0-0.483-0.093-0.669-0.28c-0.186-0.185-0.28-0.409-0.28-0.671v-0.77c-1.186,1.146-2.608,1.72-4.271,1.72
			c-1.698,0-3.151-0.604-4.356-1.808c-1.207-1.208-1.809-2.659-1.809-4.359v-6.169c0-0.261,0.093-0.483,0.278-0.668
			c0.185-0.187,0.41-0.279,0.671-0.279c0.262,0,0.483,0.093,0.67,0.279c0.185,0.185,0.278,0.407,0.278,0.668v6.169
			c0,1.18,0.417,2.185,1.25,3.018c0.834,0.837,1.84,1.251,3.018,1.251c1.179,0,2.184-0.414,3.019-1.251
			c0.835-0.833,1.25-1.838,1.25-3.018v-6.169c0-0.261,0.093-0.483,0.28-0.668c0.187-0.187,0.408-0.279,0.669-0.279
			c0.259,0,0.485,0.093,0.67,0.279c0.186,0.185,0.279,0.407,0.279,0.668V49.171L63.013,49.171z"/>
		<path fill="#FFFFFF" d="M73.52,49.54l-6.713-13.426v13.057c0,0.262-0.092,0.485-0.279,0.671c-0.186,0.187-0.408,0.28-0.67,0.28
			c-0.26,0-0.483-0.093-0.669-0.28c-0.185-0.185-0.279-0.409-0.279-0.671V32.096c0-0.263,0.095-0.483,0.279-0.671
			c0.186-0.187,0.409-0.279,0.669-0.279c0.38,0,0.661,0.169,0.842,0.497l7.697,15.406l7.696-15.406
			c0.183-0.331,0.462-0.497,0.842-0.497c0.26,0,0.483,0.093,0.671,0.279c0.186,0.185,0.278,0.408,0.278,0.671v17.075
			c0,0.262-0.092,0.485-0.278,0.671c-0.188,0.188-0.41,0.28-0.671,0.28s-0.484-0.093-0.669-0.28c-0.186-0.186-0.28-0.409-0.28-0.671
			V36.114l-6.77,13.545c-0.166,0.308-0.439,0.462-0.818,0.462C74.002,50.122,73.709,49.928,73.52,49.54z"/>
		<path fill="#FFFFFF" d="M97.167,48.13c-1.326,1.329-2.909,1.992-4.743,1.992s-3.4-0.649-4.696-1.947
			c-1.295-1.296-1.944-2.861-1.944-4.695c0-1.835,0.649-3.4,1.944-4.698c1.296-1.296,2.862-1.943,4.696-1.943
			s3.397,0.646,4.695,1.943c1.296,1.297,1.946,2.864,1.946,4.698v5.691c0,0.262-0.092,0.483-0.28,0.671
			c-0.186,0.185-0.407,0.279-0.669,0.279c-0.26,0-0.483-0.093-0.671-0.279c-0.182-0.186-0.278-0.409-0.278-0.671V48.13L97.167,48.13
			z M92.424,38.737c-1.312,0-2.43,0.463-3.356,1.387c-0.926,0.927-1.389,2.044-1.389,3.356c0,1.313,0.464,2.43,1.389,3.357
			c0.926,0.925,2.044,1.387,3.356,1.387c1.312,0,2.43-0.462,3.358-1.387c0.923-0.927,1.385-2.044,1.385-3.357
			c0-1.312-0.462-2.43-1.385-3.356C94.854,39.2,93.735,38.737,92.424,38.737z"/>
		<path fill="#FFFFFF" d="M107.604,48.223c0.263,0,0.483,0.095,0.67,0.28c0.186,0.185,0.279,0.408,0.279,0.669
			c0,0.263-0.094,0.484-0.279,0.673c-0.186,0.184-0.407,0.277-0.67,0.277c-3.163,0-4.745-1.58-4.745-4.743v-6.642h-0.948
			c-0.259,0-0.481-0.093-0.671-0.28c-0.183-0.184-0.276-0.407-0.276-0.67c0-0.261,0.092-0.482,0.276-0.669
			c0.188-0.186,0.412-0.278,0.671-0.278h0.948v-4.744c0-0.261,0.093-0.483,0.279-0.671c0.186-0.185,0.41-0.279,0.67-0.279
			c0.262,0,0.484,0.093,0.672,0.279c0.186,0.188,0.276,0.41,0.276,0.671v4.744h1.912c0.258,0,0.482,0.093,0.67,0.278
			c0.183,0.184,0.277,0.408,0.277,0.669c0,0.263-0.093,0.484-0.277,0.67s-0.412,0.28-0.67,0.28h-1.912v6.642
			C104.756,47.275,105.706,48.223,107.604,48.223z"/>
		<path fill="#FFFFFF" d="M120.044,46.896c0.26,0,0.483,0.092,0.67,0.278c0.183,0.187,0.279,0.41,0.279,0.67
			c0,0.261-0.09,0.488-0.274,0.677c-1.225,1.069-2.666,1.601-4.328,1.601c-1.834,0-3.398-0.649-4.697-1.946
			c-1.295-1.296-1.945-2.862-1.945-4.696s0.648-3.399,1.945-4.697c1.297-1.296,2.863-1.943,4.697-1.943s3.401,0.646,4.698,1.943
			c1.294,1.297,1.943,2.864,1.943,4.697c0,0.262-0.093,0.483-0.276,0.671c-0.186,0.185-0.411,0.279-0.673,0.279H111.73
			c0.174,0.907,0.609,1.71,1.304,2.406c0.927,0.926,2.044,1.388,3.356,1.388c1.188,0,2.207-0.375,3.062-1.127
			C119.625,46.964,119.822,46.896,120.044,46.896z M121.052,42.53c-0.174-0.907-0.609-1.709-1.306-2.407
			c-0.924-0.924-2.043-1.387-3.355-1.387s-2.43,0.463-3.356,1.387c-0.694,0.697-1.131,1.5-1.304,2.407H121.052z"/>
	</g>
	<g>
		<g>
			<g>
				<path fill="#FFFFFF" d="M10.204,28.501c-5.515,0-9.92,4.352-10.183,9.801c-0.008,0.17-0.043,0.312,0.079,0.433
					c0.081,0.082,0.372,0.081,0.372,0.081H3.28c0,0,0.354,0.023,0.455-0.077c0.134-0.134,0.12-0.302,0.132-0.485
					c0.172-2.667,1.569-4.76,3.793-5.652c-0.004-0.029,0.187-0.125,0.521-0.216c-0.013-0.091-0.022-0.183-0.022-0.277
					c0-1.113,0.902-2.016,2.016-2.016c1.114,0,2.016,0.902,2.016,2.016c0,0.115-0.012,0.229-0.031,0.339
					c0.362,0.068,0.595,0.131,0.59,0.157c2.241,0.907,3.618,3.049,3.751,5.771c0.006,0.146,0.06,0.257,0.165,0.362
					c0.091,0.09,0.36,0.078,0.36,0.078h3.033c0,0,0.229,0.022,0.311-0.06c0.099-0.099,0.147-0.221,0.142-0.359
					C20.29,32.902,15.752,28.501,10.204,28.501z"/>
			</g>
		</g>
		<g>
			<g>
				<path fill="#FFFFFF" d="M20.176,39.33h-3.282c0,0-0.344-0.009-0.441,0.04c-0.075,0.037-0.196,0.226-0.196,0.226l-4.189,5.539
					l-0.652,0.868c0.488,0.367,0.807,0.951,0.807,1.609c0,1.113-0.903,2.016-2.017,2.016c-1.113,0-2.016-0.902-2.016-2.016
					c0-0.657,0.316-1.238,0.803-1.606l-0.654-0.865l-4.348-5.687c0,0-0.061-0.069-0.095-0.087C3.845,39.343,3.68,39.33,3.68,39.33
					H0.157c0,0-0.121-0.009-0.15,0.052c-0.024,0.05,0.022,0.119,0.022,0.119l4.763,5.901l5.173,6.411c0,0,0.195,0.187,0.323,0.187
					c0.119,0,0.295-0.158,0.295-0.158l4.857-6.117l4.84-6.096c0,0,0.121-0.15,0.08-0.235C20.323,39.315,20.176,39.33,20.176,39.33z"
					/>
			</g>
		</g>
		<g>
			<g>
				<path fill="#FFFFFF" d="M8.18,32.386c0.135,0.981,0.975,1.738,1.994,1.738c0.998,0,1.824-0.726,1.985-1.678
					c-0.623-0.118-1.629-0.255-2.481-0.253C9.056,32.195,8.536,32.288,8.18,32.386z"/>
			</g>
		</g>
		<g>
			<g>
				<path fill="#FFFFFF" d="M11.414,46.003c-0.337-0.254-0.755-0.406-1.21-0.406c-0.456,0-0.875,0.153-1.213,0.409l1.213,1.606
					L11.414,46.003z"/>
			</g>
		</g>
	</g>
</g>
</svg>
