<?xml version="1.0" encoding="utf-8"?>
<!-- Generator: Adobe Illustrator 15.0.0, SVG Export Plug-In . SVG Version: 6.00 Build 0)  -->
<!DOCTYPE svg PUBLIC "-//W3C//DTD SVG 1.1//EN" "http://www.w3.org/Graphics/SVG/1.1/DTD/svg11.dtd">
<svg version="1.1" id="Layer_1" xmlns="http://www.w3.org/2000/svg" xmlns:xlink="http://www.w3.org/1999/xlink" x="0px" y="0px"
	 width="1724.524px" height="90px" viewBox="200.161 209.1 1724.524 90" enable-background="new 200.161 209.1 1724.524 90"
	 xml:space="preserve">
<g id="Layer_1_1_">
	<g>
		<g>
			<g>
				<g>
					<path fill="#BCBEC0" d="M1753.876,246.122c2.893,1.471,5.516,3.636,7.814,5.897c5.087,5.005,8.515,11.52,9.186,18.67
						c0.072,0.775,1.291,0.782,1.218,0c-0.693-7.367-4.097-14-9.254-19.243c-2.414-2.455-5.26-4.805-8.349-6.376
						C1753.793,244.715,1753.176,245.766,1753.876,246.122L1753.876,246.122z"/>
				</g>
				<g>
					<path fill="#BCBEC0" d="M1771.541,271.7L1771.541,271.7c-0.496,0-1.03-0.333-1.09-0.971c-0.634-6.744-3.851-13.281-9.06-18.406
						c-2.689-2.646-5.211-4.55-7.709-5.821c-0.419-0.213-0.62-0.64-0.513-1.088c0.118-0.488,0.552-0.843,1.034-0.843
						c0.165,0,0.326,0.041,0.482,0.119c2.801,1.425,5.647,3.598,8.459,6.457c5.456,5.547,8.697,12.292,9.374,19.503
						c0.027,0.283-0.055,0.545-0.23,0.738C1772.107,271.585,1771.835,271.7,1771.541,271.7z M1754.203,245.424
						c-0.094,0-0.182,0.097-0.204,0.188c-0.013,0.056-0.006,0.09,0.07,0.129c2.577,1.311,5.168,3.264,7.92,5.973
						c5.352,5.267,8.659,11.992,9.312,18.935c0.017,0.188,0.204,0.198,0.242,0.198l0,0c0.057,0,0.1-0.018,0.115-0.034
						c0.011-0.012,0.016-0.043,0.011-0.083c-0.658-7.014-3.816-13.578-9.132-18.984c-2.748-2.793-5.519-4.911-8.238-6.295
						C1754.264,245.433,1754.232,245.424,1754.203,245.424z"/>
				</g>
			</g>
		</g>
		<g>
			<g>
				<g>
					<g>
						<path fill="#BCBEC0" d="M1777.38,275.038c-0.033-9.07-3.203-17.822-8.964-24.821c-5.661-6.878-13.733-11.609-22.46-13.32
							c-8.984-1.762-18.432-0.206-26.419,4.239c-7.718,4.293-13.738,11.263-17.069,19.416c-1.872,4.585-2.776,9.542-2.794,14.487
							c-0.001,0.332,0.279,0.609,0.61,0.609c7.301,0,14.602,0,21.903,0c12.902,0,25.805,0,38.707,0c5.292,0,10.586,0,15.878,0
							c0.786,0,0.786-1.218,0-1.218c-7.301,0-14.602,0-21.902,0c-12.902,0-25.805,0-38.707,0c-5.292,0-10.586,0-15.878,0
							c0.203,0.204,0.407,0.406,0.61,0.609c0.033-9.28,3.458-18.25,9.651-25.167c6.102-6.816,14.662-11.2,23.743-12.236
							c9.258-1.056,18.646,1.446,26.218,6.845c7.402,5.277,12.637,13.275,14.705,22.104c0.648,2.771,0.942,5.611,0.954,8.454
							C1776.165,275.824,1777.383,275.824,1777.38,275.038L1777.38,275.038z"/>
					</g>
					<g>
						<path fill="#BCBEC0" d="M1776.77,276.074h-76.487c-0.275,0-0.536-0.109-0.733-0.307c-0.196-0.197-0.304-0.456-0.303-0.73
							c0.001-0.343,0.006-0.684,0.016-1.025l-0.009-0.009h0.01c0.134-4.795,1.078-9.37,2.81-13.612
							c3.419-8.368,9.545-15.339,17.255-19.628c5.883-3.272,12.549-5.002,19.281-5.002c2.5,0,5,0.242,7.43,0.718
							c8.937,1.752,17,6.535,22.707,13.467c5.811,7.059,9.028,15.97,9.062,25.091c0,0.297-0.114,0.564-0.32,0.751
							C1777.303,275.972,1777.049,276.074,1776.77,276.074z M1701.317,275.221h74.433c-0.01-0.059-0.015-0.119-0.016-0.181
							c0-0.062-0.001-0.123-0.001-0.184h-74.415c-0.001,0.062-0.001,0.124-0.001,0.184V275.221z M1700.101,274.851
							c0,0.063,0,0.126-0.001,0.189c0,0.061,0.034,0.105,0.054,0.125c0.021,0.021,0.065,0.057,0.129,0.057h0.188L1700.101,274.851z
							 M1776.587,274.855c0,0.061,0.001,0.121,0.001,0.182c0,0.109,0.063,0.164,0.185,0.164c0.047,0,0.092-0.011,0.124-0.032
							c0.04-0.057,0.048-0.156,0.017-0.229c-0.021-0.05-0.053-0.083-0.144-0.083L1776.587,274.855L1776.587,274.855z
							 M1776.575,274.002h0.195c0.057,0,0.112,0.004,0.166,0.012c-0.26-8.565-3.382-16.884-8.85-23.526
							c-5.58-6.78-13.469-11.458-22.212-13.172c-2.375-0.466-4.819-0.703-7.265-0.703c-6.587,0-13.11,1.692-18.866,4.895
							c-7.541,4.195-13.535,11.016-16.879,19.206c-1.69,4.14-2.613,8.606-2.747,13.29h0.366c0.277-9.041,3.727-17.697,9.742-24.416
							c6.106-6.821,14.858-11.331,24.013-12.375c1.397-0.16,2.821-0.24,4.231-0.24c7.893,0,15.807,2.543,22.284,7.161
							c7.354,5.244,12.774,13.391,14.873,22.354c0.556,2.374,0.874,4.9,0.947,7.516L1776.575,274.002L1776.575,274.002
							L1776.575,274.002z M1701.335,274.002h74.383c-0.074-2.549-0.384-5.01-0.926-7.321c-2.051-8.764-7.35-16.73-14.537-21.854
							c-6.333-4.515-14.071-7.002-21.789-7.002c-1.378,0-2.77,0.079-4.134,0.235c-8.95,1.02-17.506,5.429-23.474,12.096
							C1704.984,256.719,1701.611,265.172,1701.335,274.002z"/>
					</g>
				</g>
			</g>
			<g>
				<g>
					<g>
						<path fill="#BCBEC0" d="M1739.135,236.794c0-1.214,0-2.429,0-3.643c0-0.785-1.218-0.785-1.218,0c0,1.214,0,2.429,0,3.643
							C1737.917,237.579,1739.135,237.579,1739.135,236.794L1739.135,236.794z"/>
					</g>
					<g>
						<path fill="#BCBEC0" d="M1738.526,237.809c-0.59,0-1.036-0.437-1.036-1.016v-3.643c0-0.579,0.445-1.016,1.036-1.016
							s1.037,0.437,1.037,1.016v3.643C1739.562,237.373,1739.117,237.809,1738.526,237.809z M1738.526,232.989
							c-0.121,0-0.183,0.055-0.183,0.162v3.643c0,0.107,0.061,0.163,0.183,0.163s0.183-0.055,0.183-0.163v-3.643
							C1738.709,233.043,1738.648,232.989,1738.526,232.989z"/>
					</g>
				</g>
			</g>
			<g>
				<path fill="#BCBEC0" stroke="#BCBEC0" stroke-width="3" stroke-miterlimit="10" d="M1696.802,279.875c6.878,0,13.757,0,20.635,0
					c13.051,0,26.102,0,39.153,0c7.845,0,15.691,0,23.536,0c0.063,0,0.125,0,0.187,0c0.786,0,0.786-1.218,0-1.218
					c-6.878,0-13.756,0-20.636,0c-13.05,0-26.101,0-39.152,0c-7.845,0-15.691,0-23.537,0c-0.062,0-0.125,0-0.187,0
					C1696.016,278.656,1696.016,279.875,1696.802,279.875L1696.802,279.875z"/>
			</g>
			<g>
				<g>
					<g>
						<path fill="#BCBEC0" d="M1739.74,231.328c-0.084,1.565-2.343,1.565-2.428,0
							C1737.228,229.762,1739.657,229.771,1739.74,231.328c0.042,0.781,1.261,0.785,1.219,0c-0.074-1.375-1.058-2.358-2.433-2.433
							c-1.372-0.074-2.365,1.169-2.433,2.433c-0.075,1.372,1.168,2.364,2.433,2.432c1.371,0.074,2.364-1.168,2.433-2.432
							C1741.001,230.543,1739.783,230.547,1739.74,231.328z"/>
					</g>
					<g>
						<path fill="#BCBEC0" d="M1738.643,234.19c-0.048-0.001-0.092-0.001-0.139-0.004c-0.73-0.04-1.454-0.346-1.985-0.841
							c-0.589-0.549-0.891-1.273-0.85-2.04c0.076-1.405,1.198-2.925,2.882-2.835c1.502,0.081,2.631,1.124,2.814,2.599
							c0.018,0.083,0.024,0.17,0.021,0.259c0.004,0.094-0.005,0.185-0.024,0.271C1741.189,232.86,1740.182,234.19,1738.643,234.19z
							 M1738.411,229.319c-1.101,0-1.838,1.055-1.891,2.032c-0.027,0.51,0.179,0.997,0.58,1.371c0.388,0.361,0.917,0.584,1.45,0.613
							c0.757,0.042,1.349-0.414,1.68-1.003c-0.119-0.016-0.237-0.051-0.346-0.104c-0.314,0.463-0.845,0.702-1.356,0.702
							c-0.774,0-1.585-0.542-1.641-1.578c-0.024-0.45,0.112-0.845,0.391-1.141c0.291-0.305,0.721-0.48,1.184-0.48
							c0.536,0,1.088,0.239,1.416,0.704c0.113-0.057,0.236-0.093,0.36-0.109c-0.345-0.588-0.963-0.96-1.733-1.001
							C1738.472,229.32,1738.441,229.319,1738.411,229.319z M1738.461,230.583c-0.229,0-0.435,0.078-0.564,0.214
							c-0.117,0.123-0.17,0.294-0.159,0.508c0.031,0.569,0.443,0.771,0.788,0.771c0.34,0,0.746-0.196,0.787-0.747
							C1739.269,230.741,1738.758,230.583,1738.461,230.583z M1740.168,231.328c0.021,0.145,0.155,0.161,0.213,0.161
							c0.02,0,0.113-0.003,0.141-0.059c0.004-0.034,0.006-0.068,0.008-0.102c-0.002-0.034-0.005-0.067-0.008-0.1
							c-0.026-0.056-0.113-0.061-0.141-0.061C1740.323,231.167,1740.189,231.183,1740.168,231.328z"/>
					</g>
				</g>
			</g>
		</g>
	</g>
	<g>
		<g>
			<g>
				<g>
					<g>
						<path fill="#BCBEC0" d="M1577.064,231.871c-3.266,1.796-7.092,2.512-10.75,2.999c-3.393,0.452-6.822,0.63-10.244,0.671
							c-0.961,0.011-1.92,0.007-2.879-0.015c-0.168-0.004-0.336-0.008-0.504-0.014c0.385,0.014-0.309-0.24-0.424-0.286
							c-0.471-0.187-0.939-0.333-1.432-0.457c-2.805-0.705-5.99-0.459-8.809,0.093c0.379,0.215,0.76,0.431,1.139,0.647
							c-0.867-3.735-3.037-7.478-6.012-9.896c-1.654-1.346-4.107-2.921-6.219-1.925c-1.65,0.778-2.768,3.565-0.799,4.742
							c1.82,1.086,3.293,2.772,4.275,4.632c0.449,0.854,1.283,2.793,0.953,3.752c-0.271,0.785-0.477,1.592-0.666,2.398
							c-1.506,6.388-1.463,14.649,1.773,20.163c0.797,1.357,0.68,2.908-0.02,4.275c-0.48,0.942-1.299,1.503-1.92,2.341
							c-1.463,1.978-0.764,4.07-0.32,6.225c0.586,2.855,1.338,5.686,2.32,8.43c0.797,2.225,1.539,4.333,3.705,5.49
							c1.955,1.044,4.424,1.064,5.92-0.681c1.223-1.427,0.742-4.346-1.191-4.974c0.105,0.035-0.055-0.021-0.227-0.125
							c-0.186-0.111-0.334-0.259-0.484-0.411c-0.686-0.695-1.043-1.682-1.316-2.595c-0.664-2.22-0.809-4.882-0.709-7.18
							c0.094-2.131,2.049-2.4,3.557-3.203c1.059-0.563,2.027-1.305,2.934-2.086c3.666-3.164,5.545-7.782,5.143-12.602
							c-0.309,0.309-0.617,0.618-0.926,0.926c2.883-0.053,5.35,1.799,7.756,3.111c3.404,1.856,7.418,3.076,11.295,2.306
							c-0.393-0.298-0.783-0.596-1.174-0.894c-0.299,3.312-0.486,6.643-0.504,9.969c-0.008,1.412,0.236,2.86,0.125,4.26
							c-0.107,1.359-0.08,2.728,0.025,4.086c0.287,3.63,1.475,8.657,4.9,10.665c0.852,0.499,2.381,0.442,3.303,0.301
							c1.6-0.245,2.611-1.336,2.52-2.985c-0.016-0.315-0.16-0.65-0.459-0.801c-0.83-0.418-1.662-0.978-2.211-1.739
							c-0.424-0.585-0.262-1.196-0.314-1.635c-0.248-2.094-0.359-4.205-0.373-6.314c-0.02-3.002,0.215-6.031,1.025-8.931
							c0.363-1.3,0.904-2.528,1.66-3.646c0.406-0.6,1.016-1.009,1.566-1.503c2.16-1.94,4.199-4.349,5.252-7.083
							c0.75-1.941,0.566-3.33,0.475-5.321c-0.119-2.515-0.148-5.151,0.514-7.599c0.344-1.268,1.582-2.787,2.533-3.714
							c0.992-0.967,2.256-1.184,3.51-0.595c0.713,0.335,1.221,0.875,1.963,1.156c2.168,0.822,5.727-0.38,7.266-1.957
							c0.789-0.806,1.416-1.786,1.863-2.814c0.506-1.156,0.379-2.219,0.51-3.277c0.104-0.823-0.178-1.664-0.975-2.021
							c-0.215-0.096-0.475-0.176-0.715-0.168c0.064-0.002-0.85-0.018-0.455,0.106c-0.352-0.11-0.705-0.221-1.059-0.332
							c-1.098-0.343-2.193-0.686-3.291-1.028c-0.334-0.104-0.666-0.208-1-0.313c0.33,0.104,0.631,0.663,0.24-0.016
							c-1.268-2.208-2.891-4.306-4.873-5.912c-1.605-1.299-3.236-1.954-5.268-1.823c-2.619,0.169-4.924,1.343-6.463,3.483
							c-0.416,0.58-0.156,0.671-0.654,1.018c-0.541,0.377-1.059,0.789-1.564,1.21c-1.391,1.16-2.633,2.55-3.488,4.152
							c-1.354,2.534-0.912,5.332,1.033,7.374c1.072,1.128,2.688,1.617,4.211,1.376c1.49-0.235,2.287-0.687,3.059-1.88
							c1.572-2.43,4.217-6.333,3.264-9.383c-0.355-1.136-2.145-0.651-1.787,0.492c0.697,2.227-1.461,5.311-2.551,7.118
							c-0.348,0.575-0.713,1.142-1.094,1.695c0.066-0.098-0.982,0.104-1.029,0.115c-0.352,0.081-0.77,0.077-1.127,0.025
							c-0.639-0.093-1.178-0.434-1.635-0.869c-3.574-3.391,1-8.055,3.926-10.02c0.322-0.215,0.449-0.428,0.621-0.787
							c0.357-0.742,0.898-1.347,1.512-1.884c1.012-0.883,2.461-1.27,3.77-1.385c0.393-0.035,0.787-0.034,1.18-0.019
							c0.107,0.004,0.791,0.08,0.312,0.013c1.582,0.219,3.068,1.722,4.111,2.812c0.916,0.957,1.695,2.036,2.41,3.146
							c0.295,0.458,0.592,1.32,1.092,1.613c0.6,0.351,1.432,0.471,2.084,0.676c1.096,0.342,2.191,0.684,3.287,1.027
							c0.6,0.187,1.242-0.312,1.025,0.462c-0.186,0.664,0.027,1.394-0.172,2.101c-0.232,0.83-0.781,1.619-1.324,2.276
							c-1.111,1.343-4.428,2.729-6.109,1.621c-0.227-0.149,0.543,0.413-0.07-0.052c-0.357-0.271-0.709-0.51-1.1-0.73
							c-0.547-0.308-1.189-0.512-1.812-0.575c-1.234-0.126-2.375,0.247-3.365,0.98c-0.732,0.543-1.318,1.239-1.824,1.993
							c-0.113,0.169-0.219,0.345-0.312,0.525c0.254-0.484,0.021-0.095-0.156,0.06c-0.211,0.183-0.373,0.433-0.533,0.658
							c-1.309,1.847-1.326,4.721-1.381,6.883c-0.049,1.873,0.039,3.759,0.223,5.624c0.123,1.226-0.828,2.778-1.418,3.791
							c-0.838,1.441-1.953,2.708-3.127,3.883c-1.648,1.651-2.559,2.096-3.617,4.31c-2.203,4.603-2.189,10.259-1.887,15.244
							c0.078,1.288,0.201,2.575,0.379,3.853c0.264,1.903,1.572,3.168,3.326,4.053c-0.154-0.267-0.307-0.534-0.461-0.8
							c0.082,1.478-1.639,1.28-2.695,1.107c-1.062-0.174-1.932-1.586-2.557-2.669c-1.594-2.756-1.916-6.208-1.848-9.331
							c0.109-5.142-0.027-10.254,0.436-15.403c0.059-0.641-0.631-1.001-1.172-0.894c-3.613,0.718-7.486-0.684-10.574-2.52
							c-2.383-1.416-5.096-3.016-7.984-2.963c-0.473,0.009-0.969,0.416-0.926,0.926c0.445,5.343-2.193,10.104-6.742,12.851
							c-0.516,0.312-1.014,0.404-1.58,0.629c-1.191,0.475-2.191,1.302-2.795,2.438c-0.844,1.588-0.439,3.744-0.367,5.456
							c0.104,2.454,0.521,5.243,2.096,7.224c0.355,0.446,0.771,0.833,1.264,1.127c0.688,0.414,0.514,0.2,0.967,0.933
							c0.58,0.936-0.348,1.685-1.1,2.063c-0.943,0.477-2.887-0.505-3.645-1.183c-0.627-0.559-1.039-1.736-1.496-2.885
							c-0.66-1.656-1.168-3.372-1.635-5.089c-0.551-2.022-1.277-4.3-1.535-6.385c-0.146-1.188,0.373-2.304,1.213-3.111
							c0.23-0.222,0.238-0.17,0.676-0.704c0.619-0.751,1.035-1.606,1.338-2.525c0.799-2.44-0.615-4.176-1.391-6.253
							c-1.557-4.17-1.885-8.702-1.469-13.104c0.207-2.197,0.643-4.43,1.363-6.521c0.334-0.975-0.188-2.539-0.479-3.476
							c-0.445-1.436-1.248-2.713-2.168-3.886c-0.682-0.866-1.504-1.621-2.373-2.292c-0.676-0.521-1.104-0.597-1.186-1.289
							c-0.061-0.508,0.533-0.815,0.9-1.011c0.135-0.071,0.273-0.119,0.416-0.167c0.258-0.088,0.078,0.045,0.072,0.043
							c1.613,0.417,3.053,1.327,4.277,2.439c2.342,2.126,4.029,5.322,4.744,8.399c0.121,0.519,0.66,0.741,1.139,0.647
							c2.869-0.562,6.125-0.727,8.914,0.228c0.812,0.278,1.191,0.491,2.012,0.507c1.148,0.023,2.297,0.017,3.445-0.003
							c6.938-0.12,14.902-0.494,21.111-3.911C1579.045,232.895,1578.111,231.294,1577.064,231.871L1577.064,231.871z"/>
					</g>
				</g>
			</g>
			<g>
				<g>
					<g>
						<path fill="#BCBEC0" d="M1585.891,251.898c0.094,3.41,0.27,6.819,0.498,10.223c0.18,2.674,0.406,5.346,0.74,8.003
							c0.244,1.934,0.477,3.95,1.146,5.792c0.195,0.533,0.434,0.997,0.83,1.405c0.586,0.606,2.119,1.862,2.18,2.736
							c0.105,1.548-2.184,0.607-3.127,0.079c-0.301-0.168-1.004-0.592-0.951-0.418c-0.047-0.152-0.094-0.305-0.141-0.458
							c-0.217-0.695-0.432-1.391-0.646-2.087c-0.678-2.194-1.357-4.388-2.037-6.583c-1.072-3.465-2.145-6.93-3.217-10.396
							c-0.352-1.138-2.141-0.651-1.785,0.493c2.021,6.539,4.045,13.077,6.068,19.615c0.357,1.155,2.688,1.975,3.756,2.336
							c0.889,0.301,1.934,0.302,2.74-0.211c0.908-0.578,1.4-1.909,1.098-2.942c-0.514-1.75-2.531-2.825-3.035-4.213
							c-0.693-1.909-0.898-4.045-1.135-6.048c-0.68-5.741-0.969-11.549-1.129-17.325
							C1587.709,250.706,1585.857,250.703,1585.891,251.898L1585.891,251.898z"/>
					</g>
				</g>
			</g>
		</g>
		<g>
			<g>
				<g>
					<path fill="#BCBEC0" d="M1545.475,266.247c0.256,4.109,0.957,8.527,2.867,12.208c1.045,2.01,2.746,2.479,4.932,2.702
						c2.027,0.207,4.367-0.573,4.725-2.764c0.391-2.397-1.812-2.884-2.963-4.422c-2.096-2.798-2.389-5.854-1.631-9.192
						c0.205-0.911,0.732-1.484,1.078-2.286c0.379-0.873,0.727-1.758,1.051-2.65c0.764-2.097,1.707-4.666,1.191-6.921
						c-0.264-1.165-2.051-0.671-1.785,0.492c0.428,1.875-0.574,4.2-1.193,5.937c-0.504,1.416-1.246,2.543-1.809,3.886
						c-1.859,4.44-0.598,9.433,2.492,12.914c0.602,0.675,1.727,0.626,1.764,1.767c0.027,0.89-0.518,1.022-1.229,1.255
						c-1.203,0.393-2.58,0.05-3.734-0.339c-0.848-0.286-1.031-0.817-1.447-1.616c-1.686-3.246-2.232-7.353-2.459-10.971
						C1547.254,265.06,1545.4,265.053,1545.475,266.247L1545.475,266.247z"/>
				</g>
			</g>
		</g>
	</g>
	<g>
		<g>
			<g>
				<g>
					<path fill="#BCBEC0" d="M1869.445,282.336c0-6.031,0-12.062,0-18.093c0-5.237-0.049-10.605-4.221-14.502
						c-0.934-0.871-2.039-1.533-3.208-2.031c0.05,0.379,0.098,0.759,0.147,1.139c0.942-1.167,1.885-2.334,2.828-3.5
						c-0.235,0.062-0.471,0.124-0.706,0.186c3.243,1.132,6.342,3.735,7.438,7.034c0.253,0.763,1.425,0.65,1.425-0.193
						c0-2.805,0-5.611,0-8.416c-0.242,0.241-0.483,0.483-0.725,0.725c1.795,0,3.59,0,5.385,0c-0.241-0.242-0.482-0.483-0.725-0.725
						c0.012,2.812,0.023,5.624,0.034,8.435c0.003,0.866,1.14,0.925,1.425,0.193c1.235-3.173,3.811-7.339,7.539-7.929
						c-0.273-0.111-0.547-0.223-0.819-0.333c0.673,1.121,1.347,2.243,2.02,3.366c0.087-0.331,0.173-0.661,0.261-0.992
						c-2.301,1.219-4.184,3.442-5.398,5.696c-1.61,2.989-1.694,6.21-1.694,9.504c0,6.6,0,13.197,0,19.796c0,0.213,0,0.427,0,0.64
						c0.241-0.242,0.483-0.483,0.726-0.725c-4.152,0-8.305,0-12.456,0c-0.935,0-0.935,1.45,0,1.45c4.151,0,8.304,0,12.456,0
						c0.395,0,0.725-0.33,0.725-0.725c0-6.03,0-12.061,0-18.092c0-2.745-0.23-5.667,0.432-8.34c0.789-3.191,2.955-6.196,5.803-7.875
						c0.047-0.027,0.094-0.053,0.139-0.078c0.348-0.184,0.458-0.664,0.261-0.992c-0.673-1.122-1.348-2.244-2.02-3.366
						c-0.182-0.303-0.49-0.386-0.819-0.334c-4.24,0.672-7.111,5.242-8.553,8.942c0.476,0.064,0.949,0.128,1.424,0.193
						c-0.011-2.812-0.021-5.624-0.033-8.435c-0.002-0.396-0.329-0.726-0.726-0.726c-1.795,0-3.591,0-5.386,0
						c-0.396,0-0.726,0.33-0.726,0.726c0,2.805,0,5.61,0,8.416c0.476-0.064,0.949-0.128,1.425-0.193
						c-1.266-3.81-4.707-6.74-8.45-8.047c-0.222-0.077-0.556,0.001-0.706,0.187c-0.943,1.167-1.886,2.333-2.828,3.501
						c-0.26,0.32-0.323,0.938,0.146,1.139c4.076,1.737,6.188,5.646,6.637,9.913c0.155,1.476,0.073,2.993,0.073,4.473
						c0,6.301,0,12.602,0,18.902c0,0.029,0,0.058,0,0.087C1867.995,283.272,1869.445,283.272,1869.445,282.336z"/>
				</g>
			</g>
		</g>
		<g>
			<g>
				<g>
					<path fill="#BCBEC0" d="M1867.271,262.241c-5.418-2.172-9.715-6.551-11.793-12.003c-2.053-5.386-1.657-11.513,0.908-16.648
						c5.123-10.252,18.05-14.248,28.152-9.012c6.812,3.532,11.041,10.745,11.1,18.367c0.064,8.34-5.216,16.027-12.877,19.202
						c-0.851,0.353-0.478,1.756,0.386,1.398c10.524-4.361,16.216-15.981,13.015-26.963c-3.028-10.393-13.613-17.02-24.256-15.618
						c-9.597,1.265-17.361,8.954-18.914,18.469c-1.678,10.295,4.3,20.361,13.892,24.206
						C1867.754,263.988,1868.128,262.584,1867.271,262.241L1867.271,262.241z"/>
				</g>
			</g>
		</g>
	</g>
	<g>
		<g>
			<g>
				<g>
					<path fill="#BCBEC0" d="M1128.453,289.696c-1.752,0-2.424-1.712-2.526-2.655l-0.004-42.348
						c-0.165-0.815,0.392-1.596,0.751-1.907l4.588-5.36v-22.018c-0.012-0.263,0.028-0.668,0.293-0.933
						c0.073-0.073,0.298-0.298,0.966-0.33l7.692,0c0.443,0.005,0.787,0.097,1,0.309c0.207,0.207,0.314,0.544,0.314,1l0.098,21.804
						l4.891,5.518c0.665,0.535,0.623,1.612,0.598,1.911c-0.008,1.815-0.16,40.559-0.057,42.398c0.048,0.838-0.164,1.501-0.63,1.972
						c-0.646,0.654-1.509,0.635-1.602,0.63l-16.144,0.001C1128.604,289.692,1128.527,289.696,1128.453,289.696z M1132.699,215.578
						l-0.006,22.378l-5.006,5.837c-0.07,0.071-0.414,0.393-0.345,0.768l0.013,42.401c0.014,0.068,0.226,1.385,1.27,1.291
						l16.232-0.002c0.025,0.007,0.354,0.004,0.558-0.21s0.227-0.594,0.212-0.877c-0.109-1.917,0.046-40.889,0.053-42.548
						l0.397,0.002l-0.394-0.04c0.025-0.265-0.017-0.613-0.083-0.704l-0.107-0.095l-5.298-5.978l-0.102-22.225L1132.699,215.578
						L1132.699,215.578L1132.699,215.578z"/>
				</g>
			</g>
		</g>
		<g>
			<g>
				<g>
					<path fill="#BCBEC0" d="M1130.315,275.344c-0.367-0.074-0.196-0.843-0.196-1.144c0-0.95,0-1.899,0-2.849
						c0-2.887,0-5.774,0-8.661c0-4.26,0-8.519,0-12.778c0-0.092,11.693-0.046,12.924-0.046c0.732,0,0.732-1.136,0-1.136
						c-4.288,0-8.576,0-12.864,0c-1.634,0-1.195,2.535-1.195,3.558c0,2.65,0,5.302,0,7.953c0,3.608,0,7.215,0,10.823
						c0,1.124,0,2.247,0,3.37c0,0.853-0.053,1.787,1.03,2.005C1130.729,276.584,1131.033,275.489,1130.315,275.344L1130.315,275.344
						z"/>
				</g>
			</g>
		</g>
	</g>
	<g>
		<g>
			<g>
				<path fill="#58595B" stroke="#58595B" stroke-miterlimit="10" d="M834.919,207.202"/>
			</g>
		</g>
	</g>
	<g>
		<g>
			<g>
				<g>
					<g>
						<g>
							<path fill="#BCBEC0" d="M881.291,248.391h-84.128c-0.655-0.021-1.223-0.321-1.574-0.825
								c-0.295-0.404-0.415-0.911-0.332-1.417c0.084-0.511,0.364-0.957,0.79-1.256l42.047-29.844
								c0.698-0.493,1.591-0.479,2.24-0.012l41.992,29.788c0.551,0.357,0.891,0.975,0.891,1.638
								C883.216,247.526,882.352,248.391,881.291,248.391z M839.227,215.826c-0.161,0-0.324,0.051-0.46,0.146l-42.06,29.855
								c-0.174,0.123-0.287,0.303-0.321,0.508c-0.033,0.2,0.015,0.401,0.135,0.564c0.202,0.29,0.5,0.341,0.659,0.346h84.111
								c0.43,0,0.779-0.351,0.779-0.782c0-0.275-0.145-0.534-0.388-0.691l-42.014-29.803
								C839.538,215.875,839.384,215.826,839.227,215.826z"/>
						</g>
					</g>
					<g>
						<g>
							<g>
								<path fill="#BCBEC0" d="M881.291,247.81c-10.236,0-20.472,0-30.707,0c-15.359,0-30.717,0-46.075,0c-1.942,0-3.885,0-5.826,0
									c-0.438,0-0.878,0-1.317,0c-1.303,0-2.176-1.599-0.938-2.478c4.111-2.918,8.225-5.837,12.336-8.756
									c6.729-4.775,13.457-9.551,20.185-14.326c2.399-1.703,4.798-3.405,7.196-5.108c0.956-0.678,2.708-2.445,3.945-1.568
									c10.72,7.604,21.439,15.208,32.158,22.812c2.412,1.71,4.822,3.421,7.234,5.131c0.672,0.477,1.344,0.953,2.016,1.43
									c0.148,0.105,0.298,0.211,0.447,0.317C883.036,246.038,882.716,247.682,881.291,247.81c-0.739,0.066-0.747,1.229,0,1.162
									c2.445-0.22,3.41-3.171,1.328-4.647c-0.275-0.195-0.55-0.391-0.826-0.586c-1.911-1.356-3.823-2.712-5.734-4.068
									c-6.546-4.643-13.091-9.286-19.636-13.929c-4.989-3.54-9.98-7.079-14.97-10.619c-1.264-0.896-2.521-1.377-3.957-0.357
									c-1.588,1.127-3.175,2.253-4.762,3.379c-11.799,8.375-23.598,16.75-35.397,25.124c-1.471,1.043-3.927,2.629-2.158,4.708
									c1.005,1.182,2.366,0.995,3.739,0.995c5.136,0,10.271,0,15.406,0c16.244,0,32.486,0,48.729,0c6.079,0,12.157,0,18.236,0
									C882.04,248.971,882.04,247.81,881.291,247.81z"/>
							</g>
						</g>
						<g>
							<g>
								<path fill="#BCBEC0" d="M839.073,215.266c-1.178,0.186-2.446,1.517-3.372,2.173c-2.524,1.792-5.05,3.584-7.574,5.377
									c-6.747,4.79-13.495,9.579-20.242,14.369c-3.818,2.711-7.638,5.422-11.457,8.133c-1.092,0.775-0.59,2.509,0.779,2.509
									c0.295,0,0.59,0,0.885,0c1.702,0,3.404,0,5.106,0c15.044,0,30.088,0,45.133,0c10.959,0,21.917,0,32.876,0
									c1.386,0,1.862-1.585,0.887-2.464c-0.264-0.239-0.592-0.428-0.881-0.633c-1.881-1.334-3.763-2.669-5.644-4.004
									c-6.533-4.634-13.065-9.268-19.599-13.902c-3.788-2.688-7.578-5.375-11.366-8.063c-1.155-0.82-2.311-1.639-3.466-2.458
									c-0.521-0.371-1.103-0.934-1.756-1.037c-0.732-0.116-1.047,1.003-0.309,1.12c0.407,0.064,0.742,0.396,1.066,0.627
									c0.744,0.528,1.488,1.056,2.233,1.584c2.569,1.823,5.14,3.646,7.71,5.469c6.742,4.783,13.484,9.566,20.228,14.349
									c3.692,2.619,7.386,5.239,11.078,7.858c0.57,0.404-0.788,0.392-0.734,0.392c-0.606,0-1.214,0-1.821,0
									c-2.219,0-4.437,0-6.655,0c-15.672,0-31.343,0-47.015,0c-6.879,0-13.759,0-20.638,0c-1.941,0-3.883,0-5.824,0
									c-0.181,0-2.3,0.09-1.503-0.476c11.043-7.839,22.086-15.678,33.129-23.517c2.095-1.487,4.189-2.974,6.285-4.461
									c0.747-0.53,1.819-1.676,2.77-1.826C840.12,216.269,839.805,215.15,839.073,215.266z"/>
							</g>
						</g>
					</g>
				</g>
			</g>
			<g>
				<g>
					<g>
						<g>
							<path fill="#BCBEC0" d="M866.246,242.568h-54.049c-0.491-0.016-0.914-0.239-1.177-0.616
								c-0.222-0.303-0.311-0.683-0.249-1.062c0.063-0.382,0.273-0.717,0.592-0.941l27.013-19.173
								c0.518-0.368,1.188-0.357,1.677-0.007l26.978,19.136c0.404,0.261,0.658,0.722,0.658,1.219
								C867.688,241.921,867.042,242.568,866.246,242.568z M839.221,221.647c-0.062,0-0.125,0.02-0.177,0.057l-27.021,19.18
								c-0.066,0.047-0.109,0.116-0.122,0.194c-0.009,0.053-0.008,0.131,0.05,0.209c0.081,0.116,0.2,0.135,0.265,0.138l54.03,0
								c0.164,0,0.297-0.134,0.297-0.298c0-0.155-0.108-0.241-0.155-0.271l-27-19.152
								C839.334,221.665,839.281,221.647,839.221,221.647z"/>
						</g>
					</g>
					<g>
						<g>
							<g>
								<path fill="#BCBEC0" d="M866.246,241.988c-12.565,0-25.131,0-37.697,0c-5.331,0-10.664,0-15.996,0c-0.113,0-0.227,0-0.341,0
									c-0.794,0-0.9-1.293-0.347-1.687c0.711-0.505,1.422-1.009,2.134-1.514c2.92-2.073,5.841-4.145,8.761-6.218
									c5.258-3.731,10.517-7.463,15.774-11.196c0.684-0.485,1.233-0.098,1.751,0.27c0.87,0.617,1.74,1.234,2.61,1.851
									c3.066,2.176,6.134,4.352,9.201,6.527c3.328,2.361,6.656,4.722,9.984,7.083c1.139,0.808,2.276,1.615,3.415,2.423
									c0.314,0.222,0.628,0.445,0.941,0.667C867.026,240.613,867.781,241.811,866.246,241.988c-0.734,0.085-0.743,1.247,0,1.161
									c1.978-0.229,2.759-2.55,1.042-3.769c-0.536-0.381-1.073-0.762-1.61-1.142c-2.738-1.942-5.476-3.885-8.215-5.828
									c-5.571-3.952-11.142-7.903-16.713-11.855c-1.612-1.145-2.759-0.216-4.104,0.74c-2.678,1.9-5.354,3.8-8.031,5.7
									c-5.672,4.026-11.346,8.053-17.019,12.079c-0.774,0.55-1.654,1.247-1.396,2.347c0.273,1.167,1.164,1.728,2.308,1.728
									c1.826,0,3.651,0,5.477,0c7.637,0,15.272,0,22.91,0c8.45,0,16.901,0,25.352,0
									C866.995,243.149,866.995,241.988,866.246,241.988z"/>
							</g>
						</g>
						<g>
							<g>
								<path fill="#BCBEC0" d="M839.067,221.087c-0.515,0.165-0.939,0.558-1.375,0.867c-1.041,0.739-2.082,1.478-3.122,2.217
									c-3.216,2.281-6.429,4.563-9.643,6.845c-3.158,2.241-6.316,4.483-9.474,6.725c-0.971,0.689-1.941,1.377-2.912,2.066
									c-0.404,0.287-1.221,0.695-1.221,1.27c0,1.373,2.579,0.927,3.403,0.927c2.804,0,5.609,0,8.413,0c8.195,0,16.389,0,24.583,0
									c5.878,0,11.755,0,17.633,0c0.285,0,0.77,0.095,1.047-0.021c1.067-0.445,0.717-1.321-0.02-1.843
									c-2.091-1.482-4.18-2.964-6.27-4.446c-4.436-3.147-8.871-6.293-13.307-9.439c-1.714-1.216-3.429-2.432-5.144-3.649
									c-0.7-0.497-1.457-1.245-2.286-1.518c-0.713-0.236-1.016,0.886-0.308,1.12c0.401,0.133,0.83,0.566,1.176,0.812
									c1.011,0.717,2.021,1.433,3.031,2.149c3.072,2.179,6.144,4.358,9.216,6.537c3.089,2.191,6.178,4.383,9.268,6.574
									c1.031,0.732,2.063,1.464,3.096,2.196c0.297,0.211,0.593,0.421,0.891,0.632c0.484,0.344,0.125,0.142,0.152,0.075
									c0.136-0.135,0.271-0.271,0.406-0.406c-0.286,0.12-0.686,0.066-1.021,0.066c-0.895,0-1.79,0-2.686,0
									c-3.074,0-6.15,0-9.227,0c-8.269,0-16.537,0-24.806,0c-5.33,0-10.66,0-15.99,0c-0.558,0-0.433,0.669-0.001,0.362
									c0.738-0.524,1.478-1.049,2.217-1.573c2.947-2.093,5.896-4.186,8.844-6.278c3.516-2.495,7.029-4.99,10.545-7.485
									c1.241-0.881,2.482-1.762,3.724-2.643c0.431-0.306,0.972-0.857,1.477-1.019
									C840.085,221.979,839.782,220.858,839.067,221.087z"/>
							</g>
						</g>
					</g>
				</g>
			</g>
			<g>
				<g>
					<g>
						<g>
							<path fill="#BCBEC0" d="M816.185,279.648h-8.233c-0.316,0-0.572-0.256-0.572-0.572v-30.937c0-0.316,0.256-0.573,0.572-0.573
								s0.572,0.256,0.572,0.573v30.365h7.089v-30.365c0-0.316,0.256-0.573,0.572-0.573s0.573,0.256,0.573,0.573v30.937
								C816.757,279.393,816.501,279.648,816.185,279.648z"/>
						</g>
					</g>
					<g>
						<g>
							<g>
								<path fill="#BCBEC0" d="M816.185,279.068c-0.801,0-8.226,0.017-8.226-0.018c0-2.147,0-4.295,0-6.442c0-7.53,0-15.06,0-22.59
									c0-0.623,0-1.245,0-1.868c0,0.421-0.017,1.033-0.017,1.512c0,3.32,0,6.641,0,9.961c0,6.284,0,12.569,0,18.854
									c0,0.008,0,0.017,0,0.026c0,0.316,0.265,0.581,0.581,0.581c2.363,0,4.726,0,7.089,0c0.316,0,0.58-0.265,0.58-0.581
									c0-6.042,0-12.083,0-18.125c0-3.445,0-6.89,0-10.335c0-0.631,0-1.262,0-1.893c0,0.414-0.017,1.02-0.017,1.492
									c0,5.68,0,11.36,0,17.041c0,2.889,0,5.777,0,8.666c0,0.457,0.271,3.628-0.146,3.74c-0.722,0.195-0.416,1.316,0.309,1.12
									c1.015-0.274,0.999-1.062,0.999-1.908c0-1.164,0-2.327,0-3.491c0-3.905,0-7.812,0-11.717c0-3.8,0-7.599,0-11.398
									c0-0.827,0.555-5.892-1.736-4.55c-0.638,0.374-0.57,1.073-0.57,1.695c0,1.025,0,2.049,0,3.073c0,3.503,0,7.006,0,10.509
									c0,5.361,0,10.722,0,16.083c0.193-0.193,0.387-0.387,0.58-0.581c-2.362,0-4.725,0-7.088,0
									c0.193,0.193,0.387,0.387,0.581,0.581c0-6.042,0-12.083,0-18.125c0-3.445,0-6.891,0-10.336c0-0.631,0-1.262,0-1.893
									c0-1.534-2.307-1.465-2.307,0.059c0,6.41,0,12.82,0,19.229c0,3.338,0,6.675,0,10.012c0,0.542,0,1.083,0,1.625
									c0,1.564,2.326,1.154,3.288,1.154c2.033,0,4.066,0,6.099,0C816.934,280.229,816.934,279.068,816.185,279.068z"/>
							</g>
						</g>
					</g>
				</g>
			</g>
			<g>
				<g>
					<g>
						<g>
							<path fill="#BCBEC0" d="M833.842,279.648h-8.233c-0.316,0-0.573-0.256-0.573-0.572v-30.937c0-0.316,0.257-0.573,0.573-0.573
								s0.572,0.256,0.572,0.573v30.365h7.088v-30.365c0-0.316,0.257-0.573,0.573-0.573s0.573,0.256,0.573,0.573v30.937
								C834.415,279.393,834.159,279.648,833.842,279.648z"/>
						</g>
					</g>
					<g>
						<g>
							<g>
								<path fill="#BCBEC0" d="M833.842,279.068c-0.802,0-8.226,0.017-8.226-0.018c0-2.147,0-4.295,0-6.442c0-7.53,0-15.06,0-22.59
									c0-0.623,0-1.245,0-1.868c0,0.421-0.017,1.033-0.017,1.512c0,3.32,0,6.641,0,9.961c0,6.284,0,12.569,0,18.854
									c0,0.008,0,0.017,0,0.026c0,0.316,0.265,0.581,0.581,0.581c2.362,0,4.726,0,7.088,0c0.316,0,0.581-0.265,0.581-0.581
									c0-6.042,0-12.083,0-18.125c0-3.445,0-6.89,0-10.335c0-0.631,0-1.262,0-1.893c0,0.414-0.017,1.02-0.017,1.492
									c0,5.68,0,11.36,0,17.041c0,2.889,0,5.777,0,8.666c0,0.457,0.271,3.627-0.146,3.74c-0.722,0.195-0.415,1.316,0.309,1.12
									c1.015-0.274,0.999-1.062,0.999-1.908c0-1.164,0-2.327,0-3.491c0-3.905,0-7.812,0-11.717c0-3.8,0-7.599,0-11.398
									c0-0.827,0.555-5.892-1.735-4.55c-0.639,0.374-0.571,1.073-0.571,1.695c0,1.025,0,2.049,0,3.073c0,3.503,0,7.006,0,10.509
									c0,5.361,0,10.722,0,16.083c0.194-0.193,0.387-0.387,0.581-0.581c-2.363,0-4.726,0-7.089,0
									c0.193,0.193,0.387,0.387,0.581,0.581c0-6.042,0-12.083,0-18.125c0-3.445,0-6.891,0-10.336c0-0.631,0-1.262,0-1.893
									c0-1.534-2.307-1.465-2.307,0.059c0,6.41,0,12.82,0,19.229c0,3.338,0,6.675,0,10.012c0,0.542,0,1.083,0,1.625
									c0,1.564,2.326,1.154,3.288,1.154c2.033,0,4.066,0,6.1,0C834.591,280.229,834.591,279.068,833.842,279.068z"/>
							</g>
						</g>
					</g>
				</g>
			</g>
			<g>
				<g>
					<g>
						<g>
							<path fill="#BCBEC0" d="M852.853,279.648h-8.234c-0.316,0-0.573-0.256-0.573-0.572v-30.937c0-0.316,0.257-0.573,0.573-0.573
								s0.573,0.256,0.573,0.573v30.365h7.088v-30.365c0-0.316,0.257-0.573,0.573-0.573c0.315,0,0.572,0.256,0.572,0.573v30.937
								C853.425,279.393,853.168,279.648,852.853,279.648z"/>
						</g>
					</g>
					<g>
						<g>
							<g>
								<path fill="#BCBEC0" d="M852.853,279.068c-0.803,0-8.227,0.017-8.227-0.018c0-2.147,0-4.295,0-6.442c0-7.53,0-15.06,0-22.59
									c0-0.623,0-1.245,0-1.868c0,0.421-0.017,1.033-0.017,1.512c0,3.32,0,6.641,0,9.961c0,6.284,0,12.569,0,18.854
									c0,0.008,0,0.017,0,0.026c0,0.316,0.265,0.581,0.581,0.581c2.362,0,4.726,0,7.088,0c0.316,0,0.581-0.265,0.581-0.581
									c0-6.042,0-12.083,0-18.125c0-3.445,0-6.89,0-10.335c0-0.631,0-1.262,0-1.893c0,0.414-0.016,1.02-0.016,1.492
									c0,5.68,0,11.36,0,17.041c0,2.889,0,5.777,0,8.666c0,0.457,0.271,3.628-0.146,3.74c-0.723,0.195-0.416,1.316,0.308,1.12
									c1.016-0.274,0.999-1.062,0.999-1.908c0-1.164,0-2.327,0-3.491c0-3.905,0-7.812,0-11.717c0-3.8,0-7.599,0-11.398
									c0-0.827,0.555-5.892-1.735-4.55c-0.638,0.374-0.571,1.073-0.571,1.695c0,1.025,0,2.049,0,3.073c0,3.503,0,7.006,0,10.509
									c0,5.361,0,10.722,0,16.083c0.194-0.193,0.388-0.387,0.581-0.581c-2.362,0-4.726,0-7.089,0
									c0.194,0.193,0.388,0.387,0.581,0.581c0-6.042,0-12.083,0-18.125c0-3.445,0-6.891,0-10.336c0-0.631,0-1.262,0-1.893
									c0-1.534-2.307-1.465-2.307,0.059c0,6.41,0,12.82,0,19.229c0,3.338,0,6.675,0,10.012c0,0.542,0,1.083,0,1.625
									c0,1.564,2.326,1.154,3.289,1.154c2.032,0,4.065,0,6.099,0C853.601,280.229,853.601,279.068,852.853,279.068z"/>
							</g>
						</g>
					</g>
				</g>
			</g>
			<g>
				<g>
					<g>
						<g>
							<path fill="#BCBEC0" d="M870.238,279.648h-8.233c-0.316,0-0.573-0.256-0.573-0.572v-30.937c0-0.316,0.257-0.573,0.573-0.573
								s0.572,0.256,0.572,0.573v30.365h7.089v-30.365c0-0.316,0.256-0.573,0.572-0.573s0.573,0.256,0.573,0.573v30.937
								C870.81,279.393,870.554,279.648,870.238,279.648z"/>
						</g>
					</g>
					<g>
						<g>
							<g>
								<path fill="#BCBEC0" d="M870.238,279.068c-0.802,0-8.226,0.017-8.226-0.018c0-2.147,0-4.295,0-6.442c0-7.53,0-15.06,0-22.59
									c0-0.623,0-1.245,0-1.868c0,0.421-0.017,1.033-0.017,1.512c0,3.32,0,6.641,0,9.961c0,6.284,0,12.569,0,18.854
									c0,0.008,0,0.017,0,0.026c0,0.316,0.265,0.581,0.581,0.581c2.362,0,4.726,0,7.089,0c0.316,0,0.58-0.265,0.58-0.581
									c0-6.042,0-12.083,0-18.125c0-3.445,0-6.89,0-10.335c0-0.631,0-1.262,0-1.893c0,0.414-0.017,1.02-0.017,1.492
									c0,5.68,0,11.36,0,17.041c0,2.889,0,5.777,0,8.666c0,0.457,0.271,3.628-0.146,3.74c-0.722,0.195-0.415,1.316,0.309,1.12
									c1.016-0.274,0.999-1.062,0.999-1.908c0-1.164,0-2.327,0-3.491c0-3.905,0-7.812,0-11.717c0-3.8,0-7.599,0-11.398
									c0-0.827,0.555-5.892-1.735-4.55c-0.638,0.374-0.571,1.073-0.571,1.695c0,1.025,0,2.049,0,3.073c0,3.503,0,7.006,0,10.509
									c0,5.361,0,10.722,0,16.083c0.194-0.193,0.388-0.387,0.581-0.581c-2.362,0-4.726,0-7.088,0
									c0.193,0.193,0.387,0.387,0.58,0.581c0-6.042,0-12.083,0-18.125c0-3.445,0-6.891,0-10.336c0-0.631,0-1.262,0-1.893
									c0-1.534-2.307-1.465-2.307,0.059c0,6.41,0,12.82,0,19.229c0,3.338,0,6.675,0,10.012c0,0.542,0,1.083,0,1.625
									c0,1.564,2.326,1.154,3.288,1.154c2.033,0,4.066,0,6.1,0C870.987,280.229,870.987,279.068,870.238,279.068z"/>
							</g>
						</g>
					</g>
				</g>
			</g>
		</g>
		<g>
			<g>
				<g>
					<g>
						<path fill="#BCBEC0" d="M875.317,284.076h-72.188c-0.316,0-0.573-0.256-0.573-0.573s0.257-0.573,0.573-0.573h72.188
							c0.316,0,0.573,0.256,0.573,0.573S875.633,284.076,875.317,284.076z"/>
					</g>
				</g>
				<g>
					<g>
						<g>
							<path fill="#BCBEC0" d="M875.317,283.495c-11.172,0-22.345,0-33.518,0c-12.731,0-25.464,0-38.195,0
								c-1.08,0,0.316,0.017,0.646,0.017c1.966,0,3.932,0,5.898,0c7.214,0,14.43,0,21.646,0c13.923,0,27.847,0,41.771,0
								c0.425,0,0.85,0,1.276,0c0.14,0,0.643-0.082,0.321,0.004c-0.723,0.195-0.415,1.316,0.31,1.121
								c1.348-0.365,1.245-2.286-0.232-2.286c-0.396,0-0.793,0-1.19,0c-2.025,0-4.051,0-6.076,0c-7.276,0-14.552,0-21.828,0
								c-13.812,0-27.623,0-41.435,0c-0.47,0-0.938,0-1.408,0c-0.864,0-1.891,1.041-1.078,1.853
								c0.742,0.743,2.254,0.454,3.213,0.454c5.854,0,11.708,0,17.563,0c15.41,0,30.821,0,46.232,0c2.028,0,4.057,0,6.084,0
								C876.066,284.656,876.066,283.495,875.317,283.495z"/>
						</g>
					</g>
				</g>
			</g>
		</g>
		<g>
			<g>
				<g>
					<g>
						<path fill="#BCBEC0" d="M878.975,289.065h-79.504c-0.316,0-0.573-0.257-0.573-0.572c0-0.316,0.257-0.573,0.573-0.573h79.504
							c0.316,0,0.573,0.257,0.573,0.573C879.548,288.809,879.292,289.065,878.975,289.065z"/>
					</g>
				</g>
				<g>
					<g>
						<g>
							<path fill="#BCBEC0" d="M878.975,288.485c-10.562,0-21.126,0-31.688,0c-14.6,0-29.2,0-43.8,0c-1.277,0-2.555,0-3.831,0
								c-0.212,0-0.212,0.016,0,0.016c0.444,0,0.89,0,1.334,0c5.153,0,10.307,0,15.46,0c16.09,0,32.181,0,48.271,0
								c3.413,0,6.827,0,10.24,0c0.977,0,1.952,0,2.928,0c0.271,0,0.54,0,0.81,0c0.138,0,0.407-0.071,0.124,0.005
								c-0.723,0.195-0.416,1.315,0.308,1.12c1.341-0.362,1.253-2.287-0.225-2.287c-0.361,0-0.722,0-1.084,0
								c-1.864,0-3.729,0-5.594,0c-6.898,0-13.796,0-20.694,0c-15.254,0-30.508,0-45.762,0c-1.78,0-3.561,0-5.343,0
								c-0.31,0-0.62,0-0.93,0c-1.498,0-1.523,2.307-0.023,2.307c3.29,0,6.581,0,9.871,0c15.825,0,31.649,0,47.475,0
								c7.385,0,14.77,0,22.154,0C879.724,289.646,879.724,288.485,878.975,288.485z"/>
						</g>
					</g>
				</g>
			</g>
		</g>
	</g>
	<g>
		<g>
			<g>
				<g>
					<g>
						<g>
							<path fill="#BCBEC0" d="M628.566,285.716c-0.082,0-0.165-0.003-0.249-0.009c-0.907-0.07-1.718-0.423-2.412-1.046
								c-0.721-0.648-1.086-1.486-1.086-2.489c0-1.016,0.373-1.829,1.108-2.417l20.51-19.231c0.686-0.55,1.417-0.95,2.205-1.213
								l9.045-2.128l1.352-13.189l-21.279,6.208c-0.182,0.048-0.375,0.001-0.507-0.132c-1.968-1.995-23.25-22.526-23.465-22.733
								c-0.145-0.138-0.193-0.348-0.127-0.536c0.065-0.189,0.235-0.322,0.434-0.34c13.162-1.218,27.925-1.836,43.879-1.836
								c21.799,0,38.17,0.618,48.66,1.837c1.366,0.196,1.789,0.873,1.908,1.406c0.125,0.566-0.017,1.364-1.398,1.955l-30.928,9.048
								l7.3,24.929c1.587,0.581,1.93,1.722,1.93,2.601c0,0.75-0.296,1.426-0.882,2.012c-0.588,0.585-1.266,0.881-2.014,0.881
								l-10.096-0.181c-0.86,0-1.599-0.297-2.186-0.884l-2.742-2.914l-2.459,0.579c-0.055,0.041-0.119,0.071-0.189,0.087
								l-18.757,4.369l-15.306,14.395C630.174,285.385,629.414,285.716,628.566,285.716z M659.625,242.779
								c0.118,0,0.234,0.041,0.328,0.119c0.13,0.108,0.198,0.275,0.181,0.444l-1.467,14.306c-0.023,0.216-0.179,0.395-0.392,0.445
								l-9.354,2.199c-0.628,0.213-1.254,0.555-1.816,1.004l-20.51,19.231c-0.518,0.415-0.755,0.945-0.755,1.645
								c0,0.712,0.245,1.277,0.747,1.73c0.53,0.476,1.121,0.734,1.807,0.788c0.631,0.045,1.202-0.171,1.707-0.679l15.417-14.5
								c0.066-0.062,0.146-0.104,0.235-0.125l18.519-4.315c0.054-0.04,0.117-0.069,0.187-0.086l3.118-0.732
								c0.176-0.047,0.363,0.014,0.489,0.146l2.933,3.117c0.383,0.382,0.866,0.573,1.462,0.573l10.096,0.182
								c0.466,0,0.889-0.19,1.283-0.584c0.391-0.391,0.582-0.813,0.582-1.288c0-0.545-0.153-1.315-1.469-1.712
								c-0.166-0.049-0.295-0.18-0.344-0.345l-7.52-25.676c-0.038-0.13-0.023-0.27,0.042-0.389c0.065-0.119,0.175-0.207,0.305-0.245
								l31.361-9.17c0.536-0.232,0.805-0.5,0.744-0.774c-0.025-0.118-0.105-0.479-1.04-0.613c-10.437-1.213-26.77-1.83-48.529-1.83
								c-15.475,0-29.825,0.583-42.674,1.731c3.797,3.664,19.843,19.151,22.464,21.759l21.717-6.335
								C659.529,242.786,659.577,242.779,659.625,242.779z M680.716,264.708h-7.336c-0.147,0-0.287-0.063-0.384-0.174l-5.318-6.053
								c-0.011-0.009-0.019-0.018-0.027-0.024c-0.132-0.026-0.275-0.084-0.347-0.169c-1.101-1.319-2.419-1.74-4.062-1.3
								l-2.782,0.558c-0.159,0.033-0.324-0.015-0.444-0.123c-0.12-0.109-0.182-0.268-0.165-0.43l1.467-14.488
								c0.021-0.208,0.167-0.382,0.368-0.44l11.553-3.301c0.27-0.075,0.551,0.078,0.63,0.347l7.335,24.942
								c0.046,0.154,0.017,0.321-0.081,0.45C681.028,264.632,680.876,264.708,680.716,264.708z M673.61,263.687h6.423l-7-23.8
								l-10.733,3.066l-1.362,13.456l2.073-0.415c0.468-0.126,0.957-0.193,1.419-0.193c1.355,0,2.543,0.567,3.533,1.687
								c0.207,0.06,0.349,0.185,0.46,0.296L673.61,263.687z"/>
						</g>
					</g>
					<g>
						<g>
							<g>
								<path fill="#BCBEC0" d="M628.566,285.59c-1.385-0.049-2.651-0.756-3.313-1.992c-0.67-1.253-0.275-2.86,0.764-3.753
									c0.197-0.169,0.381-0.356,0.57-0.534c1.276-1.197,2.553-2.394,3.83-3.591c3.87-3.628,7.738-7.256,11.608-10.885
									c1.14-1.068,2.278-2.136,3.417-3.204c1.003-0.94,1.871-1.712,3.234-2.198c1.403-0.5,2.992-0.704,4.441-1.044
									c1.535-0.361,3.069-0.722,4.604-1.083c0.059-0.014,0.088-0.066,0.092-0.122c0.451-4.396,0.902-8.792,1.353-13.189
									c0.009-0.082-0.086-0.143-0.16-0.122c-3.6,1.05-7.201,2.1-10.801,3.151c-2.444,0.712-4.888,1.426-7.334,2.139
									c-0.783,0.229-1.566,0.458-2.35,0.686c-0.374,0.109-0.913,0.398-1.253,0.057c-6.663-6.701-13.566-13.176-20.366-19.739
									c-0.964-0.931-1.927-1.86-2.891-2.791c-0.365-0.352,0.202-0.8,0.638-0.84c1.213-0.111,2.427-0.213,3.641-0.312
									c2.404-0.196,4.811-0.366,7.218-0.518c10.475-0.662,20.971-0.935,31.465-0.955c9.816-0.018,19.638,0.091,29.448,0.457
									c3.804,0.142,7.607,0.329,11.406,0.589c1.619,0.111,3.236,0.239,4.852,0.385c0.709,0.064,1.417,0.133,2.125,0.206
									c0.895,0.092,1.887,0.1,2.722,0.454c1.583,0.672,0.851,2.488-0.505,2.885c-0.37,0.109-0.739,0.217-1.11,0.325
									c-1.733,0.507-3.466,1.014-5.198,1.521c-5.147,1.505-10.293,3.011-15.439,4.517c-3.031,0.886-6.062,1.772-9.091,2.66
									c-0.066,0.019-0.108,0.088-0.089,0.155c2.308,7.879,4.615,15.758,6.922,23.637c0.119,0.409,0.239,0.816,0.358,1.226
									c0.073,0.248,0.306,0.232,0.562,0.355c1.06,0.512,1.495,1.618,1.344,2.734c-0.417,3.067-4.666,2.277-6.774,2.239
									c-2.017-0.037-4.032-0.073-6.048-0.109c-1.569-0.028-2.386-1.15-3.357-2.183c-0.404-0.43-0.81-0.86-1.214-1.29
									c-0.126-0.134-0.242-0.356-0.446-0.308c-3.555,0.837-7.107,1.706-10.669,2.536c-2.544,0.592-5.086,1.184-7.629,1.777
									c-0.806,0.188-1.612,0.375-2.418,0.563c-0.194,0.045-0.557,0.054-0.712,0.2c-2.747,2.584-5.494,5.167-8.242,7.752
									c-1.725,1.622-3.451,3.245-5.176,4.869C631.458,283.964,630.216,285.525,628.566,285.59c-0.162,0.006-0.163,0.26,0,0.253
									c1.671-0.065,2.749-1.396,3.883-2.463c1.751-1.647,3.502-3.295,5.254-4.942c2.835-2.667,5.67-5.332,8.505-7.999
									c-0.088,0.083,0.129-0.012,0.207-0.029c0.271-0.064,0.542-0.127,0.812-0.19c0.92-0.214,1.84-0.428,2.76-0.642
									c2.605-0.607,5.21-1.214,7.814-1.821c2.089-0.487,4.177-0.973,6.267-1.46c0.364-0.084,0.725-0.212,1.084-0.296
									c0.524-0.124,1.048-0.247,1.572-0.37c0.24-0.057,0.48-0.113,0.721-0.169c0.134-0.032-0.052-0.105,0.135,0.094
									c1.404,1.492,2.759,3.643,5.001,3.684c2.245,0.041,4.49,0.081,6.734,0.122c0.983,0.018,1.968,0.035,2.951,0.053
									c1.231,0.022,2.205-0.524,2.894-1.555c0.801-1.198,0.404-2.835-0.673-3.689c-0.163-0.13-0.828-0.326-0.87-0.472
									c-0.044-0.153-0.089-0.305-0.134-0.458c-2.363-8.07-4.727-16.14-7.09-24.212c-0.083-0.283-0.251-0.006,0.069-0.1
									c0.448-0.131,0.896-0.263,1.344-0.394c1.84-0.539,3.68-1.076,5.52-1.615c5.165-1.511,10.33-3.021,15.495-4.532
									c2.016-0.59,4.033-1.18,6.049-1.77c0.857-0.25,1.784-0.43,2.597-0.808c1.05-0.488,1.6-1.589,0.911-2.605
									c-0.733-1.081-2.601-0.971-3.747-1.088c-3.25-0.334-6.51-0.569-9.771-0.762c-8.751-0.519-17.521-0.711-26.287-0.804
									c-10.733-0.114-21.469-0.063-32.197,0.352c-4.986,0.194-9.968,0.466-14.945,0.826c-2.355,0.171-4.708,0.365-7.059,0.58
									c-0.699,0.064-1.179,0.629-0.58,1.208c2.703,2.606,5.404,5.215,8.105,7.824c3.966,3.832,7.933,7.664,11.888,11.508
									c1.086,1.055,2.176,2.106,3.248,3.176c0.673,0.672,2.048-0.078,2.813-0.299c4.85-1.416,9.7-2.83,14.55-4.246
									c1.507-0.439,3.014-0.879,4.521-1.318c0.284-0.083-0.019-0.01-0.005-0.144c-0.022,0.209-0.043,0.417-0.064,0.627
									c-0.101,0.989-0.202,1.978-0.304,2.967c-0.264,2.574-0.528,5.149-0.792,7.724c-0.062,0.607-0.125,1.215-0.187,1.822
									c-0.006,0.051,0.167-0.115,0.029-0.083c-0.101,0.024-0.201,0.047-0.301,0.071c-0.445,0.104-0.892,0.209-1.337,0.314
									c-2.328,0.548-4.656,1.096-6.984,1.644c-1.357,0.319-2.396,1.118-3.38,2.042c-6.435,6.035-12.871,12.068-19.307,18.103
									c-0.615,0.577-1.19,1.103-1.461,1.942c-0.793,2.455,1.419,4.569,3.745,4.652C628.73,285.849,628.729,285.596,628.566,285.59
									z"/>
							</g>
						</g>
						<g>
							<g>
								<path fill="#BCBEC0" d="M659.592,242.901c0.7,0.123,0.309,1.479,0.27,1.865c-0.117,1.14-0.234,2.28-0.352,3.419
									c-0.263,2.57-0.526,5.139-0.79,7.709c-0.059,0.577-0.118,1.154-0.178,1.731c-0.054,0.534-1.612,0.655-1.95,0.734
									c-2.376,0.559-4.752,1.117-7.128,1.675c-1.264,0.298-2.233,0.971-3.157,1.837c-1.333,1.251-2.668,2.501-4.001,3.753
									c-3.868,3.626-7.736,7.253-11.604,10.88c-1.237,1.16-2.474,2.32-3.71,3.479c-0.274,0.258-0.571,0.51-0.821,0.789
									c-1.175,1.307-0.109,3.154,1.199,3.791c1.749,0.854,2.933-0.566,4.068-1.634c1.688-1.588,3.375-3.175,5.063-4.762
									c3.021-2.841,6.042-5.683,9.064-8.523c0.224-0.211,0.649-0.235,0.933-0.302c0.833-0.193,1.665-0.388,2.497-0.582
									c2.561-0.596,5.121-1.193,7.681-1.789c3.57-0.832,7.128-1.702,10.692-2.54c0.846-0.199,1.744,1.259,2.247,1.795
									c0.681,0.724,1.327,1.672,2.332,1.938c0.619,0.165,1.402,0.068,2.032,0.079c1.29,0.023,2.58,0.047,3.87,0.07
									c1.22,0.022,2.441,0.043,3.662,0.065c0.806,0.015,1.497,0.098,2.197-0.402c0.932-0.666,1.225-2.267,0.179-2.981
									c-0.307-0.21-1.068-0.401-1.177-0.771c-0.047-0.158-0.093-0.317-0.139-0.476c-1.223-4.173-2.444-8.346-3.667-12.52
									c-1.189-4.06-2.378-8.121-3.567-12.181c-0.278-0.952,0.527-1.007,1.256-1.221c1.692-0.495,3.387-0.99,5.08-1.485
									c8.364-2.446,16.729-4.892,25.093-7.338c0.44-0.128,1.228-0.652,0.796-1.188c-0.362-0.448-1.017-0.464-1.545-0.524
									c-0.737-0.083-1.476-0.16-2.214-0.232c-3.319-0.326-6.648-0.555-9.979-0.742c-8.912-0.501-17.841-0.681-26.766-0.761
									c-17.267-0.155-34.547,0.161-51.755,1.692c-0.104,0.009-0.174,0.133-0.09,0.216c7.5,7.237,15.073,14.411,22.464,21.759
									c0.032,0.032,0.08,0.045,0.123,0.033c7.238-2.111,14.474-4.222,21.711-6.333c0.051-0.014,0.051-0.008,0.149-0.022
									c0.161-0.023,0.092-0.267-0.066-0.244c-1.125,0.16-2.27,0.641-3.357,0.958c-2.441,0.712-4.882,1.423-7.323,2.136
									c-3.723,1.085-7.444,2.171-11.167,3.257c0.102-0.029-0.262-0.33-0.385-0.451c-0.304-0.298-0.608-0.596-0.914-0.894
									c-0.822-0.804-1.646-1.605-2.472-2.407c-2.228-2.164-4.46-4.325-6.693-6.484c-3.942-3.813-7.887-7.623-11.833-11.43
									c-0.02-0.018-0.04-0.037-0.058-0.056c-0.029,0.072-0.06,0.144-0.089,0.216c20.463-1.822,41.047-1.977,61.575-1.549
									c7.935,0.166,15.879,0.441,23.792,1.08c1.506,0.122,3.012,0.26,4.514,0.42c0.556,0.06,3.258,0.272,1.8,1.18
									c-0.137,0.085-0.252,0.118-0.397,0.16c-1.197,0.35-2.395,0.7-3.592,1.05c-8.924,2.61-17.849,5.22-26.772,7.829
									c-0.656,0.192-1.459,0.317-1.196,1.215c0.4,1.367,0.801,2.733,1.201,4.1c1.476,5.037,2.95,10.074,4.426,15.111
									c0.523,1.79,1.048,3.579,1.572,5.369c0.089,0.301,0.176,0.603,0.265,0.904c0.165,0.563,0.99,0.606,1.389,0.946
									c1.103,0.94-0.044,2.851-1.321,2.828c-2.016-0.036-4.032-0.072-6.047-0.109c-1.129-0.021-2.259-0.04-3.388-0.061
									c-0.889-0.016-1.627-0.122-2.279-0.814c-0.811-0.862-1.622-1.725-2.434-2.586c-0.592-0.629-1.083-0.393-1.867-0.208
									c-1.315,0.309-2.606,0.654-3.922,0.961c-4.806,1.12-9.613,2.239-14.419,3.359c-0.707,0.165-1.414,0.33-2.121,0.495
									c-0.274,0.063-0.512,0.115-0.727,0.317c-1.128,1.061-2.256,2.122-3.384,3.183c-3.615,3.399-7.23,6.799-10.846,10.199
									c-0.354,0.333-0.709,0.667-1.062,0.999c-2.007,1.888-5.514-0.921-3.555-3.1c0.668-0.743,1.494-1.392,2.221-2.074
									c3.687-3.458,7.375-6.916,11.062-10.372c2.469-2.314,4.936-4.629,7.404-6.943c0.795-0.745,1.809-0.985,2.821-1.223
									c1.207-0.284,2.413-0.567,3.619-0.851c1.207-0.284,2.413-0.567,3.619-0.851c0.571-0.134,1.332-0.141,1.538-0.782
									c0.229-0.714,0.171-1.656,0.247-2.396c0.187-1.82,0.373-3.64,0.56-5.46c0.17-1.651,0.339-3.302,0.508-4.953
									c0.066-0.645,0.501-2.05-0.444-2.215C659.499,242.63,659.431,242.874,659.592,242.901z"/>
							</g>
						</g>
						<g>
							<g>
								<path fill="#BCBEC0" d="M680.716,264.582c-2.083,0-4.168,0-6.252,0c-0.701,0-1.173,0.098-1.658-0.454
									c-0.756-0.861-1.513-1.722-2.269-2.583c-0.792-0.901-1.583-1.802-2.376-2.704c-0.131-0.15-0.263-0.299-0.394-0.448
									c-0.24-0.274-0.633-0.491-0.912-0.751c-0.294-0.275-0.658-0.518-1.032-0.666c-1.287-0.511-2.554-0.122-3.846,0.138
									c-0.603,0.121-2.081,0.684-1.97-0.414c0.45-4.452,0.901-8.904,1.353-13.357c0.043-0.436-0.03-1.044,0.501-1.196
									c0.78-0.224,1.56-0.446,2.34-0.669c2.491-0.712,4.982-1.424,7.474-2.136c0.27-0.078,1.896-0.795,2.072-0.196
									c0.085,0.29,0.17,0.579,0.256,0.868c0.53,1.803,1.06,3.604,1.59,5.407c1.471,5.003,2.943,10.005,4.414,15.008
									c0.261,0.885,0.521,1.771,0.781,2.656c0.106,0.362,0.612,1.332-0.107,1.501c-0.158,0.038-0.091,0.281,0.067,0.244
									c1.135-0.269,0.203-2.084-0.001-2.778c-0.625-2.127-1.251-4.253-1.876-6.38c-1.415-4.812-2.831-9.625-4.247-14.437
									c-0.122-0.415-0.448-2.667-1.185-2.612c-0.544,0.042-1.084,0.263-1.606,0.412c-1.172,0.336-2.345,0.671-3.518,1.005
									c-2.144,0.613-4.287,1.225-6.433,1.838c-0.422,0.12-0.662,0.33-0.708,0.785c-0.074,0.723-0.146,1.446-0.22,2.169
									c-0.265,2.616-0.529,5.233-0.794,7.849c-0.108,1.069-0.216,2.139-0.325,3.208c-0.029,0.293-0.26,1.116-0.063,1.403
									c0.531,0.776,1.993,0.121,2.733-0.028c0.572-0.114,1.149-0.266,1.731-0.312c0.59-0.047,1.163,0.099,1.691,0.352
									c0.549,0.262,0.844,0.762,1.311,1.094c0.597,0.424,1.033,0.953,1.535,1.523c0.884,1.007,1.769,2.014,2.653,3.021
									c0.491,0.559,0.983,1.119,1.476,1.679c0.352,0.402,1.364,0.214,1.815,0.214c1.999,0,3.998,0,5.997,0
									C680.878,264.835,680.878,264.582,680.716,264.582z"/>
							</g>
						</g>
						<g>
							<g>
								<path fill="#BCBEC0" d="M673.61,263.812c2.141,0,4.282,0,6.423,0c0.082,0,0.146-0.081,0.122-0.16
									c-2.274-7.732-4.548-15.464-6.823-23.196c-0.059-0.202-0.118-0.403-0.178-0.604c-0.019-0.066-0.088-0.107-0.156-0.089
									c-3.577,1.022-7.155,2.044-10.733,3.066c-0.058,0.017-0.086,0.065-0.092,0.123c-0.454,4.485-0.908,8.971-1.362,13.456
									c-0.009,0.087,0.087,0.136,0.16,0.122c1.509-0.302,3.12-0.828,4.645-0.442c0.628,0.159,1.184,0.513,1.679,0.917
									c0.21,0.171,0.395,0.373,0.578,0.571c0.137,0.148,0.303,0.117,0.464,0.3c0.203,0.231,0.406,0.462,0.609,0.693
									c1.525,1.735,3.05,3.47,4.575,5.206c0.108,0.123,0.286-0.057,0.179-0.179c-1.386-1.578-2.773-3.155-4.16-4.732
									c-0.28-0.319-0.56-0.638-0.84-0.957c-0.308-0.35-0.698-0.576-1.029-0.904c-1.328-1.314-3.017-1.468-4.759-1.12
									c-0.551,0.11-1.102,0.221-1.654,0.331c-0.097,0.02-0.194,0.039-0.291,0.059c-0.146,0.029,0.099,0.095,0.097,0.124
									c0.007-0.067,0.014-0.134,0.021-0.201c0.081-0.793,0.16-1.585,0.241-2.378c0.265-2.62,0.53-5.24,0.795-7.861
									c0.089-0.877,0.178-1.756,0.267-2.634c0.009-0.092,0.018-0.183,0.028-0.275c0.017-0.169,0.023-0.005-0.081,0.025
									c0.19-0.055,0.38-0.108,0.569-0.163c2.33-0.666,4.659-1.331,6.989-1.997c0.937-0.268,1.874-0.536,2.811-0.803
									c0.095-0.027,0.188-0.054,0.283-0.081c0.162-0.046-0.04,0.019-0.076-0.105c0.03,0.103,0.061,0.205,0.091,0.309
									c0.456,1.55,0.911,3.101,1.368,4.651c1.473,5.009,2.946,10.017,4.419,15.025c0.369,1.252,0.738,2.505,1.106,3.758
									c0.041,0.141-0.039-0.108,0.131-0.108c-0.083,0-0.168,0-0.252,0c-0.502,0-1.004,0-1.506,0c-1.278,0-2.557,0-3.834,0
									c-0.275,0-0.549,0-0.824,0C673.447,263.56,673.447,263.812,673.61,263.812z"/>
							</g>
						</g>
					</g>
				</g>
			</g>
		</g>
		<g>
			<g>
				<g>
					<g>
						<path fill="#BCBEC0" d="M669.863,257.378L669.863,257.378c-0.566,0-1.139-0.105-1.702-0.312
							c-1.277-0.47-2.264-1.353-2.935-2.625c-0.679-1.29-0.78-2.603-0.303-3.9c0.473-1.285,1.363-2.245,2.644-2.854
							c1.28-0.605,2.622-0.674,3.964-0.201c1.347,0.47,2.338,1.327,2.947,2.545c0.612,1.223,0.683,2.528,0.209,3.881
							c-0.472,1.351-1.363,2.343-2.648,2.953C671.323,257.205,670.59,257.378,669.863,257.378z M669.774,248.197
							c-0.592,0-1.188,0.139-1.77,0.415c-1.045,0.496-1.739,1.242-2.123,2.283c-0.379,1.03-0.297,2.033,0.248,3.07
							c0.557,1.056,1.337,1.758,2.383,2.143c0.449,0.165,0.904,0.249,1.349,0.249l0,0c0.574,0,1.16-0.14,1.74-0.416
							c1.043-0.493,1.737-1.267,2.121-2.366c0.384-1.097,0.333-2.107-0.158-3.087c-0.493-0.986-1.268-1.653-2.371-2.038
							C670.716,248.282,670.238,248.197,669.774,248.197z"/>
					</g>
				</g>
				<g>
					<g>
						<g>
							<path fill="#BCBEC0" d="M669.863,257.251c-2.729-0.084-4.982-2.297-5.108-5.037c-0.126-2.771,2.464-4.855,5.057-4.912
								c2.725-0.06,4.996,2.23,5.059,4.899C674.937,254.976,672.538,257.172,669.863,257.251c-0.163,0.005-0.164,0.257,0,0.253
								c2.942-0.087,5.157-2.388,5.26-5.303c0.104-2.926-2.581-5.054-5.312-5.151c-2.867-0.103-5.26,2.377-5.31,5.165
								c-0.049,2.874,2.628,5.206,5.361,5.29C670.026,257.509,670.025,257.256,669.863,257.251z"/>
						</g>
					</g>
					<g>
						<g>
							<path fill="#BCBEC0" d="M669.774,248.071c-2.323,0.09-4.245,1.84-4.25,4.216c-0.004,2.29,2.182,4.114,4.338,4.195
								c2.411,0.09,4.182-2.103,4.241-4.355C674.165,249.775,671.933,248.149,669.774,248.071c-0.163-0.006-0.163,0.247,0,0.253
								c2.156,0.078,3.962,1.586,4.076,3.804c0.116,2.25-1.848,4.016-3.988,4.102c-2.144,0.086-3.921-1.923-4.084-3.942
								c-0.18-2.231,1.956-3.884,3.997-3.963C669.937,248.318,669.938,248.064,669.774,248.071z"/>
						</g>
					</g>
				</g>
			</g>
		</g>
	</g>
	<g>
		<g>
			<g>
				<g>
					<path fill="#BCBEC0" d="M547.889,237.615h-0.194c-1.404,0-2.547-1.143-2.547-2.548v-10.624c0-1.4,1.143-2.538,2.547-2.538
						c1.599,0,2.742,1.143,2.742,2.547v10.615C550.436,236.473,549.293,237.615,547.889,237.615z M547.889,223.98
						c-0.458,0-0.666,0.203-0.666,0.463v10.624c0,0.265,0.207,0.471,0.471,0.471h0.194c0.264,0,0.47-0.206,0.47-0.471v-10.615
						C548.359,224.192,548.148,223.98,547.889,223.98z"/>
				</g>
			</g>
		</g>
		<g>
			<g>
				<g>
					<path fill="#BCBEC0" d="M455.928,237.615h-0.194c-1.404,0-2.547-1.143-2.547-2.548v-10.615c0-1.405,1.143-2.547,2.547-2.547
						c1.599,0,2.741,1.143,2.741,2.547v10.615C458.475,236.473,457.332,237.615,455.928,237.615z M455.928,223.98
						c-0.458,0-0.665,0.207-0.665,0.472v10.615c0,0.265,0.207,0.471,0.471,0.471h0.194c0.264,0,0.47-0.206,0.47-0.471v-10.615
						C456.398,224.188,456.191,223.98,455.928,223.98z"/>
				</g>
			</g>
		</g>
		<g>
			<g>
				<g>
					<path fill="#BCBEC0" d="M512.415,286.625h-19.683c-1.637,0-3.116-0.968-3.766-2.466l-10.391-23.714h-13.134
						c-2.209,0-4.231-1.11-5.411-2.972c-1.185-1.855-1.337-4.159-0.404-6.16l8.726-18.693h-2.813v4.72
						c0,1.82-1.365,3.301-3.042,3.301c-1.672,0-3.033-1.48-3.033-3.301V222.18c0-1.819,1.361-3.301,3.033-3.301
						c1.677,0,3.042,1.481,3.042,3.301v4.714h5.667c1.809-2.398,5.069-3.248,7.821-1.963c0.964,0.449,1.789,1.121,2.416,1.963h8.814
						c0.574,0,1.038,0.464,1.038,1.038c0,0.573-0.464,1.038-1.038,1.038h-9.949l-0.303-0.499c-0.44-0.725-1.082-1.298-1.855-1.659
						c-1.98-0.92-4.354-0.209-5.516,1.667l-0.304,0.491h-8.867v-6.79c0-0.675-0.433-1.225-0.965-1.225
						c-0.519,0-0.957,0.562-0.957,1.225v15.159c0,0.664,0.438,1.225,0.957,1.225c0.532,0,0.965-0.55,0.965-1.225v-6.796h8.151
						l-10.105,21.647c-0.631,1.352-0.528,2.911,0.275,4.167c0.798,1.261,2.165,2.011,3.659,2.011h14.49l10.938,24.961
						c0.322,0.74,1.054,1.218,1.863,1.218h19.684c0.86,0,1.631-0.547,1.915-1.364l8.687-24.815h15.433
						c1.521,0,2.907-0.776,3.705-2.076c0.781-1.282,0.843-2.904,0.165-4.231l-10.956-21.518h8.781v6.796
						c0,0.664,0.438,1.225,0.957,1.225c0.532,0,0.965-0.549,0.965-1.225v-15.159c0-0.675-0.433-1.225-0.965-1.225
						c-0.52,0-0.957,0.562-0.957,1.225v6.79h-9.573l-0.304-0.492c-1.2-1.942-3.627-2.628-5.644-1.601
						c-0.699,0.352-1.289,0.902-1.71,1.594l-0.303,0.498h-9.748c-0.574,0-1.038-0.464-1.038-1.038c0-0.573,0.464-1.038,1.038-1.038
						h8.613c0.589-0.792,1.343-1.433,2.21-1.868c2.805-1.433,6.148-0.619,8.012,1.868h6.371v-4.713c0-1.819,1.361-3.301,3.033-3.301
						c1.677,0,3.042,1.48,3.042,3.301v15.159c0,1.819-1.365,3.301-3.042,3.301c-1.673,0-3.033-1.48-3.033-3.301v-4.721h-3.319
						l9.419,18.499c1.006,1.962,0.914,4.361-0.241,6.257c-1.181,1.924-3.228,3.069-5.477,3.069h-13.96l-8.198,23.424
						C515.716,285.517,514.159,286.625,512.415,286.625z M531.368,249.691h-59.106l7.98-17.105c0.156-0.337,0.261-0.703,0.328-1.152
						l0.133-0.885h9.491c0.573,0,1.038,0.464,1.038,1.038s-0.465,1.038-1.038,1.038h-7.759c-0.084,0.294-0.188,0.572-0.311,0.836
						l-6.602,14.153h52.457l-7.114-13.956c-0.162-0.324-0.294-0.666-0.401-1.033h-7.846c-0.574,0-1.038-0.464-1.038-1.038
						s0.464-1.038,1.038-1.038h9.56l0.143,0.87c0.083,0.514,0.21,0.928,0.399,1.304L531.368,249.691z"/>
				</g>
			</g>
		</g>
		<g>
			<g>
				<path fill="#BCBEC0" d="M501.352,241.479c-6.69,0-12.134-5.442-12.134-12.131c0-6.69,5.443-12.132,12.134-12.132
					c6.688,0,12.13,5.441,12.13,12.132C513.482,236.036,508.04,241.479,501.352,241.479z M501.352,219.292
					c-5.546,0-10.057,4.512-10.057,10.056s4.511,10.055,10.057,10.055c5.543,0,10.054-4.511,10.054-10.055
					S506.896,219.292,501.352,219.292z"/>
			</g>
		</g>
	</g>
	<g>
		<g>
			<g>
				<g>
					<path fill="#BEBEBE" d="M1021.39,262.934c-0.077-0.07-0.154-0.138-0.231-0.207v-0.354c0-0.762,0.879-0.957,1.329-0.585
						c-5.807-5.184-11.615-10.369-17.423-15.555c-1.454-1.298-2.907-2.597-4.362-3.895c-0.415-0.371-0.829-0.742-1.244-1.112
						c-0.117-0.104-0.233-0.209-0.351-0.312c-0.257-0.229,0.033-0.01,0.011-0.197c-0.76-6.63-1.424-13.523-3.38-19.935
						c-0.422-1.382-1.611-5.118-3.781-3.823c-1.78,1.062-2.296,4.3-2.736,6.104c-1.4,5.761-2.098,11.725-2.7,17.616
						c-0.009,0.092-0.018,0.182-0.025,0.273c0.448-0.4-0.039,0.376-0.033,0.329c0.009-0.11,0.021-0.22,0.031-0.329
						c-0.854,0.763-1.708,1.527-2.563,2.291c-3.478,3.104-6.954,6.208-10.429,9.312c-3.075,2.746-6.15,5.491-9.225,8.234
						c-0.423,0.38-1.376,0.953-1.376,1.607v5.445c0,0.568,0.687,1.032,1.195,0.685c7.406-5.05,14.815-10.099,22.222-15.151
						c-0.024-0.482-0.048-0.965-0.072-1.448c0.398,0.228,0.796,0.457,1.192,0.685c-0.375,0.255-0.747,0.51-1.121,0.763
						c0.433,8.545,1.039,17.225,2.929,25.583c0.169-0.092,0.339-0.184,0.508-0.275c-0.121,0.299-0.244,0.598-0.365,0.896
						c-0.048-0.207-0.096-0.413-0.143-0.621c-2.062,1.114-4.122,2.228-6.183,3.342c-0.244,0.13-0.395,0.413-0.395,0.685v3.366
						c0,0.493,0.512,0.93,1.006,0.764c2.426-0.814,4.854-1.627,7.28-2.442c-0.105-0.268-0.203-0.533-0.3-0.782
						c0.327,0.185,0.651,0.369,0.977,0.554c-0.225,0.075-0.451,0.152-0.677,0.228c0.316,0.814,0.692,1.668,1.306,2.237
						c0.336,0.312,0.783,0.29,1.123,0c0.628-0.538,1.086-1.173,1.481-1.876c-0.202-0.061-0.402-0.122-0.604-0.182
						c0.3-0.122,0.599-0.244,0.897-0.365c-0.093,0.185-0.191,0.369-0.293,0.546c2.298,0.693,4.597,1.388,6.895,2.082
						c0.496,0.148,1.004-0.259,1.004-0.765v-3.492c0-0.256-0.145-0.575-0.393-0.685c-1.877-0.833-3.752-1.665-5.629-2.496
						c-0.053,0.222-0.107,0.441-0.16,0.663c-0.121-0.297-0.243-0.597-0.365-0.896c0.174,0.078,0.35,0.156,0.525,0.234
						c1.93-8.255,2.262-17.058,2.245-25.539c-0.4-0.251-0.8-0.502-1.2-0.754c0.398-0.229,0.796-0.457,1.194-0.686
						c0.002,0.479,0.006,0.96,0.006,1.44c7.522,4.726,15.042,9.451,22.564,14.177c0.514,0.325,1.195-0.097,1.195-0.684v-5.128
						C1022.616,263.015,1021.917,263.403,1021.39,262.934z M964.489,262.396v0.339c-0.049,0.053-0.081,0.09-0.099,0.114
						C964.424,262.787,964.489,262.63,964.489,262.396z M964.489,267.841c-0.398-0.229-0.796-0.457-1.194-0.686
						c0.398-0.272,0.796-0.543,1.194-0.815V267.841z M984.257,282.983v0.472c-0.13,0.071-0.263,0.141-0.393,0.212
						C983.997,283.439,984.126,283.211,984.257,282.983z M984.257,286.349c-0.335-0.255-0.67-0.51-1.004-0.765
						c0.334-0.112,0.67-0.224,1.004-0.337V286.349z M992.262,285.787c0.236-0.204,0.446-0.422,0.632-0.653
						c0.141,0.251,0.303,0.479,0.491,0.653H992.262z M1001.179,286.349v-1.068c0.334,0.101,0.669,0.202,1.004,0.303
						C1001.847,285.838,1001.513,286.094,1001.179,286.349z M1001.179,282.856c0.13,0.229,0.261,0.457,0.393,0.687
						c-0.13-0.059-0.264-0.116-0.393-0.174V282.856z M1021.159,267.63v-1.435c0.398,0.25,0.796,0.501,1.194,0.75
						C1021.955,267.173,1021.557,267.402,1021.159,267.63z"/>
				</g>
			</g>
			<g>
				<g>
					<path fill="#BEBEBE" d="M964.39,262.849c0.035-0.062,0.099-0.219,0.099-0.453v0.339
						C964.439,262.789,964.408,262.826,964.39,262.849z"/>
				</g>
			</g>
			<g>
				<g>
					<path fill="#BEBEBE" d="M963.294,267.155c0.399-0.272,0.796-0.543,1.194-0.815v1.501
						C964.09,267.612,963.693,267.385,963.294,267.155z"/>
				</g>
			</g>
			<g>
				<g>
					<path fill="#BEBEBE" d="M983.864,283.668c0.132-0.228,0.263-0.457,0.393-0.685v0.471
						C984.126,283.526,983.995,283.596,983.864,283.668z"/>
				</g>
			</g>
			<g>
				<g>
					<path fill="#BEBEBE" d="M983.253,285.583c0.334-0.112,0.67-0.224,1.004-0.338v1.104
						C983.923,286.094,983.587,285.838,983.253,285.583z"/>
				</g>
			</g>
			<g>
				<g>
					<path fill="#BEBEBE" d="M986.463,241.281c0.009-0.11,0.021-0.22,0.031-0.329h0.001
						C986.944,240.552,986.458,241.329,986.463,241.281z"/>
				</g>
			</g>
			<g>
				<g>
					<path fill="#BEBEBE" d="M986.247,251.926c0.398,0.228,0.796,0.457,1.193,0.685c-0.375,0.255-0.747,0.51-1.122,0.764
						C986.294,252.892,986.271,252.409,986.247,251.926z"/>
				</g>
			</g>
			<g>
				<g>
					<path fill="#BEBEBE" d="M989.247,278.957c0.169-0.092,0.339-0.184,0.508-0.276c-0.121,0.299-0.244,0.599-0.365,0.896
						C989.342,279.37,989.295,279.164,989.247,278.957z"/>
				</g>
			</g>
			<g>
				<g>
					<path fill="#BEBEBE" d="M990.656,283.89c0.327,0.185,0.652,0.369,0.977,0.554c-0.226,0.075-0.451,0.152-0.678,0.228
						C990.851,284.403,990.753,284.139,990.656,283.89z"/>
				</g>
			</g>
			<g>
				<g>
					<path fill="#BEBEBE" d="M992.894,285.134c0.141,0.251,0.303,0.479,0.491,0.653h-1.123
						C992.499,285.583,992.708,285.365,992.894,285.134z"/>
				</g>
			</g>
			<g>
				<g>
					<path fill="#BEBEBE" d="M994.263,284.851c0.299-0.122,0.598-0.244,0.897-0.365c-0.093,0.186-0.191,0.369-0.293,0.547
						C994.665,284.972,994.464,284.912,994.263,284.851z"/>
				</g>
			</g>
			<g>
				<g>
					<path fill="#BEBEBE" d="M996.217,279.443c0.174,0.078,0.35,0.156,0.524,0.233c-0.053,0.222-0.107,0.442-0.16,0.663
						C996.461,280.041,996.34,279.742,996.217,279.443z"/>
				</g>
			</g>
			<g>
				<g>
					<path fill="#BEBEBE" d="M998.98,252.697c0.002,0.479,0.006,0.96,0.006,1.441c-0.4-0.251-0.8-0.503-1.2-0.755
						C998.184,253.154,998.583,252.927,998.98,252.697z"/>
				</g>
			</g>
			<g>
				<g>
					<path fill="#BEBEBE" d="M1001.572,283.542c-0.13-0.059-0.263-0.116-0.393-0.174v-0.513
						C1001.31,283.085,1001.44,283.313,1001.572,283.542z"/>
				</g>
			</g>
			<g>
				<g>
					<path fill="#BEBEBE" d="M1001.179,285.28c0.334,0.101,0.669,0.202,1.004,0.303c-0.336,0.255-0.67,0.51-1.004,0.765V285.28z"/>
				</g>
			</g>
			<g>
				<g>
					<path fill="#BEBEBE" d="M1021.159,266.195c0.398,0.25,0.796,0.501,1.194,0.75c-0.398,0.228-0.796,0.457-1.194,0.685V266.195z"
						/>
				</g>
			</g>
			<g>
				<g>
					<path fill="#BEBEBE" d="M1022.746,262.502c-0.13,0.513-0.83,0.901-1.356,0.432c-0.077-0.07-0.154-0.138-0.231-0.207v-0.354
						c0-0.762,0.879-0.956,1.329-0.585c0.003,0.004,0.007,0.007,0.011,0.009c0.005,0.006,0.011,0.01,0.015,0.015
						c0.017,0.015,0.033,0.032,0.048,0.048C1022.757,262.058,1022.801,262.292,1022.746,262.502z"/>
				</g>
			</g>
		</g>
		<g>
			<g>
				<path fill="#BEBEBE" d="M990.408,226.852c0,0,2.362-7.824,4.527,0C994.935,226.852,992.671,224.332,990.408,226.852z"/>
			</g>
		</g>
		<g>
			<g>
				<g>
					<line fill="#BEBEBE" x1="978.618" y1="261.546" x2="978.618" y2="268.854"/>
				</g>
			</g>
			<g>
				<g>
					<g>
						<path fill="#BEBEBE" d="M978.067,261.546c0,2.436,0,4.873,0,7.308c0,0.71,1.101,0.71,1.101,0c0-2.435,0-4.872,0-7.308
							C979.168,260.836,978.067,260.836,978.067,261.546L978.067,261.546z"/>
					</g>
				</g>
			</g>
		</g>
		<g>
			<g>
				<g>
					<line fill="#BEBEBE" x1="973.846" y1="263.816" x2="973.846" y2="272.524"/>
				</g>
			</g>
			<g>
				<g>
					<g>
						<path fill="#BEBEBE" d="M973.295,263.816c0,2.902,0,5.806,0,8.708c0,0.71,1.102,0.71,1.102,0c0-2.903,0-5.806,0-8.708
							C974.397,263.106,973.295,263.106,973.295,263.816L973.295,263.816z"/>
					</g>
				</g>
			</g>
		</g>
		<g>
			<g>
				<g>
					<line fill="#BEBEBE" x1="1005.228" y1="262.681" x2="1005.228" y2="269.989"/>
				</g>
			</g>
			<g>
				<g>
					<g>
						<path fill="#BEBEBE" d="M1004.677,262.681c0,2.436,0,4.872,0,7.308c0,0.71,1.101,0.71,1.101,0c0-2.436,0-4.872,0-7.308
							C1005.778,261.971,1004.677,261.971,1004.677,262.681L1004.677,262.681z"/>
					</g>
				</g>
			</g>
		</g>
		<g>
			<g>
				<g>
					<line fill="#BEBEBE" x1="1009.999" y1="264.95" x2="1009.999" y2="273.659"/>
				</g>
			</g>
			<g>
				<g>
					<g>
						<path fill="#BEBEBE" d="M1009.449,264.95c0,2.903,0,5.806,0,8.709c0,0.709,1.101,0.709,1.101,0c0-2.904,0-5.806,0-8.709
							C1010.549,264.24,1009.449,264.24,1009.449,264.95L1009.449,264.95z"/>
					</g>
				</g>
			</g>
		</g>
	</g>
	<g>
		<g>
			<g>
				<g>
					<path fill="#BCBEC0" d="M1253.83,243.302c-0.046,2.815-2.284,5.054-5.1,5.1c-2.815,0.047-5.055-2.355-5.1-5.1
						c-0.047-2.816,2.355-5.056,5.1-5.101C1251.545,238.155,1253.785,240.557,1253.83,243.302c0.009,0.509,0.801,0.511,0.792,0
						c-0.048-2.913-2.158-5.397-5.056-5.83c-2.877-0.431-5.599,1.393-6.477,4.122c-0.897,2.784,0.586,5.84,3.182,7.062
						c2.646,1.246,5.78,0.234,7.395-2.135c0.642-0.942,0.938-2.089,0.957-3.219C1254.63,242.792,1253.838,242.792,1253.83,243.302z"
						/>
				</g>
			</g>
		</g>
		<g>
			<g>
				<g>
					<path fill="#BCBEC0" d="M1262.71,245.41c0-2.958,0-5.917,0-8.875c0-1.97,0-3.938,0-5.907c0-0.934,0.196-2.174-0.156-3.07
						c-0.438-1.115-1.519-1.22-2.547-1.22c-1.066,0-2.03-0.02-2.687,0.98c-0.51,0.776-0.27,2.259-0.27,3.126
						c0,3.989,0,7.978,0,11.967c0,0.848,0,1.695,0,2.543c0,0.148,0,0.295,0,0.443c0-0.104,0.069-0.201-0.021-0.026
						c-0.091,0.177-0.189,0.352-0.286,0.526c-1.059,1.911-2.166,3.797-3.265,5.685c0.114-0.065,0.229-0.13,0.343-0.196
						c-1.591,0.01-3.181,0.024-4.771,0.042c-1.108,0.013-2.216,0.027-3.325,0.051c-0.511,0.011-1.215-0.088-1.709,0.083
						c0.128,0.034,0.257,0.068,0.386,0.102c-1.488-1.587-2.976-3.173-4.465-4.759c0.034,0.128,0.067,0.256,0.102,0.385
						c0.424-1.485,0.849-2.97,1.273-4.456c0.297-1.042,0.043-2.15-1.048-2.611c-0.797-0.337-1.71-0.901-2.601-0.802
						c-0.89,0.1-1.447,0.778-1.677,1.584c-0.24,0.84-0.48,1.681-0.72,2.521c-0.278,0.972-0.555,1.944-0.833,2.916
						c-0.173,0.608-0.458,1.288-0.396,1.922c0.09,0.888,0.739,1.179,1.211,1.708c0.448,0.503,0.908,0.997,1.364,1.492
						c1.421,1.543,2.851,3.079,4.281,4.614c0.538,0.579,1.076,1.156,1.614,1.734c0.128,0.137,0.255,0.273,0.383,0.41
						c0.192,0.205-0.051-0.415-0.051-0.088c0,1.723,0,3.446,0,5.169c0,0.921,0,1.842,0,2.762c0,0.234,0,0.469,0,0.703
						c0,0.328,0.229-0.293,0.062-0.095c-0.888,1.059-1.775,2.117-2.663,3.176c-1.343,1.603-2.688,3.205-4.032,4.808
						c-0.457,0.546-0.915,1.092-1.372,1.638c-0.364,0.434-0.697,0.812-0.793,1.403c-0.255,1.564,1.455,2.617,2.452,3.536
						c1.493,1.376,2.987,2.754,4.48,4.131c0.325,0.299,0.648,0.598,0.974,0.896c0.931,0.858,2.263,0.505,3.06-0.34
						c0.718-0.761,1.604-1.553,1.412-2.718c-0.124-0.75-0.622-1.149-1.141-1.628c-1.485-1.37-2.97-2.739-4.455-4.107
						c0,0.187,0,0.373,0,0.56c1.051-1.241,2.104-2.481,3.158-3.72c0.256-0.301,0.512-0.602,0.77-0.901
						c0.08-0.093,0.159-0.185,0.238-0.277c0.192-0.222,0.058,0.017-0.167-0.007c0.646,0.067,1.292,0.142,1.938,0.22
						c1.006,0.123,2.017,0.249,3.009,0.453c0.153,0.032,0.306,0.068,0.456,0.112c0.255,0.075-0.005,0.073-0.005-0.221
						c0,0.095,0,0.191,0,0.286c0,1.395,0,2.789,0,4.183c0,3.837,0,7.676,0,11.514c0,0.318,0,0.637,0,0.956
						c0,1.218,1.118,1.943,2.229,1.991c0.893,0.039,1.953,0.103,2.693-0.478c0.562-0.44,0.783-1.031,0.783-1.722
						c0-6.427,0-12.853,0-19.281c0-3.324,0-6.649,0-9.974c0-0.756,0-1.512,0-2.269c0-0.19,0-0.38,0-0.57
						c0-0.291-0.074,0.097-0.03,0.023c0.723-1.169,1.445-2.339,2.167-3.509c1.141-1.848,2.281-3.695,3.423-5.542
						c0.3-0.487,0.601-0.974,0.902-1.461C1262.828,247.214,1262.719,246.218,1262.71,245.41c-0.007-0.51-0.798-0.511-0.793,0
						c0.008,0.692,0.133,1.559-0.246,2.172c-0.291,0.471-0.582,0.942-0.873,1.413c-1.074,1.74-2.149,3.48-3.223,5.22
						c-0.777,1.258-1.553,2.516-2.33,3.773c-0.133,0.216-0.114,0.423-0.114,0.669c0,0.652,0,1.304,0,1.956c0,6.245,0,12.49,0,18.736
						c0,3.643,0,7.286,0,10.929c0,0.588-0.04,1.062-0.612,1.432c-0.438,0.283-1.014,0.216-1.511,0.216
						c-0.628,0-1.202,0.008-1.696-0.46c-0.36-0.343-0.302-0.84-0.302-1.286c0-0.625,0-1.248,0-1.873c0-3.999,0-7.999,0-11.998
						c0-0.639,0-1.277,0-1.916c0-0.211,0.074-0.635-0.059-0.827c-0.33-0.481-1.304-0.502-1.813-0.586
						c-1.022-0.168-2.052-0.292-3.08-0.412c-0.375-0.043-1.195-0.304-1.525-0.019c-0.445,0.387-0.809,0.942-1.19,1.39
						c-1.029,1.209-2.055,2.419-3.081,3.63c-0.134,0.159-0.168,0.405,0,0.56c1.171,1.08,2.342,2.159,3.512,3.239
						c0.502,0.463,1.004,0.926,1.506,1.388c1.01,0.932-0.188,2.021-0.835,2.708c-0.699,0.741-1.506,0.74-2.204,0.098
						c-0.549-0.505-1.097-1.012-1.644-1.517c-1.494-1.376-2.988-2.753-4.481-4.13c-0.324-0.299-0.649-0.598-0.973-0.896
						c-0.69-0.637-0.259-1.455,0.213-2.018c1.094-1.304,2.188-2.609,3.281-3.913c1.278-1.525,2.557-3.05,3.836-4.575
						c0.323-0.386,0.647-0.771,0.97-1.157c0.217-0.259,0.186-0.505,0.186-0.827c0-1.904,0-3.809,0-5.713c0-0.785,0-1.57,0-2.355
						c0-0.321-0.02-0.522-0.246-0.766c-2.412-2.584-4.831-5.163-7.211-7.776c-0.151-0.165-0.302-0.331-0.449-0.498
						c-0.035-0.04-0.07-0.079-0.103-0.12c0.156,0.191-0.051-0.057-0.018-0.023c-0.186-0.186-0.42-0.255-0.586-0.483
						c-0.432-0.585-0.002-1.505,0.179-2.14c0.518-1.812,1.035-3.624,1.553-5.437c0.073-0.253,0.114-0.413,0.291-0.628
						c0.481-0.587,1.166-0.382,1.744-0.138c1.021,0.432,2.171,0.755,1.774,2.144c-0.426,1.494-0.853,2.988-1.28,4.481
						c-0.094,0.332,0.369,0.676,0.565,0.884c0.515,0.55,1.029,1.099,1.545,1.647c0.818,0.872,1.636,1.745,2.455,2.617
						c0.09,0.098,0.257,0.146,0.385,0.102c0.012-0.004-0.083,0.005,0.048-0.005c0.098-0.008,0.195-0.012,0.294-0.016
						c0.353-0.016,0.704-0.023,1.057-0.031c1.008-0.023,2.017-0.036,3.025-0.048c1.685-0.021,3.371-0.036,5.056-0.047
						c0.43-0.003,0.547-0.353,0.737-0.68c0.468-0.806,0.934-1.612,1.399-2.419c0.502-0.873,1.004-1.747,1.498-2.626
						c0.167-0.297,0.501-0.716,0.501-1.077c0-3.166,0-6.331,0-9.497c0-1.9,0-3.8,0-5.699c0-1.001-0.34-3.05,1.2-3.05
						c0.876,0,2.16-0.257,2.715,0.588c0.22,0.334,0.162,0.818,0.162,1.203c0,1.555,0,3.111,0,4.667c0,3.722,0,7.443,0,11.165
						c0,0.219,0,0.438,0,0.657C1261.917,245.92,1262.71,245.92,1262.71,245.41z"/>
				</g>
			</g>
		</g>
		<g>
			<g>
				<g>
					<path fill="#BCBEC0" d="M1223.944,229.283c0.851,0.043,1.935-0.092,2.732,0.272c0.911,0.416,1.27,1.763,1.618,2.594
						c0.365,0.866,0.743,1.747,1.411,2.425c0.737,0.747,1.798,1.146,2.739,1.557c0.578,0.253,1.083-0.6,0.5-0.854
						c-0.933-0.407-1.976-0.789-2.683-1.553c-0.783-0.846-1.105-2.125-1.57-3.15c-0.365-0.807-0.859-1.617-1.716-1.96
						c-0.929-0.373-2.051-0.27-3.031-0.319C1223.306,228.262,1223.309,229.251,1223.944,229.283L1223.944,229.283z"/>
				</g>
			</g>
		</g>
		<g>
			<g>
				<g>
					<path fill="#BCBEC0" d="M1235.959,219.909c1.125,0.625,2.351,1.083,3.417,1.809c1.15,0.783,1.506,2.042,1.647,3.361
						c0.114,1.063,0.087,2.156,0.542,3.148c0.499,1.089,1.715,1.416,2.81,1.486c0.637,0.041,0.633-0.949,0-0.99
						c-1.18-0.075-1.917-0.511-2.163-1.69c-0.231-1.102-0.188-2.246-0.417-3.354c-0.562-2.699-3.219-3.45-5.337-4.625
						C1235.9,218.745,1235.4,219.6,1235.959,219.909L1235.959,219.909z"/>
				</g>
			</g>
		</g>
		<g>
			<g>
				<g>
					<path fill="#BCBEC0" d="M1272.664,218.313c-1.178,0.543-2.334,1.195-3.086,2.284c-0.643,0.929-0.727,2.127-0.703,3.221
						c0.03,1.286,0.381,2.637,0.013,3.9c-0.36,1.236-1.78,1.458-2.883,1.521c-0.635,0.036-0.638,1.026,0,0.989
						c1.224-0.07,2.596-0.299,3.382-1.344c0.718-0.953,0.698-2.24,0.601-3.372c-0.11-1.293-0.304-2.668,0.169-3.914
						c0.47-1.24,1.891-1.916,3.007-2.431C1273.742,218.901,1273.239,218.048,1272.664,218.313L1272.664,218.313z"/>
				</g>
			</g>
		</g>
		<g>
			<g>
				<g>
					<path fill="#BCBEC0" d="M1264.093,225.339c1.276,0,1.276-1.979,0-1.979C1262.817,223.361,1262.817,225.339,1264.093,225.339
						L1264.093,225.339z"/>
				</g>
			</g>
		</g>
		<g>
			<g>
				<g>
					<path fill="#BCBEC0" d="M1244.331,221.005c1.277,0,1.277-1.979,0-1.979C1243.055,219.026,1243.055,221.005,1244.331,221.005
						L1244.331,221.005z"/>
				</g>
			</g>
		</g>
		<g>
			<g>
				<g>
					<path fill="#BCBEC0" d="M1248.729,230.724c1.276,0,1.276-1.979,0-1.979C1247.453,228.745,1247.453,230.724,1248.729,230.724
						L1248.729,230.724z"/>
				</g>
			</g>
		</g>
		<g>
			<g>
				<g>
					<path fill="#BCBEC0" d="M1236.209,233.236c1.276,0,1.276-1.979,0-1.979C1234.933,231.257,1234.933,233.236,1236.209,233.236
						L1236.209,233.236z"/>
				</g>
			</g>
		</g>
		<g>
			<g>
				<g>
					<path fill="#BCBEC0" d="M1257.838,216.642c-1.241,0.579-2.075,1.339-2.15,2.761c-0.038,0.726,0.132,1.445,0.08,2.171
						c-0.062,0.847-0.819,1.031-1.542,1.078c-0.507,0.033-0.51,0.825,0,0.792c1.457-0.095,2.352-0.765,2.346-2.283
						c-0.002-0.77-0.193-1.533-0.023-2.298c0.18-0.814,1-1.217,1.688-1.538C1258.7,217.109,1258.298,216.427,1257.838,216.642
						L1257.838,216.642z"/>
				</g>
			</g>
		</g>
	</g>
	<g>
		<g>
			<g>
				<g>
					<path fill="#BCBEC0" d="M272.185,236.784c2.989-3.193,3.622-8.151,0.83-11.716c-2.859-3.65-7.739-4.505-11.746-2.256
						c-2.658,1.492-4.92,4.55-7.033,6.656c-8.997,8.964-17.995,17.929-26.992,26.893c-1.674,1.669-3.35,3.338-5.025,5.007
						c-0.763,0.76-1.378,1.297-1.756,2.319c-2.093,5.654-4.187,11.308-6.28,16.963c-0.315,0.852,0.681,1.893,1.547,1.547
						c4.804-1.912,9.608-3.824,14.412-5.735c1.216-0.484,3.449-0.896,4.415-1.867c0.678-0.681,1.354-1.361,2.032-2.042
						c8.583-8.625,17.167-17.25,25.75-25.875C265.621,243.38,268.903,240.082,272.185,236.784c1.146-1.15-0.634-2.929-1.778-1.778
						c-6.717,6.749-13.434,13.498-20.15,20.247c-4.344,4.365-8.688,8.73-13.032,13.095c-1.237,1.242-2.474,2.485-3.71,3.729
						c-0.233,0.234-0.466,0.468-0.7,0.703c-0.257,0.259,0.799-0.391,0.411-0.236c-0.296,0.118-0.592,0.236-0.889,0.354
						c-5.759,2.291-11.517,4.583-17.275,6.875c0.516,0.516,1.032,1.032,1.547,1.547c1.812-4.896,3.625-9.792,5.438-14.689
						c0.312-0.843,0.624-1.687,0.937-2.529c0.266-0.72-0.597,0.652,0.016,0.041c0.949-0.946,1.898-1.891,2.848-2.838
						c8.8-8.768,17.6-17.536,26.401-26.304c2.807-2.797,5.615-5.595,8.422-8.392c1.405-1.399,2.912-2.432,4.996-2.572
						c5.955-0.4,8.497,6.957,4.74,10.97C269.299,236.188,271.074,237.971,272.185,236.784z"/>
				</g>
			</g>
		</g>
		<g>
			<g>
				<g>
					<path fill="#BCBEC0" d="M218.922,271.827c1.967,1.854,3.935,3.707,5.902,5.56c1.179,1.111,2.962-0.665,1.778-1.779
						c-1.967-1.854-3.935-3.706-5.901-5.559C219.521,268.937,217.739,270.712,218.922,271.827L218.922,271.827z"/>
				</g>
			</g>
		</g>
		<g>
			<g>
				<g>
					<path fill="#BCBEC0" d="M256.656,228.651c3.674,3.73,7.348,7.46,11.022,11.19c1.14,1.157,2.918-0.623,1.779-1.779
						c-3.674-3.729-7.348-7.459-11.022-11.189C257.295,225.716,255.517,227.495,256.656,228.651L256.656,228.651z"/>
				</g>
			</g>
		</g>
		<g>
			<g>
				<g>
					<path fill="#BCBEC0" d="M221.533,264.42c3.745,3.395,7.488,6.791,11.232,10.186c1.198,1.087,2.983-0.687,1.778-1.778
						c-3.744-3.396-7.488-6.791-11.232-10.187C222.113,261.555,220.329,263.329,221.533,264.42L221.533,264.42z"/>
				</g>
			</g>
		</g>
		<g>
			<g>
				<g>
					<path fill="#BCBEC0" d="M232.903,268.103c10.348-10.318,20.696-20.637,31.043-30.956c1.15-1.146-0.629-2.925-1.778-1.778
						c-10.348,10.318-20.696,20.636-31.043,30.955C229.975,267.47,231.754,269.248,232.903,268.103L232.903,268.103z"/>
				</g>
			</g>
		</g>
		<g>
			<g>
				<g>
					<path fill="#BCBEC0" d="M229.887,265.078c10.417-10.391,20.834-20.781,31.25-31.172c1.15-1.147-0.629-2.925-1.779-1.779
						c-10.417,10.391-20.833,20.781-31.25,31.171C226.959,264.445,228.737,266.224,229.887,265.078L229.887,265.078z"/>
				</g>
			</g>
		</g>
	</g>
	<g>
		<g>
			<g>
				<g>
					<path fill="#BCBEC0" d="M1449.756,271.151c-2.318,1.041-5.572,0.704-8.045,0.702c-2.934-0.001-5.82,0.043-8.668-0.758
						c-5.775-1.625-10.834-6.292-12.373-12.147c-0.787-2.993-0.291-6.132,1.09-8.867c1.543-3.056,4.391-6.186,7.807-7.011
						c3.936-0.951,8.568,1.526,11.432,4.099c0.748,0.671,1.998,0.03,1.717-1c-1.527-5.601-5.057-10.766-10.393-13.326
						c-5.869-2.814-13.057-3.818-19.387-2.211c-5.307,1.348-10.35,4.518-13.914,8.635c-2.912,3.365-5.338,7.127-6.969,11.274
						c-1.453,3.692-1.682,7.565-2.422,11.414c-1.166,6.078-6.174,9.771-12.248,9.862c-1.324,0.02-1.326,2.075,0,2.055
						c6.695-0.1,12.203-3.949,14.021-10.475c0.975-3.492,0.996-7.162,2.057-10.658c1.396-4.614,4.178-8.744,7.309-12.358
						c3.67-4.239,9.168-7.208,14.676-8.19c4.303-0.768,8.74,0.03,12.854,1.327c1.949,0.615,3.268,1.119,4.939,2.214
						c3.854,2.522,6.301,6.61,7.494,10.983c0.572-0.333,1.146-0.666,1.719-0.999c-3.555-3.192-8.604-5.554-13.432-4.627
						c-3.715,0.712-6.682,4.093-8.582,7.149c-1.777,2.858-2.527,6.361-2.047,9.69c0.988,6.809,6.287,12.093,12.477,14.592
						c3.219,1.3,6.559,1.353,9.971,1.384c3.033,0.027,6.893,0.396,9.738-0.881c0.072-0.033,0.143-0.064,0.215-0.097
						C1452,272.384,1450.953,270.614,1449.756,271.151L1449.756,271.151z"/>
				</g>
			</g>
		</g>
		<g>
			<g>
				<g>
					<path fill="#BCBEC0" d="M1397.293,252.9c3.168-6.944,9.016-14.601,16.76-16.436c1.289-0.305,0.742-2.287-0.547-1.981
						c-8.25,1.954-14.604,9.961-17.988,17.38C1394.973,253.06,1396.742,254.105,1397.293,252.9L1397.293,252.9z"/>
				</g>
			</g>
		</g>
	</g>
	<g id="Isolation_Mode">
		<g>
			<g>
				<g>
					<g>
						<g>
							<path fill="#BCBEC0" d="M362.342,224.271c-6.234,0.086-11.863,3.401-14.937,8.831c0.513,0,1.025,0,1.538,0
								c-4.616-8.138-14.942-11.219-23.144-6.583c-4.195,2.372-7.163,6.619-8.265,11.266c-1.163,4.906,0.011,10.61,2.237,15.063
								c0.138,0.275,0.472,0.441,0.769,0.441c4.411,0,8.822,0,13.233,0c0.309,0,0.618-0.168,0.77-0.441
								c0.816-1.47,1.633-2.941,2.448-4.412c0.312-0.563,1.03-2.258,1.881-1.061c0.239,0.337,0.415,0.743,0.616,1.103
								c1.651,2.952,3.303,5.904,4.952,8.856c0.308,0.549,1.249,0.611,1.538,0c2.745-5.775,5.489-11.551,8.233-17.327
								c0.358-0.754,1.304-2.095,1.839-0.62c0.507,1.392,1.011,2.784,1.517,4.176c1.097,3.021,2.194,6.043,3.291,9.064
								c0.136,0.377,0.438,0.654,0.858,0.654c4.694,0,9.389,0,14.083,0c0.296,0,0.634-0.165,0.77-0.441
								c3.012-6.114,3.761-13.506,0.499-19.643C374.211,227.819,368.393,224.359,362.342,224.271c-1.149-0.017-1.148,1.765,0,1.781
								c5.413,0.079,10.196,3.077,12.975,7.669c3.308,5.469,2.443,12.685-0.284,18.222c0.256-0.147,0.513-0.294,0.769-0.441
								c-4.693,0-9.388,0-14.082,0c0.286,0.218,0.572,0.436,0.858,0.654c-1.22-3.36-2.439-6.721-3.66-10.082
								c-0.413-1.139-0.827-2.278-1.24-3.417c-0.754-2.076-3.685-2.318-4.656-0.274c-2.859,6.018-5.719,12.036-8.578,18.054
								c0.513,0,1.024,0,1.537,0c-1.831-3.275-3.661-6.549-5.493-9.824c-1.144-2.046-3.615-1.628-4.646,0.229
								c-0.946,1.702-1.891,3.405-2.836,5.107c0.257-0.147,0.513-0.294,0.77-0.441c-4.411,0-8.822,0-13.234,0
								c0.257,0.146,0.514,0.294,0.77,0.441c-1.976-3.951-2.913-8.834-2.158-13.196c0.751-4.337,3.506-8.137,7.184-10.478
								c7.29-4.641,16.929-1.576,21.07,5.725c0.327,0.578,1.21,0.579,1.538,0c2.767-4.889,7.777-7.871,13.397-7.949
								C363.489,226.037,363.49,224.255,362.342,224.271z"/>
						</g>
					</g>
					<g>
						<g>
							<path fill="#BCBEC0" d="M362.342,226.052c1.148,0,1.148-1.781,0-1.781C361.192,224.271,361.192,226.052,362.342,226.052
								L362.342,226.052z"/>
						</g>
					</g>
				</g>
				<g>
					<g>
						<g>
							<path fill="#BCBEC0" d="M358.769,255.657c-1.003-2.767-2.005-5.532-3.008-8.299c-0.237-0.654-1.268-0.972-1.628-0.213
								c-2.477,5.213-4.954,10.427-7.431,15.64c-0.253,0.534-1.095,2.668-1.896,1.235c-0.527-0.944-1.056-1.888-1.583-2.832
								c-1.403-2.509-2.807-5.018-4.209-7.527c-0.323-0.578-1.215-0.58-1.538,0c-0.476,0.854-0.932,2.412-2.094,2.412
								c-1.347,0-2.693,0-4.04,0c-2.622,0-5.244,0-7.867,0c-0.62,0-1.183,0.778-0.769,1.34c3.861,5.234,8.684,9.694,13.663,13.845
								c2.13,1.777,4.318,3.484,6.54,5.145c1.513,1.132,3.332,2.963,5.275,3.158c1.636,0.164,3.809-2.072,5.016-2.968
								c2.198-1.633,4.354-3.324,6.467-5.065c5.108-4.207,10.053-8.774,13.995-14.115c0.414-0.562-0.149-1.341-0.77-1.341
								c-2.242,0-4.484,0-6.727,0c-1.541,0-3.083,0-4.624,0c-0.843,0-2.367,0.343-2.864-0.628c-0.522-1.023-2.059-0.122-1.538,0.899
								c0.659,1.291,1.782,1.51,3.087,1.51c1.489,0,2.978,0,4.467,0c2.732,0,5.467,0,8.199,0c-0.257-0.447-0.513-0.893-0.769-1.34
								c-3.594,4.868-8.112,9.033-12.719,12.922c-2.055,1.736-4.166,3.405-6.312,5.026c-0.81,0.611-1.625,1.212-2.446,1.807
								c-0.669,0.485-1.61,1.425-2.463,1.511c-0.666,0.066-1.746-0.991-2.252-1.356c-0.802-0.577-1.598-1.164-2.389-1.756
								c-2.127-1.592-4.208-3.245-6.248-4.946c-4.736-3.949-9.379-8.228-13.053-13.208c-0.256,0.447-0.513,0.894-0.769,1.341
								c2.989,0,5.98,0,8.97,0c1.083,0,2.166,0,3.249,0c1.869,0,2.559-1.925,3.319-3.294c-0.513,0-1.025,0-1.538,0
								c1.527,2.731,3.054,5.461,4.581,8.192c0.493,0.884,1.057,2.446,1.979,3.002c1.451,0.877,3.075,0.307,3.787-1.19
								c2.616-5.506,5.232-11.013,7.849-16.52c-0.543-0.071-1.085-0.142-1.628-0.213c1.003,2.767,2.006,5.533,3.009,8.299
								C357.439,257.202,359.161,256.74,358.769,255.657z"/>
						</g>
					</g>
					<g>
						<g>
							<path fill="#BCBEC0" d="M357.909,256.785c1.149,0,1.149-1.782,0-1.782C356.761,255.003,356.761,256.785,357.909,256.785
								L357.909,256.785z"/>
						</g>
					</g>
				</g>
			</g>
			<g>
				<g>
					<g>
						<path fill="#BCBEC0" d="M319.772,252.849c0.977,1.522,1.955,3.043,2.933,4.564c0.619,0.963,2.162,0.071,1.538-0.899
							c-0.978-1.521-1.956-3.042-2.934-4.564C320.691,250.987,319.149,251.879,319.772,252.849L319.772,252.849z"/>
					</g>
				</g>
			</g>
			<g>
				<g>
					<g>
						<path fill="#BCBEC0" d="M373.662,257.413c0.977-1.537,1.952-3.073,2.928-4.609c0.618-0.973-0.924-1.865-1.538-0.899
							c-0.976,1.537-1.951,3.073-2.928,4.609C371.506,257.487,373.049,258.38,373.662,257.413L373.662,257.413z"/>
					</g>
				</g>
			</g>
		</g>
	</g>
</g>
</svg>
