<?xml version="1.0" encoding="utf-8"?>
<!-- Generator: Adobe Illustrator 15.0.0, SVG Export Plug-In . SVG Version: 6.00 Build 0)  -->
<!DOCTYPE svg PUBLIC "-//W3C//DTD SVG 1.1//EN" "http://www.w3.org/Graphics/SVG/1.1/DTD/svg11.dtd">
<svg version="1.1" id="Layer_1" xmlns="http://www.w3.org/2000/svg" xmlns:xlink="http://www.w3.org/1999/xlink" x="0px" y="0px"
	 width="150px" height="150px" viewBox="0 0 150 150" enable-background="new 0 0 150 150" xml:space="preserve">
<path fill="#EC2227" d="M149.875,74.875c0,41.421-33.579,75-75,75c-41.421,0-75-33.579-75-75c0-41.421,33.579-75,75-75
	C116.296-0.125,149.875,33.454,149.875,74.875"/>
<path fill="#FFFFFF" d="M113.277,57.716c-3.768-7.095-11.418-11.676-19.391-11.845h-0.02c-0.034,0-0.07-0.001-0.107-0.003
	c-0.011,0-0.021-0.003-0.031-0.003c-0.012,0-0.021,0.003-0.032,0.003c-0.036,0.002-0.074,0.003-0.105,0.003h-0.022
	c-7.563,0.155-14.441,3.891-18.646,10.077c-6.527-9.563-19.377-12.931-29.695-7.1c-5.568,3.15-9.505,8.786-10.969,14.954
	c-1.518,6.396-0.041,13.814,2.819,19.677v0.005c0.007,0.015,0.014,0.029,0.021,0.044c0.027,0.078,0.065,0.157,0.114,0.236
	c0.004,0.009,0.009,0.019,0.014,0.028c0.033,0.051,0.064,0.096,0.091,0.146c0.002,0.003,0.007,0.006,0.01,0.01
	c1.264,1.968,2.528,3.935,3.793,5.902c0.003,0.004,0.007,0.008,0.009,0.013c0.034,0.05,0.068,0.102,0.111,0.144
	c5.1,6.878,11.454,12.755,18.014,18.224c2.827,2.358,5.736,4.622,8.682,6.827c2.009,1.504,4.422,3.936,7,4.19
	c2.173,0.219,5.06-2.749,6.658-3.937c2.919-2.168,5.778-4.414,8.588-6.722c6.723-5.542,13.231-11.546,18.441-18.564
	c0.045-0.055,0.09-0.113,0.131-0.173c0.027-0.046,0.06-0.091,0.087-0.137c0.001-0.001,0.001-0.003,0.001-0.004
	c1.219-1.919,2.437-3.838,3.655-5.759c0.003-0.004,0.008-0.006,0.011-0.011c0.042-0.049,0.077-0.099,0.104-0.158
	c0.004-0.009,0.009-0.018,0.014-0.027c0.006-0.009,0.01-0.02,0.014-0.028c0.057-0.089,0.097-0.176,0.127-0.263
	c0.006-0.013,0.013-0.026,0.02-0.04v-0.009C116.636,75.375,117.541,65.739,113.277,57.716 M107.083,88.076H92.669
	c-1.097,0-3.06,0.436-3.755-0.761c-1.309-3.6-2.614-7.204-3.923-10.808c-0.313-0.868-1.682-1.292-2.158-0.282
	c-3.287,6.918-6.574,13.841-9.865,20.759c-0.332,0.704-1.45,3.541-2.513,1.637c-0.7-1.25-1.405-2.505-2.104-3.755
	c-1.859-3.333-3.724-6.663-5.582-9.995c-0.432-0.764-1.614-0.769-2.046,0c-0.627,1.137-1.236,3.205-2.777,3.205H42.789
	c-0.792-1.233-1.583-2.465-2.375-3.696h15.4c0.409,0,0.818-0.222,1.018-0.587c1.086-1.949,2.168-3.904,3.25-5.854
	c0.418-0.745,1.368-2.995,2.495-1.408c0.319,0.45,0.555,0.987,0.819,1.463c2.195,3.919,4.386,7.837,6.577,11.755
	c0.405,0.731,1.655,0.814,2.041,0c3.641-7.664,7.282-15.327,10.929-22.996c0.472-1,1.727-2.781,2.439-0.823
	c0.668,1.846,1.341,3.695,2.014,5.541c1.455,4.014,2.909,8.022,4.368,12.032c0.177,0.501,0.582,0.867,1.137,0.867h16.534
	C108.651,85.606,107.867,86.84,107.083,88.076"/>
</svg>
