<?xml version="1.0" encoding="utf-8"?>
<!-- Generator: Adobe Illustrator 15.0.0, SVG Export Plug-In . SVG Version: 6.00 Build 0)  -->
<!DOCTYPE svg PUBLIC "-//W3C//DTD SVG 1.1//EN" "http://www.w3.org/Graphics/SVG/1.1/DTD/svg11.dtd">
<svg version="1.1" id="Layer_1" xmlns="http://www.w3.org/2000/svg" xmlns:xlink="http://www.w3.org/1999/xlink" x="0px" y="0px"
	 width="150px" height="150px" viewBox="0 0 150 150" enable-background="new 0 0 150 150" xml:space="preserve">
<path fill="#8B5E3C" d="M150,75c0,41.421-33.578,75-75,75c-41.421,0-75-33.579-75-75C0,33.579,33.579,0,75,0
	C116.422,0,150,33.579,150,75"/>
<path fill="#FFFFFF" d="M118.809,46.217c-0.255-0.115-0.562-0.213-0.849-0.201h-0.005c-0.068-0.004-0.901-0.013-0.599,0.106
	c-0.406-0.127-0.809-0.25-1.214-0.377c-1.317-0.41-2.629-0.821-3.942-1.23c-0.279-0.09-0.558-0.176-0.837-0.263
	c-0.02-0.037-0.045-0.082-0.074-0.13c-1.518-2.646-3.462-5.161-5.837-7.085c-1.923-1.554-3.877-2.338-6.31-2.182
	c-3.137,0.201-5.897,1.608-7.739,4.172c-0.502,0.693-0.189,0.804-0.784,1.218c-0.647,0.452-1.271,0.948-1.874,1.452
	c-1.666,1.391-3.155,3.052-4.181,4.972c-1.205,2.264-1.222,4.701-0.184,6.805c-3.684,1.789-7.876,2.556-11.892,3.089
	c-4.062,0.542-8.172,0.755-12.271,0.805c-1.148,0.012-2.301,0.008-3.45-0.017c-0.188-0.004-0.381-0.012-0.569-0.017
	c0.391,0-0.406-0.291-0.542-0.344c-0.562-0.221-1.123-0.398-1.714-0.545c-2.995-0.755-6.351-0.6-9.435-0.09
	c-1.169-4.143-3.646-8.192-6.949-10.878c-1.985-1.612-4.923-3.499-7.449-2.306c-1.978,0.931-3.319,4.271-0.956,5.682
	c2.179,1.3,3.942,3.318,5.12,5.546c0.537,1.021,1.533,3.347,1.14,4.496c-0.324,0.938-0.57,1.907-0.799,2.871
	c-1.805,7.654-1.752,17.548,2.124,24.152c0.957,1.625,0.816,3.483-0.02,5.119c-0.578,1.128-1.559,1.802-2.301,2.807
	c-1.752,2.366-0.915,4.873-0.386,7.458c0.703,3.416,1.604,6.809,2.782,10.095c0.955,2.666,1.841,5.188,4.438,6.575
	c2.342,1.251,5.295,1.275,7.088-0.812c1.469-1.71,0.891-5.209-1.424-5.96c0.013,0.005,0.021,0.009,0.029,0.009
	c-0.037-0.021-0.165-0.078-0.304-0.16c-0.218-0.132-0.397-0.309-0.579-0.493c-0.82-0.833-1.246-2.014-1.575-3.105
	c-0.795-2.661-0.972-5.85-0.848-8.602c0.106-2.416,2.207-2.834,3.962-3.688c0.098-0.044,0.197-0.094,0.295-0.146
	c0.623-0.332,1.223-0.718,1.801-1.137c0.595-0.426,1.165-0.886,1.716-1.361c4.089-3.532,6.324-8.577,6.218-13.923
	c0.423,0.053,0.837,0.14,1.247,0.251c0.787,0.209,1.555,0.513,2.301,0.869c1.584,0.751,3.089,1.731,4.574,2.543
	c3.635,1.981,7.852,3.36,12.015,2.979c-0.295,3.54-0.475,7.101-0.492,10.652c-0.013,1.69,0.278,3.426,0.146,5.103
	c-0.129,1.629-0.098,3.271,0.03,4.895c0.345,4.348,1.768,10.37,5.87,12.774c1.021,0.599,2.851,0.528,3.954,0.36
	c1.92-0.291,3.13-1.6,3.02-3.577c-0.021-0.373-0.193-0.775-0.55-0.956c-0.992-0.504-1.99-1.173-2.65-2.083
	c-0.505-0.702-0.312-1.432-0.373-1.961c-0.3-2.507-0.431-5.038-0.447-7.56c-0.024-3.599,0.259-7.225,1.227-10.699
	c0.291-1.037,0.673-2.034,1.165-2.981c0.246-0.476,0.521-0.94,0.824-1.387c0.226-0.333,0.5-0.614,0.8-0.878
	c0.345-0.312,0.723-0.604,1.075-0.924c1.735-1.559,3.408-3.371,4.696-5.386c0.636-0.984,1.182-2.022,1.596-3.097
	c0.148-0.381,0.267-0.746,0.357-1.095c0.472-1.797,0.304-3.282,0.209-5.279c-0.14-3.011-0.177-6.17,0.619-9.099
	c0.411-1.522,1.896-3.338,3.031-4.45c1.189-1.157,2.703-1.42,4.204-0.714c0.854,0.401,1.466,1.05,2.351,1.386
	c2.603,0.984,6.859-0.456,8.706-2.347c0.943-0.963,1.693-2.137,2.23-3.367c0.607-1.387,0.455-2.659,0.611-3.926
	C120.102,47.653,119.764,46.644,118.809,46.217"/>
<path fill="#FFFFFF" d="M58.971,102.994c-2.507-3.352-2.859-7.01-1.953-11.01c0.251-1.092,0.883-1.779,1.296-2.74
	c0.453-1.042,0.867-2.104,1.256-3.175c0.919-2.511,2.047-5.587,1.433-8.29c-0.321-1.396-2.458-0.8-2.142,0.59
	c0.004,0.021,0.007,0.041,0.012,0.062l-10.017,3.06L48.47,92.677c-0.521,0.042-0.989,0.391-0.947,1.062
	c0.308,4.923,1.145,10.215,3.433,14.624c1.252,2.408,3.29,2.97,5.907,3.236c2.429,0.246,5.23-0.685,5.661-3.31
	C62.99,105.419,60.354,104.835,58.971,102.994"/>
<path fill="#FFFFFF" d="M104.499,109.598c-0.615-2.095-3.031-3.383-3.635-5.045c-0.832-2.289-1.078-4.848-1.361-7.244
	c-0.816-6.879-1.161-13.836-1.354-20.752c-0.037-1.432-2.257-1.436-2.22,0c0.013,0.349,0.024,0.701,0.038,1.054l-5.444-6.042
	l-3.654,7.725l1.263,7.134c-0.065,0.188-0.073,0.409,0,0.655c2.425,7.831,4.849,15.661,7.273,23.496
	c0.427,1.384,3.216,2.363,4.495,2.799c1.063,0.361,2.318,0.361,3.282-0.255C104.273,112.429,104.86,110.837,104.499,109.598"/>
</svg>
