<?xml version="1.0" encoding="utf-8"?>
<!-- Generator: Adobe Illustrator 15.0.0, SVG Export Plug-In . SVG Version: 6.00 Build 0)  -->
<!DOCTYPE svg PUBLIC "-//W3C//DTD SVG 1.1//EN" "http://www.w3.org/Graphics/SVG/1.1/DTD/svg11.dtd">
<svg version="1.1" id="Layer_1" xmlns="http://www.w3.org/2000/svg" xmlns:xlink="http://www.w3.org/1999/xlink" x="0px" y="0px"
	 width="150px" height="150px" viewBox="0 0 150 150" enable-background="new 0 0 150 150" xml:space="preserve">
<path fill="#FFFFFF" d="M113.277,57.716c-3.768-7.095-11.418-11.676-19.391-11.845h-0.02c-0.034,0-0.07-0.001-0.107-0.003
	c-0.011,0-0.021-0.003-0.031-0.003c-0.012,0-0.021,0.003-0.032,0.003c-0.036,0.002-0.074,0.003-0.105,0.003h-0.022
	c-7.563,0.155-14.441,3.891-18.646,10.077c-6.527-9.563-19.377-12.931-29.695-7.1c-5.568,3.15-9.505,8.786-10.969,14.954
	c-1.518,6.396-0.041,13.814,2.819,19.677v0.005c0.007,0.015,0.014,0.029,0.021,0.044c0.027,0.078,0.065,0.157,0.114,0.236
	c0.004,0.009,0.009,0.019,0.014,0.028c0.033,0.051,0.064,0.096,0.091,0.146c0.002,0.003,0.007,0.006,0.01,0.01
	c1.264,1.968,2.528,3.935,3.793,5.902c0.003,0.004,0.007,0.008,0.009,0.013c0.034,0.05,0.068,0.102,0.111,0.144
	c5.1,6.878,11.454,12.755,18.014,18.224c2.827,2.358,5.736,4.622,8.682,6.827c2.009,1.504,4.422,3.936,7,4.19
	c2.173,0.219,5.06-2.749,6.658-3.937c2.919-2.168,5.778-4.414,8.588-6.722c6.723-5.542,13.231-11.546,18.441-18.564
	c0.045-0.055,0.09-0.113,0.131-0.173c0.027-0.046,0.06-0.091,0.087-0.137c0.001-0.001,0.001-0.003,0.001-0.004
	c1.219-1.919,2.437-3.838,3.655-5.759c0.003-0.004,0.008-0.006,0.011-0.011c0.042-0.049,0.077-0.099,0.104-0.158
	c0.004-0.009,0.009-0.018,0.014-0.027c0.006-0.009,0.01-0.02,0.014-0.028c0.057-0.089,0.097-0.176,0.127-0.263
	c0.006-0.013,0.013-0.026,0.02-0.04v-0.009C116.636,75.375,117.541,65.739,113.277,57.716 M107.083,88.076H92.669
	c-1.097,0-3.06,0.436-3.755-0.761c-1.309-3.6-2.614-7.204-3.923-10.808c-0.313-0.868-1.682-1.292-2.158-0.282
	c-3.287,6.918-6.574,13.841-9.865,20.759c-0.332,0.704-1.45,3.541-2.513,1.637c-0.7-1.25-1.405-2.505-2.104-3.755
	c-1.859-3.333-3.724-6.663-5.582-9.995c-0.432-0.764-1.614-0.769-2.046,0c-0.627,1.137-1.236,3.205-2.777,3.205H42.789
	c-0.792-1.233-1.583-2.465-2.375-3.696h15.4c0.409,0,0.818-0.222,1.018-0.587c1.086-1.949,2.168-3.904,3.25-5.854
	c0.418-0.745,1.368-2.995,2.495-1.408c0.319,0.45,0.555,0.987,0.819,1.463c2.195,3.919,4.386,7.837,6.577,11.755
	c0.405,0.731,1.655,0.814,2.041,0c3.641-7.664,7.282-15.327,10.929-22.996c0.472-1,1.727-2.781,2.439-0.823
	c0.668,1.846,1.341,3.695,2.014,5.541c1.455,4.014,2.909,8.022,4.368,12.032c0.177,0.501,0.582,0.867,1.137,0.867h16.534
	C108.651,85.606,107.867,86.84,107.083,88.076"/>
<path fill="#FFFFFF" d="M130.492,45.437c-1.698,0-3.081,1.375-3.081,3.069v12.848c0,1.703,1.383,3.082,3.081,3.082h0.235
	c1.699,0,3.078-1.379,3.078-3.082V48.518C133.806,46.819,132.427,45.437,130.492,45.437"/>
<path fill="#FFFFFF" d="M19.272,45.437c-1.698,0-3.077,1.383-3.077,3.082v12.835c0,1.703,1.379,3.082,3.077,3.082h0.236
	c1.698,0,3.082-1.379,3.082-3.082V48.518C22.59,46.819,21.206,45.437,19.272,45.437"/>
<path fill="#FFFFFF" d="M111.521,58.396h7.329v5.708c0,2.2,1.644,3.993,3.67,3.993c2.025,0,3.677-1.793,3.677-3.993V45.768
	c0-2.199-1.651-3.988-3.677-3.988c-2.026,0-3.67,1.789-3.67,3.988v5.704h-11.02c-2.257-3.012-6.3-3.993-9.691-2.261
	c-1.048,0.526-1.959,1.3-2.672,2.261h-6.653c-1.376-6.673-7.295-11.705-14.368-11.705c-7.079,0-12.997,5.032-14.372,11.705h-5.979
	c-0.758-1.019-1.756-1.831-2.92-2.374c-3.33-1.558-7.273-0.526-9.46,2.374H31.13v-5.704c0-2.199-1.648-3.988-3.678-3.988
	c-2.021,0-3.666,1.789-3.666,3.988v18.336c0,2.2,1.645,3.993,3.666,3.993c2.03,0,3.678-1.793,3.678-3.993v-5.708h7.135
	L27.711,81.002c-1.127,2.423-0.945,5.206,0.489,7.451c1.424,2.249,3.873,3.596,6.544,3.596h17.542l7.179,28.678
	c0.787,1.813,2.576,2.981,4.556,2.981h23.803c2.112,0,3.993-1.338,4.688-3.329l6.186-28.33h17.296c2.722,0,5.198-1.389,6.628-3.716
	c1.396-2.29,1.507-5.189,0.289-7.566L111.521,58.396z M88.569,58.4h8.991c0.129,0.447,0.29,0.857,0.484,1.25l8.603,16.878H43.208
	l7.985-17.115c0.148-0.323,0.273-0.658,0.373-1.014h8.751c1.731,6.171,7.41,10.711,14.128,10.711
	C81.163,69.111,86.837,64.572,88.569,58.4"/>
<path fill="#2BACE2" d="M150,75c0,41.422-33.578,75-75,75S0,116.422,0,75C0,33.579,33.579,0,75,0S150,33.579,150,75"/>
<path fill="#FFFFFF" d="M137.964,42.583c-0.95-1.401-3.368-1.258-4.854-1.41c-4.21-0.433-8.433-0.737-12.657-0.987
	c-11.335-0.671-22.695-0.921-34.049-1.042c-13.903-0.148-27.808-0.082-41.703,0.456c-6.458,0.249-12.913,0.604-19.359,1.069
	c-3.05,0.222-6.098,0.473-9.143,0.751c-0.907,0.083-1.528,0.815-0.751,1.564c3.5,3.377,6.999,6.755,10.497,10.135
	c5.138,4.963,10.275,9.928,15.398,14.907c1.406,1.367,2.819,2.729,4.207,4.114c0.872,0.871,2.654-0.1,3.643-0.388
	c6.283-1.833,12.565-3.666,18.847-5.498c1.943-0.567,3.886-1.134,5.829-1.701c-0.021,0.207-0.042,0.413-0.063,0.619
	c-0.131,1.281-0.263,2.562-0.395,3.843c-0.341,3.335-0.683,6.669-1.025,10.006c-0.077,0.752-0.154,1.506-0.232,2.26
	c-0.12,0.027-0.241,0.055-0.362,0.084c-0.578,0.135-1.154,0.271-1.731,0.408c-3.016,0.709-6.031,1.418-9.046,2.127
	c-1.759,0.414-3.104,1.449-4.379,2.646c-8.336,7.814-16.672,15.631-25.008,23.447c-0.796,0.746-1.542,1.428-1.893,2.516
	c-1.028,3.18,1.838,5.918,4.851,6.027c2.165-0.086,3.56-1.811,5.028-3.191c2.269-2.133,4.538-4.268,6.806-6.4
	c3.673-3.453,7.345-6.908,11.017-10.361c-0.115,0.107,0.167-0.014,0.268-0.039c0.351-0.08,0.701-0.162,1.052-0.244
	c1.191-0.277,2.383-0.555,3.575-0.832c3.374-0.787,6.749-1.572,10.122-2.357c2.706-0.631,5.412-1.262,8.117-1.893
	c0.473-0.109,0.94-0.273,1.403-0.383c0.68-0.16,1.357-0.32,2.037-0.479c0.311-0.074,0.621-0.146,0.933-0.219
	c0.039-0.012,0.056-0.023,0.063-0.033c0.006,0.023,0.031,0.068,0.112,0.152c1.819,1.934,3.573,4.721,6.478,4.771
	c2.907,0.053,5.815,0.105,8.722,0.156c1.274,0.025,2.549,0.047,3.823,0.07c1.596,0.029,2.856-0.68,3.749-2.014
	c1.037-1.551,0.524-3.674-0.872-4.779c-0.211-0.168-1.072-0.424-1.127-0.611c-0.059-0.197-0.115-0.395-0.174-0.592
	c-3.062-10.455-6.122-20.908-9.183-31.361c-0.015-0.046-0.029-0.08-0.044-0.105c0.035-0.002,0.077-0.009,0.133-0.025
	c0.581-0.169,1.16-0.339,1.742-0.509c2.382-0.697,4.765-1.395,7.149-2.091c6.688-1.958,13.38-3.915,20.069-5.871
	c2.612-0.764,5.224-1.528,7.836-2.293c1.11-0.324,2.31-0.557,3.362-1.046C138.145,45.325,138.855,43.899,137.964,42.583
	 M93.004,89.674c-1.782-2.027-3.564-4.055-5.347-6.082c-0.362-0.412-0.726-0.826-1.089-1.238c-0.398-0.453-0.904-0.748-1.332-1.172
	c-0.051-0.051-0.104-0.096-0.156-0.143c0.936,0.473,1.961,0.76,2.994,0.791c3.812-0.113,6.682-3.094,6.814-6.868
	c0.136-3.791-3.342-6.546-6.88-6.673c-3.714-0.133-6.813,3.079-6.877,6.689c-0.035,2.006,0.959,3.803,2.435,5.053
	c-1.374-0.611-2.917-0.613-4.494-0.299c-0.714,0.143-1.429,0.285-2.143,0.428c-0.076,0.018-0.154,0.033-0.231,0.049
	c0.003-0.025,0.005-0.049,0.007-0.074c0.104-1.025,0.209-2.053,0.312-3.08c0.344-3.393,0.688-6.786,1.03-10.18
	c0.115-1.138,0.23-2.275,0.346-3.412c0.013-0.118,0.024-0.235,0.036-0.353c0.211-0.061,0.423-0.121,0.634-0.181
	c3.017-0.862,6.035-1.725,9.053-2.586c1.214-0.347,2.427-0.694,3.64-1.041c0.104-0.03,0.209-0.06,0.312-0.089
	c0.025,0.082,0.049,0.165,0.074,0.248c0.591,2.008,1.182,4.017,1.772,6.025c1.908,6.487,3.816,12.974,5.724,19.462
	c0.464,1.574,0.927,3.152,1.391,4.727h-0.115h-1.951h-4.967H93.004z"/>
</svg>
