<?xml version="1.0" encoding="utf-8"?>
<!-- Generator: Adobe Illustrator 15.0.0, SVG Export Plug-In . SVG Version: 6.00 Build 0)  -->
<!DOCTYPE svg PUBLIC "-//W3C//DTD SVG 1.1//EN" "http://www.w3.org/Graphics/SVG/1.1/DTD/svg11.dtd">
<svg version="1.1" id="Layer_1" xmlns="http://www.w3.org/2000/svg" xmlns:xlink="http://www.w3.org/1999/xlink" x="0px" y="0px"
	 width="150px" height="150px" viewBox="0 0 150 150" enable-background="new 0 0 150 150" xml:space="preserve">
<path fill="#FFFFFF" d="M113.277,57.716c-3.769-7.095-11.418-11.676-19.391-11.845h-0.021c-0.034,0-0.07-0.001-0.107-0.003
	c-0.011,0-0.021-0.003-0.03-0.003c-0.013,0-0.021,0.003-0.033,0.003c-0.035,0.002-0.073,0.003-0.104,0.003h-0.022
	c-7.562,0.155-14.44,3.891-18.646,10.077c-6.527-9.563-19.377-12.931-29.695-7.1c-5.568,3.15-9.505,8.786-10.969,14.954
	c-1.518,6.396-0.041,13.814,2.819,19.677v0.006c0.007,0.015,0.014,0.029,0.021,0.043c0.027,0.078,0.065,0.158,0.114,0.236
	c0.004,0.01,0.009,0.02,0.014,0.028c0.033,0.051,0.064,0.097,0.091,0.146c0.002,0.004,0.007,0.006,0.01,0.011
	c1.264,1.968,2.528,3.935,3.793,5.901c0.003,0.004,0.007,0.008,0.009,0.014c0.034,0.05,0.068,0.102,0.111,0.144
	c5.1,6.878,11.454,12.755,18.014,18.224c2.827,2.358,5.736,4.623,8.682,6.828c2.009,1.504,4.422,3.936,7,4.189
	c2.172,0.219,5.06-2.749,6.659-3.938c2.918-2.168,5.777-4.414,8.588-6.722c6.723-5.542,13.23-11.546,18.44-18.563
	c0.045-0.055,0.09-0.113,0.131-0.174c0.027-0.045,0.06-0.09,0.087-0.137c0.001-0.001,0.001-0.003,0.001-0.004
	c1.22-1.919,2.437-3.838,3.655-5.759c0.003-0.004,0.008-0.007,0.011-0.011c0.042-0.049,0.077-0.1,0.104-0.158
	c0.004-0.01,0.009-0.018,0.014-0.027c0.006-0.009,0.01-0.02,0.014-0.027c0.057-0.09,0.098-0.177,0.127-0.264
	c0.006-0.013,0.014-0.025,0.021-0.04v-0.009C116.637,75.375,117.541,65.739,113.277,57.716 M107.083,88.076H92.669
	c-1.097,0-3.06,0.436-3.755-0.762c-1.309-3.6-2.614-7.203-3.923-10.808c-0.313-0.868-1.683-1.292-2.158-0.282
	c-3.287,6.918-6.574,13.842-9.865,20.76c-0.332,0.703-1.45,3.541-2.513,1.637c-0.7-1.25-1.405-2.505-2.104-3.755
	c-1.859-3.333-3.724-6.663-5.582-9.995c-0.432-0.764-1.614-0.77-2.046,0c-0.627,1.137-1.236,3.205-2.777,3.205H42.789
	c-0.792-1.233-1.583-2.465-2.375-3.696h15.4c0.409,0,0.818-0.222,1.018-0.587c1.086-1.949,2.168-3.904,3.25-5.854
	c0.418-0.746,1.368-2.996,2.495-1.408c0.319,0.449,0.555,0.986,0.819,1.463c2.195,3.919,4.386,7.837,6.577,11.755
	c0.405,0.731,1.655,0.813,2.041,0c3.64-7.664,7.282-15.327,10.929-22.996c0.472-1,1.727-2.781,2.438-0.823
	c0.668,1.846,1.341,3.695,2.015,5.541c1.455,4.014,2.908,8.022,4.367,12.032c0.178,0.501,0.582,0.867,1.137,0.867h16.535
	C108.65,85.605,107.867,86.84,107.083,88.076"/>
<path fill="#FFFFFF" d="M123.943,60.037c-0.309-0.22-0.62-0.44-0.929-0.66c-2.157-1.527-4.309-3.055-6.462-4.583
	c-7.371-5.226-14.742-10.457-22.114-15.688c-5.62-3.985-11.244-7.973-16.864-11.961c-1.424-1.007-2.839-1.551-4.456-0.402
	c-1.79,1.27-3.576,2.539-5.362,3.808c-13.292,9.432-26.582,18.867-39.874,28.298c-1.655,1.176-4.42,2.962-2.43,5.304
	c1.134,1.331,2.666,1.119,4.212,1.119h8.876v33.911c0,1.763,2.623,1.3,3.703,1.3h6.87c0.042,0,0.085-0.004,0.124-0.012
	c0.008,0,0.016,0,0.023-0.004c0.007-0.004,0.019-0.004,0.027-0.007c0.035-0.009,0.069-0.02,0.104-0.035
	c1.042-0.328,1.022-1.192,1.022-2.114V68.337c0-0.42,0.127-1.809,0.03-3.066h7.985v33.911c0,1.763,2.619,1.3,3.703,1.3h6.87
	c0.043,0,0.085-0.004,0.124-0.012c0.007,0,0.015,0,0.023-0.004s0.02-0.004,0.027-0.007c0.035-0.013,0.069-0.02,0.104-0.035
	c1.038-0.328,1.022-1.192,1.022-2.114V68.337c0-0.42,0.127-1.809,0.031-3.066h9.508v33.911c0,1.763,2.619,1.3,3.703,1.3h6.789
	c0.062,0.004,0.131,0.004,0.201-0.012c0.02,0,0.035-0.008,0.054-0.011c0.034-0.013,0.069-0.02,0.104-0.035
	c1.037-0.328,1.022-1.192,1.022-2.114V68.337c0-0.42,0.127-1.809,0.03-3.066h7.68v33.911c0,1.763,2.619,1.3,3.703,1.3h6.867
	c0.046,0,0.088-0.004,0.127-0.012c0.016,0,0.027-0.004,0.043-0.008c0.003-0.003,0.003-0.003,0.007-0.003
	c1.142-0.31,1.123-1.196,1.123-2.149V68.337c0-0.42,0.127-1.805,0.03-3.066h11.01c0.034,0.004,0.073,0.004,0.111,0
	c0.062-0.003,0.119-0.012,0.178-0.023C125.248,64.881,126.239,61.668,123.943,60.037 M47.54,54.753
	c3.321-2.357,6.641-4.714,9.962-7.071c3.959-2.81,7.918-5.621,11.877-8.43c1.397-0.993,2.796-1.985,4.194-2.978
	c0.436-0.309,0.971-0.839,1.487-1.076c0.4,0.197,0.812,0.601,1.153,0.842c1.137,0.807,2.275,1.614,3.413,2.421
	c3.46,2.454,6.92,4.909,10.38,7.363c3.48,2.468,6.959,4.937,10.439,7.405c1.162,0.825,2.324,1.649,3.486,2.473
	c0.195,0.139,0.393,0.278,0.588,0.417c-0.035,0-0.072-0.002-0.107-0.002h-3.023c-3.465,0-6.929,0-10.393,0
	c-9.314,0-18.627,0-27.941,0c-5.812,0-11.625,0-17.437,0C46.258,55.663,46.899,55.208,47.54,54.753 M105.131,56.558
	C105.303,56.688,105.188,56.624,105.131,56.558"/>
<path fill="#FFFFFF" d="M37.009,105.467h19.782h52.076h6.851c0.028,0,0.058-0.004,0.087-0.008c0.078-0.01,0.148-0.028,0.21-0.06
	c1.385-0.493,1.233-2.53-0.383-2.53h-1.34h-6.844H82.861H36.19h-1.586c-0.974,0-2.13,1.172-1.214,2.087
	C34.226,105.792,35.928,105.467,37.009,105.467"/>
<path fill="#FFFFFF" d="M119.76,108.489h-1.221h-6.301H88.93H37.385h-6.018h-1.048c-1.687,0-1.715,2.599-0.026,2.599h11.119h53.473
	h24.953c0.028-0.001,0.058-0.005,0.087-0.009c0.079-0.01,0.149-0.028,0.211-0.059C121.512,110.527,121.377,108.489,119.76,108.489"
	/>
<path fill="#BE1E2D" d="M150,75c0,41.421-33.579,75-75,75S0,116.422,0,75C0,33.579,33.579,0,75,0S150,33.579,150,75"/>
<path fill="#FFFFFF" d="M88.282,59.92l-6.491-7.328L81.66,23.656c0-0.604-0.141-1.054-0.418-1.327
	c-0.283-0.281-0.737-0.404-1.328-0.409H69.705c-0.887,0.041-1.187,0.341-1.281,0.437c-0.351,0.35-0.405,0.891-0.387,1.236v29.227
	l-6.091,7.114c-0.479,0.414-1.219,1.45-0.997,2.532l0.006,56.205c0.137,1.254,1.026,3.527,3.355,3.527
	c0.094,0,0.199-0.006,0.304-0.014h21.423c0.122,0.004,1.269,0.031,2.127-0.836c0.618-0.627,0.899-1.506,0.837-2.619
	c-0.138-2.441,0.062-53.864,0.072-56.272C89.109,62.056,89.164,60.629,88.282,59.92 M83.673,69.329
	c-1.636,0-17.154-0.059-17.154,0.063v32.237c0,0.4-0.228,1.418,0.259,1.518c0.954,0.191,0.551,1.645-0.399,1.455
	c-1.437-0.291-1.368-1.531-1.368-2.664v-29.39c0-1.359-0.577-4.723,1.586-4.723h17.077C84.646,67.824,84.646,69.329,83.673,69.329"
	/>
<path fill="#BE1E2D" d="M83.673,69.329c-1.636,0-17.154-0.059-17.154,0.063v32.237c0,0.4-0.228,1.418,0.259,1.518
	c0.954,0.191,0.551,1.645-0.399,1.455c-1.437-0.291-1.368-1.531-1.368-2.664v-29.39c0-1.359-0.577-4.723,1.586-4.723h17.077
	C84.646,67.824,84.646,69.329,83.673,69.329"/>
</svg>
