<?xml version="1.0" encoding="utf-8"?>
<!-- Generator: Adobe Illustrator 15.0.0, SVG Export Plug-In . SVG Version: 6.00 Build 0)  -->
<!DOCTYPE svg PUBLIC "-//W3C//DTD SVG 1.1//EN" "http://www.w3.org/Graphics/SVG/1.1/DTD/svg11.dtd">
<svg version="1.1" id="Layer_1" xmlns="http://www.w3.org/2000/svg" xmlns:xlink="http://www.w3.org/1999/xlink" x="0px" y="0px"
	 width="150px" height="150px" viewBox="0 0 150 150" enable-background="new 0 0 150 150" xml:space="preserve">
<g id="Layer_1_1_">
	<circle fill="#EC008C" cx="75" cy="75" r="75"/>
	<g>
		<g>
			<path fill="#FFFFFF" d="M65.994,65.323c-0.495,0-0.899,0.548-0.899,1.23v8.979c0,5.628,4.441,10.21,9.917,10.21
				c5.452,0,9.896-4.582,9.896-10.21v-8.979c0-0.683-0.407-1.23-0.902-1.23s-0.899,0.548-0.899,1.23v8.979
				c0,4.269-3.633,7.743-8.118,7.743c-4.462,0-8.092-3.475-8.092-7.743v-8.979C66.894,65.871,66.492,65.323,65.994,65.323
				L65.994,65.323z"/>
			<path fill="#FFFFFF" d="M86.32,66.618c0-1.743-1.037-3.167-2.314-3.167s-2.314,1.424-2.314,3.167c0,0.68,0.404,1.233,0.899,1.233
				s0.899-0.554,0.899-1.233c0-0.384,0.229-0.703,0.516-0.703c0.284,0,0.519,0.319,0.519,0.703c0,0.68,0.398,1.233,0.896,1.233
				C85.922,67.852,86.32,67.298,86.32,66.618L86.32,66.618z"/>
			<path fill="#FFFFFF" d="M65.994,63.451c-1.277,0-2.314,1.424-2.314,3.167c0,0.68,0.404,1.233,0.899,1.233
				c0.498,0,0.896-0.554,0.896-1.233c0-0.384,0.231-0.703,0.519-0.703c0.284,0,0.519,0.319,0.519,0.703
				c0,0.68,0.401,1.233,0.896,1.233s0.899-0.554,0.899-1.233C68.309,64.875,67.271,63.451,65.994,63.451L65.994,63.451z"/>
		</g>
		<path fill="#FFFFFF" d="M100.175,35.968l-5.833,3.779l-0.527,3.009l5.824-3.776L100.175,35.968z"/>
		<path fill="#FFFFFF" d="M99.085,42.144l-5.824,3.773l-0.612,3.463l5.824-3.771L99.085,42.144z"/>
		<path fill="#FFFFFF" d="M101.212,30.097l-5.01-0.885l-1.298,7.368l5.824-3.773L101.212,30.097z"/>
		<path fill="#FFFFFF" d="M108.489,117.683c-2.314-9.103-9.155-40.359-0.12-60.24c0.006-0.018,0.006-0.041,0.018-0.056
			c0.05-0.12,0.085-0.24,0.108-0.357c0.012-0.029,0.015-0.064,0.023-0.091c0.026-0.149,0.032-0.302,0.026-0.454
			c0-0.029-0.012-0.059-0.012-0.088c-0.015-0.123-0.038-0.243-0.073-0.363c-0.018-0.044-0.029-0.082-0.047-0.129
			c-0.038-0.103-0.088-0.202-0.146-0.305c-0.018-0.023-0.023-0.053-0.041-0.079c-0.006-0.018-0.021-0.023-0.026-0.041
			c-0.018-0.023-0.029-0.053-0.047-0.073l-6.498-8.736c-0.229-0.311-0.551-0.533-0.902-0.668c0.747,1.813,0.624,4.022-0.375,5.704
			l2.145,2.889h-9.064l3.873-2.508l0.586-3.313l-5.827,3.773l-0.363,2.048h-6.108l2.985-4.702l0.68-1.107l-4.6-2.927l-11.077-7.025
			l-3.337,5.256l3.24,10.506H71.83l-6.779-22.008l-17.76,5.473l2.399,7.793h-1.866c-0.753,0-1.444,0.428-1.793,1.096l-4.479,8.739
			c-0.018,0.041-0.029,0.082-0.047,0.12c-0.021,0.05-0.044,0.103-0.062,0.155c-0.032,0.094-0.056,0.196-0.073,0.293
			c-0.006,0.047-0.018,0.091-0.023,0.141c-0.012,0.132-0.015,0.261-0.006,0.393c0.006,0.018,0,0.029,0,0.053
			c0.023,0.141,0.059,0.287,0.108,0.431c0,0.012,0,0.023,0.006,0.032c9.545,25.975,2.824,52.954,0.539,60.606
			c-0.132,0.439-0.375,1.26,0.243,2.077c0.381,0.504,0.976,0.8,1.605,0.8h0.029c0.545-0.006,0.946-0.193,1.242-0.46h60.384
			c0.284,0.214,0.659,0.363,1.151,0.363c0.624,0,1.213-0.29,1.594-0.782C108.853,119.133,108.671,118.395,108.489,117.683
			L108.489,117.683z M49.063,49.887h1.872l1.45,4.708h-5.739L49.063,49.887z M46.635,116.294
			c2.666-10.078,7.283-33.952-0.454-57.665h57.346c-7.21,19.453-2.145,46.567,0.469,57.665H46.635z"/>
	</g>
</g>
<g id="Isolation_Mode">
</g>
</svg>
