<?xml version="1.0" encoding="utf-8"?>
<!-- Generator: Adobe Illustrator 15.0.0, SVG Export Plug-In . SVG Version: 6.00 Build 0)  -->
<!DOCTYPE svg PUBLIC "-//W3C//DTD SVG 1.1//EN" "http://www.w3.org/Graphics/SVG/1.1/DTD/svg11.dtd">
<svg version="1.1" id="Layer_1" xmlns="http://www.w3.org/2000/svg" xmlns:xlink="http://www.w3.org/1999/xlink" x="0px" y="0px"
	 width="89.245px" height="62.893px" viewBox="10.851 16.461 89.245 62.893" enable-background="new 10.851 16.461 89.245 62.893"
	 xml:space="preserve">
<g id="Layer_1_1_">
	<g>
		<g>
			<g>
				<g>
					<path fill="#BCBEC0" d="M1564.347,42.381c2.893,1.471,5.516,3.636,7.814,5.897c5.088,5.004,8.516,11.52,9.186,18.67
						c0.072,0.774,1.291,0.781,1.219,0c-0.693-7.367-4.098-14-9.254-19.244c-2.414-2.454-5.26-4.805-8.35-6.375
						C1564.265,40.974,1563.648,42.024,1564.347,42.381L1564.347,42.381z"/>
				</g>
				<g>
					<path fill="#BCBEC0" d="M1582.013,67.959L1582.013,67.959c-0.496,0-1.031-0.333-1.09-0.972
						c-0.635-6.744-3.852-13.28-9.061-18.405c-2.689-2.646-5.211-4.55-7.709-5.821c-0.42-0.213-0.619-0.641-0.514-1.088
						c0.119-0.488,0.553-0.844,1.035-0.844c0.164,0,0.326,0.041,0.482,0.119c2.801,1.426,5.646,3.599,8.459,6.457
						c5.455,5.547,8.695,12.293,9.373,19.504c0.027,0.283-0.055,0.545-0.23,0.738C1582.58,67.844,1582.306,67.959,1582.013,67.959z
						 M1564.675,41.683c-0.094,0-0.182,0.098-0.205,0.188c-0.012,0.057-0.006,0.091,0.07,0.13c2.578,1.311,5.168,3.264,7.92,5.973
						c5.352,5.267,8.66,11.992,9.312,18.935c0.018,0.188,0.203,0.199,0.242,0.199l0,0c0.057,0,0.1-0.019,0.115-0.035
						c0.01-0.012,0.016-0.043,0.01-0.082c-0.658-7.015-3.816-13.578-9.131-18.984c-2.748-2.793-5.52-4.911-8.238-6.295
						C1564.736,41.692,1564.705,41.683,1564.675,41.683z"/>
				</g>
			</g>
		</g>
		<g>
			<g>
				<g>
					<g>
						<path fill="#BCBEC0" d="M1587.851,71.297c-0.033-9.07-3.203-17.822-8.963-24.821c-5.662-6.878-13.734-11.609-22.461-13.32
							c-8.984-1.762-18.432-0.205-26.418,4.24c-7.719,4.293-13.738,11.262-17.07,19.415c-1.871,4.585-2.775,9.542-2.793,14.487
							c-0.002,0.332,0.279,0.609,0.609,0.609c7.301,0,14.604,0,21.904,0c12.9,0,25.805,0,38.707,0c5.291,0,10.586,0,15.877,0
							c0.787,0,0.787-1.219,0-1.219c-7.301,0-14.602,0-21.902,0c-12.9,0-25.805,0-38.707,0c-5.291,0-10.586,0-15.877,0
							c0.203,0.204,0.406,0.406,0.609,0.609c0.033-9.28,3.459-18.25,9.65-25.167c6.104-6.815,14.662-11.2,23.744-12.235
							c9.258-1.057,18.646,1.445,26.217,6.844c7.402,5.277,12.639,13.275,14.705,22.104c0.648,2.771,0.943,5.611,0.955,8.454
							C1586.636,72.083,1587.855,72.083,1587.851,71.297L1587.851,71.297z"/>
					</g>
					<g>
						<path fill="#BCBEC0" d="M1587.242,72.333h-76.486c-0.275,0-0.537-0.109-0.734-0.307c-0.195-0.197-0.303-0.457-0.303-0.73
							c0.002-0.344,0.006-0.684,0.016-1.025l-0.008-0.009h0.01c0.135-4.795,1.078-9.37,2.811-13.612
							c3.418-8.367,9.545-15.339,17.254-19.627c5.883-3.272,12.549-5.003,19.281-5.003c2.5,0,5,0.242,7.43,0.718
							c8.938,1.752,17,6.535,22.707,13.467c5.812,7.06,9.029,15.971,9.062,25.092c0,0.297-0.113,0.564-0.32,0.751
							C1587.775,72.231,1587.521,72.333,1587.242,72.333z M1511.789,71.479h74.434c-0.01-0.059-0.016-0.119-0.016-0.181
							s-0.002-0.123-0.002-0.185h-74.414c-0.002,0.062-0.002,0.125-0.002,0.185V71.479z M1510.572,71.11c0,0.062,0,0.125,0,0.188
							c0,0.062,0.033,0.104,0.055,0.125c0.02,0.021,0.064,0.058,0.129,0.058h0.188L1510.572,71.11z M1587.058,71.114
							c0,0.061,0.002,0.121,0.002,0.182c0,0.109,0.062,0.164,0.186,0.164c0.047,0,0.092-0.012,0.123-0.032
							c0.041-0.058,0.049-0.155,0.018-0.229c-0.021-0.049-0.053-0.082-0.145-0.082L1587.058,71.114L1587.058,71.114z
							 M1587.046,70.261h0.195c0.057,0,0.111,0.004,0.166,0.012c-0.26-8.564-3.383-16.884-8.85-23.525
							c-5.58-6.78-13.469-11.459-22.213-13.172c-2.375-0.467-4.818-0.703-7.264-0.703c-6.588,0-13.111,1.691-18.867,4.895
							c-7.541,4.195-13.535,11.016-16.879,19.206c-1.689,4.14-2.613,8.606-2.746,13.29h0.365c0.277-9.041,3.727-17.697,9.742-24.416
							c6.105-6.82,14.857-11.331,24.014-12.375c1.396-0.16,2.82-0.24,4.23-0.24c7.893,0,15.807,2.543,22.283,7.161
							c7.354,5.244,12.775,13.392,14.873,22.354c0.557,2.373,0.875,4.9,0.947,7.516L1587.046,70.261L1587.046,70.261
							L1587.046,70.261z M1511.806,70.261h74.383c-0.072-2.549-0.383-5.01-0.926-7.32c-2.051-8.765-7.35-16.73-14.537-21.854
							c-6.332-4.515-14.07-7.002-21.789-7.002c-1.377,0-2.77,0.079-4.133,0.235c-8.951,1.02-17.506,5.428-23.475,12.096
							C1515.457,52.978,1512.083,61.431,1511.806,70.261z"/>
					</g>
				</g>
			</g>
			<g>
				<g>
					<g>
						<path fill="#BCBEC0" d="M1549.607,33.053c0-1.214,0-2.429,0-3.644c0-0.784-1.219-0.784-1.219,0c0,1.215,0,2.43,0,3.644
							C1548.388,33.838,1549.607,33.838,1549.607,33.053L1549.607,33.053z"/>
					</g>
					<g>
						<path fill="#BCBEC0" d="M1548.998,34.067c-0.59,0-1.035-0.437-1.035-1.016v-3.643c0-0.58,0.443-1.017,1.035-1.017
							s1.037,0.437,1.037,1.017v3.643C1550.035,33.632,1549.589,34.067,1548.998,34.067z M1548.998,29.247
							c-0.121,0-0.184,0.056-0.184,0.162v3.644c0,0.106,0.062,0.163,0.184,0.163c0.123,0,0.184-0.055,0.184-0.163v-3.644
							C1549.181,29.302,1549.121,29.247,1548.998,29.247z"/>
					</g>
				</g>
			</g>
			<g>
				<path fill="#BCBEC0" stroke="#BCBEC0" stroke-width="3" stroke-miterlimit="10" d="M1507.273,76.134c6.879,0,13.758,0,20.637,0
					c13.051,0,26.102,0,39.152,0c7.844,0,15.691,0,23.535,0c0.064,0,0.125,0,0.188,0c0.785,0,0.785-1.218,0-1.218
					c-6.879,0-13.756,0-20.637,0c-13.049,0-26.1,0-39.15,0c-7.846,0-15.691,0-23.537,0c-0.062,0-0.125,0-0.188,0
					C1506.488,74.915,1506.488,76.134,1507.273,76.134L1507.273,76.134z"/>
			</g>
			<g>
				<g>
					<g>
						<path fill="#BCBEC0" d="M1550.212,27.587c-0.084,1.564-2.344,1.564-2.428,0C1547.701,26.021,1550.128,26.03,1550.212,27.587
							c0.041,0.781,1.26,0.785,1.219,0c-0.074-1.375-1.059-2.357-2.434-2.434c-1.371-0.074-2.365,1.17-2.434,2.434
							c-0.074,1.372,1.168,2.363,2.434,2.432c1.371,0.074,2.363-1.168,2.434-2.432C1551.472,26.802,1550.255,26.806,1550.212,27.587
							z"/>
					</g>
					<g>
						<path fill="#BCBEC0" d="M1549.115,30.448c-0.049,0-0.092,0-0.139-0.004c-0.73-0.039-1.455-0.346-1.986-0.84
							c-0.588-0.55-0.891-1.273-0.85-2.041c0.076-1.404,1.199-2.925,2.883-2.834c1.502,0.08,2.631,1.123,2.814,2.598
							c0.018,0.084,0.023,0.17,0.02,0.26c0.004,0.094-0.004,0.186-0.023,0.271C1551.662,29.118,1550.654,30.448,1549.115,30.448z
							 M1548.882,25.577c-1.1,0-1.838,1.056-1.891,2.033c-0.027,0.51,0.18,0.996,0.58,1.371c0.389,0.36,0.916,0.584,1.449,0.612
							c0.758,0.042,1.35-0.414,1.682-1.003c-0.119-0.016-0.238-0.051-0.348-0.104c-0.312,0.463-0.844,0.701-1.355,0.701
							c-0.773,0-1.584-0.541-1.641-1.578c-0.023-0.449,0.111-0.845,0.391-1.141c0.291-0.305,0.721-0.48,1.184-0.48
							c0.537,0,1.088,0.24,1.416,0.705c0.113-0.058,0.236-0.094,0.361-0.109c-0.346-0.588-0.963-0.96-1.734-1.001
							C1548.943,25.579,1548.914,25.577,1548.882,25.577z M1548.933,26.842c-0.229,0-0.436,0.078-0.564,0.214
							c-0.117,0.123-0.17,0.294-0.158,0.508c0.031,0.569,0.441,0.771,0.787,0.771c0.34,0,0.746-0.196,0.787-0.747
							C1549.742,27,1549.23,26.842,1548.933,26.842z M1550.64,27.587c0.021,0.145,0.154,0.16,0.213,0.16
							c0.02,0,0.113-0.002,0.141-0.059c0.004-0.033,0.006-0.068,0.008-0.102c-0.002-0.034-0.004-0.067-0.008-0.1
							c-0.025-0.057-0.113-0.062-0.141-0.062C1550.794,27.426,1550.662,27.442,1550.64,27.587z"/>
					</g>
				</g>
			</g>
		</g>
	</g>
	<g>
		<g>
			<g>
				<g>
					<g>
						<path fill="#BCBEC0" d="M1386.13,31.087c-2.785,1.531-6.047,2.141-9.164,2.557c-2.895,0.385-5.817,0.537-8.733,0.572
							c-0.819,0.009-1.638,0.006-2.454-0.014c-0.144-0.003-0.288-0.006-0.432-0.012c0.329,0.012-0.264-0.205-0.362-0.243
							c-0.4-0.16-0.799-0.285-1.22-0.39c-2.391-0.601-5.106-0.391-7.509,0.078c0.323,0.184,0.647,0.368,0.97,0.552
							c-0.739-3.185-2.588-6.374-5.124-8.436c-1.411-1.147-3.502-2.491-5.302-1.642c-1.407,0.663-2.36,3.039-0.681,4.042
							c1.552,0.926,2.807,2.364,3.645,3.95c0.383,0.728,1.093,2.381,0.812,3.198c-0.23,0.669-0.407,1.357-0.566,2.044
							c-1.284,5.446-1.247,12.489,1.51,17.189c0.679,1.156,0.58,2.479-0.018,3.645c-0.408,0.803-1.105,1.281-1.636,1.996
							c-1.246,1.686-0.651,3.468-0.272,5.306c0.499,2.434,1.14,4.848,1.978,7.188c0.679,1.896,1.312,3.693,3.158,4.68
							c1.666,0.89,3.771,0.907,5.047-0.581c1.042-1.216,0.632-3.704-1.016-4.239c0.09,0.029-0.047-0.018-0.193-0.107
							c-0.158-0.095-0.285-0.22-0.412-0.35c-0.585-0.594-0.89-1.434-1.123-2.213c-0.566-1.893-0.688-4.162-0.604-6.121
							c0.082-1.815,1.747-2.046,3.034-2.729c0.902-0.48,1.727-1.112,2.5-1.779c3.126-2.697,4.728-6.634,4.385-10.742
							c-0.263,0.262-0.526,0.525-0.789,0.788c2.457-0.044,4.561,1.534,6.611,2.653c2.903,1.582,6.324,2.623,9.63,1.965
							c-0.335-0.254-0.668-0.508-1.001-0.762c-0.254,2.823-0.415,5.663-0.43,8.499c-0.006,1.203,0.201,2.438,0.106,3.631
							c-0.092,1.159-0.068,2.326,0.022,3.483c0.244,3.095,1.256,7.38,4.175,9.093c0.728,0.425,2.032,0.377,2.817,0.256
							c1.364-0.209,2.226-1.139,2.147-2.545c-0.013-0.269-0.136-0.553-0.391-0.684c-0.708-0.355-1.417-0.833-1.885-1.48
							c-0.36-0.5-0.223-1.02-0.269-1.394c-0.211-1.786-0.306-3.585-0.317-5.384c-0.017-2.56,0.183-5.142,0.874-7.614
							c0.31-1.106,0.771-2.154,1.416-3.108c0.346-0.512,0.864-0.86,1.335-1.28c1.841-1.654,3.577-3.708,4.478-6.039
							c0.639-1.653,0.48-2.838,0.404-4.536c-0.103-2.144-0.127-4.391,0.438-6.478c0.293-1.082,1.349-2.376,2.159-3.167
							c0.845-0.824,1.923-1.009,2.992-0.508c0.607,0.287,1.04,0.747,1.673,0.986c1.849,0.701,4.882-0.324,6.193-1.668
							c0.673-0.687,1.207-1.522,1.589-2.399c0.432-0.984,0.324-1.892,0.436-2.793c0.088-0.701-0.152-1.418-0.831-1.722
							c-0.185-0.083-0.405-0.15-0.609-0.144c0.054-0.002-0.725-0.016-0.39,0.09c-0.299-0.093-0.6-0.188-0.902-0.283
							c-0.935-0.292-1.869-0.585-2.805-0.876c-0.285-0.089-0.567-0.178-0.853-0.267c0.281,0.089,0.538,0.565,0.205-0.014
							c-1.08-1.881-2.464-3.671-4.155-5.04c-1.367-1.107-2.759-1.666-4.49-1.554c-2.232,0.144-4.199,1.145-5.511,2.969
							c-0.354,0.494-0.132,0.573-0.557,0.868c-0.461,0.322-0.903,0.673-1.333,1.032c-1.186,0.989-2.244,2.174-2.975,3.54
							c-1.154,2.16-0.776,4.546,0.882,6.286c0.914,0.962,2.291,1.378,3.589,1.173c1.271-0.2,1.95-0.586,2.607-1.604
							c1.341-2.071,3.596-5.397,2.783-7.999c-0.302-0.969-1.829-0.554-1.523,0.419c0.595,1.898-1.245,4.527-2.175,6.068
							c-0.297,0.49-0.608,0.974-0.933,1.444c0.056-0.083-0.837,0.089-0.878,0.098c-0.299,0.07-0.655,0.066-0.96,0.021
							c-0.545-0.08-1.004-0.37-1.395-0.741c-3.047-2.89,0.854-6.866,3.347-8.542c0.274-0.184,0.384-0.365,0.53-0.671
							c0.305-0.633,0.767-1.149,1.289-1.607c0.862-0.752,2.098-1.082,3.214-1.18c0.335-0.031,0.669-0.029,1.007-0.016
							c0.092,0.003,0.674,0.067,0.265,0.011c1.348,0.186,2.616,1.468,3.504,2.397c0.782,0.816,1.446,1.735,2.056,2.682
							c0.251,0.39,0.504,1.125,0.931,1.375c0.513,0.299,1.222,0.401,1.776,0.576c0.934,0.291,1.868,0.583,2.802,0.875
							c0.513,0.16,1.06-0.266,0.874,0.395c-0.158,0.566,0.023,1.188-0.146,1.791c-0.197,0.708-0.665,1.38-1.128,1.94
							c-0.948,1.145-3.774,2.326-5.209,1.382c-0.192-0.127,0.464,0.351-0.058-0.045c-0.305-0.23-0.604-0.435-0.939-0.622
							c-0.466-0.263-1.012-0.438-1.544-0.491c-1.052-0.107-2.024,0.21-2.868,0.835c-0.625,0.463-1.124,1.056-1.556,1.699
							c-0.096,0.145-0.186,0.295-0.266,0.448c0.216-0.413,0.018-0.08-0.134,0.052c-0.181,0.155-0.317,0.369-0.454,0.561
							c-1.116,1.574-1.131,4.025-1.177,5.868c-0.042,1.597,0.032,3.203,0.189,4.793c0.104,1.047-0.705,2.369-1.209,3.232
							c-0.715,1.229-1.663,2.31-2.666,3.311c-1.402,1.408-2.181,1.787-3.082,3.675c-1.879,3.925-1.867,8.746-1.61,12.995
							c0.067,1.099,0.173,2.196,0.325,3.286c0.225,1.621,1.339,2.699,2.834,3.454c-0.13-0.229-0.261-0.456-0.394-0.682
							c0.07,1.26-1.396,1.091-2.296,0.943c-0.905-0.147-1.648-1.353-2.181-2.274c-1.359-2.35-1.634-5.294-1.576-7.956
							c0.094-4.384-0.022-8.741,0.372-13.13c0.051-0.547-0.538-0.854-0.999-0.763c-3.078,0.611-6.381-0.582-9.013-2.148
							c-2.033-1.207-4.347-2.572-6.808-2.526c-0.401,0.007-0.826,0.355-0.788,0.79c0.377,4.555-1.871,8.613-5.748,10.955
							c-0.439,0.266-0.864,0.344-1.347,0.536c-1.017,0.405-1.869,1.11-2.384,2.079c-0.72,1.354-0.374,3.192-0.312,4.649
							c0.088,2.094,0.444,4.471,1.787,6.16c0.302,0.379,0.657,0.71,1.076,0.961c0.586,0.353,0.438,0.171,0.824,0.795
							c0.494,0.799-0.295,1.438-0.938,1.76c-0.804,0.405-2.461-0.432-3.106-1.01c-0.534-0.477-0.886-1.479-1.275-2.459
							c-0.563-1.412-0.996-2.875-1.393-4.339c-0.471-1.724-1.09-3.665-1.31-5.443c-0.125-1.013,0.317-1.964,1.034-2.651
							c0.196-0.19,0.202-0.146,0.576-0.602c0.527-0.64,0.883-1.367,1.141-2.152c0.681-2.079-0.525-3.561-1.187-5.33
							c-1.326-3.554-1.606-7.419-1.251-11.171c0.176-1.873,0.547-3.776,1.162-5.559c0.283-0.832-0.162-2.165-0.41-2.964
							c-0.377-1.223-1.064-2.312-1.848-3.312c-0.582-0.738-1.282-1.382-2.024-1.954c-0.575-0.445-0.939-0.509-1.01-1.099
							c-0.052-0.433,0.455-0.694,0.768-0.862c0.115-0.061,0.233-0.101,0.355-0.142c0.219-0.075,0.065,0.038,0.061,0.037
							c1.376,0.354,2.603,1.13,3.646,2.078c1.997,1.813,3.435,4.538,4.044,7.161c0.104,0.443,0.564,0.631,0.972,0.551
							c2.445-0.479,5.221-0.619,7.599,0.195c0.691,0.237,1.016,0.418,1.716,0.432c0.979,0.019,1.958,0.014,2.937-0.003
							c5.914-0.102,12.703-0.42,17.996-3.334C1387.819,31.959,1387.024,30.595,1386.13,31.087L1386.13,31.087z"/>
					</g>
				</g>
			</g>
			<g>
				<g>
					<g>
						<path fill="#BCBEC0" d="M1393.655,48.16c0.08,2.907,0.229,5.812,0.425,8.714c0.153,2.281,0.347,4.558,0.631,6.823
							c0.208,1.649,0.406,3.367,0.978,4.938c0.164,0.455,0.369,0.85,0.708,1.198c0.499,0.517,1.805,1.588,1.857,2.332
							c0.088,1.32-1.861,0.518-2.666,0.067c-0.256-0.143-0.855-0.505-0.811-0.355c-0.04-0.129-0.08-0.261-0.12-0.391
							c-0.187-0.593-0.369-1.186-0.551-1.78c-0.577-1.87-1.157-3.74-1.736-5.612c-0.914-2.952-1.828-5.907-2.742-8.862
							c-0.3-0.969-1.826-0.555-1.522,0.422c1.724,5.574,3.449,11.146,5.174,16.722c0.303,0.984,2.291,1.684,3.201,1.992
							c0.757,0.255,1.649,0.255,2.337-0.182c0.772-0.491,1.191-1.627,0.936-2.508c-0.438-1.492-2.159-2.408-2.588-3.592
							c-0.591-1.627-0.767-3.448-0.968-5.155c-0.579-4.895-0.825-9.846-0.962-14.771
							C1395.206,47.144,1393.626,47.141,1393.655,48.16L1393.655,48.16z"/>
					</g>
				</g>
			</g>
		</g>
		<g>
			<g>
				<g>
					<path fill="#BCBEC0" d="M1359.2,60.393c0.218,3.502,0.815,7.269,2.444,10.407c0.891,1.713,2.341,2.112,4.204,2.304
						c1.729,0.176,3.724-0.488,4.028-2.356c0.333-2.044-1.546-2.459-2.526-3.771c-1.786-2.386-2.037-4.989-1.39-7.836
						c0.175-0.776,0.623-1.266,0.919-1.948c0.323-0.744,0.618-1.499,0.895-2.26c0.652-1.787,1.456-3.978,1.017-5.9
						c-0.226-0.992-1.749-0.572-1.522,0.42c0.365,1.598-0.488,3.581-1.018,5.062c-0.429,1.207-1.062,2.168-1.541,3.312
						c-1.585,3.785-0.51,8.042,2.125,11.01c0.512,0.575,1.472,0.534,1.504,1.506c0.021,0.759-0.442,0.87-1.048,1.069
						c-1.025,0.337-2.2,0.042-3.185-0.288c-0.722-0.244-0.879-0.696-1.232-1.378c-1.438-2.767-1.903-6.269-2.098-9.353
						C1360.717,59.381,1359.136,59.374,1359.2,60.393L1359.2,60.393z"/>
				</g>
			</g>
		</g>
	</g>
	<g>
		<g>
			<g>
				<g>
					<path fill="#BCBEC0" d="M1680.117,77.479c0-5.81,0-11.62,0-17.43c0-5.045-0.047-10.216-4.067-13.97
						c-0.9-0.84-1.963-1.478-3.09-1.957c0.049,0.365,0.094,0.731,0.141,1.098c0.909-1.125,1.816-2.248,2.725-3.372
						c-0.226,0.06-0.453,0.119-0.679,0.179c3.123,1.09,6.109,3.597,7.165,6.776c0.242,0.735,1.373,0.626,1.373-0.186
						c0-2.703,0-5.405,0-8.107c-0.233,0.232-0.467,0.465-0.7,0.699c1.729,0,3.458,0,5.188,0c-0.231-0.233-0.463-0.466-0.698-0.699
						c0.012,2.708,0.023,5.418,0.034,8.125c0.002,0.836,1.097,0.892,1.372,0.187c1.19-3.057,3.672-7.07,7.263-7.638
						c-0.262-0.107-0.527-0.215-0.789-0.321c0.649,1.08,1.299,2.16,1.946,3.242c0.084-0.318,0.167-0.636,0.252-0.955
						c-2.217,1.174-4.03,3.316-5.201,5.487c-1.55,2.879-1.631,5.981-1.631,9.155c0,6.358,0,12.714,0,19.069c0,0.206,0,0.412,0,0.617
						c0.231-0.233,0.465-0.465,0.698-0.698c-3.999,0-8.001,0-11.999,0c-0.901,0-0.901,1.396,0,1.396c3.998,0,8,0,11.999,0
						c0.382,0,0.699-0.318,0.699-0.698c0-5.808,0-11.618,0-17.429c0-2.645-0.222-5.459,0.416-8.034
						c0.761-3.074,2.847-5.969,5.59-7.586c0.046-0.026,0.091-0.051,0.134-0.075c0.335-0.177,0.442-0.64,0.252-0.956
						c-0.648-1.081-1.298-2.162-1.945-3.243c-0.177-0.292-0.472-0.372-0.79-0.322c-4.085,0.648-6.851,5.05-8.239,8.614
						c0.459,0.062,0.914,0.124,1.372,0.187c-0.01-2.709-0.021-5.418-0.032-8.126c-0.002-0.382-0.316-0.7-0.698-0.7
						c-1.729,0-3.46,0-5.189,0c-0.382,0-0.7,0.318-0.7,0.7c0,2.702,0,5.403,0,8.107c0.46-0.062,0.915-0.123,1.374-0.187
						c-1.22-3.67-4.534-6.493-8.14-7.752c-0.215-0.073-0.536,0.002-0.681,0.181c-0.909,1.125-1.817,2.247-2.725,3.373
						c-0.25,0.308-0.311,0.904,0.141,1.097c3.927,1.674,5.961,5.438,6.394,9.55c0.148,1.422,0.07,2.884,0.07,4.309
						c0,6.07,0,12.141,0,18.209c0,0.028,0,0.057,0,0.084C1678.719,78.381,1680.117,78.381,1680.117,77.479z"/>
				</g>
			</g>
		</g>
		<g>
			<g>
				<g>
					<path fill="#BCBEC0" d="M1678.023,58.122c-5.22-2.094-9.361-6.312-11.361-11.563c-1.979-5.189-1.597-11.091,0.873-16.038
						c4.936-9.876,17.39-13.726,27.12-8.681c6.563,3.401,10.637,10.351,10.693,17.694c0.062,8.034-5.023,15.439-12.405,18.497
						c-0.818,0.341-0.459,1.691,0.373,1.348c10.138-4.202,15.622-15.396,12.538-25.975c-2.918-10.011-13.114-16.396-23.366-15.045
						c-9.246,1.218-16.726,8.626-18.221,17.792c-1.616,9.917,4.141,19.614,13.381,23.318
						C1678.487,59.805,1678.846,58.452,1678.023,58.122L1678.023,58.122z"/>
				</g>
			</g>
		</g>
	</g>
	<g>
		<g>
			<g>
				<g>
					<path fill="#BCBEC0" d="M937.682,77.855c-1.391,0-1.925-1.36-2.007-2.109l-0.003-33.63c-0.131-0.647,0.312-1.267,0.597-1.515
						l3.644-4.257V18.859c-0.009-0.21,0.021-0.531,0.232-0.742c0.058-0.057,0.235-0.237,0.766-0.262h6.11
						c0.353,0.005,0.625,0.077,0.794,0.246c0.165,0.164,0.25,0.432,0.25,0.794l0.077,17.315l3.884,4.382
						c0.528,0.424,0.495,1.281,0.476,1.519c-0.007,1.44-0.128,32.21-0.045,33.67c0.037,0.666-0.131,1.192-0.501,1.565
						c-0.512,0.521-1.197,0.505-1.272,0.502h-12.821C937.801,77.852,937.742,77.855,937.682,77.855z M941.054,18.994l-0.005,17.771
						l-3.975,4.635c-0.057,0.057-0.33,0.312-0.275,0.61l0.012,33.674c0.011,0.053,0.178,1.1,1.007,1.024l12.893-0.001
						c0.018,0.005,0.28,0.003,0.441-0.167c0.162-0.171,0.182-0.472,0.169-0.696c-0.087-1.522,0.036-32.473,0.041-33.79l0.315,0.001
						l-0.312-0.032c0.02-0.211-0.013-0.487-0.065-0.56l-0.085-0.075l-4.207-4.748l-0.083-17.649L941.054,18.994L941.054,18.994
						L941.054,18.994z"/>
				</g>
			</g>
		</g>
		<g>
			<g>
				<g>
					<path fill="#BCBEC0" d="M939.16,66.457c-0.291-0.059-0.154-0.669-0.154-0.908c0-0.755,0-1.508,0-2.263c0-2.293,0-4.586,0-6.879
						c0-3.382,0-6.766,0-10.147c0-0.072,9.284-0.036,10.263-0.036c0.582,0,0.582-0.901,0-0.901c-3.405,0-6.811,0-10.216,0
						c-1.297,0-0.948,2.013-0.948,2.824c0,2.104,0,4.212,0,6.317c0,2.865,0,5.729,0,8.596c0,0.891,0,1.783,0,2.675
						c0,0.678-0.044,1.42,0.817,1.593C939.49,67.442,939.731,66.572,939.16,66.457L939.16,66.457z"/>
				</g>
			</g>
		</g>
	</g>
	<g>
		<g>
			<g>
				<path fill="#58595B" stroke="#58595B" stroke-miterlimit="10" d="M643.881,15.461"/>
			</g>
		</g>
	</g>
	<g>
		<g>
			<g>
				<g>
					<g>
						<g>
							<path fill="#BCBEC0" d="M678.178,45.924h-62.22c-0.485-0.016-0.904-0.237-1.164-0.61c-0.218-0.299-0.307-0.675-0.246-1.049
								c0.062-0.377,0.27-0.707,0.584-0.929l31.097-22.072c0.516-0.364,1.177-0.354,1.657-0.008l31.057,22.03
								c0.407,0.265,0.659,0.721,0.659,1.211C679.601,45.283,678.962,45.924,678.178,45.924z M647.067,21.839
								c-0.118,0-0.239,0.038-0.34,0.108l-31.106,22.08c-0.128,0.091-0.212,0.225-0.237,0.376c-0.025,0.147,0.012,0.297,0.1,0.417
								c0.149,0.215,0.37,0.252,0.487,0.256h62.208c0.318,0,0.576-0.26,0.576-0.579c0-0.203-0.108-0.394-0.287-0.511l-31.073-22.042
								C647.297,21.875,647.183,21.839,647.067,21.839z"/>
						</g>
					</g>
					<g>
						<g>
							<g>
								<path fill="#BCBEC0" d="M678.178,45.494c-7.571,0-15.141,0-22.711,0c-11.359,0-22.718,0-34.077,0c-1.436,0-2.873,0-4.309,0
									c-0.324,0-0.649,0-0.974,0c-0.964,0-1.61-1.183-0.694-1.832c3.041-2.159,6.083-4.318,9.124-6.477
									c4.977-3.532,9.953-7.063,14.928-10.596c1.774-1.259,3.549-2.517,5.322-3.777c0.707-0.502,2.003-1.809,2.918-1.16
									c7.928,5.623,15.856,11.248,23.784,16.872c1.784,1.264,3.566,2.529,5.35,3.795c0.497,0.353,0.994,0.705,1.491,1.057
									c0.11,0.078,0.22,0.157,0.331,0.235C679.468,44.184,679.231,45.399,678.178,45.494c-0.547,0.049-0.553,0.908,0,0.859
									c1.809-0.163,2.522-2.346,0.982-3.437c-0.204-0.144-0.407-0.29-0.611-0.434c-1.414-1.002-2.828-2.005-4.241-3.008
									c-4.842-3.434-9.683-6.868-14.522-10.301c-3.69-2.618-7.381-5.235-11.072-7.854c-0.935-0.663-1.865-1.019-2.926-0.265
									c-1.174,0.833-2.348,1.667-3.522,2.499c-8.727,6.194-17.453,12.388-26.18,18.582c-1.087,0.771-2.904,1.944-1.596,3.481
									c0.743,0.875,1.75,0.736,2.765,0.736c3.799,0,7.597,0,11.395,0c12.014,0,24.026,0,36.039,0c4.495,0,8.991,0,13.487,0
									C678.731,46.354,678.731,45.494,678.178,45.494z"/>
							</g>
						</g>
						<g>
							<g>
								<path fill="#BCBEC0" d="M646.954,21.425c-0.872,0.138-1.809,1.122-2.494,1.608c-1.867,1.324-3.735,2.65-5.602,3.976
									c-4.99,3.542-9.981,7.084-14.971,10.627c-2.823,2.005-5.649,4.01-8.474,6.015c-0.807,0.571-0.436,1.855,0.577,1.855
									c0.218,0,0.436,0,0.654,0c1.259,0,2.518,0,3.776,0c11.126,0,22.252,0,33.38,0c8.105,0,16.209,0,24.315,0
									c1.024,0,1.376-1.173,0.656-1.822c-0.195-0.177-0.438-0.317-0.651-0.468c-1.391-0.986-2.784-1.975-4.175-2.961
									c-4.832-3.428-9.663-6.855-14.496-10.282c-2.801-1.988-5.604-3.976-8.405-5.963c-0.854-0.607-1.709-1.212-2.564-1.819
									c-0.385-0.274-0.815-0.69-1.298-0.767c-0.541-0.085-0.774,0.742-0.229,0.829c0.301,0.047,0.549,0.292,0.788,0.463
									c0.55,0.39,1.101,0.78,1.652,1.171c1.9,1.348,3.801,2.697,5.702,4.045c4.986,3.538,9.973,7.074,14.961,10.612
									c2.73,1.937,5.462,3.875,8.192,5.812c0.422,0.299-0.582,0.289-0.542,0.289c-0.449,0-0.899,0-1.348,0
									c-1.642,0-3.281,0-4.922,0c-11.591,0-23.181,0-34.771,0c-5.088,0-10.176,0-15.263,0c-1.436,0-2.873,0-4.308,0
									c-0.134,0-1.701,0.066-1.112-0.351c8.167-5.799,16.335-11.595,24.502-17.394c1.549-1.1,3.098-2.199,4.648-3.299
									c0.553-0.392,1.345-1.24,2.048-1.351C647.728,22.167,647.495,21.339,646.954,21.425z"/>
							</g>
						</g>
					</g>
				</g>
			</g>
			<g>
				<g>
					<g>
						<g>
							<path fill="#BCBEC0" d="M667.051,41.617h-39.974c-0.363-0.012-0.676-0.177-0.871-0.456c-0.164-0.225-0.229-0.505-0.184-0.786
								c0.047-0.283,0.202-0.53,0.438-0.696L646.438,25.5c0.383-0.272,0.878-0.264,1.24-0.004l19.953,14.152
								c0.298,0.193,0.487,0.535,0.487,0.902C668.117,41.139,667.639,41.617,667.051,41.617z M647.062,26.144
								c-0.045,0-0.092,0.015-0.13,0.042l-19.984,14.186c-0.049,0.035-0.081,0.086-0.09,0.144c-0.007,0.039-0.006,0.097,0.037,0.155
								c0.06,0.085,0.148,0.1,0.196,0.102h39.96c0.121,0,0.22-0.099,0.22-0.221c0-0.114-0.081-0.177-0.116-0.2l-19.968-14.165
								C647.146,26.157,647.108,26.144,647.062,26.144z"/>
						</g>
					</g>
					<g>
						<g>
							<g>
								<path fill="#BCBEC0" d="M667.051,41.188c-9.294,0-18.587,0-27.88,0c-3.943,0-7.887,0-11.831,0c-0.083,0-0.168,0-0.252,0
									c-0.587,0-0.666-0.956-0.256-1.248c0.526-0.374,1.052-0.746,1.578-1.119c2.16-1.533,4.32-3.065,6.479-4.6
									c3.889-2.759,7.779-5.519,11.667-8.28c0.505-0.358,0.912-0.072,1.295,0.199c0.644,0.457,1.287,0.913,1.93,1.37
									c2.268,1.609,4.537,3.218,6.805,4.827c2.461,1.746,4.923,3.493,7.384,5.238c0.842,0.598,1.684,1.194,2.525,1.792
									c0.232,0.164,0.465,0.33,0.696,0.493C667.627,40.171,668.186,41.057,667.051,41.188c-0.543,0.063-0.55,0.922,0,0.858
									c1.462-0.169,2.04-1.885,0.77-2.788c-0.396-0.281-0.792-0.563-1.19-0.844c-2.025-1.437-4.05-2.874-6.076-4.311
									c-4.12-2.923-8.24-5.845-12.36-8.768c-1.192-0.847-2.041-0.16-3.036,0.547c-1.98,1.405-3.959,2.811-5.939,4.216
									c-4.195,2.978-8.392,5.956-12.588,8.933c-0.571,0.407-1.223,0.922-1.032,1.736c0.202,0.863,0.861,1.278,1.707,1.278
									c1.35,0,2.7,0,4.051,0c5.648,0,11.294,0,16.943,0c6.25,0,12.5,0,18.75,0C667.604,42.046,667.604,41.188,667.051,41.188z"/>
							</g>
						</g>
						<g>
							<g>
								<path fill="#BCBEC0" d="M646.949,25.729c-0.381,0.123-0.695,0.413-1.017,0.642c-0.77,0.547-1.54,1.093-2.309,1.64
									c-2.379,1.687-4.755,3.375-7.132,5.062c-2.336,1.657-4.671,3.315-7.007,4.974c-0.718,0.509-1.436,1.018-2.154,1.527
									c-0.299,0.212-0.902,0.514-0.902,0.939c0,1.016,1.907,0.686,2.516,0.686c2.074,0,4.148,0,6.223,0c6.061,0,12.121,0,18.181,0
									c4.347,0,8.693,0,13.041,0c0.211,0,0.569,0.071,0.774-0.016c0.789-0.329,0.53-0.977-0.014-1.362
									c-1.547-1.097-3.092-2.193-4.637-3.289c-3.281-2.327-6.561-4.654-9.842-6.98c-1.268-0.899-2.536-1.798-3.804-2.699
									c-0.518-0.367-1.078-0.92-1.691-1.123c-0.527-0.175-0.751,0.656-0.228,0.829c0.296,0.098,0.614,0.418,0.87,0.6
									c0.748,0.53,1.494,1.06,2.242,1.589c2.272,1.612,4.544,3.224,6.816,4.835c2.285,1.62,4.569,3.241,6.854,4.861
									c0.762,0.542,1.526,1.084,2.291,1.625c0.219,0.156,0.438,0.311,0.659,0.467c0.358,0.254,0.092,0.105,0.112,0.056
									c0.1-0.1,0.2-0.201,0.299-0.3c-0.211,0.088-0.507,0.048-0.754,0.048c-0.663,0-1.324,0-1.987,0c-2.273,0-4.548,0-6.824,0
									c-6.116,0-12.231,0-18.346,0c-3.942,0-7.884,0-11.826,0c-0.413,0-0.321,0.495,0,0.268c0.545-0.387,1.092-0.776,1.64-1.163
									c2.18-1.548,4.36-3.097,6.54-4.644c2.601-1.845,5.199-3.691,7.799-5.535c0.918-0.652,1.836-1.303,2.755-1.955
									c0.318-0.227,0.719-0.634,1.091-0.754C647.702,26.389,647.478,25.56,646.949,25.729z"/>
							</g>
						</g>
					</g>
				</g>
			</g>
			<g>
				<g>
					<g>
						<g>
							<path fill="#BCBEC0" d="M630.026,69.041h-6.089c-0.234,0-0.423-0.188-0.423-0.423V45.736c0-0.232,0.189-0.423,0.423-0.423
								c0.233,0,0.423,0.19,0.423,0.423v22.458h5.243V45.736c0-0.232,0.189-0.423,0.423-0.423c0.233,0,0.423,0.19,0.423,0.423
								v22.882C630.449,68.853,630.26,69.041,630.026,69.041z"/>
						</g>
					</g>
					<g>
						<g>
							<g>
								<path fill="#BCBEC0" d="M630.026,68.612c-0.592,0-6.083,0.012-6.083-0.014c0-1.588,0-3.177,0-4.765
									c0-5.568,0-11.139,0-16.708c0-0.461,0-0.919,0-1.38c0,0.311-0.012,0.764-0.012,1.117c0,2.456,0,4.912,0,7.367
									c0,4.647,0,9.295,0,13.943c0,0.007,0,0.014,0,0.02c0,0.234,0.195,0.43,0.429,0.43c1.748,0,3.495,0,5.243,0
									c0.233,0,0.429-0.195,0.429-0.43c0-4.468,0-8.936,0-13.404c0-2.548,0-5.096,0-7.644c0-0.467,0-0.935,0-1.399
									c0,0.306-0.014,0.754-0.014,1.103c0,4.201,0,8.402,0,12.604c0,2.137,0,4.272,0,6.41c0,0.338,0.201,2.682-0.107,2.765
									c-0.534,0.145-0.307,0.973,0.229,0.829c0.75-0.202,0.739-0.786,0.739-1.412c0-0.86,0-1.721,0-2.581c0-2.889,0-5.777,0-8.666
									c0-2.811,0-5.62,0-8.43c0-0.611,0.41-4.357-1.284-3.365c-0.472,0.277-0.421,0.793-0.421,1.254c0,0.758,0,1.515,0,2.272
									c0,2.59,0,5.182,0,7.771c0,3.967,0,7.932,0,11.896c0.143-0.143,0.286-0.286,0.429-0.43c-1.747,0-3.495,0-5.242,0
									c0.143,0.143,0.286,0.286,0.429,0.43c0-4.469,0-8.937,0-13.404c0-2.548,0-5.098,0-7.646c0-0.466,0-0.933,0-1.399
									c0-1.135-1.706-1.084-1.706,0.043c0,4.741,0,9.481,0,14.223c0,2.469,0,4.936,0,7.404c0,0.4,0,0.802,0,1.202
									c0,1.156,1.72,0.854,2.431,0.854c1.504,0,3.008,0,4.511,0C630.58,69.47,630.58,68.612,630.026,68.612z"/>
							</g>
						</g>
					</g>
				</g>
			</g>
			<g>
				<g>
					<g>
						<g>
							<path fill="#BCBEC0" d="M643.084,69.041h-6.088c-0.234,0-0.424-0.188-0.424-0.423V45.736c0-0.232,0.19-0.423,0.424-0.423
								c0.233,0,0.422,0.19,0.422,0.423v22.458h5.243V45.736c0-0.232,0.19-0.423,0.423-0.423c0.234,0,0.424,0.19,0.424,0.423v22.882
								C643.509,68.853,643.319,69.041,643.084,69.041z"/>
						</g>
					</g>
					<g>
						<g>
							<g>
								<path fill="#BCBEC0" d="M643.084,68.612c-0.593,0-6.083,0.012-6.083-0.014c0-1.588,0-3.177,0-4.765
									c0-5.568,0-11.139,0-16.708c0-0.461,0-0.919,0-1.38c0,0.311-0.013,0.764-0.013,1.117c0,2.456,0,4.912,0,7.367
									c0,4.647,0,9.295,0,13.943c0,0.007,0,0.014,0,0.02c0,0.234,0.196,0.43,0.429,0.43c1.748,0,3.496,0,5.242,0
									c0.234,0,0.43-0.195,0.43-0.43c0-4.468,0-8.936,0-13.404c0-2.548,0-5.096,0-7.644c0-0.467,0-0.935,0-1.399
									c0,0.306-0.012,0.754-0.012,1.103c0,4.201,0,8.402,0,12.604c0,2.137,0,4.272,0,6.41c0,0.338,0.2,2.682-0.108,2.765
									c-0.534,0.145-0.307,0.973,0.229,0.829c0.75-0.202,0.739-0.786,0.739-1.412c0-0.86,0-1.721,0-2.581c0-2.889,0-5.777,0-8.666
									c0-2.811,0-5.62,0-8.43c0-0.611,0.41-4.357-1.283-3.365c-0.473,0.277-0.423,0.793-0.423,1.254c0,0.758,0,1.515,0,2.272
									c0,2.59,0,5.182,0,7.771c0,3.967,0,7.932,0,11.896c0.144-0.143,0.287-0.286,0.43-0.43c-1.747,0-3.495,0-5.243,0
									c0.143,0.143,0.287,0.286,0.43,0.43c0-4.469,0-8.937,0-13.404c0-2.548,0-5.098,0-7.646c0-0.466,0-0.933,0-1.399
									c0-1.135-1.706-1.084-1.706,0.043c0,4.741,0,9.481,0,14.223c0,2.469,0,4.936,0,7.404c0,0.4,0,0.802,0,1.202
									c0,1.156,1.721,0.854,2.432,0.854c1.504,0,3.007,0,4.511,0C643.639,69.47,643.639,68.612,643.084,68.612z"/>
							</g>
						</g>
					</g>
				</g>
			</g>
			<g>
				<g>
					<g>
						<g>
							<path fill="#BCBEC0" d="M657.146,69.041h-6.09c-0.234,0-0.424-0.188-0.424-0.423V45.736c0-0.232,0.19-0.423,0.424-0.423
								c0.233,0,0.424,0.19,0.424,0.423v22.458h5.242V45.736c0-0.232,0.19-0.423,0.424-0.423c0.232,0,0.422,0.19,0.422,0.423v22.882
								C657.568,68.853,657.378,69.041,657.146,69.041z"/>
						</g>
					</g>
					<g>
						<g>
							<g>
								<path fill="#BCBEC0" d="M657.146,68.612c-0.595,0-6.085,0.012-6.085-0.014c0-1.588,0-3.177,0-4.765
									c0-5.568,0-11.139,0-16.708c0-0.461,0-0.919,0-1.38c0,0.311-0.013,0.764-0.013,1.117c0,2.456,0,4.912,0,7.367
									c0,4.647,0,9.295,0,13.943c0,0.007,0,0.014,0,0.02c0,0.234,0.196,0.43,0.43,0.43c1.746,0,3.495,0,5.242,0
									c0.233,0,0.429-0.195,0.429-0.43c0-4.468,0-8.936,0-13.404c0-2.548,0-5.096,0-7.644c0-0.467,0-0.935,0-1.399
									c0,0.306-0.012,0.754-0.012,1.103c0,4.201,0,8.402,0,12.604c0,2.137,0,4.272,0,6.41c0,0.338,0.2,2.682-0.108,2.765
									c-0.535,0.145-0.308,0.973,0.228,0.829c0.752-0.202,0.739-0.786,0.739-1.412c0-0.86,0-1.721,0-2.581
									c0-2.889,0-5.777,0-8.666c0-2.811,0-5.62,0-8.43c0-0.611,0.41-4.357-1.283-3.365c-0.472,0.277-0.422,0.793-0.422,1.254
									c0,0.758,0,1.515,0,2.272c0,2.59,0,5.182,0,7.771c0,3.967,0,7.932,0,11.896c0.143-0.143,0.287-0.286,0.43-0.43
									c-1.748,0-3.496,0-5.243,0c0.143,0.143,0.287,0.286,0.43,0.43c0-4.469,0-8.937,0-13.404c0-2.548,0-5.098,0-7.646
									c0-0.466,0-0.933,0-1.399c0-1.135-1.707-1.084-1.707,0.043c0,4.741,0,9.481,0,14.223c0,2.469,0,4.936,0,7.404
									c0,0.4,0,0.802,0,1.202c0,1.156,1.721,0.854,2.433,0.854c1.502,0,3.006,0,4.51,0
									C657.698,69.47,657.698,68.612,657.146,68.612z"/>
							</g>
						</g>
					</g>
				</g>
			</g>
			<g>
				<g>
					<g>
						<g>
							<path fill="#BCBEC0" d="M670.003,69.041h-6.09c-0.233,0-0.424-0.188-0.424-0.423V45.736c0-0.232,0.19-0.423,0.424-0.423
								c0.234,0,0.423,0.19,0.423,0.423v22.458h5.244V45.736c0-0.232,0.189-0.423,0.423-0.423c0.232,0,0.423,0.19,0.423,0.423
								v22.882C670.425,68.853,670.236,69.041,670.003,69.041z"/>
						</g>
					</g>
					<g>
						<g>
							<g>
								<path fill="#BCBEC0" d="M670.003,68.612c-0.594,0-6.085,0.012-6.085-0.014c0-1.588,0-3.177,0-4.765
									c0-5.568,0-11.139,0-16.708c0-0.461,0-0.919,0-1.38c0,0.311-0.012,0.764-0.012,1.117c0,2.456,0,4.912,0,7.367
									c0,4.647,0,9.295,0,13.943c0,0.007,0,0.014,0,0.02c0,0.234,0.196,0.43,0.43,0.43c1.747,0,3.494,0,5.242,0
									c0.234,0,0.429-0.195,0.429-0.43c0-4.468,0-8.936,0-13.404c0-2.548,0-5.096,0-7.644c0-0.467,0-0.935,0-1.399
									c0,0.306-0.013,0.754-0.013,1.103c0,4.201,0,8.402,0,12.604c0,2.137,0,4.272,0,6.41c0,0.338,0.201,2.682-0.107,2.765
									c-0.535,0.145-0.308,0.973,0.229,0.829c0.751-0.202,0.738-0.786,0.738-1.412c0-0.86,0-1.721,0-2.581
									c0-2.889,0-5.777,0-8.666c0-2.811,0-5.62,0-8.43c0-0.611,0.412-4.357-1.283-3.365c-0.472,0.277-0.421,0.793-0.421,1.254
									c0,0.758,0,1.515,0,2.272c0,2.59,0,5.182,0,7.771c0,3.967,0,7.932,0,11.896c0.143-0.143,0.286-0.286,0.429-0.43
									c-1.747,0-3.494,0-5.242,0c0.143,0.143,0.286,0.286,0.429,0.43c0-4.469,0-8.937,0-13.404c0-2.548,0-5.098,0-7.646
									c0-0.466,0-0.933,0-1.399c0-1.135-1.707-1.084-1.707,0.043c0,4.741,0,9.481,0,14.223c0,2.469,0,4.936,0,7.404
									c0,0.4,0,0.802,0,1.202c0,1.156,1.721,0.854,2.432,0.854c1.504,0,3.007,0,4.513,0
									C670.557,69.47,670.557,68.612,670.003,68.612z"/>
							</g>
						</g>
					</g>
				</g>
			</g>
		</g>
		<g>
			<g>
				<g>
					<g>
						<path fill="#BCBEC0" d="M673.759,72.315h-53.39c-0.233,0-0.424-0.188-0.424-0.424c0-0.234,0.191-0.424,0.424-0.424h53.39
							c0.234,0,0.423,0.189,0.423,0.424C674.182,72.127,673.993,72.315,673.759,72.315z"/>
					</g>
				</g>
				<g>
					<g>
						<g>
							<path fill="#BCBEC0" d="M673.759,71.886c-8.263,0-16.526,0-24.79,0c-9.416,0-18.833,0-28.249,0
								c-0.798,0,0.234,0.013,0.479,0.013c1.454,0,2.908,0,4.362,0c5.335,0,10.672,0,16.008,0c10.297,0,20.595,0,30.894,0
								c0.315,0,0.628,0,0.943,0c0.104,0,0.477-0.061,0.238,0.003c-0.535,0.145-0.308,0.974,0.228,0.829
								c0.998-0.27,0.922-1.69-0.17-1.69c-0.293,0-0.586,0-0.881,0c-1.497,0-2.996,0-4.494,0c-5.38,0-10.762,0-16.143,0
								c-10.216,0-20.43,0-30.645,0c-0.348,0-0.693,0-1.042,0c-0.638,0-1.398,0.771-0.797,1.37c0.549,0.55,1.667,0.336,2.376,0.336
								c4.33,0,8.66,0,12.99,0c11.397,0,22.795,0,34.193,0c1.499,0,3,0,4.5,0C674.313,72.745,674.313,71.886,673.759,71.886z"/>
						</g>
					</g>
				</g>
			</g>
		</g>
		<g>
			<g>
				<g>
					<g>
						<path fill="#BCBEC0" d="M676.465,76.005h-58.801c-0.233,0-0.423-0.189-0.423-0.423s0.19-0.424,0.423-0.424h58.801
							c0.234,0,0.423,0.19,0.423,0.424S676.699,76.005,676.465,76.005z"/>
					</g>
				</g>
				<g>
					<g>
						<g>
							<path fill="#BCBEC0" d="M676.465,75.576c-7.812,0-15.625,0-23.436,0c-10.798,0-21.596,0-32.394,0c-0.945,0-1.891,0-2.834,0
								c-0.157,0-0.157,0.013,0,0.013c0.328,0,0.658,0,0.987,0c3.811,0,7.623,0,11.434,0c11.899,0,23.8,0,35.701,0
								c2.523,0,5.048,0,7.573,0c0.722,0,1.443,0,2.165,0c0.201,0,0.399,0,0.6,0c0.101,0,0.301-0.054,0.091,0.003
								c-0.534,0.146-0.308,0.973,0.229,0.828c0.991-0.268,0.926-1.691-0.166-1.691c-0.267,0-0.535,0-0.802,0
								c-1.379,0-2.759,0-4.137,0c-5.102,0-10.204,0-15.306,0c-11.281,0-22.562,0-33.845,0c-1.316,0-2.634,0-3.952,0
								c-0.229,0-0.458,0-0.687,0c-1.108,0-1.127,1.707-0.018,1.707c2.434,0,4.868,0,7.301,0c11.704,0,23.408,0,35.112,0
								c5.462,0,10.924,0,16.384,0C677.018,76.436,677.018,75.576,676.465,75.576z"/>
						</g>
					</g>
				</g>
			</g>
		</g>
	</g>
	<g>
		<g>
			<g>
				<g>
					<g>
						<g>
							<path fill="#BCBEC0" d="M436.131,77.972c-0.08,0-0.162-0.003-0.244-0.008c-0.887-0.069-1.682-0.414-2.359-1.023
								c-0.706-0.633-1.062-1.454-1.062-2.435c0-0.994,0.364-1.79,1.083-2.364l20.06-18.811c0.671-0.537,1.386-0.929,2.157-1.186
								l8.847-2.08l1.323-12.901l-20.813,6.073c-0.178,0.046-0.367,0-0.496-0.129c-1.924-1.951-22.74-22.033-22.951-22.235
								c-0.142-0.135-0.189-0.34-0.124-0.524c0.063-0.185,0.229-0.315,0.424-0.333c12.874-1.191,27.313-1.796,42.917-1.796
								c21.322,0,37.333,0.605,47.594,1.797c1.336,0.192,1.75,0.854,1.867,1.375c0.122,0.553-0.017,1.334-1.368,1.912l-30.25,8.85
								l7.14,24.382c1.552,0.568,1.888,1.684,1.888,2.544c0,0.732-0.289,1.396-0.863,1.969c-0.575,0.571-1.238,0.86-1.97,0.86
								l-9.875-0.177c-0.841,0-1.564-0.29-2.139-0.865l-2.681-2.85l-2.405,0.567c-0.055,0.04-0.117,0.069-0.186,0.084l-18.346,4.273
								l-14.972,14.08C437.703,77.648,436.96,77.972,436.131,77.972z M466.509,35.976c0.115,0,0.229,0.04,0.32,0.117
								c0.127,0.104,0.195,0.268,0.177,0.434l-1.435,13.992c-0.022,0.212-0.175,0.387-0.383,0.436l-9.149,2.151
								c-0.614,0.208-1.226,0.543-1.776,0.981l-20.061,18.81c-0.506,0.405-0.738,0.925-0.738,1.609c0,0.696,0.239,1.248,0.73,1.692
								c0.519,0.465,1.097,0.718,1.769,0.77c0.617,0.044,1.174-0.166,1.668-0.662l15.079-14.184c0.065-0.061,0.143-0.102,0.23-0.122
								l18.113-4.222c0.053-0.038,0.114-0.066,0.183-0.084l3.05-0.715c0.172-0.046,0.354,0.015,0.479,0.143l2.868,3.049
								c0.375,0.374,0.847,0.561,1.43,0.561l9.875,0.179c0.457,0,0.87-0.187,1.255-0.572c0.382-0.382,0.569-0.795,0.569-1.26
								c0-0.533-0.15-1.286-1.437-1.674c-0.162-0.048-0.289-0.177-0.336-0.338l-7.355-25.113c-0.038-0.127-0.022-0.264,0.041-0.38
								c0.063-0.116,0.171-0.203,0.298-0.24l30.674-8.97c0.524-0.226,0.787-0.489,0.728-0.756c-0.025-0.115-0.104-0.468-1.018-0.6
								c-10.208-1.187-26.184-1.79-47.466-1.79c-15.136,0-29.172,0.571-41.739,1.694c3.713,3.583,19.408,18.731,21.972,21.281
								l21.241-6.196C466.416,35.983,466.462,35.976,466.509,35.976z M487.138,57.425h-7.175c-0.143,0-0.281-0.063-0.375-0.171
								l-5.202-5.92c-0.011-0.009-0.018-0.018-0.025-0.024c-0.129-0.024-0.27-0.081-0.34-0.164
								c-1.076-1.291-2.366-1.703-3.973-1.271l-2.721,0.545c-0.156,0.033-0.317-0.014-0.435-0.12
								c-0.117-0.106-0.178-0.262-0.161-0.42l1.435-14.171c0.02-0.203,0.164-0.373,0.36-0.431l11.299-3.229
								c0.264-0.072,0.539,0.077,0.616,0.34l7.174,24.396c0.045,0.15,0.017,0.313-0.079,0.439
								C487.443,57.35,487.294,57.425,487.138,57.425z M480.188,56.426h6.282l-6.847-23.279l-10.498,3l-1.333,13.161l2.028-0.406
								c0.458-0.123,0.936-0.189,1.388-0.189c1.326,0,2.487,0.555,3.456,1.651c0.203,0.058,0.342,0.181,0.45,0.289L480.188,56.426z"
								/>
						</g>
					</g>
					<g>
						<g>
							<g>
								<path fill="#BCBEC0" d="M436.131,77.849c-1.355-0.047-2.593-0.739-3.241-1.948c-0.655-1.226-0.269-2.797,0.747-3.67
									c0.193-0.167,0.373-0.349,0.558-0.523c1.249-1.17,2.497-2.342,3.746-3.511c3.785-3.55,7.569-7.099,11.354-10.647
									c1.114-1.044,2.227-2.089,3.342-3.135c0.981-0.919,1.829-1.674,3.163-2.149c1.372-0.488,2.926-0.689,4.344-1.021
									c1.501-0.354,3.001-0.706,4.502-1.059c0.058-0.014,0.086-0.064,0.09-0.119c0.441-4.3,0.882-8.599,1.324-12.9
									c0.009-0.08-0.084-0.14-0.157-0.119c-3.521,1.027-7.043,2.054-10.564,3.081c-2.391,0.697-4.781,1.396-7.173,2.093
									c-0.766,0.224-1.532,0.448-2.298,0.671c-0.367,0.106-0.893,0.389-1.227,0.055c-6.516-6.554-13.268-12.887-19.919-19.307
									c-0.944-0.91-1.886-1.819-2.828-2.729c-0.356-0.345,0.198-0.783,0.625-0.821c1.186-0.109,2.374-0.209,3.561-0.305
									c2.351-0.193,4.705-0.359,7.059-0.507c10.247-0.647,20.512-0.914,30.776-0.934c9.601-0.018,19.208,0.089,28.803,0.447
									c3.721,0.139,7.441,0.322,11.156,0.577c1.584,0.108,3.166,0.233,4.745,0.376c0.694,0.063,1.386,0.13,2.079,0.202
									c0.876,0.09,1.846,0.098,2.663,0.443c1.548,0.657,0.832,2.434-0.494,2.821c-0.362,0.107-0.723,0.213-1.086,0.319
									c-1.696,0.496-3.39,0.992-5.084,1.487c-5.034,1.473-10.068,2.946-15.101,4.418c-2.965,0.868-5.929,1.733-8.892,2.602
									c-0.064,0.02-0.105,0.086-0.087,0.151c2.258,7.708,4.514,15.414,6.77,23.12c0.116,0.4,0.234,0.798,0.351,1.199
									c0.072,0.242,0.299,0.228,0.549,0.348c1.037,0.5,1.462,1.582,1.315,2.674c-0.408,2.999-4.563,2.227-6.625,2.189
									c-1.973-0.036-3.944-0.071-5.916-0.107c-1.535-0.026-2.333-1.123-3.284-2.134c-0.394-0.421-0.792-0.843-1.187-1.262
									c-0.123-0.132-0.237-0.349-0.436-0.301c-3.478,0.817-6.952,1.668-10.435,2.479c-2.488,0.579-4.976,1.158-7.463,1.739
									c-0.788,0.183-1.576,0.366-2.365,0.55c-0.189,0.044-0.545,0.053-0.697,0.195c-2.687,2.527-5.374,5.055-8.061,7.582
									c-1.688,1.587-3.375,3.175-5.063,4.762C438.959,76.258,437.745,77.786,436.131,77.849c-0.159,0.006-0.16,0.254,0,0.247
									c1.634-0.063,2.688-1.364,3.798-2.408c1.712-1.612,3.425-3.223,5.138-4.834c2.773-2.607,5.546-5.216,8.319-7.823
									c-0.086,0.08,0.126-0.013,0.203-0.029c0.265-0.062,0.53-0.124,0.793-0.185c0.9-0.21,1.8-0.42,2.7-0.629
									c2.547-0.595,5.096-1.187,7.643-1.781c2.043-0.477,4.086-0.951,6.13-1.428c0.355-0.083,0.708-0.208,1.06-0.289
									c0.512-0.122,1.025-0.242,1.538-0.362c0.234-0.056,0.47-0.111,0.706-0.165c0.13-0.032-0.052-0.103,0.132,0.092
									c1.373,1.459,2.698,3.563,4.891,3.603c2.196,0.041,4.392,0.079,6.587,0.119c0.96,0.019,1.925,0.034,2.886,0.053
									c1.204,0.021,2.156-0.513,2.831-1.521c0.783-1.172,0.396-2.771-0.658-3.608c-0.16-0.127-0.81-0.317-0.851-0.461
									c-0.043-0.149-0.087-0.298-0.131-0.447c-2.312-7.895-4.624-15.787-6.936-23.682c-0.08-0.277-0.245-0.005,0.068-0.098
									c0.438-0.128,0.876-0.257,1.314-0.385c1.8-0.527,3.6-1.053,5.399-1.58c5.052-1.478,10.104-2.956,15.155-4.432
									c1.972-0.578,3.945-1.155,5.917-1.732c0.837-0.244,1.745-0.42,2.54-0.79c1.027-0.478,1.566-1.555,0.891-2.548
									c-0.716-1.057-2.543-0.949-3.665-1.064c-3.179-0.327-6.367-0.557-9.556-0.745c-8.56-0.508-17.138-0.695-25.711-0.787
									c-10.498-0.11-20.999-0.061-31.492,0.344c-4.877,0.191-9.75,0.457-14.618,0.808c-2.303,0.168-4.604,0.357-6.904,0.567
									c-0.684,0.063-1.153,0.615-0.567,1.183c2.644,2.548,5.286,5.101,7.927,7.652c3.88,3.748,7.76,7.496,11.628,11.257
									c1.062,1.031,2.128,2.059,3.177,3.106c0.658,0.657,2.002-0.076,2.75-0.292c4.745-1.385,9.488-2.768,14.231-4.153
									c1.475-0.43,2.949-0.859,4.423-1.29c0.278-0.081-0.018-0.009-0.005-0.141c-0.022,0.204-0.042,0.409-0.063,0.613
									c-0.099,0.968-0.198,1.936-0.297,2.902c-0.258,2.518-0.517,5.037-0.775,7.556c-0.061,0.594-0.122,1.188-0.183,1.782
									c-0.006,0.05,0.163-0.112,0.028-0.081c-0.098,0.023-0.197,0.045-0.294,0.07c-0.436,0.101-0.873,0.203-1.308,0.306
									c-2.277,0.535-4.554,1.073-6.832,1.607c-1.326,0.312-2.342,1.095-3.306,1.998c-6.293,5.903-12.589,11.804-18.883,17.707
									c-0.602,0.564-1.164,1.078-1.429,1.898c-0.776,2.401,1.388,4.469,3.662,4.55C436.292,78.103,436.29,77.854,436.131,77.849z"
									/>
							</g>
						</g>
						<g>
							<g>
								<path fill="#BCBEC0" d="M466.477,36.095c0.685,0.12,0.302,1.447,0.265,1.824c-0.115,1.115-0.23,2.23-0.346,3.345
									c-0.257,2.514-0.514,5.026-0.772,7.54c-0.058,0.563-0.116,1.128-0.174,1.692c-0.052,0.523-1.577,0.64-1.907,0.719
									c-2.324,0.547-4.648,1.093-6.972,1.639c-1.236,0.29-2.184,0.949-3.088,1.797c-1.304,1.223-2.61,2.445-3.914,3.67
									c-3.782,3.547-7.566,7.094-11.349,10.642c-1.21,1.135-2.42,2.27-3.629,3.402c-0.268,0.253-0.559,0.5-0.803,0.771
									c-1.149,1.278-0.106,3.085,1.173,3.708c1.711,0.836,2.868-0.553,3.979-1.597c1.651-1.554,3.301-3.106,4.952-4.658
									c2.956-2.779,5.91-5.559,8.866-8.336c0.219-0.207,0.634-0.23,0.913-0.296c0.814-0.189,1.628-0.379,2.442-0.569
									c2.504-0.583,5.009-1.167,7.512-1.751c3.492-0.813,6.972-1.663,10.458-2.482c0.827-0.194,1.706,1.229,2.198,1.755
									c0.666,0.708,1.298,1.636,2.281,1.896c0.605,0.161,1.371,0.066,1.988,0.077c1.262,0.021,2.522,0.046,3.784,0.068
									c1.194,0.021,2.388,0.041,3.582,0.064c0.789,0.013,1.464,0.096,2.149-0.394c0.911-0.651,1.198-2.217,0.174-2.916
									c-0.3-0.206-1.043-0.393-1.15-0.754c-0.046-0.155-0.091-0.31-0.136-0.466c-1.197-4.082-2.391-8.163-3.586-12.245
									c-1.164-3.972-2.326-7.943-3.49-11.915c-0.272-0.93,0.516-0.984,1.229-1.194c1.655-0.484,3.313-0.968,4.969-1.453
									c8.181-2.393,16.363-4.784,24.543-7.177c0.43-0.125,1.201-0.637,0.779-1.163c-0.354-0.437-0.995-0.453-1.511-0.512
									c-0.721-0.081-1.444-0.157-2.167-0.228c-3.246-0.319-6.502-0.542-9.76-0.726c-8.717-0.489-17.45-0.666-26.179-0.743
									c-16.889-0.153-33.791,0.157-50.622,1.655c-0.101,0.008-0.17,0.129-0.088,0.21c7.336,7.079,14.744,14.096,21.972,21.282
									c0.032,0.032,0.079,0.044,0.121,0.033c7.08-2.065,14.158-4.129,21.235-6.195c0.051-0.013,0.051-0.007,0.146-0.021
									c0.158-0.022,0.09-0.261-0.065-0.238c-1.1,0.156-2.22,0.626-3.283,0.937c-2.387,0.697-4.774,1.392-7.163,2.089
									c-3.641,1.061-7.281,2.123-10.922,3.185c0.101-0.028-0.256-0.322-0.376-0.441c-0.296-0.292-0.595-0.583-0.894-0.874
									c-0.804-0.786-1.611-1.569-2.417-2.354c-2.18-2.117-4.363-4.229-6.547-6.342c-3.856-3.729-7.714-7.456-11.574-11.179
									c-0.02-0.017-0.039-0.036-0.057-0.054c-0.028,0.07-0.059,0.14-0.088,0.211c20.016-1.782,40.149-1.934,60.226-1.515
									c7.762,0.162,15.531,0.432,23.271,1.057c1.473,0.118,2.947,0.254,4.416,0.411c0.543,0.059,3.187,0.265,1.76,1.154
									c-0.134,0.083-0.246,0.115-0.389,0.157c-1.17,0.342-2.342,0.685-3.513,1.026c-8.729,2.554-17.458,5.105-26.185,7.658
									c-0.641,0.188-1.426,0.311-1.169,1.188c0.391,1.337,0.783,2.673,1.175,4.009c1.443,4.927,2.884,9.854,4.329,14.78
									c0.512,1.753,1.025,3.503,1.538,5.252c0.087,0.295,0.172,0.591,0.259,0.885c0.161,0.551,0.968,0.593,1.358,0.925
									c1.079,0.92-0.043,2.789-1.292,2.767c-1.972-0.034-3.944-0.07-5.914-0.106c-1.105-0.021-2.21-0.04-3.314-0.061
									c-0.869-0.016-1.591-0.119-2.229-0.796c-0.793-0.843-1.586-1.688-2.381-2.528c-0.579-0.616-1.06-0.385-1.826-0.204
									c-1.286,0.302-2.549,0.64-3.836,0.939c-4.701,1.097-9.402,2.19-14.104,3.286c-0.691,0.161-1.383,0.323-2.074,0.483
									c-0.268,0.062-0.501,0.113-0.711,0.311c-1.103,1.039-2.207,2.075-3.31,3.112c-3.536,3.325-7.072,6.65-10.609,9.977
									c-0.346,0.325-0.694,0.652-1.039,0.977c-1.963,1.847-5.394-0.9-3.478-3.033c0.655-0.726,1.462-1.359,2.173-2.027
									c3.606-3.382,7.213-6.764,10.819-10.145c2.416-2.264,4.829-4.527,7.242-6.791c0.777-0.728,1.769-0.963,2.76-1.196
									c1.18-0.278,2.36-0.554,3.54-0.832c1.18-0.277,2.36-0.554,3.539-0.832c0.559-0.132,1.303-0.138,1.504-0.766
									c0.225-0.698,0.167-1.619,0.242-2.344c0.184-1.779,0.365-3.559,0.548-5.34c0.167-1.615,0.332-3.23,0.497-4.844
									c0.065-0.63,0.49-2.004-0.435-2.167C466.386,35.83,466.319,36.069,466.477,36.095z"/>
							</g>
						</g>
						<g>
							<g>
								<path fill="#BCBEC0" d="M487.138,57.301c-2.037,0-4.077,0-6.115,0c-0.686,0-1.147,0.096-1.622-0.443
									c-0.739-0.842-1.479-1.685-2.219-2.526c-0.774-0.881-1.548-1.763-2.324-2.645c-0.128-0.147-0.257-0.293-0.386-0.439
									c-0.234-0.267-0.619-0.479-0.891-0.733c-0.289-0.27-0.644-0.508-1.009-0.651c-1.259-0.5-2.498-0.121-3.763,0.134
									c-0.589,0.118-2.035,0.67-1.927-0.404c0.44-4.354,0.882-8.709,1.324-13.064c0.042-0.426-0.03-1.021,0.49-1.17
									c0.763-0.219,1.525-0.435,2.289-0.653c2.437-0.697,4.873-1.393,7.31-2.09c0.265-0.077,1.855-0.777,2.027-0.191
									c0.083,0.283,0.167,0.566,0.25,0.849c0.519,1.763,1.038,3.525,1.556,5.288c1.439,4.893,2.878,9.786,4.317,14.681
									c0.256,0.865,0.51,1.731,0.764,2.597c0.104,0.354,0.599,1.303-0.104,1.468c-0.155,0.037-0.09,0.275,0.064,0.239
									c1.11-0.264,0.199-2.039-0.001-2.718c-0.611-2.08-1.224-4.159-1.834-6.24c-1.384-4.707-2.769-9.414-4.154-14.121
									c-0.119-0.405-0.438-2.607-1.158-2.554c-0.532,0.042-1.061,0.257-1.572,0.403c-1.146,0.329-2.293,0.657-3.44,0.982
									c-2.097,0.599-4.193,1.2-6.292,1.798c-0.412,0.118-0.646,0.323-0.692,0.769c-0.071,0.707-0.142,1.414-0.215,2.121
									c-0.259,2.558-0.518,5.118-0.776,7.677c-0.105,1.045-0.211,2.093-0.318,3.138c-0.028,0.286-0.254,1.092-0.061,1.372
									c0.518,0.76,1.949,0.118,2.672-0.028c0.56-0.11,1.124-0.26,1.693-0.304c0.577-0.048,1.138,0.096,1.653,0.343
									c0.538,0.258,0.826,0.747,1.283,1.071c0.583,0.415,1.01,0.933,1.501,1.488c0.864,0.985,1.73,1.971,2.594,2.955
									c0.48,0.548,0.962,1.095,1.444,1.643c0.344,0.394,1.334,0.21,1.774,0.21c1.956,0,3.911,0,5.866,0
									C487.296,57.549,487.296,57.301,487.138,57.301z"/>
							</g>
						</g>
						<g>
							<g>
								<path fill="#BCBEC0" d="M480.188,56.548c2.094,0,4.187,0,6.282,0c0.08,0,0.142-0.079,0.12-0.156
									c-2.225-7.562-4.449-15.126-6.674-22.688c-0.058-0.198-0.116-0.395-0.174-0.591c-0.019-0.064-0.086-0.104-0.153-0.086
									c-3.499,0.999-6.999,1.998-10.499,2.998c-0.056,0.016-0.084,0.064-0.09,0.121c-0.444,4.387-0.888,8.774-1.332,13.161
									c-0.009,0.084,0.085,0.133,0.156,0.118c1.477-0.294,3.052-0.81,4.544-0.432c0.614,0.156,1.158,0.502,1.642,0.897
									c0.206,0.166,0.387,0.364,0.565,0.558c0.134,0.146,0.296,0.115,0.454,0.294c0.198,0.227,0.397,0.452,0.596,0.677
									c1.491,1.699,2.983,3.395,4.475,5.093c0.105,0.121,0.279-0.056,0.175-0.176c-1.355-1.543-2.712-3.085-4.069-4.627
									c-0.274-0.312-0.547-0.625-0.821-0.937c-0.301-0.343-0.684-0.563-1.007-0.884c-1.299-1.285-2.951-1.437-4.655-1.097
									c-0.539,0.108-1.077,0.217-1.618,0.324c-0.094,0.021-0.189,0.038-0.285,0.059c-0.142,0.027,0.098,0.092,0.096,0.12
									c0.007-0.065,0.013-0.13,0.02-0.196c0.079-0.776,0.157-1.55,0.236-2.325c0.259-2.562,0.519-5.125,0.778-7.689
									c0.087-0.858,0.174-1.718,0.261-2.576c0.01-0.091,0.018-0.179,0.028-0.27c0.017-0.166,0.022-0.004-0.08,0.025
									c0.187-0.054,0.372-0.106,0.557-0.16c2.279-0.651,4.557-1.302,6.836-1.954c0.916-0.262,1.833-0.524,2.749-0.786
									c0.093-0.026,0.184-0.052,0.277-0.079c0.158-0.046-0.039,0.018-0.075-0.103c0.03,0.101,0.06,0.2,0.089,0.302
									c0.446,1.517,0.891,3.033,1.338,4.549c1.44,4.898,2.882,9.797,4.322,14.696c0.361,1.225,0.722,2.45,1.082,3.676
									c0.04,0.139-0.039-0.106,0.128-0.106c-0.081,0-0.164,0-0.247,0c-0.491,0-0.982,0-1.473,0c-1.25,0-2.501,0-3.75,0
									c-0.27,0-0.538,0-0.806,0C480.029,56.302,480.029,56.548,480.188,56.548z"/>
							</g>
						</g>
					</g>
				</g>
			</g>
		</g>
		<g>
			<g>
				<g>
					<g>
						<path fill="#BCBEC0" d="M476.523,50.255L476.523,50.255c-0.554,0-1.114-0.102-1.665-0.305
							c-1.25-0.461-2.215-1.324-2.872-2.567c-0.664-1.263-0.762-2.547-0.296-3.815c0.463-1.256,1.333-2.196,2.586-2.791
							c1.251-0.592,2.565-0.659,3.877-0.197c1.317,0.459,2.287,1.297,2.882,2.489c0.599,1.196,0.669,2.472,0.205,3.796
							c-0.461,1.321-1.333,2.291-2.59,2.888C477.951,50.086,477.234,50.255,476.523,50.255z M476.436,41.275
							c-0.58,0-1.163,0.136-1.731,0.405c-1.022,0.485-1.701,1.215-2.077,2.234c-0.371,1.007-0.291,1.988,0.243,3.002
							c0.544,1.034,1.308,1.72,2.331,2.097c0.439,0.162,0.884,0.244,1.32,0.244l0,0c0.56,0,1.133-0.138,1.701-0.407
							c1.02-0.482,1.699-1.24,2.074-2.313c0.375-1.073,0.326-2.062-0.155-3.021c-0.481-0.964-1.24-1.617-2.318-1.993
							C477.356,41.358,476.89,41.275,476.436,41.275z"/>
					</g>
				</g>
				<g>
					<g>
						<g>
							<path fill="#BCBEC0" d="M476.523,50.13c-2.669-0.081-4.873-2.246-4.997-4.926c-0.123-2.71,2.41-4.749,4.947-4.805
								c2.665-0.059,4.886,2.182,4.948,4.792C481.486,47.906,479.14,50.054,476.523,50.13c-0.159,0.006-0.16,0.252,0,0.248
								c2.877-0.084,5.043-2.335,5.145-5.187c0.102-2.861-2.524-4.944-5.196-5.039c-2.803-0.1-5.144,2.325-5.193,5.052
								c-0.048,2.811,2.57,5.092,5.244,5.174C476.683,50.383,476.682,50.136,476.523,50.13z"/>
						</g>
					</g>
					<g>
						<g>
							<path fill="#BCBEC0" d="M476.436,41.151c-2.272,0.089-4.152,1.801-4.157,4.125c-0.005,2.24,2.134,4.023,4.243,4.104
								c2.358,0.088,4.09-2.058,4.148-4.26C480.73,42.819,478.547,41.228,476.436,41.151c-0.159-0.005-0.159,0.243,0,0.249
								c2.108,0.076,3.875,1.551,3.986,3.72c0.114,2.2-1.807,3.929-3.9,4.013c-2.097,0.084-3.835-1.882-3.994-3.856
								c-0.177-2.182,1.913-3.799,3.909-3.875C476.596,41.394,476.596,41.146,476.436,41.151z"/>
						</g>
					</g>
				</g>
			</g>
		</g>
	</g>
	<g>
		<g>
			<g>
				<g>
					<path fill="#BCBEC0" d="M349.108,35.813h-0.167c-1.214,0-2.202-0.988-2.202-2.204v-9.183c0-1.21,0.988-2.194,2.202-2.194
						c1.382,0,2.371,0.988,2.371,2.202v9.175C351.311,34.826,350.323,35.813,349.108,35.813z M349.108,24.027
						c-0.396,0-0.575,0.175-0.575,0.4v9.183c0,0.23,0.179,0.408,0.408,0.408h0.167c0.229,0,0.406-0.178,0.406-0.408v-9.175
						C349.515,24.209,349.333,24.027,349.108,24.027z"/>
				</g>
			</g>
		</g>
		<g>
			<g>
				<g>
					<path fill="#BCBEC0" d="M269.614,35.813h-0.167c-1.214,0-2.202-0.988-2.202-2.204v-9.175c0-1.215,0.988-2.202,2.202-2.202
						c1.382,0,2.369,0.988,2.369,2.202v9.175C271.816,34.826,270.828,35.813,269.614,35.813z M269.614,24.027
						c-0.396,0-0.574,0.179-0.574,0.408v9.175c0,0.23,0.179,0.408,0.408,0.408h0.167c0.229,0,0.407-0.178,0.407-0.408v-9.175
						C270.021,24.206,269.842,24.027,269.614,24.027z"/>
				</g>
			</g>
		</g>
		<g>
			<g>
				<g>
					<path fill="#BCBEC0" d="M318.444,78.18H301.43c-1.416,0-2.694-0.837-3.256-2.132l-8.982-20.5h-11.354
						c-1.91,0-3.658-0.959-4.677-2.569c-1.025-1.604-1.156-3.594-0.35-5.325l7.543-16.158h-2.432v4.08
						c0,1.574-1.18,2.853-2.629,2.853c-1.445,0-2.622-1.278-2.622-2.853V22.47c0-1.572,1.177-2.854,2.622-2.854
						c1.449,0,2.629,1.28,2.629,2.854v4.076h4.898c1.564-2.073,4.383-2.808,6.762-1.697c0.833,0.387,1.546,0.968,2.088,1.697h7.619
						c0.497,0,0.897,0.4,0.897,0.896c0,0.496-0.401,0.898-0.897,0.898h-8.601l-0.262-0.433c-0.38-0.626-0.935-1.122-1.603-1.434
						c-1.712-0.795-3.765-0.18-4.77,1.44l-0.262,0.426h-7.666V22.47c0-0.583-0.374-1.059-0.833-1.059
						c-0.449,0-0.828,0.486-0.828,1.059v13.104c0,0.574,0.378,1.06,0.828,1.06c0.46,0,0.833-0.476,0.833-1.06V29.7h7.047
						l-8.736,18.712c-0.545,1.169-0.457,2.518,0.238,3.603c0.69,1.09,1.872,1.738,3.164,1.738h12.525l9.455,21.577
						c0.279,0.639,0.911,1.053,1.611,1.053h17.015c0.744,0,1.41-0.473,1.655-1.178l7.509-21.452h13.341
						c1.314,0,2.513-0.672,3.203-1.795c0.676-1.108,0.729-2.51,0.143-3.658l-9.471-18.6h7.591v5.875c0,0.574,0.378,1.06,0.827,1.06
						c0.46,0,0.835-0.474,0.835-1.06V22.47c0-0.583-0.375-1.059-0.835-1.059c-0.449,0-0.827,0.486-0.827,1.059v5.87h-8.275
						l-0.263-0.425c-1.037-1.679-3.135-2.272-4.878-1.385c-0.604,0.305-1.115,0.78-1.479,1.378l-0.261,0.431h-8.427
						c-0.496,0-0.897-0.401-0.897-0.896c0-0.496,0.401-0.898,0.897-0.898h7.445c0.51-0.684,1.161-1.239,1.911-1.614
						c2.424-1.239,5.314-0.536,6.926,1.614h5.507V22.47c0-1.572,1.176-2.854,2.622-2.854c1.449,0,2.628,1.28,2.628,2.854v13.104
						c0,1.573-1.179,2.854-2.628,2.854c-1.447,0-2.622-1.279-2.622-2.854v-4.081h-2.87l8.142,15.992
						c0.87,1.695,0.79,3.77-0.208,5.408c-1.021,1.663-2.79,2.653-4.734,2.653h-12.068l-7.087,20.248
						C321.297,77.222,319.952,78.18,318.444,78.18z M334.828,46.253h-51.094l6.898-14.787c0.135-0.292,0.226-0.608,0.284-0.996
						l0.115-0.765h8.205c0.495,0,0.897,0.402,0.897,0.898c0,0.496-0.403,0.897-0.897,0.897h-6.708
						c-0.072,0.254-0.162,0.495-0.268,0.723l-5.707,12.233h45.345l-6.149-12.062c-0.14-0.28-0.254-0.576-0.347-0.893h-6.782
						c-0.496,0-0.897-0.401-0.897-0.897c0-0.496,0.401-0.898,0.897-0.898h8.264l0.124,0.752c0.072,0.445,0.181,0.803,0.344,1.127
						L334.828,46.253z"/>
				</g>
			</g>
		</g>
		<g>
			<g>
				<path fill="#BCBEC0" d="M308.88,39.153c-5.783,0-10.489-4.704-10.489-10.487c0-5.782,4.706-10.487,10.489-10.487
					c5.782,0,10.486,4.704,10.486,10.487C319.366,34.448,314.662,39.153,308.88,39.153z M308.88,19.974
					c-4.794,0-8.693,3.901-8.693,8.692c0,4.793,3.899,8.692,8.693,8.692c4.792,0,8.691-3.899,8.691-8.692
					C317.572,23.875,313.674,19.974,308.88,19.974z"/>
			</g>
		</g>
	</g>
	<g>
		<g>
			<g>
				<g>
					<path fill="#BEBEBE" d="M822.454,57.731c-0.065-0.061-0.13-0.117-0.196-0.177v-0.301c0-0.648,0.749-0.815,1.132-0.498
						c-4.946-4.415-9.891-8.829-14.837-13.246c-1.237-1.104-2.475-2.211-3.714-3.316c-0.354-0.316-0.707-0.632-1.059-0.946
						c-0.1-0.089-0.2-0.178-0.3-0.267c-0.22-0.194,0.029-0.008,0.01-0.167c-0.647-5.646-1.212-11.516-2.879-16.976
						c-0.359-1.176-1.373-4.358-3.22-3.255c-1.515,0.904-1.954,3.662-2.33,5.197c-1.19,4.906-1.786,9.985-2.298,15.002
						c-0.008,0.078-0.015,0.155-0.021,0.232c0.382-0.341-0.033,0.32-0.028,0.28c0.008-0.094,0.018-0.188,0.027-0.28
						c-0.728,0.649-1.454,1.3-2.182,1.951c-2.962,2.643-5.923,5.287-8.881,7.929c-2.618,2.338-5.237,4.676-7.855,7.012
						c-0.361,0.323-1.171,0.812-1.171,1.369v4.636c0,0.484,0.584,0.879,1.016,0.583c6.307-4.3,12.617-8.6,18.924-12.901
						c-0.02-0.411-0.042-0.822-0.062-1.233c0.339,0.194,0.679,0.389,1.015,0.583c-0.319,0.218-0.635,0.436-0.953,0.65
						c0.367,7.276,0.884,14.667,2.493,21.785c0.145-0.078,0.29-0.157,0.433-0.234c-0.103,0.255-0.208,0.509-0.311,0.764
						c-0.04-0.178-0.082-0.353-0.122-0.529c-1.756,0.949-3.509,1.896-5.264,2.846c-0.208,0.11-0.337,0.352-0.337,0.583v2.867
						c0,0.419,0.436,0.792,0.856,0.649c2.065-0.693,4.135-1.385,6.2-2.079c-0.09-0.229-0.173-0.453-0.256-0.667
						c0.279,0.159,0.554,0.315,0.832,0.473c-0.191,0.063-0.384,0.13-0.575,0.194c0.268,0.692,0.589,1.42,1.111,1.905
						c0.286,0.266,0.667,0.247,0.957,0c0.535-0.458,0.925-1,1.262-1.598c-0.173-0.053-0.342-0.104-0.515-0.155
						c0.256-0.104,0.51-0.208,0.765-0.312c-0.08,0.158-0.163,0.314-0.25,0.466c1.956,0.591,3.913,1.182,5.871,1.772
						c0.422,0.127,0.854-0.221,0.854-0.651v-2.974c0-0.218-0.123-0.488-0.334-0.583c-1.598-0.71-3.195-1.417-4.793-2.125
						c-0.045,0.188-0.092,0.375-0.137,0.563c-0.103-0.252-0.208-0.507-0.311-0.763c0.148,0.066,0.298,0.133,0.448,0.199
						c1.643-7.029,1.926-14.525,1.911-21.747c-0.341-0.213-0.68-0.427-1.021-0.643c0.337-0.193,0.677-0.389,1.016-0.584
						c0.001,0.408,0.005,0.818,0.005,1.227c6.405,4.024,12.81,8.048,19.215,12.072c0.437,0.276,1.018-0.083,1.018-0.583v-4.366
						C823.499,57.801,822.903,58.131,822.454,57.731z M774,57.274v0.287c-0.042,0.046-0.068,0.077-0.085,0.099
						C773.946,57.606,774,57.473,774,57.274z M774,61.91c-0.339-0.195-0.677-0.39-1.017-0.584c0.339-0.231,0.677-0.463,1.017-0.694
						V61.91z M790.833,74.804v0.402c-0.11,0.06-0.223,0.12-0.334,0.181C790.612,75.192,790.722,74.999,790.833,74.804z
						 M790.833,77.671c-0.285-0.218-0.57-0.435-0.855-0.652c0.285-0.094,0.57-0.19,0.855-0.286V77.671z M797.651,77.192
						c0.201-0.175,0.379-0.359,0.539-0.557c0.12,0.214,0.258,0.408,0.417,0.557H797.651z M805.243,77.671v-0.909
						c0.284,0.085,0.57,0.171,0.854,0.257C805.812,77.235,805.527,77.453,805.243,77.671z M805.243,74.695
						c0.111,0.196,0.223,0.39,0.336,0.586c-0.111-0.051-0.226-0.1-0.336-0.147V74.695z M822.257,61.73v-1.222
						c0.339,0.213,0.679,0.426,1.016,0.639C822.936,61.341,822.597,61.537,822.257,61.73z"/>
				</g>
			</g>
			<g>
				<g>
					<path fill="#BEBEBE" d="M773.916,57.66c0.03-0.054,0.085-0.188,0.085-0.386v0.287C773.958,57.607,773.933,57.64,773.916,57.66z
						"/>
				</g>
			</g>
			<g>
				<g>
					<path fill="#BEBEBE" d="M772.982,61.326c0.341-0.231,0.679-0.463,1.018-0.694v1.278
						C773.661,61.715,773.323,61.521,772.982,61.326z"/>
				</g>
			</g>
			<g>
				<g>
					<path fill="#BEBEBE" d="M790.499,75.388c0.113-0.195,0.225-0.389,0.334-0.584v0.402
						C790.722,75.266,790.611,75.326,790.499,75.388z"/>
				</g>
			</g>
			<g>
				<g>
					<path fill="#BEBEBE" d="M789.979,77.018c0.285-0.095,0.57-0.189,0.855-0.287v0.94
						C790.549,77.453,790.263,77.235,789.979,77.018z"/>
				</g>
			</g>
			<g>
				<g>
					<path fill="#BEBEBE" d="M792.713,39.293c0.006-0.094,0.018-0.188,0.027-0.28l0,0C793.122,38.672,792.708,39.334,792.713,39.293
						z"/>
				</g>
			</g>
			<g>
				<g>
					<path fill="#BEBEBE" d="M792.528,48.357c0.339,0.195,0.679,0.389,1.017,0.584c-0.319,0.217-0.636,0.435-0.955,0.65
						C792.568,49.181,792.55,48.77,792.528,48.357z"/>
				</g>
			</g>
			<g>
				<g>
					<path fill="#BEBEBE" d="M795.083,71.376c0.145-0.078,0.29-0.156,0.433-0.235c-0.103,0.256-0.208,0.51-0.311,0.764
						C795.165,71.728,795.125,71.552,795.083,71.376z"/>
				</g>
			</g>
			<g>
				<g>
					<path fill="#BEBEBE" d="M796.284,75.576c0.277,0.158,0.554,0.314,0.831,0.472c-0.192,0.064-0.384,0.13-0.577,0.194
						C796.448,76.013,796.365,75.789,796.284,75.576z"/>
				</g>
			</g>
			<g>
				<g>
					<path fill="#BEBEBE" d="M798.188,76.636c0.122,0.214,0.259,0.408,0.419,0.557h-0.956
						C797.852,77.018,798.03,76.833,798.188,76.636z"/>
				</g>
			</g>
			<g>
				<g>
					<path fill="#BEBEBE" d="M799.354,76.396c0.256-0.105,0.511-0.208,0.765-0.312c-0.08,0.158-0.163,0.314-0.249,0.466
						C799.697,76.498,799.525,76.447,799.354,76.396z"/>
				</g>
			</g>
			<g>
				<g>
					<path fill="#BEBEBE" d="M801.019,71.79c0.148,0.066,0.298,0.133,0.446,0.198c-0.045,0.189-0.092,0.376-0.136,0.563
						C801.227,72.299,801.124,72.045,801.019,71.79z"/>
				</g>
			</g>
			<g>
				<g>
					<path fill="#BEBEBE" d="M803.372,49.015c0.001,0.407,0.005,0.817,0.005,1.228c-0.341-0.215-0.682-0.43-1.023-0.644
						C802.693,49.404,803.033,49.21,803.372,49.015z"/>
				</g>
			</g>
			<g>
				<g>
					<path fill="#BEBEBE" d="M805.579,75.28c-0.111-0.051-0.225-0.099-0.336-0.147v-0.438
						C805.354,74.892,805.466,75.085,805.579,75.28z"/>
				</g>
			</g>
			<g>
				<g>
					<path fill="#BEBEBE" d="M805.243,76.76c0.284,0.086,0.57,0.173,0.854,0.258c-0.286,0.218-0.57,0.435-0.854,0.651V76.76z"/>
				</g>
			</g>
			<g>
				<g>
					<path fill="#BEBEBE" d="M822.257,60.509c0.339,0.213,0.679,0.426,1.016,0.639c-0.337,0.193-0.677,0.39-1.016,0.583V60.509z"/>
				</g>
			</g>
			<g>
				<g>
					<path fill="#BEBEBE" d="M823.609,57.363c-0.111,0.438-0.707,0.768-1.156,0.368c-0.065-0.06-0.13-0.117-0.196-0.177v-0.301
						c0-0.648,0.749-0.814,1.132-0.498c0.002,0.004,0.005,0.006,0.009,0.008c0.005,0.005,0.01,0.008,0.013,0.013
						c0.015,0.013,0.029,0.027,0.041,0.04C823.618,56.986,823.656,57.185,823.609,57.363z"/>
				</g>
			</g>
		</g>
		<g>
			<g>
				<path fill="#FFFFFF" d="M796.072,27.006c0,0,2.011-6.663,3.854,0C799.926,27.006,797.999,24.86,796.072,27.006z"/>
			</g>
		</g>
		<g>
			<g>
				<g>
					<line fill="none" x1="786.032" y1="56.55" x2="786.032" y2="62.772"/>
				</g>
			</g>
			<g>
				<g>
					<g>
						<path fill="#BEBEBE" d="M785.563,56.55c0,2.074,0,4.149,0,6.223c0,0.604,0.938,0.604,0.938,0c0-2.073,0-4.148,0-6.223
							C786.5,55.945,785.563,55.945,785.563,56.55L785.563,56.55z"/>
					</g>
				</g>
			</g>
		</g>
		<g>
			<g>
				<g>
					<line fill="none" x1="781.969" y1="58.483" x2="781.969" y2="65.897"/>
				</g>
			</g>
			<g>
				<g>
					<g>
						<path fill="#BEBEBE" d="M781.5,58.483c0,2.471,0,4.943,0,7.414c0,0.605,0.938,0.605,0.938,0c0-2.472,0-4.943,0-7.414
							C782.438,57.877,781.5,57.877,781.5,58.483L781.5,58.483z"/>
					</g>
				</g>
			</g>
		</g>
		<g>
			<g>
				<g>
					<line fill="none" x1="808.693" y1="57.517" x2="808.693" y2="63.739"/>
				</g>
			</g>
			<g>
				<g>
					<g>
						<path fill="#BEBEBE" d="M808.222,57.517c0,2.074,0,4.148,0,6.223c0,0.605,0.938,0.605,0.938,0c0-2.074,0-4.148,0-6.223
							C809.16,56.911,808.222,56.911,808.222,57.517L808.222,57.517z"/>
					</g>
				</g>
			</g>
		</g>
		<g>
			<g>
				<g>
					<line fill="none" x1="812.754" y1="59.448" x2="812.754" y2="66.864"/>
				</g>
			</g>
			<g>
				<g>
					<g>
						<path fill="#BEBEBE" d="M812.287,59.448c0,2.473,0,4.944,0,7.416c0,0.604,0.936,0.604,0.936,0c0-2.473,0-4.943,0-7.416
							C813.223,58.844,812.287,58.844,812.287,59.448L812.287,59.448z"/>
					</g>
				</g>
			</g>
		</g>
	</g>
	<g>
		<g>
			<g>
				<g>
					<path fill="#BCBEC0" d="M1056.827,39.317c-0.037,2.218-1.801,3.982-4.019,4.019c-2.22,0.037-3.984-1.856-4.021-4.019
						c-0.036-2.219,1.856-3.984,4.021-4.02C1055.026,35.261,1056.792,37.154,1056.827,39.317c0.007,0.401,0.631,0.402,0.623,0
						c-0.037-2.295-1.7-4.253-3.982-4.594c-2.268-0.34-4.413,1.098-5.105,3.248c-0.706,2.194,0.462,4.602,2.507,5.566
						c2.086,0.981,4.557,0.184,5.828-1.683c0.506-0.743,0.739-1.647,0.755-2.537C1057.456,38.916,1056.833,38.916,1056.827,39.317z"
						/>
				</g>
			</g>
		</g>
		<g>
			<g>
				<g>
					<path fill="#BCBEC0" d="M1063.823,40.979c0-2.331,0-4.663,0-6.994c0-1.553,0-3.103,0-4.655c0-0.736,0.156-1.713-0.122-2.418
						c-0.346-0.879-1.196-0.962-2.008-0.962c-0.839,0-1.599-0.015-2.116,0.772c-0.403,0.611-0.213,1.78-0.213,2.462
						c0,3.145,0,6.288,0,9.431c0,0.668,0,1.335,0,2.004c0,0.116,0,0.233,0,0.349c0-0.082,0.055-0.158-0.016-0.02
						c-0.072,0.139-0.15,0.277-0.228,0.414c-0.834,1.506-1.706,2.992-2.573,4.48c0.092-0.05,0.183-0.102,0.271-0.154
						c-1.253,0.009-2.508,0.02-3.76,0.033c-0.872,0.01-1.746,0.021-2.62,0.04c-0.403,0.01-0.956-0.069-1.347,0.066
						c0.103,0.025,0.203,0.052,0.306,0.08c-1.173-1.251-2.346-2.5-3.519-3.751c0.025,0.101,0.053,0.202,0.08,0.304
						c0.334-1.17,0.668-2.34,1.003-3.511c0.234-0.821,0.034-1.694-0.826-2.058c-0.628-0.265-1.348-0.709-2.05-0.632
						c-0.7,0.08-1.141,0.613-1.32,1.249c-0.19,0.663-0.379,1.324-0.568,1.986c-0.219,0.767-0.438,1.533-0.656,2.297
						c-0.137,0.479-0.361,1.016-0.312,1.515c0.071,0.7,0.582,0.93,0.955,1.347c0.353,0.396,0.716,0.785,1.074,1.176
						c1.12,1.216,2.246,2.426,3.373,3.636c0.425,0.456,0.849,0.91,1.271,1.366c0.103,0.108,0.202,0.216,0.303,0.324
						c0.151,0.16-0.041-0.328-0.041-0.069c0,1.356,0,2.714,0,4.072c0,0.726,0,1.451,0,2.176c0,0.185,0,0.37,0,0.555
						c0,0.258,0.182-0.23,0.05-0.075c-0.699,0.834-1.399,1.67-2.098,2.504c-1.06,1.263-2.118,2.524-3.179,3.787
						c-0.36,0.432-0.721,0.862-1.081,1.291c-0.286,0.343-0.549,0.641-0.624,1.106c-0.201,1.231,1.146,2.062,1.932,2.786
						c1.178,1.084,2.354,2.17,3.53,3.255c0.258,0.235,0.511,0.472,0.768,0.707c0.734,0.676,1.783,0.397,2.412-0.269
						c0.564-0.6,1.264-1.224,1.113-2.143c-0.099-0.591-0.491-0.904-0.901-1.282c-1.169-1.079-2.339-2.159-3.511-3.236
						c0,0.147,0,0.294,0,0.441c0.83-0.979,1.66-1.956,2.489-2.931c0.202-0.237,0.403-0.475,0.608-0.711
						c0.062-0.073,0.124-0.146,0.187-0.218c0.151-0.175,0.045,0.013-0.131-0.006c0.509,0.053,1.017,0.112,1.526,0.173
						c0.792,0.098,1.59,0.196,2.372,0.358c0.119,0.024,0.24,0.053,0.358,0.087c0.201,0.06-0.003,0.059-0.003-0.174
						c0,0.075,0,0.15,0,0.226c0,1.101,0,2.198,0,3.296c0,3.024,0,6.049,0,9.073c0,0.251,0,0.503,0,0.754
						c0,0.959,0.88,1.53,1.756,1.568c0.703,0.031,1.539,0.082,2.122-0.376c0.443-0.348,0.617-0.812,0.617-1.356
						c0-5.065,0-10.13,0-15.195c0-2.618,0-5.239,0-7.859c0-0.595,0-1.191,0-1.787c0-0.15,0-0.3,0-0.449
						c0-0.23-0.058,0.076-0.024,0.019c0.569-0.922,1.139-1.844,1.709-2.766c0.898-1.456,1.797-2.912,2.695-4.367
						c0.237-0.385,0.475-0.768,0.712-1.152C1063.917,42.4,1063.832,41.615,1063.823,40.979c-0.004-0.401-0.627-0.403-0.624,0
						c0.006,0.545,0.104,1.229-0.194,1.711c-0.229,0.371-0.459,0.742-0.688,1.114c-0.847,1.37-1.692,2.741-2.54,4.113
						c-0.612,0.991-1.223,1.982-1.835,2.973c-0.105,0.17-0.09,0.334-0.09,0.528c0,0.514,0,1.026,0,1.541c0,4.921,0,9.843,0,14.765
						c0,2.87,0,5.74,0,8.61c0,0.464-0.032,0.838-0.483,1.129c-0.345,0.224-0.8,0.171-1.19,0.171c-0.496,0-0.947,0.006-1.337-0.362
						c-0.283-0.271-0.237-0.662-0.237-1.014c0-0.492,0-0.983,0-1.477c0-3.15,0-6.302,0-9.455c0-0.503,0-1.005,0-1.509
						c0-0.166,0.059-0.5-0.046-0.651c-0.26-0.38-1.028-0.396-1.431-0.461c-0.804-0.133-1.615-0.231-2.427-0.325
						c-0.296-0.034-0.94-0.24-1.2-0.016c-0.352,0.305-0.639,0.742-0.938,1.097c-0.81,0.952-1.619,1.905-2.427,2.858
						c-0.106,0.127-0.134,0.32,0,0.442c0.921,0.851,1.845,1.701,2.767,2.553c0.396,0.364,0.791,0.729,1.187,1.093
						c0.796,0.734-0.147,1.593-0.656,2.134c-0.552,0.585-1.188,0.584-1.738,0.079c-0.432-0.399-0.865-0.799-1.296-1.196
						c-1.178-1.085-2.354-2.17-3.531-3.255c-0.255-0.235-0.511-0.472-0.766-0.705c-0.544-0.503-0.206-1.147,0.168-1.591
						c0.861-1.028,1.724-2.056,2.585-3.084c1.007-1.202,2.015-2.403,3.023-3.605c0.254-0.304,0.509-0.606,0.765-0.912
						c0.17-0.203,0.146-0.396,0.146-0.65c0-1.501,0-3.001,0-4.502c0-0.619,0-1.237,0-1.856c0-0.252-0.015-0.411-0.193-0.603
						c-1.9-2.037-3.808-4.069-5.683-6.128c-0.118-0.13-0.239-0.262-0.354-0.394c-0.026-0.031-0.055-0.062-0.081-0.094
						c0.124,0.15-0.04-0.045-0.014-0.019c-0.146-0.146-0.331-0.2-0.462-0.38c-0.34-0.461-0.002-1.187,0.142-1.687
						c0.408-1.427,0.816-2.855,1.224-4.284c0.057-0.2,0.09-0.326,0.229-0.496c0.379-0.462,0.919-0.301,1.375-0.108
						c0.803,0.341,1.709,0.595,1.396,1.689c-0.335,1.177-0.672,2.354-1.008,3.531c-0.075,0.262,0.291,0.533,0.445,0.696
						c0.406,0.434,0.812,0.867,1.218,1.298c0.644,0.688,1.289,1.376,1.934,2.062c0.071,0.077,0.202,0.115,0.303,0.08
						c0.01-0.003-0.065,0.004,0.039-0.003c0.077-0.006,0.152-0.01,0.231-0.013c0.278-0.013,0.554-0.019,0.832-0.024
						c0.795-0.019,1.59-0.029,2.385-0.038c1.328-0.017,2.655-0.028,3.984-0.037c0.339-0.002,0.431-0.278,0.579-0.536
						c0.371-0.635,0.736-1.27,1.103-1.906c0.396-0.688,0.792-1.376,1.181-2.069c0.133-0.234,0.396-0.564,0.396-0.848
						c0-2.495,0-4.989,0-7.484c0-1.498,0-2.995,0-4.492c0-0.788-0.268-2.403,0.945-2.403c0.691,0,1.702-0.202,2.14,0.464
						c0.173,0.263,0.128,0.644,0.128,0.947c0,1.226,0,2.452,0,3.677c0,2.934,0,5.866,0,8.798c0,0.173,0,0.346,0,0.518
						C1063.199,41.38,1063.823,41.38,1063.823,40.979z"/>
				</g>
			</g>
		</g>
		<g>
			<g>
				<g>
					<path fill="#BCBEC0" d="M1033.276,28.271c0.671,0.034,1.524-0.072,2.153,0.214c0.717,0.328,1,1.39,1.274,2.044
						c0.287,0.684,0.586,1.377,1.112,1.911c0.58,0.588,1.415,0.904,2.158,1.227c0.455,0.199,0.854-0.473,0.394-0.673
						c-0.736-0.32-1.558-0.622-2.114-1.224c-0.616-0.667-0.87-1.674-1.236-2.482c-0.288-0.636-0.678-1.275-1.353-1.545
						c-0.733-0.294-1.617-0.213-2.389-0.251C1032.772,27.465,1032.776,28.245,1033.276,28.271L1033.276,28.271z"/>
				</g>
			</g>
		</g>
		<g>
			<g>
				<g>
					<path fill="#BCBEC0" d="M1042.744,20.883c0.887,0.493,1.852,0.854,2.692,1.425c0.906,0.617,1.187,1.609,1.299,2.649
						c0.09,0.838,0.068,1.698,0.427,2.48c0.394,0.859,1.351,1.115,2.215,1.171c0.501,0.033,0.498-0.748,0-0.78
						c-0.931-0.058-1.512-0.403-1.705-1.332c-0.182-0.868-0.148-1.77-0.328-2.643c-0.443-2.126-2.537-2.72-4.206-3.644
						C1042.698,19.966,1042.303,20.64,1042.744,20.883L1042.744,20.883z"/>
				</g>
			</g>
		</g>
		<g>
			<g>
				<g>
					<path fill="#BCBEC0" d="M1071.667,19.625c-0.928,0.428-1.839,0.942-2.431,1.801c-0.508,0.731-0.574,1.676-0.555,2.538
						c0.022,1.013,0.3,2.078,0.01,3.073c-0.284,0.975-1.402,1.149-2.271,1.198c-0.501,0.029-0.502,0.81,0,0.78
						c0.965-0.055,2.045-0.235,2.665-1.06c0.564-0.75,0.55-1.765,0.474-2.657c-0.087-1.019-0.24-2.103,0.133-3.084
						c0.371-0.978,1.489-1.51,2.37-1.916C1072.517,20.088,1072.121,19.417,1071.667,19.625L1071.667,19.625z"/>
				</g>
			</g>
		</g>
		<g>
			<g>
				<g>
					<path fill="#BCBEC0" d="M1064.913,25.162c1.007,0,1.007-1.56,0-1.56C1063.908,23.604,1063.908,25.162,1064.913,25.162
						L1064.913,25.162z"/>
				</g>
			</g>
		</g>
		<g>
			<g>
				<g>
					<path fill="#BCBEC0" d="M1049.34,21.747c1.007,0,1.007-1.56,0-1.56C1048.336,20.187,1048.336,21.747,1049.34,21.747
						L1049.34,21.747z"/>
				</g>
			</g>
		</g>
		<g>
			<g>
				<g>
					<path fill="#BCBEC0" d="M1052.806,29.406c1.005,0,1.005-1.56,0-1.56S1051.801,29.406,1052.806,29.406L1052.806,29.406z"/>
				</g>
			</g>
		</g>
		<g>
			<g>
				<g>
					<path fill="#BCBEC0" d="M1042.941,31.385c1.005,0,1.005-1.56,0-1.56C1041.935,29.826,1041.935,31.385,1042.941,31.385
						L1042.941,31.385z"/>
				</g>
			</g>
		</g>
		<g>
			<g>
				<g>
					<path fill="#BCBEC0" d="M1059.985,18.309c-0.979,0.456-1.636,1.055-1.695,2.175c-0.028,0.573,0.105,1.139,0.064,1.711
						c-0.05,0.667-0.646,0.813-1.217,0.85c-0.397,0.026-0.4,0.649,0,0.624c1.148-0.074,1.854-0.602,1.851-1.798
						c-0.002-0.607-0.152-1.208-0.019-1.811c0.142-0.642,0.788-0.958,1.33-1.212C1060.664,18.677,1060.347,18.139,1059.985,18.309
						L1059.985,18.309z"/>
				</g>
			</g>
		</g>
	</g>
	<g>
		<g>
			<g>
				<g>
					<path fill="#BCBEC0" d="M82.341,33.215c2.955-3.157,3.581-8.059,0.821-11.583c-2.827-3.609-7.651-4.455-11.613-2.23
						c-2.628,1.476-4.864,4.497-6.953,6.58c-8.895,8.862-17.79,17.725-26.685,26.587c-1.655,1.649-3.312,3.3-4.968,4.95
						c-0.754,0.751-1.362,1.282-1.736,2.293c-2.069,5.589-4.139,11.179-6.208,16.77c-0.312,0.842,0.673,1.871,1.529,1.529
						c4.75-1.891,9.499-3.78,14.248-5.67c1.202-0.478,3.409-0.886,4.365-1.845c0.67-0.674,1.338-1.346,2.009-2.02
						c8.485-8.527,16.971-17.054,25.457-25.581C75.852,39.736,79.096,36.476,82.341,33.215c1.133-1.137-0.627-2.896-1.758-1.758
						c-6.641,6.672-13.281,13.345-19.921,20.017c-4.294,4.315-8.589,8.63-12.883,12.946c-1.223,1.228-2.446,2.457-3.668,3.687
						c-0.23,0.23-0.461,0.463-0.692,0.694c-0.254,0.257,0.79-0.387,0.407-0.232c-0.292,0.116-0.585,0.232-0.879,0.351
						c-5.693,2.265-11.386,4.529-17.079,6.796c0.51,0.51,1.02,1.02,1.529,1.529c1.792-4.841,3.584-9.681,5.376-14.521
						c0.309-0.834,0.617-1.669,0.927-2.501c0.263-0.712-0.59,0.645,0.016,0.041c0.938-0.935,1.876-1.869,2.816-2.806
						c8.7-8.668,17.4-17.336,26.101-26.005c2.775-2.765,5.551-5.531,8.326-8.296c1.39-1.383,2.879-2.405,4.939-2.543
						c5.887-0.396,8.4,6.878,4.686,10.845C79.488,32.625,81.243,34.388,82.341,33.215z"/>
				</g>
			</g>
		</g>
		<g>
			<g>
				<g>
					<path fill="#BCBEC0" d="M29.684,67.859c1.945,1.833,3.891,3.665,5.835,5.496c1.165,1.099,2.928-0.656,1.757-1.759
						c-1.945-1.832-3.89-3.663-5.833-5.495C30.276,65.003,28.515,66.757,29.684,67.859L29.684,67.859z"/>
				</g>
			</g>
		</g>
		<g>
			<g>
				<g>
					<path fill="#BCBEC0" d="M66.989,25.174c3.632,3.688,7.264,7.376,10.896,11.063c1.126,1.144,2.885-0.616,1.758-1.758
						c-3.632-3.687-7.264-7.374-10.896-11.062C67.621,22.273,65.863,24.032,66.989,25.174L66.989,25.174z"/>
				</g>
			</g>
		</g>
		<g>
			<g>
				<g>
					<path fill="#BCBEC0" d="M32.266,60.536c3.702,3.356,7.403,6.714,11.104,10.07c1.184,1.075,2.949-0.679,1.757-1.758
						c-3.702-3.357-7.402-6.714-11.104-10.071C32.839,57.704,31.075,59.458,32.266,60.536L32.266,60.536z"/>
				</g>
			</g>
		</g>
		<g>
			<g>
				<g>
					<path fill="#BCBEC0" d="M43.506,64.178c10.23-10.2,20.461-20.402,30.69-30.604c1.137-1.132-0.622-2.891-1.758-1.757
						c-10.23,10.201-20.46,20.4-30.689,30.603C40.612,63.553,42.37,65.31,43.506,64.178L43.506,64.178z"/>
				</g>
			</g>
		</g>
		<g>
			<g>
				<g>
					<path fill="#BCBEC0" d="M40.525,61.188C50.823,50.915,61.122,40.643,71.419,30.37c1.137-1.134-0.622-2.893-1.759-1.759
						C59.362,38.883,49.064,49.155,38.766,59.427C37.63,60.562,39.388,62.32,40.525,61.188L40.525,61.188z"/>
				</g>
			</g>
		</g>
	</g>
	<g>
		<g>
			<g>
				<g>
					<path fill="#BCBEC0" d="M1273.161,74.338c-3.153,1.416-7.58,0.959-10.943,0.956c-3.99-0.003-7.917,0.059-11.791-1.031
						c-7.855-2.21-14.736-8.56-16.83-16.523c-1.07-4.071-0.396-8.341,1.482-12.062c2.099-4.157,5.973-8.416,10.619-9.537
						c5.354-1.294,11.655,2.075,15.55,5.575c1.018,0.913,2.718,0.041,2.336-1.36c-2.075-7.618-6.879-14.646-14.137-18.127
						c-7.983-3.827-17.761-5.192-26.371-3.007c-7.219,1.834-14.079,6.146-18.927,11.747c-3.962,4.576-7.262,9.694-9.48,15.334
						c-1.977,5.021-2.287,10.29-3.294,15.526c-1.586,8.269-8.397,13.292-16.66,13.414c-1.802,0.028-1.805,2.824,0,2.797
						c9.107-0.137,16.599-5.372,19.072-14.25c1.326-4.75,1.355-9.742,2.798-14.498c1.899-6.275,5.683-11.893,9.941-16.81
						c4.992-5.765,12.471-9.805,19.963-11.14c5.854-1.045,11.89,0.04,17.484,1.804c2.652,0.837,4.447,1.522,6.72,3.013
						c5.241,3.43,8.57,8.99,10.193,14.939c0.778-0.453,1.56-0.906,2.338-1.359c-4.835-4.343-11.703-7.555-18.271-6.294
						c-5.053,0.968-9.089,5.567-11.674,9.725c-2.418,3.887-3.438,8.653-2.784,13.18c1.345,9.262,8.552,16.451,16.972,19.85
						c4.378,1.77,8.921,1.841,13.562,1.884c4.126,0.037,9.379,0.537,13.247-1.198c0.099-0.046,0.193-0.088,0.292-0.133
						C1276.213,76.016,1274.79,73.608,1273.161,74.338L1273.161,74.338z"/>
				</g>
			</g>
		</g>
		<g>
			<g>
				<g>
					<path fill="#BCBEC0" d="M1201.797,49.513c4.309-9.446,12.264-19.862,22.798-22.358c1.753-0.415,1.009-3.111-0.744-2.695
						c-11.223,2.66-19.864,13.55-24.469,23.643C1198.641,49.73,1201.048,51.151,1201.797,49.513L1201.797,49.513z"/>
				</g>
			</g>
		</g>
	</g>
	<g id="Isolation_Mode">
		<g>
			<g>
				<g>
					<g>
						<g>
							<path fill="#BCBEC0" d="M174.021,18.179c-6.764,0.093-12.872,3.689-16.207,9.581c0.556,0,1.111,0,1.669,0
								c-5.009-8.83-16.213-12.173-25.113-7.142c-4.552,2.573-7.772,7.182-8.967,12.224c-1.262,5.324,0.011,11.512,2.426,16.344
								c0.15,0.299,0.513,0.479,0.835,0.479c4.786,0,9.573,0,14.359,0c0.334,0,0.669-0.182,0.835-0.479
								c0.886-1.595,1.771-3.19,2.656-4.787c0.338-0.611,1.117-2.45,2.041-1.151c0.259,0.366,0.45,0.807,0.668,1.198
								c1.791,3.201,3.583,6.404,5.373,9.607c0.334,0.596,1.355,0.664,1.668,0c2.979-6.266,5.956-12.533,8.934-18.8
								c0.389-0.818,1.415-2.273,1.995-0.673c0.55,1.511,1.097,3.021,1.646,4.531c1.19,3.279,2.38,6.557,3.571,9.836
								c0.147,0.408,0.475,0.71,0.93,0.71c5.093,0,10.187,0,15.28,0c0.321,0,0.688-0.18,0.836-0.479
								c3.268-6.633,4.081-14.654,0.542-21.313C186.9,22.028,180.587,18.274,174.021,18.179c-1.246-0.019-1.245,1.915,0,1.932
								c5.874,0.086,11.063,3.339,14.079,8.321c3.589,5.934,2.65,13.764-0.309,19.772c0.278-0.16,0.556-0.32,0.834-0.479
								c-5.091,0-10.186,0-15.279,0c0.31,0.237,0.621,0.472,0.931,0.71c-1.323-3.646-2.647-7.292-3.971-10.94
								c-0.448-1.235-0.897-2.472-1.346-3.708c-0.818-2.252-3.998-2.516-5.051-0.298c-3.103,6.529-6.206,13.06-9.308,19.59
								c0.556,0,1.11,0,1.668,0c-1.987-3.554-3.973-7.105-5.96-10.659c-1.242-2.221-3.922-1.768-5.042,0.248
								c-1.026,1.847-2.051,3.694-3.077,5.542c0.279-0.16,0.556-0.32,0.836-0.479c-4.786,0-9.572,0-14.36,0
								c0.279,0.159,0.558,0.32,0.835,0.479c-2.144-4.287-3.16-9.585-2.34-14.319c0.815-4.706,3.804-8.829,7.794-11.369
								c7.91-5.036,18.368-1.71,22.862,6.211c0.355,0.627,1.313,0.628,1.669,0c3.002-5.304,8.438-8.541,14.536-8.625
								C175.267,20.095,175.268,18.161,174.021,18.179z"/>
						</g>
					</g>
					<g>
						<g>
							<path fill="#BCBEC0" d="M174.021,20.111c1.246,0,1.246-1.932,0-1.932C172.774,18.179,172.774,20.111,174.021,20.111
								L174.021,20.111z"/>
						</g>
					</g>
				</g>
				<g>
					<g>
						<g>
							<path fill="#BCBEC0" d="M170.145,52.233c-1.088-3.002-2.175-6.002-3.264-9.005c-0.256-0.708-1.375-1.053-1.767-0.231
								c-2.687,5.656-5.375,11.314-8.062,16.971c-0.274,0.579-1.188,2.895-2.058,1.34c-0.571-1.024-1.146-2.049-1.718-3.073
								c-1.521-2.721-3.045-5.444-4.567-8.166c-0.35-0.628-1.318-0.63-1.669,0c-0.516,0.927-1.011,2.617-2.271,2.617
								c-1.461,0-2.921,0-4.384,0c-2.845,0-5.69,0-8.536,0c-0.672,0-1.283,0.844-0.834,1.453c4.19,5.679,9.422,10.519,14.825,15.022
								c2.311,1.929,4.685,3.78,7.096,5.582c1.641,1.229,3.615,3.216,5.723,3.427c1.776,0.178,4.134-2.249,5.443-3.221
								c2.385-1.771,4.724-3.605,7.017-5.496c5.543-4.564,10.908-9.52,15.185-15.314c0.449-0.609-0.162-1.454-0.836-1.454
								c-2.432,0-4.865,0-7.298,0c-1.672,0-3.345,0-5.018,0c-0.914,0-2.568,0.371-3.107-0.683c-0.566-1.109-2.234-0.132-1.669,0.976
								c0.715,1.401,1.934,1.64,3.349,1.64c1.616,0,3.232,0,4.848,0c2.964,0,5.932,0,8.896,0c-0.279-0.485-0.556-0.97-0.834-1.454
								c-3.899,5.281-8.802,9.8-13.8,14.021c-2.23,1.883-4.52,3.694-6.849,5.453c-0.878,0.663-1.763,1.314-2.653,1.96
								c-0.727,0.526-1.747,1.547-2.673,1.641c-0.723,0.071-1.895-1.076-2.443-1.472c-0.87-0.627-1.733-1.264-2.592-1.905
								c-2.308-1.728-4.566-3.521-6.779-5.367c-5.139-4.285-10.177-8.927-14.163-14.33c-0.278,0.484-0.558,0.97-0.835,1.454
								c3.243,0,6.489,0,9.733,0c1.175,0,2.35,0,3.525,0c2.027,0,2.776-2.088,3.601-3.573c-0.557,0-1.112,0-1.669,0
								c1.657,2.963,3.314,5.925,4.971,8.888c0.535,0.959,1.147,2.653,2.147,3.258c1.575,0.951,3.337,0.332,4.109-1.291
								c2.837-5.974,5.676-11.95,8.516-17.926c-0.589-0.076-1.177-0.153-1.767-0.23c1.088,3.002,2.176,6.003,3.265,9.005
								C168.702,53.91,170.57,53.409,170.145,52.233z"/>
						</g>
					</g>
					<g>
						<g>
							<path fill="#BCBEC0" d="M169.212,53.458c1.246,0,1.246-1.935,0-1.935S167.966,53.458,169.212,53.458L169.212,53.458z"/>
						</g>
					</g>
				</g>
			</g>
			<g>
				<g>
					<g>
						<path fill="#BCBEC0" d="M127.832,49.188c1.06,1.65,2.121,3.302,3.182,4.951c0.672,1.045,2.346,0.078,1.669-0.976
							c-1.062-1.649-2.123-3.3-3.184-4.951C128.829,47.166,127.156,48.134,127.832,49.188L127.832,49.188z"/>
					</g>
				</g>
			</g>
			<g>
				<g>
					<g>
						<path fill="#BCBEC0" d="M186.304,54.139c1.06-1.668,2.118-3.334,3.177-5c0.671-1.057-1.002-2.023-1.669-0.977
							c-1.059,1.667-2.117,3.335-3.176,5.001C183.965,54.219,185.639,55.188,186.304,54.139L186.304,54.139z"/>
					</g>
				</g>
			</g>
		</g>
	</g>
</g>
</svg>
