<?xml version="1.0" encoding="utf-8"?>
<!-- Generator: Adobe Illustrator 15.0.0, SVG Export Plug-In . SVG Version: 6.00 Build 0)  -->
<!DOCTYPE svg PUBLIC "-//W3C//DTD SVG 1.1//EN" "http://www.w3.org/Graphics/SVG/1.1/DTD/svg11.dtd">
<svg version="1.1" id="Layer_1" xmlns="http://www.w3.org/2000/svg" xmlns:xlink="http://www.w3.org/1999/xlink" x="0px" y="0px"
	 width="150px" height="150px" viewBox="0 0 150 150" enable-background="new 0 0 150 150" xml:space="preserve">
<path fill="#FFDE17" d="M150,75c0,41.422-33.579,75-75,75c-41.422,0-75-33.578-75-75C0,33.579,33.578,0,75,0
	C116.421,0,150,33.579,150,75"/>
<path fill="#FFDE17" d="M91.702,58.017c3.153,1.604,6.016,3.965,8.521,6.43c5.547,5.457,9.283,12.561,10.016,20.358
	c0.079,0.845,1.408,0.852,1.328,0c-0.754-8.033-4.467-15.265-10.09-20.983c-2.633-2.676-5.735-5.239-9.104-6.952
	C91.611,56.482,90.939,57.628,91.702,58.017"/>
<path fill="#FFDE17" d="M101.807,63.494c-3.063-3.118-6.169-5.486-9.224-7.041c-0.167-0.082-0.345-0.127-0.521-0.127
	c-0.527,0-1,0.387-1.128,0.918c-0.118,0.491,0.101,0.955,0.56,1.187c2.723,1.386,5.473,3.463,8.404,6.345
	c5.678,5.591,9.187,12.718,9.877,20.072c0.064,0.696,0.649,1.06,1.191,1.06c0.318,0,0.613-0.127,0.813-0.341
	c0.19-0.21,0.277-0.495,0.25-0.805C111.292,76.898,107.757,69.544,101.807,63.494 M111.089,84.939
	c-0.015,0.02-0.06,0.037-0.123,0.037c-0.041,0-0.246-0.01-0.264-0.214c-0.714-7.573-4.318-14.905-10.154-20.646
	c-3-2.955-5.823-5.086-8.637-6.514c-0.082-0.045-0.091-0.082-0.072-0.141c0.022-0.1,0.118-0.205,0.223-0.205
	c0.031,0,0.063,0.01,0.1,0.028c2.968,1.509,5.986,3.818,8.981,6.863c5.801,5.896,9.241,13.051,9.959,20.7
	C111.106,84.89,111.102,84.926,111.089,84.939"/>
<path fill="#FFFFFF" d="M117.33,89.547c-0.036-9.89-3.493-19.434-9.774-27.066c-6.174-7.499-14.976-12.658-24.489-14.523
	c-9.796-1.921-20.098-0.225-28.809,4.621C45.844,57.26,39.279,64.86,35.649,73.75c-2.042,4.999-3.028,10.404-3.048,15.797
	c-0.002,0.361,0.303,0.664,0.665,0.664h23.881h42.206h17.313c0.856,0,0.856-1.328,0-1.328H92.784H50.579H33.266
	c0.221,0.221,0.443,0.441,0.663,0.664c0.037-10.119,3.771-19.9,10.523-27.442c6.653-7.432,15.986-12.212,25.89-13.341
	c10.095-1.152,20.33,1.575,28.587,7.462c8.072,5.754,13.781,14.475,16.034,24.102c0.707,3.021,1.027,6.117,1.039,9.219
	C116.005,90.402,117.333,90.402,117.33,89.547"/>
<path fill="#FFFFFF" d="M107.916,62.186c-6.223-7.559-15.014-12.773-24.76-14.687c-2.312-0.455-4.687-0.709-7.063-0.769
	c-0.154-0.004-0.31-0.009-0.464-0.004c-0.154-0.009-0.309-0.009-0.463-0.009h-0.4c-0.154,0-0.309,0.004-0.463,0.004
	c-0.155,0.004-0.311,0.009-0.465,0.014c-6.922,0.195-13.745,2.063-19.804,5.437c-8.409,4.677-15.091,12.277-18.818,21.4
	c-1.887,4.627-2.915,9.619-3.064,14.845h-0.009l0.009,0.01c-0.009,0.372-0.014,0.745-0.018,1.118c0,0.3,0.118,0.581,0.332,0.795
	c0.213,0.219,0.5,0.337,0.8,0.337h83.4c0.304,0,0.581-0.114,0.781-0.314c0.228-0.204,0.35-0.495,0.346-0.817
	C117.757,79.6,114.247,69.881,107.916,62.186 M33.065,89.549V89.34l0.405,0.404h-0.205c-0.068,0-0.118-0.035-0.14-0.059
	C33.103,89.662,33.065,89.613,33.065,89.549 M73.838,47.667c0.154-0.004,0.31-0.009,0.465-0.013c0.154,0,0.309-0.005,0.463-0.005
	h0.4c0.154,0,0.309,0,0.463,0.009c0.154-0.004,0.31,0,0.464,0.005c2.318,0.055,4.632,0.309,6.883,0.75
	c9.535,1.873,18.135,6.973,24.222,14.364c5.959,7.245,9.364,16.313,9.65,25.653c-0.06-0.008-0.118-0.013-0.182-0.013h-0.219
	c-0.078-2.85-0.427-5.604-1.032-8.195c-2.286-9.772-8.199-18.659-16.217-24.373c-6.737-4.809-14.91-7.55-23.123-7.792
	c-0.16-0.004-0.318-0.009-0.478-0.009c-0.231-0.009-0.463-0.009-0.696-0.009c-0.19,0-0.377,0-0.567,0.009
	c-0.159-0.004-0.318,0-0.478,0.009c-1.195,0.028-2.391,0.11-3.567,0.246c-9.982,1.136-19.524,6.054-26.183,13.491
	c-6.559,7.328-10.323,16.764-10.623,26.623h-0.4c0.146-5.108,1.15-9.978,2.997-14.491c3.645-8.931,10.181-16.368,18.404-20.94
	C60.406,49.69,67.07,47.862,73.838,47.667 M74.901,48.972c8.414,0,16.851,2.709,23.756,7.632
	c7.84,5.586,13.618,14.273,15.854,23.832c0.587,2.519,0.928,5.2,1.01,7.981H34.416c0.3-9.627,3.977-18.845,10.382-26
	c6.509-7.273,15.836-12.078,25.595-13.191C71.884,49.053,73.397,48.972,74.901,48.972 M116.466,89.35h0.2
	c0.1,0,0.132,0.035,0.154,0.09c0.036,0.078,0.027,0.188-0.019,0.251c-0.032,0.019-0.081,0.031-0.132,0.031
	c-0.136,0-0.204-0.06-0.204-0.177V89.35z M34.393,89.549c0-0.068,0-0.136,0.004-0.199h81.136c0,0.063,0.005,0.131,0.005,0.199
	s0.005,0.132,0.014,0.195H34.393V89.549z"/>
<path fill="#FFFFFF" d="M114.511,80.436c-2.235-9.559-8.014-18.246-15.854-23.832c-6.905-4.922-15.342-7.632-23.756-7.632
	c-1.504,0-3.018,0.082-4.509,0.254c-9.759,1.114-19.086,5.918-25.595,13.191c-6.405,7.154-10.082,16.373-10.382,26h81.104
	C115.438,85.636,115.098,82.954,114.511,80.436 M111.779,85.567c-0.2,0.214-0.495,0.341-0.813,0.341
	c-0.542,0-1.127-0.363-1.191-1.06c-0.69-7.354-4.199-14.481-9.877-20.072c-2.932-2.882-5.682-4.959-8.404-6.345
	c-0.459-0.232-0.678-0.696-0.56-1.187c0.128-0.532,0.601-0.918,1.128-0.918c0.177,0,0.354,0.045,0.521,0.127
	c3.055,1.554,6.16,3.923,9.224,7.041c5.95,6.05,9.485,13.404,10.223,21.269C112.057,85.072,111.97,85.357,111.779,85.567"/>
<path fill="#FFFFFF" d="M75.629,47.846v-3.972c0-0.856-1.327-0.856-1.327,0v3.972C74.302,48.702,75.629,48.702,75.629,47.846"/>
<path fill="#FFFFFF" d="M74.966,48.953c-0.645,0-1.13-0.476-1.13-1.107v-3.972c0-0.631,0.485-1.107,1.13-1.107
	s1.129,0.476,1.129,1.107v3.972C76.095,48.477,75.61,48.953,74.966,48.953 M74.966,43.697c-0.133,0-0.199,0.06-0.199,0.177v3.972
	c0,0.118,0.066,0.177,0.199,0.177c0.132,0,0.198-0.06,0.198-0.177v-3.972C75.164,43.756,75.098,43.697,74.966,43.697"/>
<path fill="#FFFFFF" d="M29.47,94.82h22.5h42.691h25.664h0.202c0.857,0,0.857-1.328,0-1.328h-22.5h-42.69H29.674H29.47
	C28.613,93.492,28.613,94.82,29.47,94.82"/>
<path fill="none" stroke="#FFFFFF" stroke-width="5.669" stroke-miterlimit="10" d="M29.47,94.82h22.5h42.691h25.664h0.202
	c0.857,0,0.857-1.328,0-1.328h-22.5h-42.69H29.674H29.47C28.613,93.492,28.613,94.82,29.47,94.82z"/>
<path fill="#FFFFFF" d="M76.289,41.887c-0.092,1.707-2.555,1.707-2.647,0C73.55,40.178,76.198,40.188,76.289,41.887
	c0.046,0.852,1.375,0.855,1.329,0c-0.081-1.5-1.153-2.572-2.652-2.652c-1.496-0.081-2.578,1.274-2.651,2.652
	c-0.081,1.496,1.273,2.578,2.651,2.652c1.495,0.081,2.578-1.274,2.652-2.652C77.664,41.03,76.335,41.035,76.289,41.887"/>
<path fill="#FFFFFF" d="M75.093,45.007c-0.053-0.001-0.101-0.001-0.152-0.004c-0.796-0.042-1.585-0.377-2.165-0.917
	c-0.643-0.599-0.971-1.389-0.927-2.225c0.083-1.531,1.307-3.189,3.142-3.091c1.64,0.088,2.869,1.226,3.069,2.833
	c0.019,0.09,0.027,0.186,0.023,0.283c0.004,0.102-0.006,0.202-0.026,0.296C77.869,43.557,76.771,45.007,75.093,45.007
	 M74.839,39.696c-1.2,0-2.003,1.15-2.062,2.215c-0.029,0.556,0.194,1.087,0.633,1.494c0.422,0.394,0.999,0.638,1.58,0.668
	c0.825,0.047,1.471-0.451,1.832-1.093c-0.13-0.018-0.257-0.056-0.377-0.115c-0.344,0.506-0.921,0.766-1.479,0.766
	c-0.843,0-1.729-0.591-1.788-1.721c-0.026-0.491,0.12-0.921,0.426-1.244c0.315-0.333,0.786-0.523,1.291-0.523
	c0.583,0,1.187,0.26,1.542,0.767c0.124-0.062,0.258-0.102,0.394-0.12c-0.377-0.642-1.052-1.047-1.89-1.092
	C74.906,39.697,74.872,39.696,74.839,39.696 M74.895,41.074c-0.251,0-0.474,0.084-0.615,0.233c-0.128,0.135-0.186,0.321-0.173,0.554
	c0.034,0.62,0.483,0.84,0.859,0.84c0.37,0,0.812-0.214,0.857-0.815C75.774,41.246,75.219,41.074,74.895,41.074 M76.756,41.887
	c0.022,0.158,0.169,0.175,0.233,0.175c0.021,0,0.122-0.003,0.153-0.064c0.004-0.037,0.007-0.074,0.01-0.111
	c-0.003-0.037-0.006-0.074-0.009-0.11c-0.029-0.061-0.124-0.065-0.154-0.065C76.925,41.711,76.778,41.729,76.756,41.887"/>
</svg>
