<?xml version="1.0" encoding="utf-8"?>
<!-- Generator: Adobe Illustrator 15.0.0, SVG Export Plug-In . SVG Version: 6.00 Build 0)  -->
<!DOCTYPE svg PUBLIC "-//W3C//DTD SVG 1.1//EN" "http://www.w3.org/Graphics/SVG/1.1/DTD/svg11.dtd">
<svg version="1.1" id="Layer_1" xmlns="http://www.w3.org/2000/svg" xmlns:xlink="http://www.w3.org/1999/xlink" x="0px" y="0px"
	 width="89.245px" height="62.893px" viewBox="10.851 16.461 89.245 62.893" enable-background="new 10.851 16.461 89.245 62.893"
	 xml:space="preserve">
<g id="Layer_1_1_">
	<g>
		<g>
			<g>
				<g>
					<path fill="#BCBEC0" d="M70.347,38.381c2.893,1.471,5.516,3.636,7.814,5.897c5.088,5.004,8.516,11.52,9.186,18.67
						c0.072,0.774,1.291,0.781,1.219,0c-0.693-7.367-4.098-14-9.254-19.244c-2.414-2.454-5.26-4.805-8.35-6.375
						C70.265,36.974,69.648,38.024,70.347,38.381L70.347,38.381z"/>
				</g>
				<g>
					<path fill="#BCBEC0" d="M88.013,63.959L88.013,63.959c-0.496,0-1.031-0.333-1.09-0.972c-0.635-6.744-3.852-13.28-9.061-18.405
						c-2.689-2.646-5.211-4.55-7.709-5.821c-0.42-0.213-0.619-0.641-0.514-1.088c0.119-0.488,0.553-0.844,1.035-0.844
						c0.164,0,0.326,0.041,0.482,0.119c2.801,1.426,5.646,3.599,8.459,6.457c5.455,5.547,8.695,12.293,9.373,19.504
						c0.027,0.283-0.055,0.545-0.23,0.738C88.58,63.844,88.306,63.959,88.013,63.959z M70.675,37.683
						c-0.094,0-0.182,0.098-0.205,0.188c-0.012,0.057-0.006,0.091,0.07,0.13c2.578,1.311,5.168,3.264,7.92,5.973
						c5.352,5.267,8.66,11.992,9.312,18.935c0.018,0.188,0.203,0.199,0.242,0.199l0,0c0.057,0,0.1-0.019,0.115-0.035
						c0.01-0.012,0.016-0.043,0.01-0.082c-0.658-7.015-3.816-13.578-9.131-18.984c-2.748-2.793-5.52-4.911-8.238-6.295
						C70.736,37.692,70.705,37.683,70.675,37.683z"/>
				</g>
			</g>
		</g>
		<g>
			<g>
				<g>
					<g>
						<path fill="#BCBEC0" d="M93.851,67.297c-0.033-9.07-3.203-17.822-8.963-24.821c-5.662-6.878-13.734-11.609-22.461-13.32
							c-8.984-1.762-18.432-0.205-26.418,4.24c-7.719,4.293-13.738,11.262-17.07,19.415c-1.871,4.585-2.775,9.542-2.793,14.487
							c-0.002,0.332,0.279,0.609,0.609,0.609c7.301,0,14.604,0,21.904,0c12.9,0,25.805,0,38.707,0c5.291,0,10.586,0,15.877,0
							c0.787,0,0.787-1.219,0-1.219c-7.301,0-14.602,0-21.902,0c-12.9,0-25.805,0-38.707,0c-5.291,0-10.586,0-15.877,0
							c0.203,0.204,0.406,0.406,0.609,0.609c0.033-9.28,3.459-18.25,9.65-25.167c6.104-6.815,14.662-11.2,23.744-12.235
							c9.258-1.057,18.646,1.445,26.217,6.844c7.402,5.277,12.639,13.275,14.705,22.104c0.648,2.771,0.943,5.611,0.955,8.454
							C92.636,68.083,93.855,68.083,93.851,67.297L93.851,67.297z"/>
					</g>
					<g>
						<path fill="#BCBEC0" d="M93.242,68.333H16.755c-0.275,0-0.537-0.109-0.734-0.307c-0.195-0.197-0.303-0.457-0.303-0.73
							c0.002-0.344,0.006-0.684,0.016-1.025l-0.008-0.009h0.01c0.135-4.795,1.078-9.37,2.811-13.612
							c3.418-8.367,9.545-15.339,17.254-19.627c5.883-3.272,12.549-5.003,19.281-5.003c2.5,0,5,0.242,7.43,0.718
							c8.938,1.752,17,6.535,22.707,13.467c5.812,7.06,9.029,15.971,9.062,25.092c0,0.297-0.113,0.564-0.32,0.751
							C93.775,68.231,93.521,68.333,93.242,68.333z M17.789,67.479h74.434c-0.01-0.059-0.016-0.119-0.016-0.181
							s-0.002-0.123-0.002-0.185H17.791c-0.002,0.062-0.002,0.125-0.002,0.185V67.479z M16.572,67.11c0,0.062,0,0.125,0,0.188
							c0,0.062,0.033,0.104,0.055,0.125c0.02,0.021,0.064,0.058,0.129,0.058h0.188L16.572,67.11z M93.058,67.114
							c0,0.061,0.002,0.121,0.002,0.182c0,0.109,0.062,0.164,0.186,0.164c0.047,0,0.092-0.012,0.123-0.032
							c0.041-0.058,0.049-0.155,0.018-0.229c-0.021-0.049-0.053-0.082-0.145-0.082L93.058,67.114L93.058,67.114z M93.046,66.261
							h0.195c0.057,0,0.111,0.004,0.166,0.012c-0.26-8.564-3.383-16.884-8.85-23.525c-5.58-6.78-13.469-11.459-22.213-13.172
							c-2.375-0.467-4.818-0.703-7.264-0.703c-6.588,0-13.111,1.691-18.867,4.895c-7.541,4.195-13.535,11.016-16.879,19.206
							c-1.689,4.14-2.613,8.606-2.746,13.29h0.365c0.277-9.041,3.727-17.697,9.742-24.416c6.105-6.82,14.857-11.331,24.014-12.375
							c1.396-0.16,2.82-0.24,4.23-0.24c7.893,0,15.807,2.543,22.283,7.161C84.578,41.637,90,49.784,92.097,58.747
							c0.557,2.373,0.875,4.9,0.947,7.516L93.046,66.261L93.046,66.261L93.046,66.261z M17.806,66.261h74.383
							c-0.072-2.549-0.383-5.01-0.926-7.32c-2.051-8.765-7.35-16.73-14.537-21.854c-6.332-4.515-14.07-7.002-21.789-7.002
							c-1.377,0-2.77,0.079-4.133,0.235c-8.951,1.02-17.506,5.428-23.475,12.096C21.457,48.978,18.083,57.431,17.806,66.261z"/>
					</g>
				</g>
			</g>
			<g>
				<g>
					<g>
						<path fill="#BCBEC0" d="M55.607,29.053c0-1.214,0-2.429,0-3.644c0-0.784-1.219-0.784-1.219,0c0,1.215,0,2.43,0,3.644
							C54.388,29.838,55.607,29.838,55.607,29.053L55.607,29.053z"/>
					</g>
					<g>
						<path fill="#BCBEC0" d="M54.998,30.067c-0.59,0-1.035-0.437-1.035-1.016v-3.643c0-0.58,0.443-1.017,1.035-1.017
							s1.037,0.437,1.037,1.017v3.643C56.035,29.632,55.589,30.067,54.998,30.067z M54.998,25.247c-0.121,0-0.184,0.056-0.184,0.162
							v3.644c0,0.106,0.062,0.163,0.184,0.163c0.123,0,0.184-0.055,0.184-0.163v-3.644C55.181,25.302,55.121,25.247,54.998,25.247z"
							/>
					</g>
				</g>
			</g>
			<g>
				<path fill="#BCBEC0" stroke="#BCBEC0" stroke-width="3" stroke-miterlimit="10" d="M13.273,72.134c6.879,0,13.758,0,20.637,0
					c13.051,0,26.102,0,39.152,0c7.844,0,15.691,0,23.535,0c0.064,0,0.125,0,0.188,0c0.785,0,0.785-1.218,0-1.218
					c-6.879,0-13.756,0-20.637,0c-13.049,0-26.1,0-39.15,0c-7.846,0-15.691,0-23.537,0c-0.062,0-0.125,0-0.188,0
					C12.488,70.915,12.488,72.134,13.273,72.134L13.273,72.134z"/>
			</g>
			<g>
				<g>
					<g>
						<path fill="#BCBEC0" d="M56.212,23.587c-0.084,1.564-2.344,1.564-2.428,0C53.701,22.021,56.128,22.03,56.212,23.587
							c0.041,0.781,1.26,0.785,1.219,0c-0.074-1.375-1.059-2.357-2.434-2.434c-1.371-0.074-2.365,1.17-2.434,2.434
							c-0.074,1.372,1.168,2.363,2.434,2.432c1.371,0.074,2.363-1.168,2.434-2.432C57.472,22.802,56.255,22.806,56.212,23.587z"/>
					</g>
					<g>
						<path fill="#BCBEC0" d="M55.115,26.448c-0.049,0-0.092,0-0.139-0.004c-0.73-0.039-1.455-0.346-1.986-0.84
							c-0.588-0.55-0.891-1.273-0.85-2.041c0.076-1.404,1.199-2.925,2.883-2.834c1.502,0.08,2.631,1.123,2.814,2.598
							c0.018,0.084,0.023,0.17,0.02,0.26c0.004,0.094-0.004,0.186-0.023,0.271C57.662,25.118,56.654,26.448,55.115,26.448z
							 M54.882,21.577c-1.1,0-1.838,1.056-1.891,2.033c-0.027,0.51,0.18,0.996,0.58,1.371c0.389,0.36,0.916,0.584,1.449,0.612
							c0.758,0.042,1.35-0.414,1.682-1.003c-0.119-0.016-0.238-0.051-0.348-0.104c-0.312,0.463-0.844,0.701-1.355,0.701
							c-0.773,0-1.584-0.541-1.641-1.578c-0.023-0.449,0.111-0.845,0.391-1.141c0.291-0.305,0.721-0.48,1.184-0.48
							c0.537,0,1.088,0.24,1.416,0.705c0.113-0.058,0.236-0.094,0.361-0.109c-0.346-0.588-0.963-0.96-1.734-1.001
							C54.943,21.579,54.914,21.577,54.882,21.577z M54.933,22.842c-0.229,0-0.436,0.078-0.564,0.214
							c-0.117,0.123-0.17,0.294-0.158,0.508c0.031,0.569,0.441,0.771,0.787,0.771c0.34,0,0.746-0.196,0.787-0.747
							C55.742,23,55.23,22.842,54.933,22.842z M56.64,23.587c0.021,0.145,0.154,0.16,0.213,0.16c0.02,0,0.113-0.002,0.141-0.059
							c0.004-0.033,0.006-0.068,0.008-0.102c-0.002-0.034-0.004-0.067-0.008-0.1c-0.025-0.057-0.113-0.062-0.141-0.062
							C56.794,23.426,56.662,23.442,56.64,23.587z"/>
					</g>
				</g>
			</g>
		</g>
	</g>
	<g>
		<g>
			<g>
				<g>
					<g>
						<path fill="#BCBEC0" d="M-107.87,27.087c-2.785,1.531-6.047,2.141-9.164,2.557c-2.895,0.385-5.817,0.537-8.733,0.572
							c-0.819,0.009-1.638,0.006-2.454-0.014c-0.144-0.003-0.288-0.006-0.432-0.012c0.329,0.012-0.264-0.205-0.362-0.243
							c-0.4-0.16-0.799-0.285-1.22-0.39c-2.391-0.601-5.106-0.391-7.509,0.078c0.323,0.184,0.647,0.368,0.97,0.552
							c-0.739-3.185-2.588-6.374-5.124-8.436c-1.411-1.147-3.502-2.491-5.302-1.642c-1.407,0.663-2.36,3.039-0.681,4.042
							c1.552,0.926,2.807,2.364,3.645,3.95c0.383,0.728,1.093,2.381,0.812,3.198c-0.23,0.669-0.407,1.357-0.566,2.044
							c-1.284,5.446-1.247,12.489,1.51,17.189c0.679,1.156,0.58,2.479-0.018,3.645c-0.408,0.803-1.105,1.281-1.636,1.996
							c-1.246,1.686-0.651,3.468-0.272,5.306c0.499,2.434,1.14,4.848,1.978,7.188c0.679,1.896,1.312,3.693,3.158,4.68
							c1.666,0.89,3.771,0.907,5.047-0.581c1.042-1.216,0.632-3.704-1.016-4.239c0.09,0.029-0.047-0.018-0.193-0.107
							c-0.158-0.095-0.285-0.22-0.412-0.35c-0.585-0.594-0.89-1.434-1.123-2.213c-0.566-1.893-0.688-4.162-0.604-6.121
							c0.082-1.815,1.747-2.046,3.034-2.729c0.902-0.48,1.727-1.112,2.5-1.779c3.126-2.697,4.728-6.634,4.385-10.742
							c-0.263,0.262-0.526,0.525-0.789,0.788c2.457-0.044,4.561,1.534,6.611,2.653c2.903,1.582,6.324,2.623,9.63,1.965
							c-0.335-0.254-0.668-0.508-1.001-0.762c-0.254,2.823-0.415,5.663-0.43,8.499c-0.006,1.203,0.201,2.438,0.106,3.631
							c-0.092,1.159-0.068,2.326,0.022,3.483c0.244,3.095,1.256,7.38,4.175,9.093c0.728,0.425,2.032,0.377,2.817,0.256
							c1.364-0.209,2.226-1.139,2.147-2.545c-0.013-0.269-0.136-0.553-0.391-0.684c-0.708-0.355-1.417-0.833-1.885-1.48
							c-0.36-0.5-0.223-1.02-0.269-1.394c-0.211-1.786-0.306-3.585-0.317-5.384c-0.017-2.56,0.183-5.142,0.874-7.614
							c0.31-1.106,0.771-2.154,1.416-3.108c0.346-0.512,0.864-0.86,1.335-1.28c1.841-1.654,3.577-3.708,4.478-6.039
							c0.639-1.653,0.48-2.838,0.404-4.536c-0.103-2.144-0.127-4.391,0.438-6.478c0.293-1.082,1.349-2.376,2.159-3.167
							c0.845-0.824,1.923-1.009,2.992-0.508c0.607,0.287,1.04,0.747,1.673,0.986c1.849,0.701,4.882-0.324,6.193-1.668
							c0.673-0.687,1.207-1.522,1.589-2.399c0.432-0.984,0.324-1.892,0.436-2.793c0.088-0.701-0.152-1.418-0.831-1.722
							c-0.185-0.083-0.405-0.15-0.609-0.144c0.054-0.002-0.725-0.016-0.39,0.09c-0.299-0.093-0.6-0.188-0.902-0.283
							c-0.935-0.292-1.869-0.585-2.805-0.876c-0.285-0.089-0.567-0.178-0.853-0.267c0.281,0.089,0.538,0.565,0.205-0.014
							c-1.08-1.881-2.464-3.671-4.155-5.04c-1.367-1.107-2.759-1.666-4.49-1.554c-2.232,0.144-4.199,1.145-5.511,2.969
							c-0.354,0.494-0.132,0.573-0.557,0.868c-0.461,0.322-0.903,0.673-1.333,1.032c-1.186,0.989-2.244,2.174-2.975,3.54
							c-1.154,2.16-0.776,4.546,0.882,6.286c0.914,0.962,2.291,1.378,3.589,1.173c1.271-0.2,1.95-0.586,2.607-1.604
							c1.341-2.071,3.596-5.397,2.783-7.999c-0.302-0.969-1.829-0.554-1.523,0.419c0.595,1.898-1.245,4.527-2.175,6.068
							c-0.297,0.49-0.608,0.974-0.933,1.444c0.056-0.083-0.837,0.089-0.878,0.098c-0.299,0.07-0.655,0.066-0.96,0.021
							c-0.545-0.08-1.004-0.37-1.395-0.741c-3.047-2.89,0.854-6.866,3.347-8.542c0.274-0.184,0.384-0.365,0.53-0.671
							c0.305-0.633,0.767-1.149,1.289-1.607c0.862-0.752,2.098-1.082,3.214-1.18c0.335-0.031,0.669-0.029,1.007-0.016
							c0.092,0.003,0.674,0.067,0.265,0.011c1.348,0.186,2.616,1.468,3.504,2.397c0.782,0.816,1.446,1.735,2.056,2.682
							c0.251,0.39,0.504,1.125,0.931,1.375c0.513,0.299,1.222,0.401,1.776,0.576c0.934,0.291,1.868,0.583,2.802,0.875
							c0.513,0.16,1.06-0.266,0.874,0.395c-0.158,0.566,0.023,1.188-0.146,1.791c-0.197,0.708-0.665,1.38-1.128,1.94
							c-0.948,1.145-3.774,2.326-5.209,1.382c-0.192-0.127,0.464,0.351-0.058-0.045c-0.305-0.23-0.604-0.435-0.939-0.622
							c-0.466-0.263-1.012-0.438-1.544-0.491c-1.052-0.107-2.024,0.21-2.868,0.835c-0.625,0.463-1.124,1.056-1.556,1.699
							c-0.096,0.145-0.186,0.295-0.266,0.448c0.216-0.413,0.018-0.08-0.134,0.052c-0.181,0.155-0.317,0.369-0.454,0.561
							c-1.116,1.574-1.131,4.025-1.177,5.868c-0.042,1.597,0.032,3.203,0.189,4.793c0.104,1.047-0.705,2.369-1.209,3.232
							c-0.715,1.229-1.663,2.31-2.666,3.311c-1.402,1.408-2.181,1.787-3.082,3.675c-1.879,3.925-1.867,8.746-1.61,12.995
							c0.067,1.099,0.173,2.196,0.325,3.286c0.225,1.621,1.339,2.699,2.834,3.454c-0.13-0.229-0.261-0.456-0.394-0.682
							c0.07,1.26-1.396,1.091-2.296,0.943c-0.905-0.147-1.648-1.353-2.181-2.274c-1.359-2.35-1.634-5.294-1.576-7.956
							c0.094-4.384-0.022-8.741,0.372-13.13c0.051-0.547-0.538-0.854-0.999-0.763c-3.078,0.611-6.381-0.582-9.013-2.148
							c-2.033-1.207-4.347-2.572-6.808-2.526c-0.401,0.007-0.826,0.355-0.788,0.79c0.377,4.555-1.871,8.613-5.748,10.955
							c-0.439,0.266-0.864,0.344-1.347,0.536c-1.017,0.405-1.869,1.11-2.384,2.079c-0.72,1.354-0.374,3.192-0.312,4.649
							c0.088,2.094,0.444,4.471,1.787,6.16c0.302,0.379,0.657,0.71,1.076,0.961c0.586,0.353,0.438,0.171,0.824,0.795
							c0.494,0.799-0.295,1.438-0.938,1.76c-0.804,0.405-2.461-0.432-3.106-1.01c-0.534-0.477-0.886-1.479-1.275-2.459
							c-0.563-1.412-0.996-2.875-1.393-4.339c-0.471-1.724-1.09-3.665-1.31-5.443c-0.125-1.013,0.317-1.964,1.034-2.651
							c0.196-0.19,0.202-0.146,0.576-0.602c0.527-0.64,0.883-1.367,1.141-2.152c0.681-2.079-0.525-3.561-1.187-5.33
							c-1.326-3.554-1.606-7.419-1.251-11.171c0.176-1.873,0.547-3.776,1.162-5.559c0.283-0.832-0.162-2.165-0.41-2.964
							c-0.377-1.223-1.064-2.312-1.848-3.312c-0.582-0.738-1.282-1.382-2.024-1.954c-0.575-0.445-0.939-0.509-1.01-1.099
							c-0.052-0.433,0.455-0.694,0.768-0.862c0.115-0.061,0.233-0.101,0.355-0.142c0.219-0.075,0.065,0.038,0.061,0.037
							c1.376,0.354,2.603,1.13,3.646,2.078c1.997,1.813,3.435,4.538,4.044,7.161c0.104,0.443,0.564,0.631,0.972,0.551
							c2.445-0.479,5.221-0.619,7.599,0.195c0.691,0.237,1.016,0.418,1.716,0.432c0.979,0.019,1.958,0.014,2.937-0.003
							c5.914-0.102,12.703-0.42,17.996-3.334C-106.181,27.959-106.976,26.595-107.87,27.087L-107.87,27.087z"/>
					</g>
				</g>
			</g>
			<g>
				<g>
					<g>
						<path fill="#BCBEC0" d="M-100.345,44.16c0.08,2.907,0.229,5.812,0.425,8.714c0.153,2.281,0.347,4.558,0.631,6.823
							c0.208,1.649,0.406,3.367,0.978,4.938c0.164,0.455,0.369,0.85,0.708,1.198c0.499,0.517,1.805,1.588,1.857,2.332
							c0.088,1.32-1.861,0.518-2.666,0.067c-0.256-0.143-0.855-0.505-0.811-0.355c-0.04-0.129-0.08-0.261-0.12-0.391
							c-0.187-0.593-0.369-1.186-0.551-1.78c-0.577-1.87-1.157-3.74-1.736-5.612c-0.914-2.952-1.828-5.907-2.742-8.862
							c-0.3-0.969-1.826-0.555-1.522,0.422c1.724,5.574,3.449,11.146,5.174,16.722c0.303,0.984,2.291,1.684,3.201,1.992
							c0.757,0.255,1.649,0.255,2.337-0.182c0.772-0.491,1.191-1.627,0.936-2.508c-0.438-1.492-2.159-2.408-2.588-3.592
							c-0.591-1.627-0.767-3.448-0.968-5.155c-0.579-4.895-0.825-9.846-0.962-14.771C-98.794,43.144-100.374,43.141-100.345,44.16
							L-100.345,44.16z"/>
					</g>
				</g>
			</g>
		</g>
		<g>
			<g>
				<g>
					<path fill="#BCBEC0" d="M-134.8,56.393c0.218,3.502,0.815,7.269,2.444,10.407c0.891,1.713,2.341,2.112,4.204,2.304
						c1.729,0.176,3.724-0.488,4.028-2.356c0.333-2.044-1.546-2.459-2.526-3.771c-1.786-2.386-2.037-4.989-1.39-7.836
						c0.175-0.776,0.623-1.266,0.919-1.948c0.323-0.744,0.618-1.499,0.895-2.26c0.652-1.787,1.456-3.978,1.017-5.9
						c-0.226-0.992-1.749-0.572-1.522,0.42c0.365,1.598-0.488,3.581-1.018,5.062c-0.429,1.207-1.062,2.168-1.541,3.312
						c-1.585,3.785-0.51,8.042,2.125,11.01c0.512,0.575,1.472,0.534,1.504,1.506c0.021,0.759-0.442,0.87-1.048,1.069
						c-1.025,0.337-2.2,0.042-3.185-0.288c-0.722-0.244-0.879-0.696-1.232-1.378c-1.438-2.767-1.903-6.269-2.098-9.353
						C-133.283,55.381-134.864,55.374-134.8,56.393L-134.8,56.393z"/>
				</g>
			</g>
		</g>
	</g>
	<g>
		<g>
			<g>
				<g>
					<path fill="#BCBEC0" d="M186.117,73.479c0-5.81,0-11.62,0-17.43c0-5.045-0.047-10.216-4.067-13.97
						c-0.9-0.84-1.963-1.478-3.09-1.957c0.049,0.365,0.094,0.731,0.141,1.098c0.909-1.125,1.816-2.248,2.725-3.372
						c-0.226,0.06-0.453,0.119-0.679,0.179c3.123,1.09,6.109,3.597,7.165,6.776c0.242,0.735,1.373,0.626,1.373-0.186
						c0-2.703,0-5.405,0-8.107c-0.233,0.232-0.467,0.465-0.7,0.699c1.729,0,3.458,0,5.188,0c-0.231-0.233-0.463-0.466-0.698-0.699
						c0.012,2.708,0.023,5.418,0.034,8.125c0.002,0.836,1.097,0.892,1.372,0.187c1.19-3.057,3.672-7.07,7.263-7.638
						c-0.262-0.107-0.527-0.215-0.789-0.321c0.649,1.08,1.299,2.16,1.946,3.242c0.084-0.318,0.167-0.636,0.252-0.955
						c-2.217,1.174-4.03,3.316-5.201,5.487c-1.55,2.879-1.631,5.981-1.631,9.155c0,6.358,0,12.714,0,19.069c0,0.206,0,0.412,0,0.617
						c0.231-0.233,0.465-0.465,0.698-0.698c-3.999,0-8.001,0-11.999,0c-0.901,0-0.901,1.396,0,1.396c3.998,0,8,0,11.999,0
						c0.382,0,0.699-0.318,0.699-0.698c0-5.808,0-11.618,0-17.429c0-2.645-0.222-5.459,0.416-8.034
						c0.761-3.074,2.847-5.969,5.59-7.586c0.046-0.026,0.091-0.051,0.134-0.075c0.335-0.177,0.442-0.64,0.252-0.956
						c-0.648-1.081-1.298-2.162-1.945-3.243c-0.177-0.292-0.472-0.372-0.79-0.322c-4.085,0.648-6.851,5.05-8.239,8.614
						c0.459,0.062,0.914,0.124,1.372,0.187c-0.01-2.709-0.021-5.418-0.032-8.126c-0.002-0.382-0.316-0.7-0.698-0.7
						c-1.729,0-3.46,0-5.189,0c-0.382,0-0.7,0.318-0.7,0.7c0,2.702,0,5.403,0,8.107c0.46-0.062,0.915-0.123,1.374-0.187
						c-1.22-3.67-4.534-6.493-8.14-7.752c-0.215-0.073-0.536,0.002-0.681,0.181c-0.909,1.125-1.817,2.247-2.725,3.373
						c-0.25,0.308-0.311,0.904,0.141,1.097c3.927,1.674,5.961,5.438,6.394,9.55c0.148,1.422,0.07,2.884,0.07,4.309
						c0,6.07,0,12.141,0,18.209c0,0.028,0,0.057,0,0.084C184.719,74.381,186.117,74.381,186.117,73.479z"/>
				</g>
			</g>
		</g>
		<g>
			<g>
				<g>
					<path fill="#BCBEC0" d="M184.023,54.122c-5.22-2.094-9.361-6.312-11.361-11.563c-1.979-5.189-1.597-11.091,0.873-16.038
						c4.936-9.876,17.39-13.726,27.12-8.681c6.563,3.401,10.637,10.351,10.693,17.694c0.062,8.034-5.023,15.439-12.405,18.497
						c-0.818,0.341-0.459,1.691,0.373,1.348c10.138-4.202,15.622-15.396,12.538-25.975c-2.918-10.011-13.114-16.396-23.366-15.045
						c-9.246,1.218-16.726,8.626-18.221,17.792c-1.616,9.917,4.141,19.614,13.381,23.318
						C184.487,55.805,184.846,54.452,184.023,54.122L184.023,54.122z"/>
				</g>
			</g>
		</g>
	</g>
	<g>
		<g>
			<g>
				<g>
					<path fill="#BCBEC0" d="M-556.318,73.855c-1.391,0-1.925-1.36-2.007-2.109l-0.003-33.63c-0.131-0.647,0.312-1.267,0.597-1.515
						l3.644-4.257V14.859c-0.009-0.21,0.021-0.531,0.232-0.742c0.058-0.057,0.235-0.237,0.766-0.262h6.11
						c0.353,0.005,0.625,0.077,0.794,0.246c0.165,0.164,0.25,0.432,0.25,0.794l0.077,17.315l3.884,4.382
						c0.528,0.424,0.495,1.281,0.476,1.519c-0.007,1.44-0.128,32.21-0.045,33.67c0.037,0.666-0.131,1.192-0.501,1.565
						c-0.512,0.521-1.197,0.505-1.272,0.502h-12.821C-556.199,73.852-556.258,73.855-556.318,73.855z M-552.946,14.994
						l-0.005,17.771l-3.975,4.635c-0.057,0.057-0.33,0.312-0.275,0.61l0.012,33.674c0.011,0.053,0.178,1.1,1.007,1.024l12.893-0.001
						c0.018,0.005,0.28,0.003,0.441-0.167c0.162-0.171,0.182-0.472,0.169-0.696c-0.087-1.522,0.036-32.473,0.041-33.79l0.315,0.001
						l-0.312-0.032c0.02-0.211-0.013-0.487-0.065-0.56l-0.085-0.075l-4.207-4.748l-0.083-17.649L-552.946,14.994L-552.946,14.994
						L-552.946,14.994z"/>
				</g>
			</g>
		</g>
		<g>
			<g>
				<g>
					<path fill="#BCBEC0" d="M-554.84,62.457c-0.291-0.059-0.154-0.669-0.154-0.908c0-0.755,0-1.508,0-2.263
						c0-2.293,0-4.586,0-6.879c0-3.382,0-6.766,0-10.147c0-0.072,9.284-0.036,10.263-0.036c0.582,0,0.582-0.901,0-0.901
						c-3.405,0-6.811,0-10.216,0c-1.297,0-0.948,2.013-0.948,2.824c0,2.104,0,4.212,0,6.317c0,2.865,0,5.729,0,8.596
						c0,0.891,0,1.783,0,2.675c0,0.678-0.044,1.42,0.817,1.593C-554.51,63.442-554.269,62.572-554.84,62.457L-554.84,62.457z"/>
				</g>
			</g>
		</g>
	</g>
	<g>
		<g>
			<g>
				<path fill="#58595B" stroke="#58595B" stroke-miterlimit="10" d="M-850.119,11.461"/>
			</g>
		</g>
	</g>
	<g>
		<g>
			<g>
				<g>
					<g>
						<g>
							<path fill="#BCBEC0" d="M-815.822,41.924h-62.22c-0.485-0.016-0.904-0.237-1.164-0.61c-0.218-0.299-0.307-0.675-0.246-1.049
								c0.062-0.377,0.27-0.707,0.584-0.929l31.097-22.072c0.516-0.364,1.177-0.354,1.657-0.008l31.057,22.03
								c0.407,0.265,0.659,0.721,0.659,1.211C-814.399,41.283-815.038,41.924-815.822,41.924z M-846.933,17.839
								c-0.118,0-0.239,0.038-0.34,0.108l-31.106,22.08c-0.128,0.091-0.212,0.225-0.237,0.376c-0.025,0.147,0.012,0.297,0.1,0.417
								c0.149,0.215,0.37,0.252,0.487,0.256h62.208c0.318,0,0.576-0.26,0.576-0.579c0-0.203-0.108-0.394-0.287-0.511l-31.073-22.042
								C-846.703,17.875-846.817,17.839-846.933,17.839z"/>
						</g>
					</g>
					<g>
						<g>
							<g>
								<path fill="#BCBEC0" d="M-815.822,41.494c-7.571,0-15.141,0-22.711,0c-11.359,0-22.718,0-34.077,0c-1.436,0-2.873,0-4.309,0
									c-0.324,0-0.649,0-0.974,0c-0.964,0-1.61-1.183-0.694-1.832c3.041-2.159,6.083-4.318,9.124-6.477
									c4.977-3.532,9.953-7.063,14.928-10.596c1.774-1.259,3.549-2.517,5.322-3.777c0.707-0.502,2.003-1.809,2.918-1.16
									c7.928,5.623,15.856,11.248,23.784,16.872c1.784,1.264,3.566,2.529,5.35,3.795c0.497,0.353,0.994,0.705,1.491,1.057
									c0.11,0.078,0.22,0.157,0.331,0.235C-814.532,40.184-814.769,41.399-815.822,41.494c-0.547,0.049-0.553,0.908,0,0.859
									c1.809-0.163,2.522-2.346,0.982-3.437c-0.204-0.144-0.407-0.29-0.611-0.434c-1.414-1.002-2.828-2.005-4.241-3.008
									c-4.842-3.434-9.683-6.868-14.522-10.301c-3.69-2.618-7.381-5.235-11.072-7.854c-0.935-0.663-1.865-1.019-2.926-0.265
									c-1.174,0.833-2.348,1.667-3.522,2.499c-8.727,6.194-17.453,12.388-26.18,18.582c-1.087,0.771-2.904,1.944-1.596,3.481
									c0.743,0.875,1.75,0.736,2.765,0.736c3.799,0,7.597,0,11.395,0c12.014,0,24.026,0,36.039,0c4.495,0,8.991,0,13.487,0
									C-815.269,42.354-815.269,41.494-815.822,41.494z"/>
							</g>
						</g>
						<g>
							<g>
								<path fill="#BCBEC0" d="M-847.046,17.425c-0.872,0.138-1.809,1.122-2.494,1.608c-1.867,1.324-3.735,2.65-5.602,3.976
									c-4.99,3.542-9.981,7.084-14.971,10.627c-2.823,2.005-5.649,4.01-8.474,6.015c-0.807,0.571-0.436,1.855,0.577,1.855
									c0.218,0,0.436,0,0.654,0c1.259,0,2.518,0,3.776,0c11.126,0,22.252,0,33.38,0c8.105,0,16.209,0,24.315,0
									c1.024,0,1.376-1.173,0.656-1.822c-0.195-0.177-0.438-0.317-0.651-0.468c-1.391-0.986-2.784-1.975-4.175-2.961
									c-4.832-3.428-9.663-6.855-14.496-10.282c-2.801-1.988-5.604-3.976-8.405-5.963c-0.854-0.607-1.709-1.212-2.564-1.819
									c-0.385-0.274-0.815-0.69-1.298-0.767c-0.541-0.085-0.774,0.742-0.229,0.829c0.301,0.047,0.549,0.292,0.788,0.463
									c0.55,0.39,1.101,0.78,1.652,1.171c1.9,1.348,3.801,2.697,5.702,4.045c4.986,3.538,9.973,7.074,14.961,10.612
									c2.73,1.937,5.462,3.875,8.192,5.812c0.422,0.299-0.582,0.289-0.542,0.289c-0.449,0-0.899,0-1.348,0
									c-1.642,0-3.281,0-4.922,0c-11.591,0-23.181,0-34.771,0c-5.088,0-10.176,0-15.263,0c-1.436,0-2.873,0-4.308,0
									c-0.134,0-1.701,0.066-1.112-0.351c8.167-5.799,16.335-11.595,24.502-17.394c1.549-1.1,3.098-2.199,4.648-3.299
									c0.553-0.392,1.345-1.24,2.048-1.351C-846.272,18.167-846.505,17.339-847.046,17.425z"/>
							</g>
						</g>
					</g>
				</g>
			</g>
			<g>
				<g>
					<g>
						<g>
							<path fill="#BCBEC0" d="M-826.949,37.617h-39.974c-0.363-0.012-0.676-0.177-0.871-0.456
								c-0.164-0.225-0.229-0.505-0.184-0.786c0.047-0.283,0.202-0.53,0.438-0.696l19.978-14.181
								c0.383-0.272,0.878-0.264,1.24-0.004l19.953,14.152c0.298,0.193,0.487,0.535,0.487,0.902
								C-825.883,37.139-826.361,37.617-826.949,37.617z M-846.938,22.144c-0.045,0-0.092,0.015-0.13,0.042l-19.984,14.186
								c-0.049,0.035-0.081,0.086-0.09,0.144c-0.007,0.039-0.006,0.097,0.037,0.155c0.06,0.085,0.148,0.1,0.196,0.102h39.96
								c0.121,0,0.22-0.099,0.22-0.221c0-0.114-0.081-0.177-0.116-0.2l-19.968-14.165
								C-846.854,22.157-846.892,22.144-846.938,22.144z"/>
						</g>
					</g>
					<g>
						<g>
							<g>
								<path fill="#BCBEC0" d="M-826.949,37.188c-9.294,0-18.587,0-27.88,0c-3.943,0-7.887,0-11.831,0c-0.083,0-0.168,0-0.252,0
									c-0.587,0-0.666-0.956-0.256-1.248c0.526-0.374,1.052-0.746,1.578-1.119c2.16-1.533,4.32-3.065,6.479-4.6
									c3.889-2.759,7.779-5.519,11.667-8.28c0.505-0.358,0.912-0.072,1.295,0.199c0.644,0.457,1.287,0.913,1.93,1.37
									c2.268,1.609,4.537,3.218,6.805,4.827c2.461,1.746,4.923,3.493,7.384,5.238c0.842,0.598,1.684,1.194,2.525,1.792
									c0.232,0.164,0.465,0.33,0.696,0.493C-826.373,36.171-825.814,37.057-826.949,37.188c-0.543,0.063-0.55,0.922,0,0.858
									c1.462-0.169,2.04-1.885,0.77-2.788c-0.396-0.281-0.792-0.563-1.19-0.844c-2.025-1.437-4.05-2.874-6.076-4.311
									c-4.12-2.923-8.24-5.845-12.36-8.768c-1.192-0.847-2.041-0.16-3.036,0.547c-1.98,1.405-3.959,2.811-5.939,4.216
									c-4.195,2.978-8.392,5.956-12.588,8.933c-0.571,0.407-1.223,0.922-1.032,1.736c0.202,0.863,0.861,1.278,1.707,1.278
									c1.35,0,2.7,0,4.051,0c5.648,0,11.294,0,16.943,0c6.25,0,12.5,0,18.75,0C-826.396,38.046-826.396,37.188-826.949,37.188z"/>
							</g>
						</g>
						<g>
							<g>
								<path fill="#BCBEC0" d="M-847.051,21.729c-0.381,0.123-0.695,0.413-1.017,0.642c-0.77,0.547-1.54,1.093-2.309,1.64
									c-2.379,1.687-4.755,3.375-7.132,5.062c-2.336,1.657-4.671,3.315-7.007,4.974c-0.718,0.509-1.436,1.018-2.154,1.527
									c-0.299,0.212-0.902,0.514-0.902,0.939c0,1.016,1.907,0.686,2.516,0.686c2.074,0,4.148,0,6.223,0c6.061,0,12.121,0,18.181,0
									c4.347,0,8.693,0,13.041,0c0.211,0,0.569,0.071,0.774-0.016c0.789-0.329,0.53-0.977-0.014-1.362
									c-1.547-1.097-3.092-2.193-4.637-3.289c-3.281-2.327-6.561-4.654-9.842-6.98c-1.268-0.899-2.536-1.798-3.804-2.699
									c-0.518-0.367-1.078-0.92-1.691-1.123c-0.527-0.175-0.751,0.656-0.228,0.829c0.296,0.098,0.614,0.418,0.87,0.6
									c0.748,0.53,1.494,1.06,2.242,1.589c2.272,1.612,4.544,3.224,6.816,4.835c2.285,1.62,4.569,3.241,6.854,4.861
									c0.762,0.542,1.526,1.084,2.291,1.625c0.219,0.156,0.438,0.311,0.659,0.467c0.358,0.254,0.092,0.105,0.112,0.056
									c0.1-0.1,0.2-0.201,0.299-0.3c-0.211,0.088-0.507,0.048-0.754,0.048c-0.663,0-1.324,0-1.987,0c-2.273,0-4.548,0-6.824,0
									c-6.116,0-12.231,0-18.346,0c-3.942,0-7.884,0-11.826,0c-0.413,0-0.321,0.495,0,0.268c0.545-0.387,1.092-0.776,1.64-1.163
									c2.18-1.548,4.36-3.097,6.54-4.644c2.601-1.845,5.199-3.691,7.799-5.535c0.918-0.652,1.836-1.303,2.755-1.955
									c0.318-0.227,0.719-0.634,1.091-0.754C-846.298,22.389-846.522,21.56-847.051,21.729z"/>
							</g>
						</g>
					</g>
				</g>
			</g>
			<g>
				<g>
					<g>
						<g>
							<path fill="#BCBEC0" d="M-863.974,65.041h-6.089c-0.234,0-0.423-0.188-0.423-0.423V41.736c0-0.232,0.189-0.423,0.423-0.423
								c0.233,0,0.423,0.19,0.423,0.423v22.458h5.243V41.736c0-0.232,0.189-0.423,0.423-0.423c0.233,0,0.423,0.19,0.423,0.423
								v22.882C-863.551,64.853-863.74,65.041-863.974,65.041z"/>
						</g>
					</g>
					<g>
						<g>
							<g>
								<path fill="#BCBEC0" d="M-863.974,64.612c-0.592,0-6.083,0.012-6.083-0.014c0-1.588,0-3.177,0-4.765
									c0-5.568,0-11.139,0-16.708c0-0.461,0-0.919,0-1.38c0,0.311-0.012,0.764-0.012,1.117c0,2.456,0,4.912,0,7.367
									c0,4.647,0,9.295,0,13.943c0,0.007,0,0.014,0,0.02c0,0.234,0.195,0.43,0.429,0.43c1.748,0,3.495,0,5.243,0
									c0.233,0,0.429-0.195,0.429-0.43c0-4.468,0-8.936,0-13.404c0-2.548,0-5.096,0-7.644c0-0.467,0-0.935,0-1.399
									c0,0.306-0.014,0.754-0.014,1.103c0,4.201,0,8.402,0,12.604c0,2.137,0,4.272,0,6.41c0,0.338,0.201,2.682-0.107,2.765
									c-0.534,0.145-0.307,0.973,0.229,0.829c0.75-0.202,0.739-0.786,0.739-1.412c0-0.86,0-1.721,0-2.581c0-2.889,0-5.777,0-8.666
									c0-2.811,0-5.62,0-8.43c0-0.611,0.41-4.357-1.284-3.365c-0.472,0.277-0.421,0.793-0.421,1.254c0,0.758,0,1.515,0,2.272
									c0,2.59,0,5.182,0,7.771c0,3.967,0,7.932,0,11.896c0.143-0.143,0.286-0.286,0.429-0.43c-1.747,0-3.495,0-5.242,0
									c0.143,0.143,0.286,0.286,0.429,0.43c0-4.469,0-8.937,0-13.404c0-2.548,0-5.098,0-7.646c0-0.466,0-0.933,0-1.399
									c0-1.135-1.706-1.084-1.706,0.043c0,4.741,0,9.481,0,14.223c0,2.469,0,4.936,0,7.404c0,0.4,0,0.802,0,1.202
									c0,1.156,1.72,0.854,2.431,0.854c1.504,0,3.008,0,4.511,0C-863.42,65.47-863.42,64.612-863.974,64.612z"/>
							</g>
						</g>
					</g>
				</g>
			</g>
			<g>
				<g>
					<g>
						<g>
							<path fill="#BCBEC0" d="M-850.916,65.041h-6.088c-0.234,0-0.424-0.188-0.424-0.423V41.736c0-0.232,0.19-0.423,0.424-0.423
								c0.233,0,0.422,0.19,0.422,0.423v22.458h5.243V41.736c0-0.232,0.19-0.423,0.423-0.423c0.234,0,0.424,0.19,0.424,0.423v22.882
								C-850.491,64.853-850.681,65.041-850.916,65.041z"/>
						</g>
					</g>
					<g>
						<g>
							<g>
								<path fill="#BCBEC0" d="M-850.916,64.612c-0.593,0-6.083,0.012-6.083-0.014c0-1.588,0-3.177,0-4.765
									c0-5.568,0-11.139,0-16.708c0-0.461,0-0.919,0-1.38c0,0.311-0.013,0.764-0.013,1.117c0,2.456,0,4.912,0,7.367
									c0,4.647,0,9.295,0,13.943c0,0.007,0,0.014,0,0.02c0,0.234,0.196,0.43,0.429,0.43c1.748,0,3.496,0,5.242,0
									c0.234,0,0.43-0.195,0.43-0.43c0-4.468,0-8.936,0-13.404c0-2.548,0-5.096,0-7.644c0-0.467,0-0.935,0-1.399
									c0,0.306-0.012,0.754-0.012,1.103c0,4.201,0,8.402,0,12.604c0,2.137,0,4.272,0,6.41c0,0.338,0.2,2.682-0.108,2.765
									c-0.534,0.145-0.307,0.973,0.229,0.829c0.75-0.202,0.739-0.786,0.739-1.412c0-0.86,0-1.721,0-2.581c0-2.889,0-5.777,0-8.666
									c0-2.811,0-5.62,0-8.43c0-0.611,0.41-4.357-1.283-3.365c-0.473,0.277-0.423,0.793-0.423,1.254c0,0.758,0,1.515,0,2.272
									c0,2.59,0,5.182,0,7.771c0,3.967,0,7.932,0,11.896c0.144-0.143,0.287-0.286,0.43-0.43c-1.747,0-3.495,0-5.243,0
									c0.143,0.143,0.287,0.286,0.43,0.43c0-4.469,0-8.937,0-13.404c0-2.548,0-5.098,0-7.646c0-0.466,0-0.933,0-1.399
									c0-1.135-1.706-1.084-1.706,0.043c0,4.741,0,9.481,0,14.223c0,2.469,0,4.936,0,7.404c0,0.4,0,0.802,0,1.202
									c0,1.156,1.721,0.854,2.432,0.854c1.504,0,3.007,0,4.511,0C-850.361,65.47-850.361,64.612-850.916,64.612z"/>
							</g>
						</g>
					</g>
				</g>
			</g>
			<g>
				<g>
					<g>
						<g>
							<path fill="#BCBEC0" d="M-836.854,65.041h-6.09c-0.234,0-0.424-0.188-0.424-0.423V41.736c0-0.232,0.19-0.423,0.424-0.423
								c0.233,0,0.424,0.19,0.424,0.423v22.458h5.242V41.736c0-0.232,0.19-0.423,0.424-0.423c0.232,0,0.422,0.19,0.422,0.423v22.882
								C-836.432,64.853-836.622,65.041-836.854,65.041z"/>
						</g>
					</g>
					<g>
						<g>
							<g>
								<path fill="#BCBEC0" d="M-836.854,64.612c-0.595,0-6.085,0.012-6.085-0.014c0-1.588,0-3.177,0-4.765
									c0-5.568,0-11.139,0-16.708c0-0.461,0-0.919,0-1.38c0,0.311-0.013,0.764-0.013,1.117c0,2.456,0,4.912,0,7.367
									c0,4.647,0,9.295,0,13.943c0,0.007,0,0.014,0,0.02c0,0.234,0.196,0.43,0.43,0.43c1.746,0,3.495,0,5.242,0
									c0.233,0,0.429-0.195,0.429-0.43c0-4.468,0-8.936,0-13.404c0-2.548,0-5.096,0-7.644c0-0.467,0-0.935,0-1.399
									c0,0.306-0.012,0.754-0.012,1.103c0,4.201,0,8.402,0,12.604c0,2.137,0,4.272,0,6.41c0,0.338,0.2,2.682-0.108,2.765
									c-0.535,0.145-0.308,0.973,0.228,0.829c0.752-0.202,0.739-0.786,0.739-1.412c0-0.86,0-1.721,0-2.581
									c0-2.889,0-5.777,0-8.666c0-2.811,0-5.62,0-8.43c0-0.611,0.41-4.357-1.283-3.365c-0.472,0.277-0.422,0.793-0.422,1.254
									c0,0.758,0,1.515,0,2.272c0,2.59,0,5.182,0,7.771c0,3.967,0,7.932,0,11.896c0.143-0.143,0.287-0.286,0.43-0.43
									c-1.748,0-3.496,0-5.243,0c0.143,0.143,0.287,0.286,0.43,0.43c0-4.469,0-8.937,0-13.404c0-2.548,0-5.098,0-7.646
									c0-0.466,0-0.933,0-1.399c0-1.135-1.707-1.084-1.707,0.043c0,4.741,0,9.481,0,14.223c0,2.469,0,4.936,0,7.404
									c0,0.4,0,0.802,0,1.202c0,1.156,1.721,0.854,2.433,0.854c1.502,0,3.006,0,4.51,0
									C-836.302,65.47-836.302,64.612-836.854,64.612z"/>
							</g>
						</g>
					</g>
				</g>
			</g>
			<g>
				<g>
					<g>
						<g>
							<path fill="#BCBEC0" d="M-823.997,65.041h-6.09c-0.233,0-0.424-0.188-0.424-0.423V41.736c0-0.232,0.19-0.423,0.424-0.423
								c0.234,0,0.423,0.19,0.423,0.423v22.458h5.244V41.736c0-0.232,0.189-0.423,0.423-0.423c0.232,0,0.423,0.19,0.423,0.423
								v22.882C-823.575,64.853-823.764,65.041-823.997,65.041z"/>
						</g>
					</g>
					<g>
						<g>
							<g>
								<path fill="#BCBEC0" d="M-823.997,64.612c-0.594,0-6.085,0.012-6.085-0.014c0-1.588,0-3.177,0-4.765
									c0-5.568,0-11.139,0-16.708c0-0.461,0-0.919,0-1.38c0,0.311-0.012,0.764-0.012,1.117c0,2.456,0,4.912,0,7.367
									c0,4.647,0,9.295,0,13.943c0,0.007,0,0.014,0,0.02c0,0.234,0.196,0.43,0.43,0.43c1.747,0,3.494,0,5.242,0
									c0.234,0,0.429-0.195,0.429-0.43c0-4.468,0-8.936,0-13.404c0-2.548,0-5.096,0-7.644c0-0.467,0-0.935,0-1.399
									c0,0.306-0.013,0.754-0.013,1.103c0,4.201,0,8.402,0,12.604c0,2.137,0,4.272,0,6.41c0,0.338,0.201,2.682-0.107,2.765
									c-0.535,0.145-0.308,0.973,0.229,0.829c0.751-0.202,0.738-0.786,0.738-1.412c0-0.86,0-1.721,0-2.581
									c0-2.889,0-5.777,0-8.666c0-2.811,0-5.62,0-8.43c0-0.611,0.412-4.357-1.283-3.365c-0.472,0.277-0.421,0.793-0.421,1.254
									c0,0.758,0,1.515,0,2.272c0,2.59,0,5.182,0,7.771c0,3.967,0,7.932,0,11.896c0.143-0.143,0.286-0.286,0.429-0.43
									c-1.747,0-3.494,0-5.242,0c0.143,0.143,0.286,0.286,0.429,0.43c0-4.469,0-8.937,0-13.404c0-2.548,0-5.098,0-7.646
									c0-0.466,0-0.933,0-1.399c0-1.135-1.707-1.084-1.707,0.043c0,4.741,0,9.481,0,14.223c0,2.469,0,4.936,0,7.404
									c0,0.4,0,0.802,0,1.202c0,1.156,1.721,0.854,2.432,0.854c1.504,0,3.007,0,4.513,0
									C-823.443,65.47-823.443,64.612-823.997,64.612z"/>
							</g>
						</g>
					</g>
				</g>
			</g>
		</g>
		<g>
			<g>
				<g>
					<g>
						<path fill="#BCBEC0" d="M-820.241,68.315h-53.39c-0.233,0-0.424-0.188-0.424-0.424c0-0.234,0.191-0.424,0.424-0.424h53.39
							c0.234,0,0.423,0.189,0.423,0.424C-819.818,68.127-820.007,68.315-820.241,68.315z"/>
					</g>
				</g>
				<g>
					<g>
						<g>
							<path fill="#BCBEC0" d="M-820.241,67.886c-8.263,0-16.526,0-24.79,0c-9.416,0-18.833,0-28.249,0
								c-0.798,0,0.234,0.013,0.479,0.013c1.454,0,2.908,0,4.362,0c5.335,0,10.672,0,16.008,0c10.297,0,20.595,0,30.894,0
								c0.315,0,0.628,0,0.943,0c0.104,0,0.477-0.061,0.238,0.003c-0.535,0.145-0.308,0.974,0.228,0.829
								c0.998-0.27,0.922-1.69-0.17-1.69c-0.293,0-0.586,0-0.881,0c-1.497,0-2.996,0-4.494,0c-5.38,0-10.762,0-16.143,0
								c-10.216,0-20.43,0-30.645,0c-0.348,0-0.693,0-1.042,0c-0.638,0-1.398,0.771-0.797,1.37c0.549,0.55,1.667,0.336,2.376,0.336
								c4.33,0,8.66,0,12.99,0c11.397,0,22.795,0,34.193,0c1.499,0,3,0,4.5,0C-819.687,68.745-819.687,67.886-820.241,67.886z"/>
						</g>
					</g>
				</g>
			</g>
		</g>
		<g>
			<g>
				<g>
					<g>
						<path fill="#BCBEC0" d="M-817.535,72.005h-58.801c-0.233,0-0.423-0.189-0.423-0.423s0.19-0.424,0.423-0.424h58.801
							c0.234,0,0.423,0.19,0.423,0.424S-817.301,72.005-817.535,72.005z"/>
					</g>
				</g>
				<g>
					<g>
						<g>
							<path fill="#BCBEC0" d="M-817.535,71.576c-7.812,0-15.625,0-23.436,0c-10.798,0-21.596,0-32.394,0c-0.945,0-1.891,0-2.834,0
								c-0.157,0-0.157,0.013,0,0.013c0.328,0,0.658,0,0.987,0c3.811,0,7.623,0,11.434,0c11.899,0,23.8,0,35.701,0
								c2.523,0,5.048,0,7.573,0c0.722,0,1.443,0,2.165,0c0.201,0,0.399,0,0.6,0c0.101,0,0.301-0.054,0.091,0.003
								c-0.534,0.146-0.308,0.973,0.229,0.828c0.991-0.268,0.926-1.691-0.166-1.691c-0.267,0-0.535,0-0.802,0
								c-1.379,0-2.759,0-4.137,0c-5.102,0-10.204,0-15.306,0c-11.281,0-22.562,0-33.845,0c-1.316,0-2.634,0-3.952,0
								c-0.229,0-0.458,0-0.687,0c-1.108,0-1.127,1.707-0.018,1.707c2.434,0,4.868,0,7.301,0c11.704,0,23.408,0,35.112,0
								c5.462,0,10.924,0,16.384,0C-816.982,72.436-816.982,71.576-817.535,71.576z"/>
						</g>
					</g>
				</g>
			</g>
		</g>
	</g>
	<g>
		<g>
			<g>
				<g>
					<g>
						<g>
							<path fill="#BCBEC0" d="M-1056.25,69.611c-0.073,0-0.147-0.003-0.222-0.007c-0.808-0.063-1.531-0.377-2.148-0.933
								c-0.643-0.576-0.967-1.323-0.967-2.216c0-0.905,0.332-1.63,0.986-2.153l18.264-17.126c0.611-0.489,1.262-0.846,1.964-1.08
								l8.055-1.894l1.204-11.746l-18.95,5.529c-0.162,0.042-0.334,0-0.452-0.118c-1.752-1.776-20.705-20.061-20.896-20.245
								c-0.129-0.123-0.172-0.31-0.113-0.478c0.057-0.168,0.209-0.287,0.386-0.303c11.721-1.084,24.868-1.635,39.075-1.635
								c19.413,0,33.991,0.551,43.333,1.636c1.216,0.175,1.593,0.777,1.699,1.252c0.111,0.503-0.015,1.215-1.246,1.741
								l-27.542,8.058l6.5,22.2c1.413,0.518,1.719,1.533,1.719,2.316c0,0.667-0.263,1.271-0.785,1.792
								c-0.524,0.521-1.127,0.783-1.793,0.783l-8.991-0.16c-0.766,0-1.424-0.265-1.947-0.788l-2.441-2.595l-2.189,0.517
								c-0.05,0.036-0.106,0.063-0.169,0.076l-16.703,3.892l-13.631,12.819C-1054.818,69.316-1055.495,69.611-1056.25,69.611z
								 M-1028.591,31.375c0.105,0,0.208,0.036,0.292,0.106c0.116,0.095,0.177,0.244,0.162,0.395l-1.306,12.74
								c-0.021,0.192-0.159,0.352-0.349,0.396l-8.33,1.958c-0.56,0.189-1.117,0.495-1.617,0.895l-18.265,17.125
								c-0.46,0.369-0.672,0.842-0.672,1.466c0,0.634,0.218,1.136,0.665,1.54c0.472,0.424,0.999,0.654,1.61,0.701
								c0.561,0.04,1.069-0.151,1.519-0.603l13.729-12.914c0.059-0.056,0.13-0.093,0.209-0.111l16.492-3.844
								c0.048-0.034,0.104-0.061,0.166-0.076l2.777-0.651c0.157-0.041,0.323,0.014,0.436,0.13l2.611,2.776
								c0.341,0.34,0.771,0.51,1.302,0.51l8.99,0.163c0.416,0,0.792-0.17,1.143-0.521c0.348-0.348,0.519-0.724,0.519-1.146
								c0-0.485-0.137-1.171-1.308-1.524c-0.147-0.043-0.263-0.16-0.306-0.308l-6.697-22.865c-0.034-0.115-0.02-0.24,0.037-0.346
								c0.058-0.106,0.156-0.185,0.271-0.218l27.928-8.167c0.477-0.206,0.716-0.445,0.663-0.688
								c-0.023-0.104-0.094-0.426-0.926-0.546c-9.294-1.08-23.84-1.63-43.217-1.63c-13.78,0-26.56,0.52-38.002,1.542
								c3.381,3.263,17.67,17.054,20.005,19.376l19.339-5.641C-1028.677,31.381-1028.634,31.375-1028.591,31.375z M-1009.81,50.904
								h-6.533c-0.13,0-0.255-0.059-0.342-0.156l-4.736-5.39c-0.01-0.008-0.017-0.017-0.023-0.022
								c-0.117-0.022-0.245-0.073-0.31-0.149c-0.98-1.175-2.154-1.551-3.617-1.157l-2.478,0.496
								c-0.142,0.03-0.289-0.013-0.396-0.109c-0.106-0.097-0.162-0.238-0.146-0.383l1.307-12.902
								c0.018-0.185,0.149-0.34,0.328-0.392l10.288-2.939c0.24-0.066,0.491,0.07,0.562,0.309l6.532,22.212
								c0.041,0.137,0.015,0.285-0.072,0.4C-1009.531,50.835-1009.667,50.904-1009.81,50.904z M-1016.137,49.994h5.72l-6.234-21.195
								l-9.558,2.731l-1.213,11.983l1.846-0.37c0.417-0.112,0.852-0.173,1.263-0.173c1.208,0,2.265,0.505,3.146,1.504
								c0.185,0.053,0.312,0.164,0.41,0.263L-1016.137,49.994z"/>
						</g>
					</g>
					<g>
						<g>
							<g>
								<path fill="#BCBEC0" d="M-1056.25,69.499c-1.234-0.043-2.361-0.673-2.951-1.773c-0.597-1.116-0.245-2.547,0.68-3.342
									c0.176-0.152,0.34-0.317,0.508-0.477c1.137-1.065,2.273-2.132,3.411-3.196c3.446-3.232,6.892-6.463,10.338-9.694
									c1.015-0.95,2.028-1.901,3.042-2.854c0.893-0.837,1.666-1.524,2.88-1.957c1.249-0.445,2.664-0.628,3.955-0.931
									c1.367-0.321,2.732-0.643,4.099-0.964c0.053-0.013,0.079-0.059,0.082-0.108c0.402-3.915,0.803-7.829,1.205-11.745
									c0.008-0.073-0.076-0.128-0.143-0.108c-3.205,0.935-6.413,1.87-9.618,2.805c-2.177,0.635-4.353,1.271-6.531,1.906
									c-0.697,0.204-1.395,0.408-2.092,0.611c-0.334,0.096-0.813,0.354-1.117,0.05c-5.933-5.968-12.08-11.734-18.135-17.579
									c-0.859-0.829-1.717-1.656-2.575-2.485c-0.325-0.314,0.18-0.713,0.569-0.748c1.08-0.1,2.161-0.191,3.242-0.278
									c2.141-0.175,4.283-0.327,6.427-0.462c9.33-0.589,18.676-0.832,28.021-0.85c8.741-0.017,17.489,0.081,26.224,0.407
									c3.387,0.126,6.774,0.293,10.157,0.525c1.442,0.099,2.882,0.212,4.32,0.342c0.632,0.058,1.262,0.118,1.893,0.184
									c0.797,0.082,1.681,0.089,2.425,0.404c1.41,0.598,0.757,2.216-0.45,2.569c-0.33,0.098-0.658,0.193-0.989,0.29
									c-1.544,0.451-3.086,0.903-4.629,1.354c-4.583,1.341-9.167,2.682-13.749,4.023c-2.699,0.79-5.398,1.578-8.096,2.369
									c-0.059,0.018-0.096,0.079-0.079,0.138c2.056,7.018,4.109,14.034,6.164,21.05c0.106,0.364,0.213,0.727,0.319,1.092
									c0.065,0.221,0.272,0.207,0.5,0.316c0.944,0.455,1.332,1.44,1.197,2.435c-0.371,2.73-4.155,2.027-6.032,1.993
									c-1.796-0.033-3.591-0.064-5.386-0.098c-1.397-0.024-2.125-1.022-2.99-1.942c-0.359-0.384-0.721-0.768-1.081-1.149
									c-0.112-0.12-0.215-0.317-0.396-0.273c-3.166,0.744-6.329,1.519-9.5,2.258c-2.266,0.526-4.53,1.054-6.795,1.583
									c-0.718,0.166-1.435,0.333-2.153,0.501c-0.172,0.04-0.496,0.048-0.634,0.178c-2.446,2.301-4.893,4.602-7.339,6.903
									c-1.537,1.444-3.073,2.891-4.61,4.335C-1053.675,68.051-1054.781,69.442-1056.25,69.499c-0.145,0.006-0.146,0.231,0,0.225
									c1.487-0.058,2.448-1.241,3.458-2.192c1.559-1.468,3.119-2.934,4.678-4.401c2.525-2.374,5.05-4.748,7.574-7.122
									c-0.078,0.072,0.115-0.012,0.185-0.027c0.241-0.057,0.482-0.112,0.722-0.168c0.819-0.191,1.639-0.382,2.458-0.572
									c2.319-0.542,4.64-1.08,6.958-1.622c1.86-0.434,3.72-0.866,5.581-1.3c0.324-0.075,0.645-0.189,0.965-0.263
									c0.466-0.111,0.934-0.221,1.4-0.33c0.213-0.051,0.428-0.102,0.642-0.15c0.119-0.029-0.047-0.094,0.12,0.083
									c1.25,1.329,2.457,3.245,4.453,3.28c2,0.037,3.999,0.072,5.998,0.108c0.875,0.018,1.752,0.031,2.627,0.048
									c1.096,0.02,1.963-0.467,2.578-1.385c0.713-1.067,0.36-2.523-0.6-3.285c-0.145-0.116-0.737-0.289-0.775-0.42
									c-0.039-0.136-0.079-0.271-0.119-0.407c-2.104-7.188-4.21-14.373-6.314-21.562c-0.073-0.252-0.223-0.005,0.062-0.089
									c0.399-0.117,0.798-0.234,1.197-0.351c1.639-0.48,3.277-0.958,4.916-1.439c4.599-1.345,9.199-2.691,13.798-4.035
									c1.795-0.526,3.592-1.051,5.387-1.577c0.762-0.223,1.589-0.383,2.312-0.719c0.936-0.435,1.426-1.416,0.812-2.32
									c-0.652-0.963-2.315-0.864-3.336-0.969c-2.894-0.297-5.797-0.507-8.701-0.679c-7.793-0.462-15.604-0.633-23.41-0.716
									c-9.558-0.101-19.119-0.056-28.672,0.313c-4.44,0.174-8.876,0.416-13.309,0.735c-2.097,0.154-4.192,0.325-6.286,0.517
									c-0.622,0.058-1.049,0.561-0.516,1.077c2.407,2.32,4.812,4.644,7.217,6.967c3.533,3.412,7.065,6.825,10.587,10.249
									c0.966,0.939,1.938,1.874,2.892,2.828c0.6,0.599,1.823-0.069,2.504-0.266c4.32-1.261,8.639-2.521,12.957-3.781
									c1.343-0.392,2.685-0.782,4.027-1.174c0.253-0.074-0.017-0.009-0.004-0.128c-0.02,0.186-0.039,0.372-0.058,0.558
									c-0.09,0.881-0.18,1.762-0.271,2.642c-0.235,2.292-0.47,4.586-0.706,6.879c-0.056,0.54-0.111,1.082-0.167,1.622
									c-0.005,0.046,0.148-0.102,0.026-0.073c-0.089,0.021-0.179,0.041-0.268,0.063c-0.396,0.092-0.795,0.186-1.19,0.278
									c-2.073,0.487-4.146,0.978-6.22,1.464c-1.208,0.284-2.133,0.997-3.01,1.819c-5.729,5.375-11.462,10.747-17.193,16.122
									c-0.548,0.514-1.06,0.981-1.301,1.729c-0.707,2.186,1.263,4.068,3.333,4.142
									C-1056.104,69.73-1056.105,69.505-1056.25,69.499z"/>
							</g>
						</g>
						<g>
							<g>
								<path fill="#BCBEC0" d="M-1028.621,31.483c0.623,0.109,0.275,1.317,0.241,1.661c-0.105,1.016-0.209,2.031-0.314,3.045
									c-0.234,2.289-0.468,4.576-0.703,6.865c-0.052,0.513-0.105,1.026-0.159,1.541c-0.047,0.477-1.436,0.582-1.736,0.654
									c-2.116,0.498-4.232,0.995-6.348,1.492c-1.125,0.264-1.988,0.864-2.812,1.636c-1.188,1.113-2.376,2.227-3.563,3.341
									c-3.444,3.229-6.889,6.459-10.333,9.689c-1.102,1.033-2.204,2.066-3.304,3.098c-0.244,0.23-0.508,0.455-0.731,0.702
									c-1.046,1.164-0.096,2.809,1.068,3.376c1.558,0.762,2.612-0.503,3.623-1.453c1.503-1.415,3.005-2.829,4.508-4.241
									c2.691-2.531,5.38-5.062,8.072-7.59c0.199-0.188,0.578-0.21,0.831-0.27c0.742-0.173,1.483-0.345,2.224-0.519
									c2.28-0.53,4.561-1.062,6.84-1.594c3.179-0.741,6.348-1.515,9.521-2.261c0.753-0.177,1.553,1.12,2.001,1.598
									c0.606,0.646,1.182,1.489,2.077,1.727c0.551,0.146,1.248,0.061,1.81,0.07c1.148,0.02,2.296,0.041,3.445,0.062
									c1.087,0.02,2.174,0.038,3.261,0.059c0.718,0.012,1.333,0.088,1.957-0.358c0.83-0.593,1.091-2.018,0.159-2.654
									c-0.273-0.188-0.95-0.357-1.047-0.687c-0.042-0.142-0.083-0.282-0.124-0.424c-1.09-3.717-2.177-7.433-3.265-11.149
									c-1.06-3.616-2.118-7.231-3.178-10.848c-0.248-0.847,0.47-0.896,1.119-1.087c1.507-0.44,3.017-0.882,4.524-1.323
									c7.449-2.178,14.898-4.356,22.346-6.535c0.392-0.114,1.094-0.58,0.709-1.059c-0.322-0.397-0.906-0.412-1.375-0.466
									c-0.657-0.074-1.315-0.143-1.973-0.207c-2.955-0.291-5.92-0.494-8.886-0.661c-7.937-0.445-15.888-0.606-23.835-0.677
									c-15.377-0.14-30.766,0.143-46.09,1.507c-0.092,0.007-0.154,0.118-0.08,0.191c6.679,6.445,13.423,12.834,20.004,19.377
									c0.029,0.029,0.072,0.04,0.11,0.03c6.446-1.88,12.89-3.76,19.333-5.64c0.046-0.012,0.046-0.007,0.134-0.02
									c0.144-0.021,0.082-0.238-0.059-0.217c-1.002,0.142-2.021,0.571-2.99,0.853c-2.173,0.634-4.347,1.268-6.521,1.902
									c-3.315,0.966-6.629,1.933-9.945,2.9c0.092-0.026-0.233-0.293-0.343-0.401c-0.27-0.266-0.541-0.531-0.813-0.796
									c-0.732-0.716-1.466-1.429-2.201-2.144c-1.985-1.927-3.973-3.851-5.961-5.775c-3.511-3.395-7.024-6.789-10.538-10.178
									c-0.018-0.016-0.036-0.033-0.052-0.049c-0.025,0.063-0.053,0.127-0.08,0.192c18.224-1.623,36.555-1.76,54.834-1.379
									c7.067,0.147,14.14,0.394,21.187,0.962c1.341,0.108,2.684,0.231,4.021,0.374c0.495,0.054,2.901,0.242,1.603,1.051
									c-0.123,0.076-0.224,0.104-0.354,0.143c-1.065,0.311-2.132,0.624-3.199,0.935c-7.947,2.325-15.895,4.648-23.841,6.972
									c-0.583,0.171-1.298,0.283-1.064,1.082c0.356,1.217,0.713,2.434,1.069,3.65c1.314,4.486,2.626,8.972,3.941,13.456
									c0.466,1.597,0.933,3.189,1.4,4.782c0.079,0.269,0.157,0.538,0.236,0.806c0.147,0.501,0.882,0.539,1.236,0.842
									c0.982,0.838-0.039,2.539-1.176,2.519c-1.795-0.031-3.591-0.063-5.385-0.097c-1.006-0.019-2.012-0.036-3.018-0.055
									c-0.792-0.015-1.449-0.108-2.029-0.725c-0.723-0.768-1.444-1.537-2.168-2.303c-0.527-0.561-0.965-0.35-1.663-0.186
									c-1.171,0.274-2.321,0.582-3.493,0.855c-4.28,0.998-8.561,1.994-12.841,2.992c-0.629,0.146-1.259,0.294-1.888,0.439
									c-0.244,0.058-0.457,0.104-0.647,0.283c-1.004,0.946-2.009,1.89-3.013,2.834c-3.22,3.027-6.439,6.055-9.659,9.083
									c-0.315,0.296-0.632,0.594-0.946,0.889c-1.787,1.682-4.911-0.819-3.167-2.761c0.596-0.661,1.331-1.238,1.979-1.847
									c3.283-3.079,6.567-6.158,9.851-9.236c2.199-2.061,4.396-4.122,6.593-6.183c0.708-0.662,1.611-0.877,2.513-1.089
									c1.075-0.254,2.149-0.505,3.223-0.758s2.148-0.504,3.222-0.758c0.509-0.12,1.186-0.125,1.37-0.697
									c0.205-0.636,0.153-1.474,0.22-2.134c0.167-1.619,0.333-3.24,0.499-4.861c0.151-1.47,0.302-2.941,0.453-4.411
									c0.059-0.574,0.446-1.825-0.396-1.973C-1028.704,31.242-1028.764,31.46-1028.621,31.483z"/>
							</g>
						</g>
						<g>
							<g>
								<path fill="#BCBEC0" d="M-1009.81,50.791c-1.855,0-3.712,0-5.567,0c-0.625,0-1.045,0.087-1.477-0.403
									c-0.673-0.767-1.347-1.534-2.02-2.301c-0.705-0.802-1.41-1.604-2.116-2.407c-0.116-0.135-0.234-0.268-0.352-0.4
									c-0.213-0.243-0.563-0.436-0.812-0.668c-0.263-0.245-0.586-0.462-0.919-0.593c-1.146-0.455-2.274-0.11-3.426,0.122
									c-0.537,0.107-1.853,0.609-1.754-0.368c0.401-3.965,0.803-7.93,1.206-11.895c0.038-0.388-0.027-0.93,0.446-1.066
									c0.694-0.199,1.389-0.396,2.083-0.595c2.219-0.635,4.437-1.268,6.656-1.903c0.241-0.07,1.689-0.708,1.845-0.174
									c0.076,0.257,0.152,0.515,0.228,0.773c0.472,1.605,0.944,3.209,1.416,4.814c1.311,4.455,2.621,8.91,3.931,13.366
									c0.233,0.788,0.464,1.576,0.696,2.364c0.095,0.323,0.545,1.187-0.095,1.337c-0.142,0.033-0.082,0.25,0.059,0.218
									c1.011-0.24,0.181-1.856-0.001-2.475c-0.556-1.895-1.114-3.787-1.67-5.682c-1.26-4.286-2.521-8.571-3.782-12.857
									c-0.108-0.369-0.399-2.374-1.055-2.326c-0.484,0.038-0.965,0.234-1.431,0.367c-1.043,0.299-2.088,0.598-3.133,0.895
									c-1.909,0.545-3.817,1.092-5.729,1.637c-0.375,0.107-0.588,0.294-0.63,0.7c-0.065,0.644-0.129,1.288-0.195,1.932
									c-0.236,2.329-0.472,4.66-0.707,6.99c-0.096,0.951-0.192,1.905-0.29,2.856c-0.025,0.261-0.231,0.994-0.055,1.249
									c0.472,0.692,1.775,0.108,2.433-0.025c0.51-0.101,1.023-0.236,1.542-0.276c0.525-0.044,1.036,0.087,1.505,0.312
									c0.489,0.234,0.752,0.68,1.168,0.975c0.531,0.378,0.919,0.85,1.367,1.355c0.787,0.897,1.575,1.794,2.362,2.69
									c0.438,0.499,0.875,0.997,1.315,1.495c0.313,0.358,1.214,0.191,1.616,0.191c1.78,0,3.561,0,5.341,0
									C-1009.665,51.017-1009.665,50.791-1009.81,50.791z"/>
							</g>
						</g>
						<g>
							<g>
								<path fill="#BCBEC0" d="M-1016.137,50.105c1.906,0,3.812,0,5.72,0c0.073,0,0.129-0.072,0.109-0.143
									c-2.026-6.885-4.05-13.771-6.076-20.656c-0.053-0.18-0.105-0.359-0.158-0.538c-0.018-0.059-0.079-0.095-0.139-0.079
									c-3.186,0.909-6.372,1.819-9.559,2.73c-0.051,0.015-0.077,0.058-0.082,0.11c-0.404,3.994-0.809,7.989-1.213,11.983
									c-0.008,0.076,0.078,0.121,0.143,0.107c1.345-0.268,2.779-0.737,4.137-0.394c0.559,0.143,1.054,0.457,1.495,0.817
									c0.187,0.151,0.353,0.332,0.515,0.508c0.122,0.134,0.27,0.105,0.414,0.268c0.18,0.206,0.362,0.412,0.542,0.616
									c1.358,1.547,2.716,3.091,4.075,4.637c0.096,0.11,0.254-0.051,0.159-0.16c-1.234-1.404-2.47-2.809-3.705-4.213
									c-0.25-0.284-0.499-0.568-0.748-0.853c-0.274-0.312-0.622-0.513-0.917-0.805c-1.183-1.17-2.687-1.308-4.238-0.998
									c-0.49,0.099-0.98,0.197-1.473,0.295c-0.085,0.019-0.172,0.035-0.259,0.054c-0.129,0.024,0.089,0.083,0.087,0.109
									c0.006-0.06,0.012-0.118,0.018-0.179c0.072-0.707,0.143-1.411,0.215-2.117c0.235-2.333,0.473-4.667,0.708-7
									c0.079-0.781,0.158-1.564,0.237-2.346c0.009-0.083,0.017-0.163,0.025-0.246c0.016-0.15,0.021-0.004-0.072,0.023
									c0.17-0.049,0.338-0.097,0.507-0.146c2.075-0.593,4.149-1.185,6.224-1.779c0.834-0.239,1.668-0.477,2.502-0.715
									c0.084-0.023,0.168-0.047,0.252-0.071c0.144-0.042-0.036,0.017-0.068-0.093c0.027,0.091,0.054,0.182,0.081,0.274
									c0.406,1.381,0.812,2.762,1.219,4.142c1.312,4.46,2.624,8.92,3.935,13.38c0.329,1.115,0.658,2.23,0.985,3.347
									c0.036,0.126-0.035-0.097,0.116-0.097c-0.074,0-0.149,0-0.224,0c-0.447,0-0.894,0-1.341,0c-1.139,0-2.278,0-3.415,0
									c-0.246,0-0.489,0-0.734,0C-1016.282,49.881-1016.282,50.105-1016.137,50.105z"/>
							</g>
						</g>
					</g>
				</g>
			</g>
		</g>
		<g>
			<g>
				<g>
					<g>
						<path fill="#BCBEC0" d="M-1019.474,44.376L-1019.474,44.376c-0.504,0-1.015-0.093-1.516-0.277
							c-1.138-0.42-2.017-1.206-2.614-2.338c-0.604-1.149-0.694-2.319-0.27-3.474c0.421-1.144,1.214-2,2.355-2.541
							c1.139-0.539,2.335-0.6,3.53-0.179c1.199,0.418,2.082,1.181,2.624,2.266c0.545,1.089,0.609,2.25,0.187,3.456
							c-0.42,1.203-1.213,2.087-2.358,2.63C-1018.174,44.222-1018.827,44.376-1019.474,44.376z M-1019.553,36.2
							c-0.528,0-1.059,0.124-1.577,0.369c-0.93,0.442-1.549,1.106-1.891,2.034c-0.337,0.917-0.265,1.811,0.221,2.733
							c0.495,0.941,1.19,1.565,2.122,1.909c0.4,0.147,0.805,0.222,1.202,0.222l0,0c0.51,0,1.032-0.125,1.549-0.37
							c0.928-0.439,1.547-1.13,1.889-2.106c0.341-0.978,0.296-1.877-0.141-2.75c-0.438-0.878-1.128-1.472-2.111-1.814
							C-1018.715,36.276-1019.14,36.2-1019.553,36.2z"/>
					</g>
				</g>
				<g>
					<g>
						<g>
							<path fill="#BCBEC0" d="M-1019.474,44.262c-2.431-0.073-4.437-2.045-4.549-4.484c-0.112-2.467,2.194-4.324,4.504-4.375
								c2.426-0.054,4.448,1.987,4.505,4.363C-1014.955,42.237-1017.092,44.192-1019.474,44.262c-0.145,0.006-0.146,0.229,0,0.227
								c2.619-0.077,4.592-2.127,4.684-4.723c0.092-2.605-2.298-4.501-4.731-4.587c-2.552-0.091-4.683,2.117-4.728,4.6
								c-0.043,2.559,2.34,4.636,4.774,4.71C-1019.329,44.492-1019.33,44.268-1019.474,44.262z"/>
						</g>
					</g>
					<g>
						<g>
							<path fill="#BCBEC0" d="M-1019.553,36.087c-2.069,0.081-3.78,1.64-3.785,3.755c-0.004,2.04,1.943,3.663,3.863,3.736
								c2.147,0.08,3.724-1.873,3.777-3.878C-1015.643,37.606-1017.631,36.157-1019.553,36.087c-0.145-0.005-0.145,0.221,0,0.227
								c1.919,0.069,3.528,1.412,3.629,3.387c0.104,2.003-1.646,3.577-3.551,3.654c-1.909,0.076-3.492-1.714-3.637-3.512
								c-0.161-1.986,1.742-3.458,3.56-3.528C-1019.408,36.308-1019.408,36.082-1019.553,36.087z"/>
						</g>
					</g>
				</g>
			</g>
		</g>
	</g>
	<g>
		<g>
			<g>
				<g>
					<path fill="#BCBEC0" d="M-1144.892,31.813h-0.167c-1.214,0-2.202-0.988-2.202-2.204v-9.183c0-1.21,0.988-2.194,2.202-2.194
						c1.382,0,2.371,0.988,2.371,2.202v9.175C-1142.689,30.826-1143.677,31.813-1144.892,31.813z M-1144.892,20.027
						c-0.396,0-0.575,0.175-0.575,0.4v9.183c0,0.23,0.179,0.408,0.408,0.408h0.167c0.229,0,0.406-0.178,0.406-0.408v-9.175
						C-1144.485,20.209-1144.667,20.027-1144.892,20.027z"/>
				</g>
			</g>
		</g>
		<g>
			<g>
				<g>
					<path fill="#BCBEC0" d="M-1224.386,31.813h-0.167c-1.214,0-2.202-0.988-2.202-2.204v-9.175c0-1.215,0.988-2.202,2.202-2.202
						c1.382,0,2.369,0.988,2.369,2.202v9.175C-1222.184,30.826-1223.172,31.813-1224.386,31.813z M-1224.386,20.027
						c-0.396,0-0.574,0.179-0.574,0.408v9.175c0,0.23,0.179,0.408,0.408,0.408h0.167c0.229,0,0.407-0.178,0.407-0.408v-9.175
						C-1223.979,20.206-1224.158,20.027-1224.386,20.027z"/>
				</g>
			</g>
		</g>
		<g>
			<g>
				<g>
					<path fill="#BCBEC0" d="M-1175.556,74.18h-17.014c-1.416,0-2.694-0.837-3.256-2.132l-8.982-20.5h-11.354
						c-1.91,0-3.658-0.959-4.677-2.569c-1.025-1.604-1.156-3.594-0.35-5.325l7.543-16.158h-2.432v4.08
						c0,1.574-1.18,2.853-2.629,2.853c-1.445,0-2.622-1.278-2.622-2.853V18.47c0-1.572,1.177-2.854,2.622-2.854
						c1.449,0,2.629,1.28,2.629,2.854v4.076h4.898c1.564-2.073,4.383-2.808,6.762-1.697c0.833,0.387,1.546,0.968,2.088,1.697h7.619
						c0.497,0,0.897,0.4,0.897,0.896c0,0.496-0.401,0.898-0.897,0.898h-8.601l-0.262-0.433c-0.38-0.626-0.935-1.122-1.603-1.434
						c-1.712-0.795-3.765-0.18-4.77,1.44l-0.262,0.426h-7.666V18.47c0-0.583-0.374-1.059-0.833-1.059
						c-0.449,0-0.828,0.486-0.828,1.059v13.104c0,0.574,0.378,1.06,0.828,1.06c0.46,0,0.833-0.476,0.833-1.06V25.7h7.047
						l-8.736,18.712c-0.545,1.169-0.457,2.518,0.238,3.603c0.69,1.09,1.872,1.738,3.164,1.738h12.525l9.455,21.577
						c0.279,0.639,0.911,1.053,1.611,1.053h17.015c0.744,0,1.41-0.473,1.655-1.178l7.509-21.452h13.341
						c1.314,0,2.513-0.672,3.203-1.795c0.676-1.108,0.729-2.51,0.143-3.658l-9.471-18.6h7.591v5.875c0,0.574,0.378,1.06,0.827,1.06
						c0.46,0,0.835-0.474,0.835-1.06V18.47c0-0.583-0.375-1.059-0.835-1.059c-0.449,0-0.827,0.486-0.827,1.059v5.87h-8.275
						l-0.263-0.425c-1.037-1.679-3.135-2.272-4.878-1.385c-0.604,0.305-1.115,0.78-1.479,1.378l-0.261,0.431h-8.427
						c-0.496,0-0.897-0.401-0.897-0.896c0-0.496,0.401-0.898,0.897-0.898h7.445c0.51-0.684,1.161-1.239,1.911-1.614
						c2.424-1.239,5.314-0.536,6.926,1.614h5.507V18.47c0-1.572,1.176-2.854,2.622-2.854c1.449,0,2.628,1.28,2.628,2.854v13.104
						c0,1.573-1.179,2.854-2.628,2.854c-1.447,0-2.622-1.279-2.622-2.854v-4.081h-2.87l8.142,15.992
						c0.87,1.695,0.79,3.77-0.208,5.408c-1.021,1.663-2.79,2.653-4.734,2.653h-12.068l-7.087,20.248
						C-1172.703,73.222-1174.048,74.18-1175.556,74.18z M-1159.172,42.253h-51.094l6.898-14.787
						c0.135-0.292,0.226-0.608,0.284-0.996l0.115-0.765h8.205c0.495,0,0.897,0.402,0.897,0.898c0,0.496-0.403,0.897-0.897,0.897
						h-6.708c-0.072,0.254-0.162,0.495-0.268,0.723l-5.707,12.233h45.345l-6.149-12.062c-0.14-0.28-0.254-0.576-0.347-0.893h-6.782
						c-0.496,0-0.897-0.401-0.897-0.897c0-0.496,0.401-0.898,0.897-0.898h8.264l0.124,0.752c0.072,0.445,0.181,0.803,0.344,1.127
						L-1159.172,42.253z"/>
				</g>
			</g>
		</g>
		<g>
			<g>
				<path fill="#BCBEC0" d="M-1185.12,35.153c-5.783,0-10.489-4.704-10.489-10.487c0-5.782,4.706-10.487,10.489-10.487
					c5.782,0,10.486,4.704,10.486,10.487C-1174.634,30.448-1179.338,35.153-1185.12,35.153z M-1185.12,15.974
					c-4.794,0-8.693,3.901-8.693,8.692c0,4.793,3.899,8.692,8.693,8.692c4.792,0,8.691-3.899,8.691-8.692
					C-1176.428,19.875-1180.326,15.974-1185.12,15.974z"/>
			</g>
		</g>
	</g>
	<g>
		<g>
			<g>
				<g>
					<path fill="#BEBEBE" d="M-671.546,53.731c-0.065-0.061-0.13-0.117-0.196-0.177v-0.301c0-0.648,0.749-0.815,1.132-0.498
						c-4.946-4.415-9.891-8.829-14.837-13.246c-1.237-1.104-2.475-2.211-3.714-3.316c-0.354-0.316-0.707-0.632-1.059-0.946
						c-0.1-0.089-0.2-0.178-0.3-0.267c-0.22-0.194,0.029-0.008,0.01-0.167c-0.647-5.646-1.212-11.516-2.879-16.976
						c-0.359-1.176-1.373-4.358-3.22-3.255c-1.515,0.904-1.954,3.662-2.33,5.197c-1.19,4.906-1.786,9.985-2.298,15.002
						c-0.008,0.078-0.015,0.155-0.021,0.232c0.382-0.341-0.033,0.32-0.028,0.28c0.008-0.094,0.018-0.188,0.027-0.28
						c-0.728,0.649-1.454,1.3-2.182,1.951c-2.962,2.643-5.923,5.287-8.881,7.929c-2.618,2.338-5.237,4.676-7.855,7.012
						c-0.361,0.323-1.171,0.812-1.171,1.369v4.636c0,0.484,0.584,0.879,1.016,0.583c6.307-4.3,12.617-8.6,18.924-12.901
						c-0.02-0.411-0.042-0.822-0.062-1.233c0.339,0.194,0.679,0.389,1.015,0.583c-0.319,0.218-0.635,0.436-0.953,0.65
						c0.367,7.276,0.884,14.667,2.493,21.785c0.145-0.078,0.29-0.157,0.433-0.234c-0.103,0.255-0.208,0.509-0.311,0.764
						c-0.04-0.178-0.082-0.353-0.122-0.529c-1.756,0.949-3.509,1.896-5.264,2.846c-0.208,0.11-0.337,0.352-0.337,0.583v2.867
						c0,0.419,0.436,0.792,0.856,0.649c2.065-0.693,4.135-1.385,6.2-2.079c-0.09-0.229-0.173-0.453-0.256-0.667
						c0.279,0.159,0.554,0.315,0.832,0.473c-0.191,0.063-0.384,0.13-0.575,0.194c0.268,0.692,0.589,1.42,1.111,1.905
						c0.286,0.266,0.667,0.247,0.957,0c0.535-0.458,0.925-1,1.262-1.598c-0.173-0.053-0.342-0.104-0.515-0.155
						c0.256-0.104,0.51-0.208,0.765-0.312c-0.08,0.158-0.163,0.314-0.25,0.466c1.956,0.591,3.913,1.182,5.871,1.772
						c0.422,0.127,0.854-0.221,0.854-0.651v-2.974c0-0.218-0.123-0.488-0.334-0.583c-1.598-0.71-3.195-1.417-4.793-2.125
						c-0.045,0.188-0.092,0.375-0.137,0.563c-0.103-0.252-0.208-0.507-0.311-0.763c0.148,0.066,0.298,0.133,0.448,0.199
						c1.643-7.029,1.926-14.525,1.911-21.747c-0.341-0.213-0.68-0.427-1.021-0.643c0.337-0.193,0.677-0.389,1.016-0.584
						c0.001,0.408,0.005,0.818,0.005,1.227c6.405,4.024,12.81,8.048,19.215,12.072c0.437,0.276,1.018-0.083,1.018-0.583v-4.366
						C-670.501,53.801-671.097,54.131-671.546,53.731z M-720,53.274v0.287c-0.042,0.046-0.068,0.077-0.085,0.099
						C-720.054,53.606-720,53.473-720,53.274z M-720,57.91c-0.339-0.195-0.677-0.39-1.017-0.584
						c0.339-0.231,0.677-0.463,1.017-0.694V57.91z M-703.167,70.804v0.402c-0.11,0.06-0.223,0.12-0.334,0.181
						C-703.388,71.192-703.278,70.999-703.167,70.804z M-703.167,73.671c-0.285-0.218-0.57-0.435-0.855-0.652
						c0.285-0.094,0.57-0.19,0.855-0.286V73.671z M-696.349,73.192c0.201-0.175,0.379-0.359,0.539-0.557
						c0.12,0.214,0.258,0.408,0.417,0.557H-696.349z M-688.757,73.671v-0.909c0.284,0.085,0.57,0.171,0.854,0.257
						C-688.188,73.235-688.473,73.453-688.757,73.671z M-688.757,70.695c0.111,0.196,0.223,0.39,0.336,0.586
						c-0.111-0.051-0.226-0.1-0.336-0.147V70.695z M-671.743,57.73v-1.222c0.339,0.213,0.679,0.426,1.016,0.639
						C-671.064,57.341-671.403,57.537-671.743,57.73z"/>
				</g>
			</g>
			<g>
				<g>
					<path fill="#BEBEBE" d="M-720.084,53.66c0.03-0.054,0.085-0.188,0.085-0.386v0.287
						C-720.042,53.607-720.067,53.64-720.084,53.66z"/>
				</g>
			</g>
			<g>
				<g>
					<path fill="#BEBEBE" d="M-721.018,57.326c0.341-0.231,0.679-0.463,1.018-0.694v1.278
						C-720.339,57.715-720.677,57.521-721.018,57.326z"/>
				</g>
			</g>
			<g>
				<g>
					<path fill="#BEBEBE" d="M-703.501,71.388c0.113-0.195,0.225-0.389,0.334-0.584v0.402
						C-703.278,71.266-703.389,71.326-703.501,71.388z"/>
				</g>
			</g>
			<g>
				<g>
					<path fill="#BEBEBE" d="M-704.021,73.018c0.285-0.095,0.57-0.189,0.855-0.287v0.94
						C-703.451,73.453-703.737,73.235-704.021,73.018z"/>
				</g>
			</g>
			<g>
				<g>
					<path fill="#BEBEBE" d="M-701.287,35.293c0.006-0.094,0.018-0.188,0.027-0.28l0,0
						C-700.878,34.672-701.292,35.334-701.287,35.293z"/>
				</g>
			</g>
			<g>
				<g>
					<path fill="#BEBEBE" d="M-701.472,44.357c0.339,0.195,0.679,0.389,1.017,0.584c-0.319,0.217-0.636,0.435-0.955,0.65
						C-701.432,45.181-701.45,44.77-701.472,44.357z"/>
				</g>
			</g>
			<g>
				<g>
					<path fill="#BEBEBE" d="M-698.917,67.376c0.145-0.078,0.29-0.156,0.433-0.235c-0.103,0.256-0.208,0.51-0.311,0.764
						C-698.835,67.728-698.875,67.552-698.917,67.376z"/>
				</g>
			</g>
			<g>
				<g>
					<path fill="#BEBEBE" d="M-697.716,71.576c0.277,0.158,0.554,0.314,0.831,0.472c-0.192,0.064-0.384,0.13-0.577,0.194
						C-697.552,72.013-697.635,71.789-697.716,71.576z"/>
				</g>
			</g>
			<g>
				<g>
					<path fill="#BEBEBE" d="M-695.812,72.636c0.122,0.214,0.259,0.408,0.419,0.557h-0.956
						C-696.148,73.018-695.97,72.833-695.812,72.636z"/>
				</g>
			</g>
			<g>
				<g>
					<path fill="#BEBEBE" d="M-694.646,72.396c0.256-0.105,0.511-0.208,0.765-0.312c-0.08,0.158-0.163,0.314-0.249,0.466
						C-694.303,72.498-694.475,72.447-694.646,72.396z"/>
				</g>
			</g>
			<g>
				<g>
					<path fill="#BEBEBE" d="M-692.981,67.79c0.148,0.066,0.298,0.133,0.446,0.198c-0.045,0.189-0.092,0.376-0.136,0.563
						C-692.773,68.299-692.876,68.045-692.981,67.79z"/>
				</g>
			</g>
			<g>
				<g>
					<path fill="#BEBEBE" d="M-690.628,45.015c0.001,0.407,0.005,0.817,0.005,1.228c-0.341-0.215-0.682-0.43-1.023-0.644
						C-691.307,45.404-690.967,45.21-690.628,45.015z"/>
				</g>
			</g>
			<g>
				<g>
					<path fill="#BEBEBE" d="M-688.421,71.28c-0.111-0.051-0.225-0.099-0.336-0.147v-0.438
						C-688.646,70.892-688.534,71.085-688.421,71.28z"/>
				</g>
			</g>
			<g>
				<g>
					<path fill="#BEBEBE" d="M-688.757,72.76c0.284,0.086,0.57,0.173,0.854,0.258c-0.286,0.218-0.57,0.435-0.854,0.651V72.76z"/>
				</g>
			</g>
			<g>
				<g>
					<path fill="#BEBEBE" d="M-671.743,56.509c0.339,0.213,0.679,0.426,1.016,0.639c-0.337,0.193-0.677,0.39-1.016,0.583V56.509z"/>
				</g>
			</g>
			<g>
				<g>
					<path fill="#BEBEBE" d="M-670.391,53.363c-0.111,0.438-0.707,0.768-1.156,0.368c-0.065-0.06-0.13-0.117-0.196-0.177v-0.301
						c0-0.648,0.749-0.814,1.132-0.498c0.002,0.004,0.005,0.006,0.009,0.008c0.005,0.005,0.01,0.008,0.013,0.013
						c0.015,0.013,0.029,0.027,0.041,0.04C-670.382,52.986-670.344,53.185-670.391,53.363z"/>
				</g>
			</g>
		</g>
		<g>
			<g>
				<path fill="#FFFFFF" d="M-697.928,23.006c0,0,2.011-6.663,3.854,0C-694.074,23.006-696.001,20.86-697.928,23.006z"/>
			</g>
		</g>
		<g>
			<g>
				<g>
					<line fill="none" x1="-707.968" y1="52.55" x2="-707.968" y2="58.772"/>
				</g>
			</g>
			<g>
				<g>
					<g>
						<path fill="#BEBEBE" d="M-708.437,52.55c0,2.074,0,4.149,0,6.223c0,0.604,0.938,0.604,0.938,0c0-2.073,0-4.148,0-6.223
							C-707.5,51.945-708.437,51.945-708.437,52.55L-708.437,52.55z"/>
					</g>
				</g>
			</g>
		</g>
		<g>
			<g>
				<g>
					<line fill="none" x1="-712.031" y1="54.483" x2="-712.031" y2="61.897"/>
				</g>
			</g>
			<g>
				<g>
					<g>
						<path fill="#BEBEBE" d="M-712.5,54.483c0,2.471,0,4.943,0,7.414c0,0.605,0.938,0.605,0.938,0c0-2.472,0-4.943,0-7.414
							C-711.562,53.877-712.5,53.877-712.5,54.483L-712.5,54.483z"/>
					</g>
				</g>
			</g>
		</g>
		<g>
			<g>
				<g>
					<line fill="none" x1="-685.307" y1="53.517" x2="-685.307" y2="59.739"/>
				</g>
			</g>
			<g>
				<g>
					<g>
						<path fill="#BEBEBE" d="M-685.778,53.517c0,2.074,0,4.148,0,6.223c0,0.605,0.938,0.605,0.938,0c0-2.074,0-4.148,0-6.223
							C-684.84,52.911-685.778,52.911-685.778,53.517L-685.778,53.517z"/>
					</g>
				</g>
			</g>
		</g>
		<g>
			<g>
				<g>
					<line fill="none" x1="-681.246" y1="55.448" x2="-681.246" y2="62.864"/>
				</g>
			</g>
			<g>
				<g>
					<g>
						<path fill="#BEBEBE" d="M-681.713,55.448c0,2.473,0,4.944,0,7.416c0,0.604,0.936,0.604,0.936,0c0-2.473,0-4.943,0-7.416
							C-680.777,54.844-681.713,54.844-681.713,55.448L-681.713,55.448z"/>
					</g>
				</g>
			</g>
		</g>
	</g>
	<g>
		<g>
			<g>
				<g>
					<path fill="#BCBEC0" d="M-437.173,35.317c-0.037,2.218-1.801,3.982-4.019,4.019c-2.22,0.037-3.984-1.856-4.021-4.019
						c-0.036-2.219,1.856-3.984,4.021-4.02C-438.974,31.261-437.208,33.154-437.173,35.317c0.007,0.401,0.631,0.402,0.623,0
						c-0.037-2.295-1.7-4.253-3.982-4.594c-2.268-0.34-4.413,1.098-5.105,3.248c-0.706,2.194,0.462,4.602,2.507,5.566
						c2.086,0.981,4.557,0.184,5.828-1.683c0.506-0.743,0.739-1.647,0.755-2.537C-436.544,34.916-437.167,34.916-437.173,35.317z"/>
				</g>
			</g>
		</g>
		<g>
			<g>
				<g>
					<path fill="#BCBEC0" d="M-430.177,36.979c0-2.331,0-4.663,0-6.994c0-1.553,0-3.103,0-4.655c0-0.736,0.156-1.713-0.122-2.418
						c-0.346-0.879-1.196-0.962-2.008-0.962c-0.839,0-1.599-0.015-2.116,0.772c-0.403,0.611-0.213,1.78-0.213,2.462
						c0,3.145,0,6.288,0,9.431c0,0.668,0,1.335,0,2.004c0,0.116,0,0.233,0,0.349c0-0.082,0.055-0.158-0.016-0.02
						c-0.072,0.139-0.15,0.277-0.228,0.414c-0.834,1.506-1.706,2.992-2.573,4.48c0.092-0.05,0.183-0.102,0.271-0.154
						c-1.253,0.009-2.508,0.02-3.76,0.033c-0.872,0.01-1.746,0.021-2.62,0.04c-0.403,0.01-0.956-0.069-1.347,0.066
						c0.103,0.025,0.203,0.052,0.306,0.08c-1.173-1.251-2.346-2.5-3.519-3.751c0.025,0.101,0.053,0.202,0.08,0.304
						c0.334-1.17,0.668-2.34,1.003-3.511c0.234-0.821,0.034-1.694-0.826-2.058c-0.628-0.265-1.348-0.709-2.05-0.632
						c-0.7,0.08-1.141,0.613-1.32,1.249c-0.19,0.663-0.379,1.324-0.568,1.986c-0.219,0.767-0.438,1.533-0.656,2.297
						c-0.137,0.479-0.361,1.016-0.312,1.515c0.071,0.7,0.582,0.93,0.955,1.347c0.353,0.396,0.716,0.785,1.074,1.176
						c1.12,1.216,2.246,2.426,3.373,3.636c0.425,0.456,0.849,0.91,1.271,1.366c0.103,0.108,0.202,0.216,0.303,0.324
						c0.151,0.16-0.041-0.328-0.041-0.069c0,1.356,0,2.714,0,4.072c0,0.726,0,1.451,0,2.176c0,0.185,0,0.37,0,0.555
						c0,0.258,0.182-0.23,0.05-0.075c-0.699,0.834-1.399,1.67-2.098,2.504c-1.06,1.263-2.118,2.524-3.179,3.787
						c-0.36,0.432-0.721,0.862-1.081,1.291c-0.286,0.343-0.549,0.641-0.624,1.106c-0.201,1.231,1.146,2.062,1.932,2.786
						c1.178,1.084,2.354,2.17,3.53,3.255c0.258,0.235,0.511,0.472,0.768,0.707c0.734,0.676,1.783,0.397,2.412-0.269
						c0.564-0.6,1.264-1.224,1.113-2.143c-0.099-0.591-0.491-0.904-0.901-1.282c-1.169-1.079-2.339-2.159-3.511-3.236
						c0,0.147,0,0.294,0,0.441c0.83-0.979,1.66-1.956,2.489-2.931c0.202-0.237,0.403-0.475,0.608-0.711
						c0.062-0.073,0.124-0.146,0.187-0.218c0.151-0.175,0.045,0.013-0.131-0.006c0.509,0.053,1.017,0.112,1.526,0.173
						c0.792,0.098,1.59,0.196,2.372,0.358c0.119,0.024,0.24,0.053,0.358,0.087c0.201,0.06-0.003,0.059-0.003-0.174
						c0,0.075,0,0.15,0,0.226c0,1.101,0,2.198,0,3.296c0,3.024,0,6.049,0,9.073c0,0.251,0,0.503,0,0.754
						c0,0.959,0.88,1.53,1.756,1.568c0.703,0.031,1.539,0.082,2.122-0.376c0.443-0.348,0.617-0.812,0.617-1.356
						c0-5.065,0-10.13,0-15.195c0-2.618,0-5.239,0-7.859c0-0.595,0-1.191,0-1.787c0-0.15,0-0.3,0-0.449
						c0-0.23-0.058,0.076-0.024,0.019c0.569-0.922,1.139-1.844,1.709-2.766c0.898-1.456,1.797-2.912,2.695-4.367
						c0.237-0.385,0.475-0.768,0.712-1.152C-430.083,38.4-430.168,37.615-430.177,36.979c-0.004-0.401-0.627-0.403-0.624,0
						c0.006,0.545,0.104,1.229-0.194,1.711c-0.229,0.371-0.459,0.742-0.688,1.114c-0.847,1.37-1.692,2.741-2.54,4.113
						c-0.612,0.991-1.223,1.982-1.835,2.973c-0.105,0.17-0.09,0.334-0.09,0.528c0,0.514,0,1.026,0,1.541c0,4.921,0,9.843,0,14.765
						c0,2.87,0,5.74,0,8.61c0,0.464-0.032,0.838-0.483,1.129c-0.345,0.224-0.8,0.171-1.19,0.171c-0.496,0-0.947,0.006-1.337-0.362
						c-0.283-0.271-0.237-0.662-0.237-1.014c0-0.492,0-0.983,0-1.477c0-3.15,0-6.302,0-9.455c0-0.503,0-1.005,0-1.509
						c0-0.166,0.059-0.5-0.046-0.651c-0.26-0.38-1.028-0.396-1.431-0.461c-0.804-0.133-1.615-0.231-2.427-0.325
						c-0.296-0.034-0.94-0.24-1.2-0.016c-0.352,0.305-0.639,0.742-0.938,1.097c-0.81,0.952-1.619,1.905-2.427,2.858
						c-0.106,0.127-0.134,0.32,0,0.442c0.921,0.851,1.845,1.701,2.767,2.553c0.396,0.364,0.791,0.729,1.187,1.093
						c0.796,0.734-0.147,1.593-0.656,2.134c-0.552,0.585-1.188,0.584-1.738,0.079c-0.432-0.399-0.865-0.799-1.296-1.196
						c-1.178-1.085-2.354-2.17-3.531-3.255c-0.255-0.235-0.511-0.472-0.766-0.705c-0.544-0.503-0.206-1.147,0.168-1.591
						c0.861-1.028,1.724-2.056,2.585-3.084c1.007-1.202,2.015-2.403,3.023-3.605c0.254-0.304,0.509-0.606,0.765-0.912
						c0.17-0.203,0.146-0.396,0.146-0.65c0-1.501,0-3.001,0-4.502c0-0.619,0-1.237,0-1.856c0-0.252-0.015-0.411-0.193-0.603
						c-1.9-2.037-3.808-4.069-5.683-6.128c-0.118-0.13-0.239-0.262-0.354-0.394c-0.026-0.031-0.055-0.062-0.081-0.094
						c0.124,0.15-0.04-0.045-0.014-0.019c-0.146-0.146-0.331-0.2-0.462-0.38c-0.34-0.461-0.002-1.187,0.142-1.687
						c0.408-1.427,0.816-2.855,1.224-4.284c0.057-0.2,0.09-0.326,0.229-0.496c0.379-0.462,0.919-0.301,1.375-0.108
						c0.803,0.341,1.709,0.595,1.396,1.689c-0.335,1.177-0.672,2.354-1.008,3.531c-0.075,0.262,0.291,0.533,0.445,0.696
						c0.406,0.434,0.812,0.867,1.218,1.298c0.644,0.688,1.289,1.376,1.934,2.062c0.071,0.077,0.202,0.115,0.303,0.08
						c0.01-0.003-0.065,0.004,0.039-0.003c0.077-0.006,0.152-0.01,0.231-0.013c0.278-0.013,0.554-0.019,0.832-0.024
						c0.795-0.019,1.59-0.029,2.385-0.038c1.328-0.017,2.655-0.028,3.984-0.037c0.339-0.002,0.431-0.278,0.579-0.536
						c0.371-0.635,0.736-1.27,1.103-1.906c0.396-0.688,0.792-1.376,1.181-2.069c0.133-0.234,0.396-0.564,0.396-0.848
						c0-2.495,0-4.989,0-7.484c0-1.498,0-2.995,0-4.492c0-0.788-0.268-2.403,0.945-2.403c0.691,0,1.702-0.202,2.14,0.464
						c0.173,0.263,0.128,0.644,0.128,0.947c0,1.226,0,2.452,0,3.677c0,2.934,0,5.866,0,8.798c0,0.173,0,0.346,0,0.518
						C-430.801,37.38-430.177,37.38-430.177,36.979z"/>
				</g>
			</g>
		</g>
		<g>
			<g>
				<g>
					<path fill="#BCBEC0" d="M-460.724,24.271c0.671,0.034,1.524-0.072,2.153,0.214c0.717,0.328,1,1.39,1.274,2.044
						c0.287,0.684,0.586,1.377,1.112,1.911c0.58,0.588,1.415,0.904,2.158,1.227c0.455,0.199,0.854-0.473,0.394-0.673
						c-0.736-0.32-1.558-0.622-2.114-1.224c-0.616-0.667-0.87-1.674-1.236-2.482c-0.288-0.636-0.678-1.275-1.353-1.545
						c-0.733-0.294-1.617-0.213-2.389-0.251C-461.228,23.465-461.224,24.245-460.724,24.271L-460.724,24.271z"/>
				</g>
			</g>
		</g>
		<g>
			<g>
				<g>
					<path fill="#BCBEC0" d="M-451.256,16.883c0.887,0.493,1.852,0.854,2.692,1.425c0.906,0.617,1.187,1.609,1.299,2.649
						c0.09,0.838,0.068,1.698,0.427,2.48c0.394,0.859,1.351,1.115,2.215,1.171c0.501,0.033,0.498-0.748,0-0.78
						c-0.931-0.058-1.512-0.403-1.705-1.332c-0.182-0.868-0.148-1.77-0.328-2.643c-0.443-2.126-2.537-2.72-4.206-3.644
						C-451.302,15.966-451.697,16.64-451.256,16.883L-451.256,16.883z"/>
				</g>
			</g>
		</g>
		<g>
			<g>
				<g>
					<path fill="#BCBEC0" d="M-422.333,15.625c-0.928,0.428-1.839,0.942-2.431,1.801c-0.508,0.731-0.574,1.676-0.555,2.538
						c0.022,1.013,0.3,2.078,0.01,3.073c-0.284,0.975-1.402,1.149-2.271,1.198c-0.501,0.029-0.502,0.81,0,0.78
						c0.965-0.055,2.045-0.235,2.665-1.06c0.564-0.75,0.55-1.765,0.474-2.657c-0.087-1.019-0.24-2.103,0.133-3.084
						c0.371-0.978,1.489-1.51,2.37-1.916C-421.483,16.088-421.879,15.417-422.333,15.625L-422.333,15.625z"/>
				</g>
			</g>
		</g>
		<g>
			<g>
				<g>
					<path fill="#BCBEC0" d="M-429.087,21.162c1.007,0,1.007-1.56,0-1.56C-430.092,19.604-430.092,21.162-429.087,21.162
						L-429.087,21.162z"/>
				</g>
			</g>
		</g>
		<g>
			<g>
				<g>
					<path fill="#BCBEC0" d="M-444.66,17.747c1.007,0,1.007-1.56,0-1.56C-445.664,16.187-445.664,17.747-444.66,17.747
						L-444.66,17.747z"/>
				</g>
			</g>
		</g>
		<g>
			<g>
				<g>
					<path fill="#BCBEC0" d="M-441.194,25.406c1.005,0,1.005-1.56,0-1.56S-442.199,25.406-441.194,25.406L-441.194,25.406z"/>
				</g>
			</g>
		</g>
		<g>
			<g>
				<g>
					<path fill="#BCBEC0" d="M-451.059,27.385c1.005,0,1.005-1.56,0-1.56C-452.065,25.826-452.065,27.385-451.059,27.385
						L-451.059,27.385z"/>
				</g>
			</g>
		</g>
		<g>
			<g>
				<g>
					<path fill="#BCBEC0" d="M-434.015,14.309c-0.979,0.456-1.636,1.055-1.695,2.175c-0.028,0.573,0.105,1.139,0.064,1.711
						c-0.05,0.667-0.646,0.813-1.217,0.85c-0.397,0.026-0.4,0.649,0,0.624c1.148-0.074,1.854-0.602,1.851-1.798
						c-0.002-0.607-0.152-1.208-0.019-1.811c0.142-0.642,0.788-0.958,1.33-1.212C-433.336,14.677-433.653,14.139-434.015,14.309
						L-434.015,14.309z"/>
				</g>
			</g>
		</g>
	</g>
	<g>
		<g>
			<g>
				<g>
					<path fill="#BCBEC0" d="M-1411.659,29.215c2.955-3.157,3.581-8.059,0.821-11.583c-2.827-3.609-7.651-4.455-11.613-2.23
						c-2.628,1.476-4.864,4.497-6.953,6.58c-8.895,8.862-17.79,17.725-26.685,26.587c-1.655,1.649-3.312,3.3-4.968,4.95
						c-0.754,0.751-1.362,1.282-1.736,2.293c-2.069,5.589-4.139,11.179-6.208,16.77c-0.312,0.842,0.673,1.871,1.529,1.529
						c4.75-1.891,9.499-3.78,14.248-5.67c1.202-0.478,3.409-0.886,4.365-1.845c0.67-0.674,1.338-1.346,2.009-2.02
						c8.485-8.527,16.971-17.054,25.457-25.581C-1418.148,35.736-1414.904,32.476-1411.659,29.215
						c1.133-1.137-0.627-2.896-1.758-1.758c-6.641,6.672-13.281,13.345-19.921,20.017c-4.294,4.315-8.589,8.63-12.883,12.946
						c-1.223,1.228-2.446,2.457-3.668,3.687c-0.23,0.23-0.461,0.463-0.692,0.694c-0.254,0.257,0.79-0.387,0.407-0.232
						c-0.292,0.116-0.585,0.232-0.879,0.351c-5.693,2.265-11.386,4.529-17.079,6.796c0.51,0.51,1.02,1.02,1.529,1.529
						c1.792-4.841,3.584-9.681,5.376-14.521c0.309-0.834,0.617-1.669,0.927-2.501c0.263-0.712-0.59,0.645,0.016,0.041
						c0.938-0.935,1.876-1.869,2.816-2.806c8.7-8.668,17.4-17.336,26.101-26.005c2.775-2.765,5.551-5.531,8.326-8.296
						c1.39-1.383,2.879-2.405,4.939-2.543c5.887-0.396,8.4,6.878,4.686,10.845C-1414.512,28.625-1412.757,30.388-1411.659,29.215z"
						/>
				</g>
			</g>
		</g>
		<g>
			<g>
				<g>
					<path fill="#BCBEC0" d="M-1464.316,63.859c1.945,1.833,3.891,3.665,5.835,5.496c1.165,1.099,2.928-0.656,1.757-1.759
						c-1.945-1.832-3.89-3.663-5.833-5.495C-1463.724,61.003-1465.485,62.757-1464.316,63.859L-1464.316,63.859z"/>
				</g>
			</g>
		</g>
		<g>
			<g>
				<g>
					<path fill="#BCBEC0" d="M-1427.011,21.174c3.632,3.688,7.264,7.376,10.896,11.063c1.126,1.144,2.885-0.616,1.758-1.758
						c-3.632-3.687-7.264-7.374-10.896-11.062C-1426.379,18.273-1428.137,20.032-1427.011,21.174L-1427.011,21.174z"/>
				</g>
			</g>
		</g>
		<g>
			<g>
				<g>
					<path fill="#BCBEC0" d="M-1461.734,56.536c3.702,3.356,7.403,6.714,11.104,10.07c1.184,1.075,2.949-0.679,1.757-1.758
						c-3.702-3.357-7.402-6.714-11.104-10.071C-1461.161,53.704-1462.925,55.458-1461.734,56.536L-1461.734,56.536z"/>
				</g>
			</g>
		</g>
		<g>
			<g>
				<g>
					<path fill="#BCBEC0" d="M-1450.494,60.178c10.23-10.2,20.461-20.402,30.69-30.604c1.137-1.132-0.622-2.891-1.758-1.757
						c-10.23,10.201-20.46,20.4-30.689,30.603C-1453.388,59.553-1451.63,61.31-1450.494,60.178L-1450.494,60.178z"/>
				</g>
			</g>
		</g>
		<g>
			<g>
				<g>
					<path fill="#BCBEC0" d="M-1453.475,57.188c10.298-10.272,20.597-20.545,30.894-30.817c1.137-1.134-0.622-2.893-1.759-1.759
						c-10.298,10.272-20.596,20.544-30.895,30.816C-1456.37,56.562-1454.612,58.32-1453.475,57.188L-1453.475,57.188z"/>
				</g>
			</g>
		</g>
	</g>
	<g>
		<g>
			<g>
				<g>
					<path fill="#BCBEC0" d="M-231.746,64.136c-2.524,1.134-6.068,0.768-8.761,0.766c-3.194-0.002-6.338,0.047-9.439-0.825
						c-6.289-1.77-11.797-6.853-13.473-13.228c-0.857-3.26-0.317-6.678,1.187-9.656c1.68-3.328,4.781-6.737,8.501-7.634
						c4.286-1.036,9.331,1.661,12.448,4.463c0.814,0.73,2.176,0.033,1.87-1.089c-1.661-6.099-5.507-11.724-11.317-14.511
						c-6.391-3.063-14.218-4.157-21.111-2.408c-5.779,1.469-11.271,4.92-15.152,9.404c-3.171,3.664-5.813,7.761-7.589,12.276
						c-1.582,4.02-1.831,8.237-2.637,12.429c-1.27,6.619-6.723,10.641-13.337,10.738c-1.442,0.023-1.445,2.262,0,2.239
						c7.291-0.109,13.288-4.301,15.268-11.407c1.062-3.803,1.085-7.799,2.24-11.606c1.521-5.023,4.549-9.521,7.958-13.457
						c3.997-4.615,9.983-7.849,15.981-8.918c4.686-0.837,9.518,0.032,13.997,1.444c2.123,0.67,3.56,1.219,5.379,2.412
						c4.196,2.746,6.861,7.197,8.16,11.959c0.623-0.363,1.249-0.726,1.872-1.088c-3.871-3.477-9.369-6.048-14.626-5.039
						c-4.045,0.775-7.276,4.457-9.345,7.785c-1.936,3.111-2.752,6.928-2.229,10.551c1.077,7.415,6.846,13.17,13.587,15.891
						c3.504,1.416,7.141,1.474,10.857,1.508c3.303,0.03,7.508,0.43,10.605-0.959c0.079-0.037,0.155-0.07,0.233-0.106
						C-229.302,65.479-230.442,63.552-231.746,64.136L-231.746,64.136z"/>
				</g>
			</g>
		</g>
		<g>
			<g>
				<g>
					<path fill="#BCBEC0" d="M-288.875,44.263c3.449-7.562,9.817-15.9,18.25-17.899c1.403-0.332,0.808-2.49-0.596-2.158
						c-8.984,2.129-15.902,10.847-19.588,18.927C-291.401,44.438-289.474,45.574-288.875,44.263L-288.875,44.263z"/>
				</g>
			</g>
		</g>
	</g>
	<g id="Isolation_Mode">
		<g>
			<g>
				<g>
					<g>
						<g>
							<path fill="#BCBEC0" d="M-1319.979,14.179c-6.764,0.093-12.872,3.689-16.207,9.581c0.556,0,1.111,0,1.669,0
								c-5.009-8.83-16.213-12.173-25.113-7.142c-4.552,2.573-7.772,7.182-8.967,12.224c-1.262,5.324,0.011,11.512,2.426,16.344
								c0.15,0.299,0.513,0.479,0.835,0.479c4.786,0,9.573,0,14.359,0c0.334,0,0.669-0.182,0.835-0.479
								c0.886-1.595,1.771-3.19,2.656-4.787c0.338-0.611,1.117-2.45,2.041-1.151c0.259,0.366,0.45,0.807,0.668,1.198
								c1.791,3.201,3.583,6.404,5.373,9.607c0.334,0.596,1.355,0.664,1.668,0c2.979-6.266,5.956-12.533,8.934-18.8
								c0.389-0.818,1.415-2.273,1.995-0.673c0.55,1.511,1.097,3.021,1.646,4.531c1.19,3.279,2.38,6.557,3.571,9.836
								c0.147,0.408,0.475,0.71,0.93,0.71c5.093,0,10.187,0,15.28,0c0.321,0,0.688-0.18,0.836-0.479
								c3.268-6.633,4.081-14.654,0.542-21.313C-1307.1,18.028-1313.413,14.274-1319.979,14.179c-1.246-0.019-1.245,1.915,0,1.932
								c5.874,0.086,11.063,3.339,14.079,8.321c3.589,5.934,2.65,13.764-0.309,19.772c0.278-0.16,0.556-0.32,0.834-0.479
								c-5.091,0-10.186,0-15.279,0c0.31,0.237,0.621,0.472,0.931,0.71c-1.323-3.646-2.647-7.292-3.971-10.94
								c-0.448-1.235-0.897-2.472-1.346-3.708c-0.818-2.252-3.998-2.516-5.051-0.298c-3.103,6.529-6.206,13.06-9.308,19.59
								c0.556,0,1.11,0,1.668,0c-1.987-3.554-3.973-7.105-5.96-10.659c-1.242-2.221-3.922-1.768-5.042,0.248
								c-1.026,1.847-2.051,3.694-3.077,5.542c0.279-0.16,0.556-0.32,0.836-0.479c-4.786,0-9.572,0-14.36,0
								c0.279,0.159,0.558,0.32,0.835,0.479c-2.144-4.287-3.16-9.585-2.34-14.319c0.815-4.706,3.804-8.829,7.794-11.369
								c7.91-5.036,18.368-1.71,22.862,6.211c0.355,0.627,1.313,0.628,1.669,0c3.002-5.304,8.438-8.541,14.536-8.625
								C-1318.733,16.095-1318.732,14.161-1319.979,14.179z"/>
						</g>
					</g>
					<g>
						<g>
							<path fill="#BCBEC0" d="M-1319.979,16.111c1.246,0,1.246-1.932,0-1.932C-1321.226,14.179-1321.226,16.111-1319.979,16.111
								L-1319.979,16.111z"/>
						</g>
					</g>
				</g>
				<g>
					<g>
						<g>
							<path fill="#BCBEC0" d="M-1323.855,48.233c-1.088-3.002-2.175-6.002-3.264-9.005c-0.256-0.708-1.375-1.053-1.767-0.231
								c-2.687,5.656-5.375,11.314-8.062,16.971c-0.274,0.579-1.188,2.895-2.058,1.34c-0.571-1.024-1.146-2.049-1.718-3.073
								c-1.521-2.721-3.045-5.444-4.567-8.166c-0.35-0.628-1.318-0.63-1.669,0c-0.516,0.927-1.011,2.617-2.271,2.617
								c-1.461,0-2.921,0-4.384,0c-2.845,0-5.69,0-8.536,0c-0.672,0-1.283,0.844-0.834,1.453c4.19,5.679,9.422,10.519,14.825,15.022
								c2.311,1.929,4.685,3.78,7.096,5.582c1.641,1.229,3.615,3.216,5.723,3.427c1.776,0.178,4.134-2.249,5.443-3.221
								c2.385-1.771,4.724-3.605,7.017-5.496c5.543-4.564,10.908-9.52,15.185-15.314c0.449-0.609-0.162-1.454-0.836-1.454
								c-2.432,0-4.865,0-7.298,0c-1.672,0-3.345,0-5.018,0c-0.914,0-2.568,0.371-3.107-0.683c-0.566-1.109-2.234-0.132-1.669,0.976
								c0.715,1.401,1.934,1.64,3.349,1.64c1.616,0,3.232,0,4.848,0c2.964,0,5.932,0,8.896,0c-0.279-0.485-0.556-0.97-0.834-1.454
								c-3.899,5.281-8.802,9.8-13.8,14.021c-2.23,1.883-4.52,3.694-6.849,5.453c-0.878,0.663-1.763,1.314-2.653,1.96
								c-0.727,0.526-1.747,1.547-2.673,1.641c-0.723,0.071-1.895-1.076-2.443-1.472c-0.87-0.627-1.733-1.264-2.592-1.905
								c-2.308-1.728-4.566-3.521-6.779-5.367c-5.139-4.285-10.177-8.927-14.163-14.33c-0.278,0.484-0.558,0.97-0.835,1.454
								c3.243,0,6.489,0,9.733,0c1.175,0,2.35,0,3.525,0c2.027,0,2.776-2.088,3.601-3.573c-0.557,0-1.112,0-1.669,0
								c1.657,2.963,3.314,5.925,4.971,8.888c0.535,0.959,1.147,2.653,2.147,3.258c1.575,0.951,3.337,0.332,4.109-1.291
								c2.837-5.974,5.676-11.95,8.516-17.926c-0.589-0.076-1.177-0.153-1.767-0.23c1.088,3.002,2.176,6.003,3.265,9.005
								C-1325.298,49.91-1323.43,49.409-1323.855,48.233z"/>
						</g>
					</g>
					<g>
						<g>
							<path fill="#BCBEC0" d="M-1324.788,49.458c1.246,0,1.246-1.935,0-1.935S-1326.034,49.458-1324.788,49.458L-1324.788,49.458z"
								/>
						</g>
					</g>
				</g>
			</g>
			<g>
				<g>
					<g>
						<path fill="#BCBEC0" d="M-1366.168,45.188c1.06,1.65,2.121,3.302,3.182,4.951c0.672,1.045,2.346,0.078,1.669-0.976
							c-1.062-1.649-2.123-3.3-3.184-4.951C-1365.171,43.166-1366.844,44.134-1366.168,45.188L-1366.168,45.188z"/>
					</g>
				</g>
			</g>
			<g>
				<g>
					<g>
						<path fill="#BCBEC0" d="M-1307.696,50.139c1.06-1.668,2.118-3.334,3.177-5c0.671-1.057-1.002-2.023-1.669-0.977
							c-1.059,1.667-2.117,3.335-3.176,5.001C-1310.035,50.219-1308.361,51.188-1307.696,50.139L-1307.696,50.139z"/>
					</g>
				</g>
			</g>
		</g>
	</g>
</g>
</svg>
