<?xml version="1.0" encoding="utf-8"?>
<!-- Generator: Adobe Illustrator 15.0.0, SVG Export Plug-In . SVG Version: 6.00 Build 0)  -->
<!DOCTYPE svg PUBLIC "-//W3C//DTD SVG 1.1//EN" "http://www.w3.org/Graphics/SVG/1.1/DTD/svg11.dtd">
<svg version="1.1" id="Layer_1" xmlns="http://www.w3.org/2000/svg" xmlns:xlink="http://www.w3.org/1999/xlink" x="0px" y="0px"
	 width="150px" height="150px" viewBox="0 0 150 150" enable-background="new 0 0 150 150" xml:space="preserve">
<path fill="#39B54A" d="M150,75c0,41.421-33.579,75-75,75S0,116.421,0,75C0,33.579,33.579,0,75,0S150,33.579,150,75"/>
<path fill="#FFFFFF" d="M75,99.499c-17.525,0-31.783-14.258-31.783-31.783S57.475,35.932,75,35.932s31.783,14.258,31.783,31.784
	S92.525,99.499,75,99.499 M75,39.797c-15.395,0-27.918,12.524-27.918,27.918c0,15.394,12.523,27.917,27.918,27.917
	s27.918-12.523,27.918-27.917C102.918,52.321,90.395,39.797,75,39.797"/>
<path fill="#FFFFFF" d="M93.25,82.394c-0.892-1.49-1.786-2.981-2.683-4.468c-0.241-0.404-0.649-0.514-1.086-0.44
	c-4.168,0.659-7.337,4.154-9.477,7.922l-0.028-6.994c0-0.528-0.437-0.965-0.963-0.965h-7.146c-0.528,0-0.965,0.437-0.965,0.965
	v7.172c-2.23-3.219-5.667-5.663-9.326-6.94c-0.291-0.1-0.736,0.004-0.937,0.25c-1.25,1.546-2.501,3.096-3.755,4.646
	c-0.341,0.427-0.427,1.245,0.195,1.509c5.414,2.309,8.214,7.495,8.81,13.159c0.204,1.959,0.1,3.973,0.1,5.937v25.204
	c0,0.273,0.091,0.487,0.236,0.637c0.005,0.005,0.005,0.005,0.009,0.009c0.005,0.005,0.01,0.009,0.015,0.019
	c0.154,0.178,0.386,0.3,0.699,0.3h16.532c0.527,0,0.964-0.44,0.964-0.964v-24.014c0-3.641-0.306-7.522,0.572-11.067
	c1.046-4.236,3.922-8.228,7.705-10.455c0.059-0.032,0.123-0.068,0.181-0.1C93.363,83.467,93.513,82.83,93.25,82.394"/>
</svg>
