<?xml version="1.0" encoding="utf-8"?>
<!-- Generator: Adobe Illustrator 15.0.0, SVG Export Plug-In . SVG Version: 6.00 Build 0)  -->
<!DOCTYPE svg PUBLIC "-//W3C//DTD SVG 1.1//EN" "http://www.w3.org/Graphics/SVG/1.1/DTD/svg11.dtd">
<svg version="1.1" id="Layer_1" xmlns="http://www.w3.org/2000/svg" xmlns:xlink="http://www.w3.org/1999/xlink" x="0px" y="0px"
	 width="150px" height="150px" viewBox="0 0 150 150" enable-background="new 0 0 150 150" xml:space="preserve">
<path fill="#FFFFFF" d="M80.57,58.772c-0.063,3.782-3.073,6.791-6.858,6.854c-3.782,0.064-6.796-3.164-6.855-6.854
	c-0.063-3.786,3.164-6.795,6.855-6.859C77.497,51.849,80.507,55.081,80.57,58.772"/>
<path fill="#FFFFFF" d="M74.838,50.936c-3.867-0.582-7.526,1.873-8.709,5.541c-1.204,3.741,0.791,7.85,4.277,9.491
	c3.559,1.677,7.773,0.314,9.94-2.868c0.859-1.264,1.255-2.795,1.287-4.309v-0.036C81.561,54.845,78.729,51.518,74.838,50.936
	 M73.712,65.626c-3.782,0.064-6.796-3.164-6.855-6.854c-0.063-3.786,3.164-6.795,6.855-6.859c3.785-0.064,6.795,3.168,6.858,6.859
	C80.507,62.554,77.497,65.563,73.712,65.626"/>
<path fill="#FFFFFF" d="M91.111,64.522c-0.392,0.636-0.782,1.268-1.173,1.9c-1.445,2.341-2.892,4.677-4.336,7.018
	c-1.041,1.691-2.088,3.382-3.132,5.074c-0.178,0.289-0.151,0.568-0.151,0.9v42.504c0,0.789-0.054,1.426-0.821,1.926
	c-0.592,0.377-1.364,0.291-2.033,0.291c-0.845,0-1.617,0.01-2.281-0.617c-0.481-0.463-0.404-1.131-0.404-1.732v-21.223
	c0-0.281,0.101-0.85-0.077-1.109c-0.446-0.645-1.755-0.672-2.44-0.785c-1.374-0.227-2.76-0.396-4.142-0.555
	c-0.505-0.061-1.604-0.41-2.05-0.027c-0.6,0.521-1.086,1.268-1.601,1.867c-1.381,1.627-2.764,3.254-4.14,4.883
	c-0.183,0.213-0.229,0.545,0,0.75c1.572,1.455,3.145,2.904,4.723,4.355c0.672,0.621,1.349,1.244,2.021,1.867
	c1.359,1.254-0.249,2.719-1.122,3.641c-0.94,0.994-2.027,0.99-2.963,0.127c-0.737-0.678-1.474-1.359-2.21-2.035
	c-2.009-1.852-4.014-3.705-6.022-5.555c-0.438-0.4-0.873-0.807-1.31-1.205c-0.927-0.855-0.35-1.955,0.287-2.713
	c1.472-1.75,2.94-3.506,4.413-5.26l5.155-6.15c0.436-0.518,0.867-1.035,1.305-1.555c0.289-0.35,0.249-0.678,0.249-1.113V79.145
	c0-0.432-0.027-0.699-0.331-1.027c-3.241-3.477-6.491-6.941-9.697-10.455c-0.199-0.223-0.403-0.445-0.598-0.668
	c-0.033-0.036-0.065-0.068-0.097-0.104c-0.005-0.005-0.009-0.014-0.019-0.023c-0.026-0.032-0.054-0.063-0.054-0.068
	c-0.25-0.246-0.56-0.341-0.782-0.646c-0.582-0.791-0.004-2.022,0.24-2.877c0.696-2.437,1.392-4.873,2.087-7.309
	c0.096-0.341,0.15-0.555,0.391-0.845c0.646-0.791,1.563-0.514,2.341-0.187c1.378,0.582,2.923,1.018,2.387,2.882
	c-0.572,2.009-1.146,4.018-1.718,6.027c-0.128,0.445,0.496,0.909,0.759,1.187c0.69,0.741,1.382,1.477,2.077,2.218
	c1.101,1.168,2.2,2.34,3.3,3.514c0.123,0.132,0.346,0.2,0.519,0.141c0-0.005-0.005-0.005-0.015-0.005c0.015,0,0.041,0,0.078-0.004
	c0.132-0.01,0.264-0.014,0.396-0.023c0.472-0.018,0.945-0.026,1.418-0.041c1.354-0.031,2.713-0.05,4.067-0.063
	c2.264-0.027,4.531-0.05,6.796-0.063c0.577-0.005,0.735-0.473,0.991-0.914c0.627-1.082,1.254-2.167,1.881-3.254
	c0.678-1.173,1.35-2.346,2.014-3.527c0.223-0.4,0.673-0.963,0.673-1.45V41.131c0-1.345-0.454-4.1,1.614-4.1
	c1.177,0,2.904-0.346,3.65,0.791c0.295,0.45,0.217,1.1,0.217,1.613v22.159v0.01C91.452,62.536,91.62,63.699,91.111,64.522"/>
<path fill="#FFFFFF" d="M92.506,41.731c0-1.254,0.265-2.923-0.208-4.127c-0.587-1.496-2.041-1.637-3.423-1.637
	c-1.437,0-2.731-0.027-3.614,1.318c-0.687,1.041-0.364,3.032-0.364,4.2v20.008c-0.004,0.019-0.017,0.037-0.026,0.06
	c-0.122,0.236-0.255,0.473-0.386,0.705c-1.374,2.482-2.81,4.932-4.236,7.386c-2.032,0.01-4.074,0.027-6.104,0.051
	c-1.492,0.018-2.978,0.036-4.469,0.067c-0.582,0.015-1.354-0.082-1.982,0.036c-1.858-1.981-3.723-3.967-5.582-5.949
	c0.542-1.901,1.087-3.805,1.628-5.705c0.4-1.4,0.06-2.891-1.404-3.513c-1.073-0.451-2.3-1.209-3.5-1.078
	c-1.195,0.136-1.946,1.045-2.255,2.131c-0.322,1.128-0.646,2.259-0.969,3.387c-0.371,1.309-0.745,2.613-1.117,3.922
	c-0.236,0.818-0.619,1.732-0.531,2.582c0.118,1.196,0.99,1.586,1.627,2.296c0.6,0.677,1.218,1.341,1.831,2.008
	c1.914,2.074,3.832,4.137,5.754,6.202c0.723,0.777,1.447,1.553,2.174,2.33c0.146,0.16,0.295,0.318,0.445,0.479v11.531
	c-1.164,1.391-2.331,2.781-3.496,4.174c-1.809,2.154-3.613,4.309-5.423,6.463c-0.613,0.73-1.227,1.469-1.845,2.199
	c-0.486,0.582-0.937,1.092-1.063,1.887c-0.342,2.104,1.954,3.52,3.296,4.756c2.004,1.85,4.013,3.699,6.022,5.553
	c0.437,0.4,0.872,0.801,1.309,1.205c1.25,1.154,3.041,0.678,4.113-0.459c0.964-1.023,2.154-2.086,1.896-3.654
	c-0.168-1.006-0.836-1.545-1.531-2.188c-1.878-1.73-3.755-3.459-5.632-5.195c1.295-1.525,2.586-3.049,3.887-4.576
	c0.346-0.404,0.69-0.809,1.035-1.209c0.102-0.123,0.205-0.242,0.306-0.359c0.8,0.082,1.596,0.174,2.395,0.271
	c1.354,0.164,2.71,0.332,4.046,0.609c0.21,0.041,0.409,0.092,0.608,0.15v22.473c0,1.637,1.501,2.613,2.996,2.678
	c1.2,0.049,2.623,0.137,3.618-0.641c0.755-0.596,1.056-1.387,1.056-2.318V79.062c0.953-1.549,1.912-3.1,2.871-4.649
	c1.532-2.487,3.064-4.97,4.601-7.451c0.405-0.654,0.81-1.313,1.213-1.968c0.597-0.964,0.451-2.305,0.437-3.391V41.731z
	 M91.111,64.522c-0.392,0.636-0.782,1.268-1.173,1.9c-1.445,2.341-2.892,4.677-4.336,7.018c-1.041,1.691-2.088,3.382-3.132,5.074
	c-0.178,0.289-0.151,0.568-0.151,0.9v42.504c0,0.789-0.054,1.426-0.821,1.926c-0.592,0.377-1.364,0.291-2.033,0.291
	c-0.845,0-1.617,0.01-2.281-0.617c-0.481-0.463-0.404-1.131-0.404-1.732v-21.223c0-0.281,0.101-0.85-0.077-1.109
	c-0.446-0.645-1.755-0.672-2.44-0.785c-1.374-0.227-2.76-0.396-4.142-0.555c-0.505-0.061-1.604-0.41-2.05-0.027
	c-0.6,0.521-1.086,1.268-1.601,1.867c-1.381,1.627-2.764,3.254-4.14,4.883c-0.183,0.213-0.229,0.545,0,0.75
	c1.572,1.455,3.145,2.904,4.723,4.355c0.672,0.621,1.349,1.244,2.021,1.867c1.359,1.254-0.249,2.719-1.122,3.641
	c-0.94,0.994-2.027,0.99-2.963,0.127c-0.737-0.678-1.474-1.359-2.21-2.035c-2.009-1.852-4.014-3.705-6.022-5.555
	c-0.438-0.4-0.873-0.807-1.31-1.205c-0.927-0.855-0.35-1.955,0.287-2.713c1.472-1.75,2.94-3.506,4.413-5.26l5.155-6.15
	c0.436-0.518,0.867-1.035,1.305-1.555c0.289-0.35,0.249-0.678,0.249-1.113V79.145c0-0.432-0.027-0.699-0.331-1.027
	c-3.241-3.477-6.491-6.941-9.697-10.455c-0.199-0.223-0.403-0.445-0.598-0.668c-0.033-0.036-0.065-0.068-0.097-0.104
	c-0.005-0.005-0.009-0.014-0.019-0.023c-0.026-0.032-0.054-0.063-0.054-0.068c-0.25-0.246-0.56-0.341-0.782-0.646
	c-0.582-0.791-0.004-2.022,0.24-2.877c0.696-2.437,1.392-4.873,2.087-7.309c0.096-0.341,0.15-0.555,0.391-0.845
	c0.646-0.791,1.563-0.514,2.341-0.187c1.378,0.582,2.923,1.018,2.387,2.882c-0.572,2.009-1.146,4.018-1.718,6.027
	c-0.128,0.445,0.496,0.909,0.759,1.187c0.69,0.741,1.382,1.477,2.077,2.218c1.101,1.168,2.2,2.34,3.3,3.514
	c0.123,0.132,0.346,0.2,0.519,0.141c0-0.005-0.005-0.005-0.015-0.005c0.015,0,0.041,0,0.078-0.004
	c0.132-0.01,0.264-0.014,0.396-0.023c0.472-0.018,0.945-0.026,1.418-0.041c1.354-0.031,2.713-0.05,4.067-0.063
	c2.264-0.027,4.531-0.05,6.796-0.063c0.577-0.005,0.735-0.473,0.991-0.914c0.627-1.082,1.254-2.167,1.881-3.254
	c0.678-1.173,1.35-2.346,2.014-3.527c0.223-0.4,0.673-0.963,0.673-1.45V41.131c0-1.345-0.454-4.1,1.614-4.1
	c1.177,0,2.904-0.346,3.65,0.791c0.295,0.45,0.217,1.1,0.217,1.613v22.159v0.01C91.452,62.536,91.62,63.699,91.111,64.522"/>
<path fill="#FFFFFF" d="M40.393,39.925c1.145,0.058,2.602-0.124,3.674,0.365c1.224,0.559,1.706,2.372,2.175,3.487
	c0.49,1.165,0.999,2.349,1.899,3.261c0.989,1.004,2.416,1.54,3.681,2.093c0.777,0.34,1.455-0.806,0.671-1.149
	c-1.255-0.547-2.655-1.061-3.605-2.088c-1.054-1.137-1.486-2.855-2.111-4.235c-0.492-1.085-1.155-2.173-2.308-2.634
	c-1.249-0.501-2.757-0.363-4.075-0.43C39.536,38.552,39.54,39.882,40.393,39.925"/>
<path fill="#FFFFFF" d="M56.545,27.323c1.513,0.839,3.161,1.456,4.596,2.432c1.546,1.053,2.023,2.746,2.215,4.519
	c0.152,1.43,0.116,2.899,0.727,4.232c0.672,1.463,2.306,1.903,3.775,1.998c0.858,0.055,0.853-1.276,0-1.33
	c-1.584-0.102-2.574-0.688-2.906-2.273c-0.311-1.48-0.25-3.019-0.561-4.508c-0.755-3.627-4.327-4.638-7.174-6.217
	C56.467,25.758,55.795,26.907,56.545,27.323"/>
<path fill="#FFFFFF" d="M105.889,25.179c-1.583,0.73-3.139,1.606-4.15,3.069c-0.863,1.25-0.978,2.86-0.944,4.33
	c0.04,1.728,0.513,3.544,0.018,5.243c-0.484,1.662-2.395,1.96-3.877,2.045c-0.853,0.049-0.857,1.379,0,1.33
	c1.646-0.094,3.492-0.402,4.548-1.806c0.964-1.281,0.938-3.011,0.808-4.534c-0.148-1.738-0.409-3.586,0.227-5.261
	c0.633-1.666,2.542-2.575,4.043-3.268C107.337,25.968,106.661,24.822,105.889,25.179"/>
<path fill="#FFFFFF" d="M94.365,34.624c1.716,0,1.716-2.661,0-2.661C92.65,31.963,92.65,34.624,94.365,34.624"/>
<path fill="#FFFFFF" d="M67.801,28.797c1.714,0,1.714-2.661,0-2.661C66.085,26.136,66.085,28.797,67.801,28.797"/>
<path fill="#FFFFFF" d="M73.712,41.861c1.717,0,1.717-2.661,0-2.661C71.998,39.201,71.998,41.861,73.712,41.861"/>
<path fill="#FFFFFF" d="M56.88,45.239c1.717,0,1.717-2.66,0-2.66C55.165,42.579,55.165,45.239,56.88,45.239"/>
<path fill="#FFFFFF" d="M85.958,22.931c-1.667,0.779-2.79,1.8-2.892,3.712c-0.051,0.976,0.178,1.942,0.107,2.918
	c-0.082,1.138-1.101,1.387-2.072,1.449c-0.681,0.044-0.686,1.108,0,1.064c1.96-0.127,3.162-1.027,3.154-3.069
	c-0.003-1.035-0.261-2.06-0.031-3.089c0.242-1.094,1.344-1.635,2.271-2.067C87.116,23.56,86.576,22.642,85.958,22.931"/>
<path fill="#00A79D" d="M150,75c0,41.421-33.579,75-75,75c-41.422,0-75-33.579-75-75C0,33.578,33.578,0,75,0
	C116.421,0,150,33.578,150,75"/>
<path fill="#FFFFFF" d="M125.821,94.926c-1.404,0.632-3.068,0.877-4.772,0.964h-4.046c-0.641-0.019-1.269-0.031-1.859-0.031
	c-3.891,0-7.728,0.059-11.503-1.005c-7.665-2.159-14.384-8.35-16.424-16.123c-1.041-3.973-0.387-8.141,1.445-11.768
	c2.051-4.06,5.832-8.213,10.363-9.309c5.223-1.259,11.373,2.027,15.173,5.441c0.991,0.891,2.649,0.041,2.278-1.327
	c-2.028-7.432-6.71-14.287-13.796-17.687c-7.786-3.737-17.328-5.068-25.732-2.932c-7.041,1.786-13.731,5.995-18.463,11.459
	c-3.868,4.468-7.086,9.459-9.25,14.963c-1.926,4.9-2.231,10.041-3.213,15.15c-1.551,8.068-8.195,12.968-16.26,13.091
	c-0.241,0.004-0.445,0.059-0.618,0.149c-0.477,0.173-0.822,0.65-0.822,1.215c0,0.545,0.318,1.009,0.768,1.199
	c0.186,0.101,0.408,0.168,0.672,0.163c0.505-0.009,1-0.036,1.492-0.072h78.214c1.494,0.082,2.999,0.1,4.521,0.113
	c4.022,0.036,9.146,0.527,12.923-1.167c0.096-0.046,0.191-0.087,0.286-0.133C128.799,96.562,127.412,94.212,125.821,94.926
	 M39.794,95.89c4.092-2.351,7.173-6.196,8.582-11.255c1.292-4.636,1.323-9.504,2.728-14.145c1.854-6.123,5.545-11.604,9.699-16.405
	c4.873-5.627,12.168-9.568,19.482-10.873c5.709-1.019,11.6,0.041,17.059,1.764c2.587,0.818,4.337,1.486,6.556,2.94
	c3.867,2.528,6.663,6.246,8.486,10.418c-4.205-2.664-9.228-4.241-14.087-3.309c-4.927,0.945-8.868,5.432-11.387,9.486
	c-2.358,3.796-3.359,8.445-2.719,12.864c1.21,8.327,7.273,14.932,14.646,18.514H39.794z"/>
<path fill="#FFFFFF" d="M98.299,55.026c4.859-0.932,9.882,0.646,14.087,3.309c-1.823-4.173-4.619-7.891-8.487-10.418
	c-2.218-1.454-3.968-2.122-6.555-2.94c-5.459-1.723-11.35-2.782-17.059-1.764c-7.314,1.305-14.61,5.245-19.482,10.873
	c-4.154,4.8-7.846,10.282-9.699,16.405c-1.405,4.641-1.437,9.509-2.728,14.145c-1.41,5.059-4.491,8.904-8.583,11.255H98.84
	c-7.373-3.582-13.437-10.187-14.646-18.514c-0.641-4.418,0.36-9.068,2.719-12.864C89.431,60.458,93.372,55.971,98.299,55.026
	 M78.435,48.889c-10.277,2.432-18.041,12.596-22.246,21.814c-0.727,1.6-3.077,0.209-2.354-1.377
	c4.491-9.846,12.923-20.473,23.872-23.068C79.421,45.854,80.144,48.48,78.435,48.889"/>
<path fill="#00A79D" d="M78.435,48.889c-10.277,2.432-18.041,12.596-22.246,21.814c-0.727,1.6-3.077,0.209-2.354-1.377
	c4.491-9.846,12.923-20.473,23.872-23.068C79.421,45.854,80.144,48.48,78.435,48.889"/>
</svg>
